<?xml version="1.0" standalone="no"?>
<!DOCTYPE svg PUBLIC "-//W3C//DTD SVG 20010904//EN"
 "http://www.w3.org/TR/2001/REC-SVG-20010904/DTD/svg10.dtd">
<svg version="1.0" xmlns="http://www.w3.org/2000/svg"
 width="1287.000000pt" height="411.000000pt" viewBox="0 0 1287.000000 411.000000"
 preserveAspectRatio="xMidYMid meet">

<g transform="translate(0.000000,411.000000) scale(0.100000,-0.100000)"
fill="#000000" stroke="none">
<path d="M270 3813 c0 -54 -3 -452 -6 -885 l-6 -788 6196 0 6196 0 0 885 0
885 -6190 0 -6190 0 0 -97z m238 -786 l2 -867 -115 0 -115 0 0 865 0 864 63 3
c34 2 85 3 112 3 l50 -1 3 -867z m247 861 c7 -4 10 -148 9 -430 -1 -233 -2
-620 -3 -860 l-1 -438 -115 0 -115 0 0 865 0 864 63 3 c94 5 151 3 162 -4z
m11885 -863 l0 -865 -2715 0 c-2579 0 -2715 1 -2716 18 -1 16 -2 16 -6 0 -4
-17 -166 -18 -3214 -18 l-3209 0 0 865 0 865 5930 0 5930 0 0 -865z"/>
<path d="M350 3790 c0 -5 16 -10 35 -10 19 0 35 5 35 10 0 6 -16 10 -35 10
-19 0 -35 -4 -35 -10z"/>
<path d="M360 3320 c0 -5 18 -10 40 -10 22 0 40 5 40 10 0 6 -18 10 -40 10
-22 0 -40 -4 -40 -10z"/>
<path d="M394 3266 c-3 -14 -12 -26 -20 -26 -8 0 -14 -4 -14 -10 0 -5 18 -10
41 -10 39 0 40 1 37 32 -4 42 -34 51 -44 14z m36 -11 c0 -8 -4 -15 -10 -15 -5
0 -10 7 -10 15 0 8 5 15 10 15 6 0 10 -7 10 -15z"/>
<path d="M366 3193 c-3 -3 -6 -19 -6 -35 0 -26 3 -28 41 -28 39 0 40 1 37 32
-3 28 -7 33 -34 35 -17 1 -34 0 -38 -4z m20 -40 c-10 -10 -19 5 -10 18 6 11 8
11 12 0 2 -7 1 -15 -2 -18z m44 12 c0 -8 -4 -15 -10 -15 -5 0 -10 7 -10 15 0
8 5 15 10 15 6 0 10 -7 10 -15z"/>
<path d="M360 3100 c0 -5 18 -10 40 -10 22 0 40 5 40 10 0 6 -18 10 -40 10
-22 0 -40 -4 -40 -10z"/>
<path d="M394 3046 c-3 -14 -12 -26 -20 -26 -8 0 -14 -4 -14 -10 0 -5 18 -10
41 -10 39 0 40 1 37 32 -4 42 -34 51 -44 14z m36 -11 c0 -8 -4 -15 -10 -15 -5
0 -10 7 -10 15 0 8 5 15 10 15 6 0 10 -7 10 -15z"/>
<path d="M363 2953 c-3 -8 -1 -19 6 -26 8 -8 11 -7 11 4 0 8 10 15 24 15 18 1
23 -2 19 -14 -4 -10 -2 -13 6 -8 7 4 11 15 9 24 -4 22 -67 26 -75 5z"/>
<path d="M360 2870 c0 -16 5 -30 10 -30 6 0 10 5 10 10 0 6 14 10 30 10 17 0
30 5 30 10 0 6 -13 10 -30 10 -16 0 -30 5 -30 10 0 6 -4 10 -10 10 -5 0 -10
-13 -10 -30z"/>
<path d="M346 2814 c-46 -46 15 -106 75 -74 12 7 19 21 19 40 0 46 -61 68 -94
34z m69 -34 c0 -20 -6 -26 -28 -28 -29 -4 -44 16 -33 44 4 10 15 14 33 12 22
-2 28 -8 28 -28z"/>
<path d="M600 3790 c0 -5 16 -10 35 -10 19 0 35 5 35 10 0 6 -16 10 -35 10
-19 0 -35 -4 -35 -10z"/>
<path d="M610 3260 c0 -16 5 -30 10 -30 6 0 10 5 10 10 0 6 14 10 30 10 17 0
30 5 30 10 0 6 -13 10 -30 10 -16 0 -30 5 -30 10 0 6 -4 10 -10 10 -5 0 -10
-13 -10 -30z"/>
<path d="M610 3210 c0 -5 7 -10 15 -10 8 0 15 -7 15 -15 0 -8 -7 -15 -15 -15
-8 0 -15 -4 -15 -10 0 -5 18 -10 40 -10 22 0 40 5 40 10 0 6 -7 10 -15 10 -8
0 -15 7 -15 15 0 8 7 15 15 15 8 0 15 5 15 10 0 6 -18 10 -40 10 -22 0 -40 -4
-40 -10z"/>
<path d="M620 3105 c-17 -20 3 -45 37 -45 26 0 39 21 28 48 -7 15 -9 14 -15
-8 -8 -24 -8 -24 -9 -2 -1 25 -23 29 -41 7z"/>
<path d="M610 3031 c0 -5 10 -16 23 -24 l22 -16 -22 0 c-41 -1 -24 -21 17 -21
45 0 51 11 18 34 l-22 16 22 0 c12 0 22 5 22 10 0 6 -18 10 -40 10 -22 0 -40
-4 -40 -9z"/>
<path d="M610 2925 c0 -30 3 -35 24 -35 13 0 31 -3 40 -6 11 -4 16 -1 16 10 0
11 -9 16 -30 16 -20 0 -30 5 -30 15 0 10 10 15 30 15 17 0 30 5 30 10 0 6 -18
10 -40 10 -39 0 -40 -1 -40 -35z"/>
<path d="M580 2845 c0 -9 12 -21 28 -27 l27 -12 -27 -4 c-49 -6 -30 -22 27
-22 57 0 76 16 28 22 l-28 4 28 14 c15 7 27 19 27 27 0 11 -5 11 -29 -2 -29
-15 -61 -12 -61 6 0 5 -4 9 -10 9 -5 0 -10 -7 -10 -15z"/>
<path d="M1953 3511 c-58 -36 -63 -58 -63 -281 l0 -200 -50 25 -51 26 7 -26 6
-25 -75 0 -74 0 -5 44 c-7 62 -42 128 -95 181 -60 58 -130 85 -227 85 -174 0
-306 -133 -306 -307 0 -96 27 -166 85 -226 71 -71 122 -92 230 -92 78 0 97 4
140 27 91 48 159 140 172 233 l6 45 73 0 c41 0 74 -3 74 -6 0 -3 -5 -14 -10
-25 -14 -25 -9 -24 50 6 l50 25 0 -197 c0 -225 7 -254 70 -285 32 -16 74 -18
438 -18 445 0 444 0 482 63 18 29 20 51 20 235 l0 202 75 0 c41 0 75 -3 75 -6
0 -3 -5 -14 -10 -25 -14 -25 -9 -24 50 6 l50 25 0 -197 c0 -225 7 -254 70
-285 32 -16 74 -18 438 -18 445 0 444 0 482 63 18 29 20 51 20 235 l0 202 75
0 c41 0 75 -3 75 -6 0 -3 -5 -14 -10 -25 -14 -25 -9 -24 50 6 l50 25 0 -197
c0 -225 7 -254 70 -285 32 -16 74 -18 438 -18 445 0 444 0 482 63 18 29 20 51
20 235 l0 202 75 0 c41 0 75 -3 75 -6 0 -3 -5 -14 -10 -25 -14 -25 -9 -24 50
6 l50 25 0 -197 c0 -225 7 -254 70 -285 32 -16 74 -18 440 -18 536 0 500 -21
500 300 l0 200 75 0 c41 0 75 -3 75 -6 0 -3 -5 -14 -10 -25 -14 -25 -9 -24 49
6 l49 24 6 -42 c21 -131 135 -247 259 -263 34 -5 47 -11 47 -23 1 -14 2 -14
11 2 5 9 21 17 34 17 41 0 123 36 170 74 53 44 101 135 110 211 16 125 -57
254 -177 314 -51 26 -73 31 -133 31 -95 0 -154 -22 -219 -81 -56 -51 -90 -114
-102 -187 l-6 -41 -49 25 -50 25 7 -26 6 -25 -75 0 -76 0 -3 215 -3 215 -33
32 -32 33 -420 3 c-465 3 -461 3 -500 -61 -18 -29 -20 -51 -20 -235 l0 -202
-50 25 -51 26 7 -26 6 -25 -75 0 -76 0 -3 215 -3 215 -33 32 -32 33 -420 3
c-465 3 -461 3 -500 -61 -18 -29 -20 -51 -20 -235 l0 -202 -50 25 -51 26 7
-26 6 -25 -75 0 -76 0 -3 215 -3 215 -33 32 -32 33 -420 3 c-465 3 -461 3
-500 -61 -18 -29 -20 -51 -20 -235 l0 -202 -50 25 -51 26 7 -26 6 -25 -75 0
-76 0 -3 215 -3 215 -33 32 -32 33 -423 3 c-405 2 -423 1 -454 -17z m872 -7
c64 -30 65 -37 65 -481 0 -435 0 -430 -59 -470 -34 -23 -34 -23 -430 -23 -357
0 -399 2 -431 18 -69 34 -70 39 -70 483 0 396 0 396 23 430 40 59 35 59 470
59 343 0 404 -2 432 -16z m1250 0 c64 -30 65 -37 65 -481 0 -435 0 -430 -59
-470 -34 -23 -34 -23 -430 -23 -444 0 -449 1 -483 70 -16 32 -18 74 -18 431 0
396 0 396 23 430 40 59 35 59 470 59 343 0 404 -2 432 -16z m1250 0 c64 -30
65 -37 65 -481 0 -435 0 -430 -59 -470 -34 -23 -34 -23 -430 -23 -357 0 -399
2 -431 18 -69 34 -70 39 -70 483 0 396 0 396 23 430 40 59 35 59 470 59 343 0
404 -2 432 -16z m1250 0 c64 -30 65 -37 65 -481 0 -435 0 -430 -59 -470 -34
-23 -34 -23 -430 -23 -357 0 -399 2 -431 18 -69 34 -70 39 -70 483 0 396 0
396 23 430 40 59 35 59 470 59 343 0 404 -2 432 -16z m-5095 -210 c177 -96
212 -340 69 -483 -183 -182 -498 -68 -517 188 -5 81 8 134 51 198 33 50 107
106 161 123 17 5 65 8 106 6 61 -2 86 -8 130 -32z m5833 20 c84 -29 174 -128
192 -212 31 -147 -34 -286 -163 -349 -48 -24 -69 -28 -137 -28 -67 0 -88 5
-130 27 -193 102 -229 347 -74 496 78 75 206 102 312 66z"/>
<path d="M1996 3484 c-19 -18 -21 -45 -4 -62 9 -9 9 -12 -4 -12 -30 0 -68 -47
-68 -85 l0 -35 105 0 105 0 0 38 c0 40 -23 82 -44 82 -8 0 -11 10 -8 30 2 17
-1 37 -8 45 -16 20 -54 19 -74 -1z m62 -52 c2 -7 -2 -12 -8 -12 -9 0 -10 -3
-1 -14 9 -10 8 -16 -3 -26 -20 -15 -39 -3 -33 21 3 10 1 22 -4 25 -5 3 -7 10
-4 15 8 12 48 5 53 -9z m44 -49 c23 -20 25 -83 3 -83 -8 0 -16 8 -16 18 -1 16
-2 16 -6 0 -4 -14 -15 -18 -59 -18 -44 0 -54 3 -55 18 -1 16 -2 16 -6 0 -7
-28 -33 -22 -33 7 0 45 60 86 74 50 8 -22 44 -18 58 5 15 24 17 24 40 3z"/>
<path d="M1920 3215 c0 -30 5 -55 10 -55 6 0 10 11 10 25 0 20 5 25 25 25 20
0 25 -5 25 -25 0 -14 5 -25 10 -25 6 0 10 25 10 55 0 30 -4 55 -10 55 -5 0
-10 -11 -10 -25 0 -20 -5 -25 -25 -25 -20 0 -25 5 -25 25 0 14 -4 25 -10 25
-5 0 -10 -25 -10 -55z"/>
<path d="M2036 3231 c-3 -4 6 -6 19 -3 33 6 32 -14 0 -22 -16 -4 -25 -13 -25
-26 0 -15 7 -19 33 -18 31 1 32 2 29 40 -4 32 -8 38 -27 38 -13 0 -26 -4 -29
-9z m44 -41 c0 -13 -28 -25 -38 -16 -3 4 0 11 8 16 20 13 30 12 30 0z"/>
<path d="M2116 3225 c4 -8 11 -15 16 -15 6 0 5 6 -2 15 -7 8 -14 15 -16 15 -2
0 -1 -7 2 -15z"/>
<path d="M2151 3230 c0 -9 -10 -23 -21 -33 -11 -9 -20 -22 -20 -29 0 -7 9 -2
20 12 l20 25 1 -25 1 -25 7 25 c7 25 7 25 19 4 9 -18 20 -22 57 -21 l46 0 -3
36 c-2 29 -8 37 -27 39 -13 2 -28 -2 -35 -8 -8 -9 -4 -10 17 -5 17 5 27 3 27
-4 0 -6 -11 -13 -25 -17 -14 -3 -25 -14 -25 -23 -1 -14 -3 -13 -15 3 -10 14
-12 24 -4 40 9 19 9 19 -4 4 -8 -10 -17 -18 -20 -18 -3 0 -8 8 -10 18 -4 13
-5 13 -6 2z m109 -39 c0 -14 -18 -23 -31 -15 -8 4 -7 9 2 15 18 11 29 11 29 0z"/>
<path d="M2298 3200 c-4 -40 5 -53 16 -24 3 9 6 24 6 35 0 37 29 21 33 -18 l4
-38 1 43 c2 40 1 42 -27 42 -26 0 -29 -3 -33 -40z"/>
<path d="M2432 3200 c0 -25 3 -34 5 -21 l5 25 20 -25 20 -24 -15 26 c-14 24
-14 28 1 43 9 9 11 16 5 16 -6 0 -14 -8 -18 -17 -7 -17 -8 -16 -15 2 -6 15 -8
8 -8 -25z"/>
<path d="M2493 3200 c0 -25 2 -35 4 -22 3 13 12 22 23 22 11 0 20 -9 23 -22 2
-13 4 -3 4 22 1 25 -1 37 -4 28 -2 -10 -13 -18 -23 -18 -10 0 -21 8 -23 18 -3
9 -5 -3 -4 -28z"/>
<path d="M2582 3228 c-27 -27 -3 -73 35 -66 27 5 25 72 -2 76 -11 1 -26 -3
-33 -10z m43 -28 c0 -28 -29 -40 -38 -15 -9 22 3 46 22 43 10 -2 16 -13 16
-28z"/>
<path d="M2662 3198 l1 -43 4 38 c3 28 9 37 23 37 14 0 20 -9 23 -37 l4 -38 1
43 c2 40 1 42 -28 42 -29 0 -30 -2 -28 -42z"/>
<path d="M2742 3200 c0 -35 2 -39 7 -20 l7 25 13 -23 c7 -13 15 -21 18 -19 2
3 0 14 -5 24 -7 12 -7 25 -1 36 6 10 6 17 1 17 -6 0 -13 -8 -17 -17 -7 -17 -8
-16 -15 2 -6 15 -9 8 -8 -25z"/>
<path d="M2807 3218 c4 -13 8 -38 8 -55 0 -46 10 -41 29 14 19 56 20 80 1 38
l-13 -30 -11 28 c-13 32 -26 37 -14 5z"/>
<path d="M2094 3046 c-12 -31 0 -61 25 -61 31 0 50 28 35 53 -14 22 -52 28
-60 8z m49 -8 c6 -21 -4 -48 -19 -48 -18 0 -28 24 -20 45 7 18 33 20 39 3z"/>
<path d="M2182 3048 c-25 -25 -6 -68 29 -68 10 0 21 5 24 10 4 7 -2 9 -18 5
-17 -5 -26 -2 -30 9 -10 25 4 48 24 43 11 -3 19 -1 19 4 0 13 -34 11 -48 -3z"/>
<path d="M2252 3053 c11 -3 18 -17 21 -41 l4 -37 1 37 c1 25 7 38 20 41 9 3
-1 5 -23 5 -22 0 -32 -2 -23 -5z"/>
<path d="M2320 3051 c0 -6 7 -8 15 -5 31 12 37 -9 5 -22 -39 -17 -35 -39 9
-40 31 -1 32 0 29 35 -3 31 -7 36 -30 39 -16 2 -28 -1 -28 -7z m44 -46 c-6
-16 -34 -21 -34 -7 0 13 11 22 26 22 8 0 11 -6 8 -15z"/>
<path d="M2400 3021 c0 -39 2 -41 30 -41 29 0 30 2 28 38 -3 32 -7 37 -31 40
-25 3 -27 1 -27 -37z m50 19 c0 -5 -9 -10 -20 -10 -11 0 -20 5 -20 10 0 6 9
10 20 10 11 0 20 -4 20 -10z m0 -35 c0 -8 -9 -15 -20 -15 -11 0 -20 7 -20 15
0 8 9 15 20 15 11 0 20 -7 20 -15z"/>
<path d="M2481 3023 c-1 -47 5 -53 25 -25 18 23 18 37 0 23 -12 -10 -15 -7
-19 16 -3 20 -4 16 -6 -14z"/>
<path d="M2526 3052 c-2 -4 -1 -23 4 -42 l8 -35 1 43 c1 41 -3 50 -13 34z"/>
<path d="M2568 3053 c6 -2 12 -20 12 -39 0 -19 5 -34 10 -34 6 0 10 15 10 34
0 19 6 37 13 39 6 3 -4 5 -23 5 -19 0 -29 -2 -22 -5z"/>
<path d="M2630 3020 c0 -37 2 -40 29 -40 29 0 42 14 34 38 -3 6 -13 12 -24 12
-10 0 -19 7 -19 15 0 8 -4 15 -10 15 -5 0 -10 -18 -10 -40z m50 -15 c0 -8 -7
-15 -15 -15 -8 0 -15 7 -15 15 0 8 7 15 15 15 8 0 15 -7 15 -15z"/>
<path d="M2204 2866 c-11 -29 1 -61 23 -64 29 -4 48 30 33 58 -12 23 -48 27
-56 6z m41 -26 c0 -27 -22 -39 -31 -16 -8 22 3 49 19 43 6 -2 12 -14 12 -27z"/>
<path d="M2282 2873 c11 -3 18 -17 21 -41 l4 -37 1 37 c2 34 3 36 37 35 32 -1
52 -17 23 -17 -7 0 -5 -5 5 -11 23 -14 11 -32 -16 -23 -17 5 -19 3 -11 -6 7
-6 20 -10 30 -8 14 2 19 12 19 38 l0 35 -65 1 c-36 1 -57 0 -48 -3z"/>
<path d="M2421 2842 c-1 -42 0 -43 27 -40 34 4 39 41 5 46 -12 2 -24 11 -26
20 -3 9 -5 -2 -6 -26z m42 -17 c1 -5 -6 -11 -15 -13 -11 -2 -18 3 -18 13 0 17
30 18 33 0z"/>
<path d="M2493 2840 c0 -25 2 -35 4 -22 2 12 2 32 0 45 -2 12 -4 2 -4 -23z"/>
<path d="M2520 2840 c0 -38 2 -40 29 -40 36 0 43 9 35 49 -6 26 -11 31 -35 31
-27 0 -29 -3 -29 -40z m50 20 c0 -5 -7 -10 -15 -10 -8 0 -15 5 -15 10 0 6 7
10 15 10 8 0 15 -4 15 -10z m0 -35 c0 -8 -7 -15 -15 -15 -8 0 -15 7 -15 15 0
8 7 15 15 15 8 0 15 -7 15 -15z"/>
<path d="M3246 3484 c-19 -18 -21 -45 -4 -62 9 -9 9 -12 -4 -12 -30 0 -68 -47
-68 -85 l0 -35 105 0 105 0 0 38 c0 40 -23 82 -44 82 -8 0 -11 10 -8 30 2 17
-1 37 -8 45 -16 20 -54 19 -74 -1z m62 -52 c2 -7 -2 -12 -8 -12 -9 0 -10 -3
-1 -14 9 -10 8 -16 -3 -26 -20 -15 -39 -3 -33 21 3 10 1 22 -4 25 -5 3 -7 10
-4 15 8 12 48 5 53 -9z m44 -49 c23 -20 25 -83 3 -83 -8 0 -16 8 -16 18 -1 16
-2 16 -6 0 -4 -14 -15 -18 -59 -18 -44 0 -54 3 -55 18 -1 16 -2 16 -6 0 -7
-28 -33 -22 -33 7 0 45 60 86 74 50 8 -22 44 -18 58 5 15 24 17 24 40 3z"/>
<path d="M3380 3216 c0 -55 1 -56 29 -56 32 0 57 23 45 41 -4 7 -7 24 -8 38
-1 22 -6 27 -33 29 l-33 3 0 -55z m55 24 c0 -8 -10 -16 -22 -18 -18 -3 -23 2
-23 18 0 16 5 21 23 18 12 -2 22 -10 22 -18z m5 -50 c0 -15 -7 -20 -25 -20
-18 0 -25 5 -25 20 0 15 7 20 25 20 18 0 25 -5 25 -20z"/>
<path d="M3592 3258 c-17 -17 -15 -73 3 -88 26 -22 50 -8 50 30 0 32 -3 35
-28 35 -35 -1 -29 18 9 26 28 6 28 7 4 8 -15 0 -31 -4 -38 -11z m43 -58 c0
-15 -6 -26 -16 -28 -19 -3 -31 21 -22 43 9 25 38 13 38 -15z"/>
<path d="M3481 3202 c-1 -42 0 -43 27 -40 34 4 39 41 5 46 -12 2 -24 11 -26
20 -3 9 -5 -2 -6 -26z m42 -17 c1 -5 -6 -11 -15 -13 -11 -2 -18 3 -18 13 0 17
30 18 33 0z"/>
<path d="M3553 3200 c0 -25 2 -35 4 -22 2 12 2 32 0 45 -2 12 -4 2 -4 -23z"/>
<path d="M3671 3181 c1 -32 4 -48 7 -36 4 11 16 20 26 20 51 0 43 69 -8 71
-25 1 -26 -1 -25 -55z m53 34 c7 -20 -3 -45 -19 -45 -7 0 -15 7 -19 15 -7 20
3 45 19 45 7 0 15 -7 19 -15z"/>
<path d="M3755 3230 c-4 -7 2 -9 19 -4 16 4 26 2 26 -5 0 -6 -11 -13 -26 -17
-37 -10 -27 -39 14 -40 32 -1 33 0 30 35 -3 31 -7 36 -30 39 -14 2 -29 -2 -33
-8z m45 -39 c0 -14 -18 -23 -31 -15 -8 4 -7 9 2 15 18 11 29 11 29 0z"/>
<path d="M3850 3206 c0 -19 -5 -37 -10 -39 -6 -3 -5 -4 2 -3 7 1 14 17 16 34
5 46 32 43 32 -3 0 -19 5 -35 10 -35 6 0 10 18 10 40 0 38 -2 40 -30 40 -27 0
-30 -3 -30 -34z"/>
<path d="M3192 3020 c0 -34 2 -39 7 -20 l7 25 15 -22 c7 -13 17 -23 22 -23 4
0 1 10 -7 22 -11 15 -12 27 -5 42 9 19 9 20 -4 4 -8 -10 -17 -18 -20 -18 -3 0
-8 8 -10 18 -3 9 -5 -3 -5 -28z"/>
<path d="M3264 3046 c-11 -29 1 -61 23 -64 29 -4 48 30 33 58 -12 23 -48 27
-56 6z m41 -26 c0 -13 -6 -25 -12 -27 -16 -6 -27 21 -19 43 9 23 31 11 31 -16z"/>
<path d="M3340 3020 c0 -22 5 -40 10 -40 6 0 10 9 10 20 0 11 7 20 15 20 8 0
15 -9 15 -20 0 -11 5 -20 10 -20 6 0 10 18 10 40 0 22 -4 40 -10 40 -5 0 -10
-7 -10 -15 0 -8 -7 -15 -15 -15 -8 0 -15 7 -15 15 0 8 -4 15 -10 15 -5 0 -10
-18 -10 -40z"/>
<path d="M3432 3048 c-25 -25 -6 -68 29 -68 10 0 21 5 24 10 4 7 -2 9 -19 4
-24 -6 -26 -3 -26 25 0 27 3 30 29 28 24 -2 32 -8 42 -40 11 -32 10 -40 -2
-49 -12 -8 -12 -9 1 -5 8 2 23 25 33 52 20 54 15 75 -6 24 l-14 -34 -7 31 c-6
26 -12 31 -40 32 -18 1 -38 -4 -44 -10z"/>
<path d="M3580 3026 c0 -19 -6 -37 -12 -39 -8 -3 -6 -6 5 -6 13 -1 17 7 17 34
0 24 5 35 15 35 10 0 15 -11 15 -35 0 -19 5 -35 10 -35 6 0 10 18 10 40 0 38
-2 40 -30 40 -27 0 -30 -3 -30 -34z"/>
<path d="M3661 3022 c-1 -42 0 -43 27 -40 34 4 39 41 5 46 -12 2 -24 11 -26
20 -3 9 -5 -2 -6 -26z m42 -17 c1 -5 -6 -11 -15 -13 -11 -2 -18 3 -18 13 0 17
30 18 33 0z"/>
<path d="M3728 3053 c6 -2 12 -20 12 -39 0 -19 5 -34 10 -34 6 0 10 15 10 34
0 19 6 37 13 39 6 3 -4 5 -23 5 -19 0 -29 -2 -22 -5z"/>
<path d="M3795 3050 c-4 -7 2 -9 19 -4 16 4 26 2 26 -5 0 -6 -11 -13 -26 -17
-37 -10 -27 -39 14 -40 32 -1 33 0 30 35 -3 31 -7 36 -30 39 -14 2 -29 -2 -33
-8z m45 -39 c0 -14 -18 -23 -31 -15 -8 4 -7 9 2 15 18 11 29 11 29 0z"/>
<path d="M3883 3020 c0 -25 2 -35 4 -22 3 13 12 22 23 22 11 0 20 -9 23 -22 2
-13 4 -3 4 22 1 25 -1 37 -4 28 -2 -10 -13 -18 -23 -18 -10 0 -21 8 -23 18 -3
9 -5 -3 -4 -28z"/>
<path d="M3962 3053 c11 -3 18 -17 21 -41 l4 -37 1 37 c1 25 7 38 20 41 9 3
-1 5 -23 5 -22 0 -32 -2 -23 -5z"/>
<path d="M4030 3051 c0 -6 7 -8 15 -5 31 12 37 -9 5 -22 -39 -17 -35 -39 9
-40 31 -1 32 0 29 35 -3 31 -7 36 -30 39 -16 2 -28 -1 -28 -7z m44 -46 c-6
-16 -34 -21 -34 -7 0 13 11 22 26 22 8 0 11 -6 8 -15z"/>
<path d="M3321 2843 c-1 -47 5 -53 25 -25 18 23 18 37 0 23 -12 -10 -15 -7
-19 16 -3 20 -4 16 -6 -14z"/>
<path d="M3366 2872 c-2 -4 -1 -23 4 -42 l8 -35 1 43 c1 41 -3 50 -13 34z"/>
<path d="M3404 2869 c-4 -8 0 -9 15 -4 22 7 30 -10 9 -18 -10 -4 -10 -6 0 -6
6 -1 12 -8 12 -17 0 -11 -6 -15 -20 -11 -11 3 -18 1 -14 -4 8 -13 42 -11 46 3
2 6 2 24 0 40 -4 29 -34 40 -48 17z"/>
<path d="M3522 2868 c-25 -25 -6 -68 29 -68 10 0 21 5 24 10 4 7 -2 9 -18 5
-17 -5 -26 -2 -30 9 -10 25 4 48 24 43 11 -3 19 -1 19 4 0 13 -34 11 -48 -3z"/>
<path d="M3592 2838 l1 -43 4 38 c3 28 9 37 23 37 14 0 20 -9 23 -37 l4 -38 1
43 c2 40 1 42 -28 42 -29 0 -30 -2 -28 -42z"/>
<path d="M3671 2843 c-1 -47 5 -53 25 -25 18 23 18 37 0 23 -12 -10 -15 -7
-19 16 -3 20 -4 16 -6 -14z"/>
<path d="M3716 2872 c-2 -4 -1 -23 4 -42 l8 -35 1 43 c1 41 -3 50 -13 34z"/>
<path d="M3762 2868 c-25 -25 -6 -68 29 -68 10 0 21 5 24 10 4 7 -2 9 -18 5
-17 -5 -26 -2 -30 9 -10 25 4 48 24 43 11 -3 19 -1 19 4 0 13 -34 11 -48 -3z"/>
<path d="M3832 2840 c0 -35 2 -39 7 -20 l7 25 13 -23 c7 -13 15 -21 18 -19 2
3 0 14 -5 24 -7 12 -7 25 -1 36 6 10 6 17 1 17 -6 0 -13 -8 -17 -17 -7 -17 -8
-16 -15 2 -6 15 -9 8 -8 -25z"/>
<path d="M3906 2871 c-3 -4 6 -6 19 -3 33 6 32 -14 0 -22 -16 -4 -25 -13 -25
-26 0 -15 7 -19 33 -18 31 1 32 2 29 40 -4 32 -8 38 -27 38 -13 0 -26 -4 -29
-9z m44 -41 c0 -13 -28 -25 -38 -16 -3 4 0 11 8 16 20 13 30 12 30 0z"/>
<path d="M4496 3484 c-19 -18 -21 -45 -4 -62 9 -9 9 -12 -4 -12 -30 0 -68 -47
-68 -85 l0 -35 105 0 105 0 0 38 c0 40 -23 82 -44 82 -8 0 -11 10 -8 30 2 17
-1 37 -8 45 -16 20 -54 19 -74 -1z m62 -52 c2 -7 -2 -12 -8 -12 -9 0 -10 -3
-1 -14 9 -10 8 -16 -3 -26 -20 -15 -39 -3 -33 21 3 10 1 22 -4 25 -5 3 -7 10
-4 15 8 12 48 5 53 -9z m44 -49 c23 -20 25 -83 3 -83 -8 0 -16 8 -16 18 -1 16
-2 16 -6 0 -4 -14 -15 -18 -59 -18 -44 0 -54 3 -55 18 -1 16 -2 16 -6 0 -7
-28 -33 -22 -33 7 0 45 60 86 74 50 8 -22 44 -18 58 5 15 24 17 24 40 3z"/>
<path d="M4572 3213 l2 -58 3 53 c4 50 5 52 33 52 28 0 29 -2 33 -52 l3 -53 2
58 2 57 -40 0 -40 0 2 -57z"/>
<path d="M4682 3228 c-27 -27 -3 -73 35 -66 27 5 25 72 -2 76 -11 1 -26 -3
-33 -10z m43 -28 c0 -16 -6 -26 -17 -28 -14 -3 -18 3 -18 28 0 25 4 31 18 28
11 -2 17 -12 17 -28z"/>
<path d="M4764 3226 c-16 -41 20 -86 47 -59 6 6 1 9 -13 9 -18 -1 -23 4 -23
24 0 20 4 25 23 23 13 -2 21 1 17 7 -9 15 -45 12 -51 -4z"/>
<path d="M4838 3233 c6 -2 12 -20 12 -39 0 -19 5 -34 10 -34 6 0 10 15 10 34
0 19 6 37 13 39 6 3 -4 5 -23 5 -19 0 -29 -2 -22 -5z"/>
<path d="M4906 3231 c-3 -4 6 -6 19 -3 33 6 32 -14 -1 -22 -36 -9 -28 -41 11
-43 29 -1 30 0 27 38 -4 33 -8 39 -27 39 -13 0 -26 -4 -29 -9z m44 -41 c0 -13
-28 -25 -38 -16 -3 4 0 11 8 16 20 13 30 12 30 0z"/>
<path d="M4980 3200 c0 -38 2 -40 29 -40 36 0 43 9 35 49 -6 26 -11 31 -35 31
-27 0 -29 -3 -29 -40z m50 20 c0 -5 -7 -10 -15 -10 -8 0 -15 5 -15 10 0 6 7
10 15 10 8 0 15 -4 15 -10z m0 -35 c0 -8 -7 -15 -15 -15 -8 0 -15 7 -15 15 0
8 7 15 15 15 8 0 15 -7 15 -15z"/>
<path d="M5060 3199 c0 -28 4 -39 13 -36 6 2 12 9 11 15 -1 7 -2 23 -2 37 -3
42 -22 28 -22 -16z"/>
<path d="M5102 3220 c-6 -11 -12 -23 -12 -27 0 -5 5 -1 10 7 8 12 10 9 10 -12
0 -16 5 -28 10 -28 6 0 10 18 10 40 0 44 -9 50 -28 20z"/>
<path d="M5148 3200 c-4 -40 5 -53 16 -24 3 9 6 24 6 35 0 37 29 21 33 -18 l4
-38 1 43 c2 40 1 42 -27 42 -26 0 -29 -3 -33 -40z"/>
<path d="M5235 3070 c-16 -17 -16 -20 -3 -15 14 5 17 -1 21 -37 3 -38 4 -37 5
15 1 31 0 57 -1 57 -2 0 -12 -9 -22 -20z"/>
<path d="M4512 3048 c-27 -27 -3 -73 35 -66 27 5 25 72 -2 76 -11 1 -26 -3
-33 -10z m43 -28 c0 -16 -6 -26 -17 -28 -14 -3 -18 3 -18 28 0 25 4 31 18 28
11 -2 17 -12 17 -28z"/>
<path d="M4592 3023 c-2 -41 -1 -43 28 -43 21 0 30 -5 30 -17 0 -9 2 -14 5
-11 3 3 1 29 -4 59 -8 48 -9 50 -10 17 -1 -31 -5 -38 -20 -38 -15 0 -21 8 -24
38 l-4 37 -1 -42z"/>
<path d="M4682 3048 c-25 -25 -7 -68 29 -68 10 0 21 5 24 10 4 7 -2 9 -18 5
-17 -5 -26 -2 -30 9 -5 12 0 16 24 16 24 0 30 4 27 18 -4 21 -39 27 -56 10z
m43 -8 c4 -6 -5 -10 -20 -10 -15 0 -24 4 -20 10 3 6 12 10 20 10 8 0 17 -4 20
-10z"/>
<path d="M4763 3020 c0 -25 2 -35 4 -22 3 13 12 22 23 22 11 0 20 -9 23 -22 2
-13 4 -3 4 22 1 25 -1 37 -4 28 -2 -10 -13 -18 -23 -18 -10 0 -21 8 -23 18 -3
9 -5 -3 -4 -28z"/>
<path d="M4842 3020 c0 -35 2 -39 7 -20 l7 25 13 -23 c7 -13 15 -21 18 -19 2
3 0 14 -5 24 -7 12 -7 25 -1 36 6 10 6 17 1 17 -6 0 -13 -8 -17 -17 -7 -17 -8
-16 -15 2 -6 15 -9 8 -8 -25z"/>
<path d="M4907 3038 c4 -13 8 -38 8 -55 0 -46 10 -41 29 14 19 56 20 80 1 38
l-13 -30 -11 28 c-13 32 -26 37 -14 5z"/>
<path d="M5032 3048 c-27 -27 -3 -73 35 -66 27 5 25 72 -2 76 -11 1 -26 -3
-33 -10z m43 -28 c0 -15 -6 -26 -16 -28 -19 -3 -31 21 -22 43 9 25 38 13 38
-15z"/>
<path d="M5108 3053 c6 -2 12 -20 12 -39 0 -19 5 -34 10 -34 6 0 10 15 10 34
0 19 6 37 13 39 6 3 -4 5 -23 5 -19 0 -29 -2 -22 -5z"/>
<path d="M4970 2882 c0 -23 4 -28 22 -28 28 1 37 -31 12 -41 -10 -4 -19 -2
-22 5 -2 7 -8 12 -14 12 -6 0 -5 -6 2 -15 7 -9 23 -15 34 -13 32 5 30 62 -2
66 -29 4 -24 24 9 33 21 6 21 7 -8 8 -30 1 -33 -2 -33 -27z"/>
<path d="M4766 2864 c-3 -9 -6 -24 -6 -35 0 -10 -4 -19 -10 -19 -5 0 -10 -7
-10 -15 0 -8 5 -15 10 -15 6 0 10 5 10 10 0 15 48 12 53 -2 9 -27 15 -1 10 45
-5 41 -9 47 -28 47 -13 0 -26 -7 -29 -16z m34 -24 c0 -20 -5 -30 -15 -30 -16
0 -19 17 -9 44 10 26 24 18 24 -14z"/>
<path d="M4844 2866 c-12 -31 0 -61 25 -61 31 0 50 28 35 53 -14 22 -52 28
-60 8z m49 -8 c6 -21 -4 -48 -19 -48 -18 0 -28 24 -20 45 7 18 33 20 39 3z"/>
<path d="M5746 3484 c-19 -18 -21 -45 -4 -62 9 -9 9 -12 -4 -12 -30 0 -68 -47
-68 -85 l0 -35 105 0 105 0 0 38 c0 40 -23 82 -44 82 -8 0 -11 10 -8 30 2 17
-1 37 -8 45 -16 20 -54 19 -74 -1z m62 -52 c2 -7 -2 -12 -8 -12 -9 0 -10 -3
-1 -14 9 -10 8 -16 -3 -26 -20 -15 -39 -3 -33 21 3 10 1 22 -4 25 -5 3 -7 10
-4 15 8 12 48 5 53 -9z m44 -49 c23 -20 25 -83 3 -83 -8 0 -16 8 -16 18 -1 16
-2 16 -6 0 -4 -14 -15 -18 -59 -18 -44 0 -54 3 -55 18 -1 16 -2 16 -6 0 -7
-28 -33 -22 -33 7 0 45 60 86 74 50 8 -22 44 -18 58 5 15 24 17 24 40 3z"/>
<path d="M5780 3126 c0 -55 1 -56 29 -56 40 0 53 19 43 66 -7 35 -11 39 -40
42 l-32 3 0 -55z m60 24 c0 -15 -7 -20 -25 -20 -18 0 -25 5 -25 20 0 15 7 20
25 20 18 0 25 -5 25 -20z m5 -50 c0 -9 -11 -16 -27 -18 -23 -3 -28 1 -28 18 0
17 5 21 28 18 16 -2 27 -9 27 -18z"/>
<path d="M5880 3110 c0 -39 1 -41 28 -38 24 3 27 7 27 38 0 31 -3 35 -27 38
-27 3 -28 1 -28 -38z m45 20 c-3 -5 -13 -10 -21 -10 -8 0 -14 5 -14 10 0 6 9
10 21 10 11 0 17 -4 14 -10z m5 -35 c0 -8 -9 -15 -20 -15 -11 0 -20 7 -20 15
0 8 9 15 20 15 11 0 20 -7 20 -15z"/>
<path d="M5962 3138 c-15 -15 -15 -41 0 -56 14 -14 44 -16 52 -3 3 4 -6 6 -19
3 -18 -3 -25 0 -25 12 0 11 9 16 26 16 19 0 25 5 22 18 -4 21 -39 27 -56 10z
m43 -8 c3 -5 -3 -10 -14 -10 -12 0 -21 5 -21 10 0 6 6 10 14 10 8 0 18 -4 21
-10z"/>
<path d="M6038 3110 c-2 -22 0 -40 4 -40 5 0 8 16 8 35 0 28 4 35 19 35 15 0
21 -8 24 -37 l4 -38 1 43 c2 40 1 42 -27 42 -26 0 -29 -3 -33 -40z"/>
<path d="M6168 3143 c6 -2 12 -20 12 -39 0 -19 5 -34 10 -34 6 0 10 15 10 34
0 19 6 37 13 39 6 3 -4 5 -23 5 -19 0 -29 -2 -22 -5z"/>
<path d="M6234 3136 c-11 -30 1 -61 25 -64 13 -2 28 1 34 7 7 7 2 10 -18 8
-15 -1 -30 4 -32 11 -3 8 6 12 26 12 33 0 39 8 19 28 -16 16 -47 15 -54 -2z
m46 -6 c0 -5 -9 -10 -21 -10 -11 0 -17 5 -14 10 3 6 13 10 21 10 8 0 14 -4 14
-10z"/>
<path d="M6310 3110 c0 -43 15 -55 22 -17 5 29 -1 57 -13 57 -5 0 -9 -18 -9
-40z"/>
<path d="M6345 3139 c-11 -17 1 -21 15 -4 8 9 8 15 2 15 -6 0 -14 -5 -17 -11z"/>
<path d="M6384 3136 c-16 -41 20 -86 47 -59 6 6 1 9 -13 9 -18 -1 -23 4 -23
24 0 19 5 25 22 24 12 0 20 3 17 8 -8 13 -44 9 -50 -6z"/>
<path d="M6458 3143 c6 -2 12 -20 12 -39 0 -19 5 -34 10 -34 6 0 10 15 10 34
0 19 6 37 13 39 6 3 -4 5 -23 5 -19 0 -29 -2 -22 -5z"/>
<path d="M6340 3105 c0 -15 18 -40 24 -34 3 3 -1 14 -9 25 -8 10 -14 15 -15 9z"/>
<path d="M5914 2956 c-11 -29 1 -61 23 -64 29 -4 48 30 33 58 -12 23 -48 27
-56 6z m41 -26 c0 -27 -22 -39 -31 -16 -8 22 3 49 19 43 6 -2 12 -14 12 -27z"/>
<path d="M5992 2963 c11 -3 18 -17 21 -41 l4 -37 1 37 c2 34 3 36 37 35 32 -1
52 -17 23 -17 -7 0 -5 -5 5 -11 23 -14 11 -32 -16 -23 -17 5 -19 3 -11 -6 7
-6 20 -10 30 -8 14 2 19 12 19 38 l0 35 -65 1 c-36 1 -57 0 -48 -3z"/>
<path d="M6131 2932 c-1 -42 0 -43 27 -40 34 4 39 41 5 46 -12 2 -24 11 -26
20 -3 9 -5 -2 -6 -26z m42 -17 c1 -5 -6 -11 -15 -13 -11 -2 -18 3 -18 13 0 17
30 18 33 0z"/>
<path d="M6203 2930 c0 -25 2 -35 4 -22 2 12 2 32 0 45 -2 12 -4 2 -4 -23z"/>
<path d="M6230 2930 c0 -38 2 -40 29 -40 36 0 43 9 35 49 -6 26 -11 31 -35 31
-27 0 -29 -3 -29 -40z m50 20 c0 -5 -7 -10 -15 -10 -8 0 -15 5 -15 10 0 6 7
10 15 10 8 0 15 -4 15 -10z m0 -35 c0 -8 -7 -15 -15 -15 -8 0 -15 7 -15 15 0
8 7 15 15 15 8 0 15 -7 15 -15z"/>
<path d="M6316 2961 c-3 -4 6 -6 19 -3 33 6 32 -14 -1 -22 -36 -9 -28 -41 11
-43 29 -1 30 0 27 38 -4 33 -8 39 -27 39 -13 0 -26 -4 -29 -9z m44 -41 c0 -13
-28 -25 -38 -16 -3 4 0 11 8 16 20 13 30 12 30 0z"/>
<path d="M6980 3025 l0 -135 225 2 225 1 0 134 0 133 -225 0 -225 0 0 -135z
m380 116 c33 -1 31 -3 -52 -51 -48 -28 -93 -50 -100 -50 -7 0 -51 23 -98 50
l-85 49 105 3 c58 2 125 2 150 1 25 -1 61 -2 80 -2z m60 -116 l0 -115 -210 0
-210 0 0 110 c0 61 3 110 7 110 4 0 51 -25 104 -55 l98 -56 103 60 c57 33 104
60 106 60 1 1 2 -51 2 -114z"/>
<path d="M10615 3407 c-58 -19 -82 -34 -132 -80 -52 -48 -91 -119 -100 -182
-3 -25 -8 -45 -10 -45 -2 0 -22 9 -44 20 l-40 21 6 -24 c7 -25 10 -25 -192
-19 l-71 2 -12 52 c-21 99 -94 188 -189 231 -69 31 -178 29 -252 -5 -139 -64
-216 -220 -180 -365 28 -111 130 -211 240 -234 31 -7 57 -13 59 -15 2 -1 -6
-20 -17 -43 -12 -22 -21 -42 -21 -43 0 -2 22 -3 49 -3 l49 0 -24 46 -23 46 44
7 c129 17 237 121 266 256 l11 50 135 0 c130 0 134 -1 128 -20 -8 -25 -4 -25
44 0 l38 19 7 -44 c13 -97 83 -192 179 -242 46 -25 63 -28 147 -28 83 0 101 3
145 27 62 32 129 103 158 166 34 73 31 198 -6 273 -32 67 -100 132 -165 162
-58 25 -171 32 -227 14z m-779 -41 c112 -52 174 -151 174 -277 0 -127 -61
-224 -180 -281 -69 -33 -177 -31 -252 5 -111 55 -172 152 -172 277 0 122 58
215 166 269 81 41 185 44 264 7z m1013 -21 c58 -32 90 -66 124 -129 32 -61 31
-193 -1 -256 -54 -103 -128 -151 -243 -158 -97 -6 -153 13 -217 72 -62 57 -92
124 -92 206 0 84 13 130 53 182 65 84 139 119 247 115 61 -3 86 -9 129 -32z"/>
<path d="M9615 3368 c-82 -30 -164 -113 -185 -186 -5 -20 -10 -66 -10 -102 0
-82 30 -149 92 -206 64 -59 120 -78 217 -72 115 7 189 55 243 158 32 63 33
195 1 256 -56 106 -135 156 -253 161 -41 1 -88 -2 -105 -9z m215 -28 c61 -30
97 -66 127 -124 52 -103 38 -224 -38 -310 -56 -63 -107 -88 -195 -94 -61 -4
-80 -1 -125 20 -69 31 -116 78 -147 147 -21 45 -24 64 -20 125 3 45 13 86 26
112 28 55 104 121 161 139 62 20 155 14 211 -15z"/>
<path d="M9480 3090 l0 -130 225 0 225 0 0 130 0 130 -225 0 -225 0 0 -130z
m340 70 c-47 -27 -92 -52 -101 -55 -13 -4 -175 79 -198 101 -2 2 83 4 190 4
l194 0 -85 -50z m-169 -46 l57 -32 38 22 c22 12 69 39 107 59 l67 38 0 -116 0
-115 -210 0 -210 0 0 115 0 116 48 -27 c26 -15 72 -42 103 -60z"/>
<path d="M9701 2634 c0 -11 3 -14 6 -6 3 7 2 16 -1 19 -3 4 -6 -2 -5 -13z"/>
<path d="M7202 2620 c0 -14 2 -19 5 -12 2 6 2 18 0 25 -3 6 -5 1 -5 -13z"/>
<path d="M9701 2554 c0 -11 3 -14 6 -6 3 7 2 16 -1 19 -3 4 -6 -2 -5 -13z"/>
<path d="M7201 2544 c0 -11 3 -14 6 -6 3 7 2 16 -1 19 -3 4 -6 -2 -5 -13z"/>
<path d="M9701 2484 c0 -11 3 -14 6 -6 3 7 2 16 -1 19 -3 4 -6 -2 -5 -13z"/>
<path d="M7202 2470 c0 -14 2 -19 5 -12 2 6 2 18 0 25 -3 6 -5 1 -5 -13z"/>
<path d="M9701 2404 c0 -11 3 -14 6 -6 3 7 2 16 -1 19 -3 4 -6 -2 -5 -13z"/>
<path d="M7201 2394 c0 -11 3 -14 6 -6 3 7 2 16 -1 19 -3 4 -6 -2 -5 -13z"/>
<path d="M9701 2334 c0 -11 3 -14 6 -6 3 7 2 16 -1 19 -3 4 -6 -2 -5 -13z"/>
<path d="M7202 2320 c0 -14 2 -19 5 -12 2 6 2 18 0 25 -3 6 -5 1 -5 -13z"/>
<path d="M9701 2254 c0 -11 3 -14 6 -6 3 7 2 16 -1 19 -3 4 -6 -2 -5 -13z"/>
<path d="M7201 2244 c0 -11 3 -14 6 -6 3 7 2 16 -1 19 -3 4 -6 -2 -5 -13z"/>
<path d="M9701 2184 c0 -11 3 -14 6 -6 3 7 2 16 -1 19 -3 4 -6 -2 -5 -13z"/>
<path d="M9701 2104 c0 -11 3 -14 6 -6 3 7 2 16 -1 19 -3 4 -6 -2 -5 -13z"/>
<path d="M7201 2094 c0 -11 3 -14 6 -6 3 7 2 16 -1 19 -3 4 -6 -2 -5 -13z"/>
<path d="M9701 2034 c0 -11 3 -14 6 -6 3 7 2 16 -1 19 -3 4 -6 -2 -5 -13z"/>
<path d="M7202 2020 c0 -14 2 -19 5 -12 2 6 2 18 0 25 -3 6 -5 1 -5 -13z"/>
<path d="M7201 1944 c0 -11 3 -14 6 -6 3 7 2 16 -1 19 -3 4 -6 -2 -5 -13z"/>
<path d="M9056 1944 c-9 -8 -16 -24 -16 -34 0 -43 55 -65 81 -33 13 15 12 15
-7 3 -33 -20 -56 -6 -52 32 2 25 8 34 26 36 12 2 22 -1 22 -7 0 -6 5 -11 11
-11 8 0 8 5 -1 15 -16 19 -44 19 -64 -1z"/>
<path d="M9444 1946 c-3 -8 -4 -29 -2 -48 4 -42 43 -53 57 -16 11 30 -3 58
-32 59 -17 1 -16 3 8 9 l30 8 -28 1 c-15 0 -30 -5 -33 -13z m41 -46 c0 -13 -6
-25 -12 -27 -16 -6 -27 21 -19 43 9 23 31 11 31 -16z"/>
<path d="M9152 1898 l1 -43 4 38 c3 23 9 37 18 37 9 0 15 -14 18 -37 l4 -38 1
43 c2 39 0 42 -23 42 -23 0 -25 -3 -23 -42z"/>
<path d="M9226 1932 c-3 -6 3 -8 14 -5 26 7 26 -14 0 -22 -11 -3 -20 -15 -20
-26 0 -15 6 -19 30 -17 29 2 31 5 28 38 -2 27 -8 36 -25 38 -11 2 -24 -1 -27
-6z m34 -47 c0 -8 -7 -15 -15 -15 -16 0 -20 12 -8 23 11 12 23 8 23 -8z"/>
<path d="M9300 1925 c-24 -29 14 -85 41 -58 9 9 7 11 -8 7 -13 -4 -22 0 -26
10 -10 25 3 48 24 43 11 -3 17 -1 13 4 -8 14 -30 11 -44 -6z"/>
<path d="M9372 1900 c-1 -42 0 -44 13 -26 8 11 16 25 16 30 1 6 5 -2 9 -19 7
-27 8 -26 8 15 1 42 0 44 -13 26 -8 -11 -16 -25 -16 -30 -1 -6 -5 3 -9 19 -7
27 -8 26 -8 -15z"/>
<path d="M9524 1926 c-3 -8 -4 -25 -2 -38 2 -17 9 -23 28 -23 22 0 25 4 25 35
0 29 -4 36 -23 38 -13 2 -24 -3 -28 -12z m41 -26 c0 -27 -22 -39 -31 -16 -8
22 3 49 19 43 6 -2 12 -14 12 -27z"/>
<path d="M9676 1931 c-3 -5 3 -7 14 -4 22 6 28 -12 8 -20 -10 -4 -10 -6 0 -6
6 -1 12 -8 12 -17 0 -12 -6 -15 -21 -11 -16 4 -19 3 -11 -5 20 -20 42 -1 39
34 -2 32 -28 51 -41 29z"/>
<path d="M9735 1930 c-4 -7 2 -9 19 -4 34 8 34 -9 0 -25 -33 -15 -26 -36 12
-38 28 -1 29 0 26 38 -4 33 -8 39 -27 39 -13 0 -27 -5 -30 -10z m45 -39 c0
-14 -18 -23 -31 -15 -8 4 -7 9 2 15 18 11 29 11 29 0z"/>
<path d="M9850 1900 c0 -39 1 -41 28 -38 24 3 27 7 27 38 0 31 -3 35 -27 38
-27 3 -28 1 -28 -38z m40 20 c0 -5 -7 -10 -15 -10 -8 0 -15 5 -15 10 0 6 7 10
15 10 8 0 15 -4 15 -10z m3 -35 c1 -5 -6 -11 -15 -13 -11 -2 -18 3 -18 13 0
17 30 18 33 0z"/>
<path d="M9925 1930 c-4 -7 2 -9 19 -4 15 3 26 2 26 -4 0 -5 -12 -13 -26 -16
-36 -9 -28 -41 11 -43 29 -1 30 0 27 38 -4 33 -8 39 -27 39 -13 0 -27 -5 -30
-10z m45 -40 c0 -13 -28 -25 -38 -16 -3 4 0 11 8 16 20 13 30 12 30 0z"/>
<path d="M10002 1903 l-2 -43 45 0 45 0 -2 43 -1 42 -4 -37 c-3 -24 -9 -38
-18 -38 -9 0 -15 14 -18 38 l-4 37 -1 -37 c-1 -26 -7 -38 -16 -38 -10 0 -16
13 -19 38 l-4 37 -1 -42z"/>
<path d="M10149 1919 c-14 -27 6 -61 34 -57 17 2 23 11 25 36 5 47 32 43 34
-5 l1 -38 4 35 c3 19 10 38 16 42 7 4 -14 7 -46 7 -46 -1 -59 -5 -68 -20z m46
-19 c0 -27 -22 -39 -31 -16 -8 22 3 49 19 43 6 -2 12 -14 12 -27z"/>
<path d="M10286 1931 c-3 -5 3 -7 14 -4 22 6 28 -12 8 -20 -10 -4 -10 -6 0 -6
6 -1 12 -8 12 -17 0 -12 -6 -15 -21 -11 -16 4 -19 3 -11 -5 20 -20 42 -1 39
34 -2 32 -28 51 -41 29z"/>
<path d="M10351 1903 c-1 -39 1 -43 23 -43 13 0 27 6 29 13 4 10 6 10 6 0 1
-7 6 -13 11 -13 6 0 10 18 10 40 0 22 -4 40 -10 40 -5 0 -10 -11 -10 -24 0
-22 -2 -23 -25 -13 -13 7 -26 19 -29 27 -2 8 -4 -4 -5 -27z m39 -18 c0 -8 -7
-15 -15 -15 -8 0 -15 7 -15 15 0 8 7 15 15 15 8 0 15 -7 15 -15z"/>
<path d="M10450 1901 c0 -37 2 -41 25 -41 23 0 25 3 22 38 -2 30 -7 38 -25 40
-20 3 -22 -1 -22 -37z m40 19 c0 -5 -7 -10 -15 -10 -8 0 -15 5 -15 10 0 6 7
10 15 10 8 0 15 -4 15 -10z m0 -35 c0 -8 -7 -15 -15 -15 -8 0 -15 7 -15 15 0
8 7 15 15 15 8 0 15 -7 15 -15z"/>
<path d="M7202 1870 c0 -14 2 -19 5 -12 2 6 2 18 0 25 -3 6 -5 1 -5 -13z"/>
<path d="M9701 1804 c0 -11 3 -14 6 -6 3 7 2 16 -1 19 -3 4 -6 -2 -5 -13z"/>
<path d="M7201 1794 c0 -11 3 -14 6 -6 3 7 2 16 -1 19 -3 4 -6 -2 -5 -13z"/>
<path d="M9701 1734 c0 -11 3 -14 6 -6 3 7 2 16 -1 19 -3 4 -6 -2 -5 -13z"/>
<path d="M7202 1720 c0 -14 2 -19 5 -12 2 6 2 18 0 25 -3 6 -5 1 -5 -13z"/>
<path d="M250 970 l0 -700 6200 0 6200 0 0 700 0 700 -6200 0 -6200 0 0 -700z
m248 2 l2 -672 -110 0 -110 0 0 670 0 669 93 3 c50 2 99 3 107 2 13 -1 15 -84
18 -672z m6702 666 c0 -5 6 -6 13 -1 6 4 1228 8 2715 9 l2702 1 0 -674 0 -673
-6050 0 -6050 0 0 670 0 670 3018 2 c1659 2 3160 3 3335 4 177 0 317 -3 317
-8z"/>
<path d="M374 1245 c-8 -19 2 -45 17 -45 8 0 8 4 -1 15 -10 12 -10 19 -2 27 8
8 13 4 18 -16 9 -36 39 -31 40 7 1 24 -2 27 -33 27 -21 0 -36 -6 -39 -15z m64
-18 c5 -24 -15 -21 -21 4 -3 13 -1 19 6 16 7 -2 13 -11 15 -20z"/>
<path d="M370 1161 c0 -5 11 -12 25 -15 14 -4 25 -11 25 -16 0 -5 -11 -12 -25
-16 -40 -10 -29 -24 18 -23 39 1 40 2 12 9 l-30 7 28 7 c15 5 27 12 27 16 0 4
-12 11 -27 16 l-28 7 30 7 c28 7 27 8 -12 9 -24 0 -43 -3 -43 -8z"/>
<path d="M380 1060 c-23 -15 1 -45 36 -45 31 0 45 28 25 48 -9 9 -11 5 -9 -12
2 -13 -3 -26 -9 -28 -8 -3 -13 5 -13 21 0 28 -6 31 -30 16z m20 -22 c0 -16 -3
-19 -11 -11 -6 6 -8 16 -5 22 11 17 16 13 16 -11z"/>
<path d="M373 946 c2 -66 21 -91 55 -70 21 14 23 55 2 62 -13 5 -13 3 -1 -11
17 -21 7 -47 -18 -47 -23 0 -35 28 -20 46 8 10 8 14 0 14 -6 0 -11 4 -11 9 0
6 17 12 38 14 l37 4 -37 1 c-25 1 -38 7 -41 20 -3 9 -5 -10 -4 -42z"/>
<path d="M395 817 l29 -22 -29 -6 c-26 -6 -23 -7 15 -7 l45 -1 -29 24 -29 23
29 5 c21 3 16 4 -16 5 l-45 1 30 -22z"/>
<path d="M350 755 c-19 -23 -4 -64 26 -71 55 -14 98 38 62 74 -21 21 -32 13
-12 -9 23 -25 9 -53 -29 -57 -32 -4 -56 31 -36 54 6 8 10 17 7 19 -3 3 -11 -1
-18 -10z"/>
<path d="M9701 1584 c0 -11 3 -14 6 -6 3 7 2 16 -1 19 -3 4 -6 -2 -5 -13z"/>
<path d="M7202 1570 c0 -14 2 -19 5 -12 2 6 2 18 0 25 -3 6 -5 1 -5 -13z"/>
<path d="M8079 1513 c-58 -36 -64 -60 -67 -280 l-4 -202 -49 25 c-46 23 -49
23 -40 5 6 -11 11 -22 11 -26 0 -3 -48 -4 -107 -3 l-108 3 -1 143 c-1 128 -3
144 -20 157 -44 34 -170 58 -370 70 l-112 7 24 42 c13 22 24 43 24 46 0 3 -22
5 -50 5 -27 0 -50 -1 -50 -3 0 -1 9 -20 20 -42 11 -22 20 -41 20 -44 0 -2 -46
-7 -102 -10 -217 -15 -342 -40 -379 -77 -18 -18 -19 -35 -19 -304 0 -327 -5
-310 98 -338 112 -31 229 -40 472 -34 245 5 342 19 404 55 l31 18 3 147 3 147
110 0 c105 0 109 -1 99 -19 -17 -32 -12 -33 39 -6 l49 24 4 -202 c3 -224 7
-238 71 -278 31 -18 49 -19 449 -17 l416 3 27 25 c50 45 55 73 55 280 l0 190
135 0 c74 0 135 -3 135 -6 0 -3 -5 -14 -10 -25 -14 -25 -9 -24 49 6 l49 24 6
-42 c23 -145 144 -255 292 -265 174 -11 318 108 339 283 10 77 -21 177 -75
238 -46 52 -146 107 -196 107 -21 0 -37 6 -43 18 -10 16 -10 16 -11 0 0 -13
-8 -18 -28 -18 -123 0 -255 -128 -278 -268 l-6 -41 -49 25 -50 25 7 -26 6 -25
-136 0 -136 0 0 196 c0 219 -7 250 -64 285 -29 18 -57 19 -446 19 -366 -1
-418 -2 -441 -17z m878 -13 c59 -36 58 -27 55 -479 -3 -396 -4 -415 -23 -442
-11 -16 -36 -33 -57 -39 -25 -8 -170 -10 -435 -8 l-399 3 -34 37 -34 38 0 410
c0 347 2 416 15 440 31 59 32 59 475 60 384 0 407 -1 437 -20z m-1384 -134
c128 -30 161 -66 84 -92 -76 -27 -206 -37 -447 -37 -313 0 -480 22 -488 66 -5
25 67 54 175 72 122 20 578 14 676 -9z m2240 -52 c84 -29 174 -128 192 -212
31 -147 -34 -286 -163 -349 -48 -24 -69 -28 -137 -28 -67 0 -88 5 -130 27
-193 102 -229 347 -74 496 78 75 206 102 312 66z m-2120 -75 c-36 -35 -352
-65 -593 -54 -232 9 -365 31 -377 61 -9 24 2 26 56 10 166 -49 760 -44 886 8
25 11 31 10 33 -2 2 -8 0 -18 -5 -23z m0 -50 c-36 -35 -352 -65 -593 -54 -232
9 -365 31 -377 61 -9 24 2 26 56 10 166 -49 760 -44 886 8 25 11 31 10 33 -2
2 -8 0 -18 -5 -23z m7 -233 l0 -224 -35 -16 c-69 -33 -176 -47 -395 -53 -235
-6 -401 9 -495 44 l-50 19 -3 222 c-1 122 1 222 5 222 5 0 29 -7 55 -14 162
-50 764 -43 883 9 16 7 31 14 33 14 1 1 2 -100 2 -223z"/>
<path d="M8099 1493 c-1 -5 -1 -11 0 -15 0 -5 -8 -8 -18 -8 -21 0 -36 -26 -20
-36 7 -4 7 -10 0 -17 -16 -16 -13 -47 4 -47 8 0 15 -6 15 -12 1 -20 57 -71 64
-59 5 7 13 7 27 -2 17 -10 22 -9 32 4 7 8 20 18 31 22 12 5 17 14 13 27 -3 11
-1 23 4 26 13 7 11 20 -4 36 -7 7 -16 21 -20 31 -3 9 -14 17 -22 17 -9 0 -14
4 -10 9 9 15 -30 32 -42 20 -8 -8 -13 -7 -17 0 -8 12 -35 15 -37 4z m11 -55
c-25 -23 -30 -32 -20 -43 9 -11 7 -12 -10 -8 -16 4 -18 9 -9 19 6 7 8 22 4 33
-5 16 -3 20 10 15 11 -5 18 0 22 15 4 17 8 19 20 10 12 -10 9 -17 -17 -41z
m70 20 c0 -19 -2 -20 -10 -8 -13 19 -13 30 0 30 6 0 10 -10 10 -22z m-20 -19
c0 -7 10 -9 25 -5 18 5 25 2 25 -8 0 -8 8 -20 18 -25 14 -9 15 -12 3 -20 -12
-8 -12 -12 -2 -25 12 -15 8 -20 -11 -17 -4 0 -12 -8 -18 -20 -9 -16 -14 -18
-26 -9 -7 7 -21 10 -29 6 -9 -3 -15 0 -15 10 0 9 -9 18 -20 21 -21 6 -28 23
-9 23 7 0 9 10 5 25 -5 20 -3 25 14 25 11 0 20 7 20 15 0 8 5 15 10 15 6 0 10
-5 10 -11z"/>
<path d="M8140 1395 c-18 -22 -1 -50 31 -50 20 0 24 5 24 30 0 23 -5 31 -21
33 -11 2 -27 -4 -34 -13z m36 -23 c-8 -9 -19 -13 -22 -9 -10 9 16 38 28 31 6
-4 4 -13 -6 -22z"/>
<path d="M8100 1210 l0 -51 33 3 c31 3 32 5 32 48 0 43 -1 45 -32 48 l-33 3 0
-51z m55 25 c0 -5 -10 -11 -22 -13 -16 -2 -23 2 -23 13 0 11 7 15 23 13 12 -2
22 -7 22 -13z m0 -45 c0 -8 -10 -16 -22 -18 -18 -3 -23 2 -23 18 0 16 5 21 23
18 12 -2 22 -10 22 -18z"/>
<path d="M8191 1202 c-1 -42 0 -43 27 -40 34 4 39 41 5 46 -12 2 -24 11 -26
20 -3 9 -5 -2 -6 -26z m42 -17 c1 -5 -6 -11 -15 -13 -11 -2 -18 3 -18 13 0 17
30 18 33 0z"/>
<path d="M8263 1200 c0 -25 2 -35 4 -22 2 12 2 32 0 45 -2 12 -4 2 -4 -23z"/>
<path d="M8290 1201 c0 -37 2 -41 25 -41 23 0 25 3 22 38 -2 30 -7 38 -25 40
-20 3 -22 -1 -22 -37z m40 19 c0 -5 -7 -10 -15 -10 -8 0 -15 5 -15 10 0 6 7
10 15 10 8 0 15 -4 15 -10z m0 -35 c0 -8 -7 -15 -15 -15 -8 0 -15 7 -15 15 0
8 7 15 15 15 8 0 15 -7 15 -15z"/>
<path d="M8360 1221 c-16 -31 4 -64 36 -58 17 3 24 0 25 -12 0 -10 2 -12 6 -3
2 6 17 12 33 12 16 0 31 -6 34 -12 4 -7 4 -2 1 12 -2 14 -5 37 -5 53 0 22 -4
27 -25 27 -21 0 -25 -5 -25 -29 0 -42 -18 -48 -22 -9 -4 40 -40 52 -58 19z
m45 -21 c0 -27 -22 -39 -31 -16 -8 22 3 49 19 43 6 -2 12 -14 12 -27z m75 0
c0 -22 -5 -30 -18 -30 -15 0 -18 6 -14 30 2 17 10 30 18 30 9 0 14 -11 14 -30z"/>
<path d="M8553 1233 c12 -3 17 -16 19 -41 l1 -37 4 35 c3 19 10 38 16 42 7 4
-4 7 -23 7 -19 -1 -27 -3 -17 -6z"/>
<path d="M8614 1226 c-16 -41 20 -86 47 -59 6 6 1 9 -12 9 -12 -1 -24 5 -26
12 -3 7 5 12 22 12 20 0 26 4 23 18 -4 22 -46 29 -54 8z m41 -6 c3 -5 -3 -10
-15 -10 -12 0 -18 5 -15 10 3 6 10 10 15 10 5 0 12 -4 15 -10z"/>
<path d="M8692 1200 c0 -25 3 -34 5 -21 l5 25 20 -25 20 -24 -15 26 c-14 24
-14 28 1 43 9 9 11 16 5 16 -6 0 -14 -8 -18 -17 -7 -17 -8 -16 -15 2 -6 15 -8
8 -8 -25z"/>
<path d="M8750 1220 c-8 -14 -8 -26 0 -40 11 -21 44 -27 55 -10 4 7 -2 9 -19
4 -24 -6 -26 -4 -26 26 0 27 3 32 20 27 11 -3 20 -1 20 4 0 17 -39 9 -50 -11z"/>
<path d="M8823 1233 c12 -3 17 -16 19 -41 l1 -37 4 35 c3 19 10 38 16 42 7 4
-4 7 -23 7 -19 -1 -27 -3 -17 -6z"/>
<path d="M8886 1232 c-3 -6 3 -8 14 -5 26 7 26 -14 0 -22 -11 -3 -20 -15 -20
-26 0 -15 6 -19 30 -17 29 2 31 5 28 38 -2 27 -8 36 -25 38 -11 2 -24 -1 -27
-6z m34 -47 c0 -8 -7 -15 -15 -15 -16 0 -20 12 -8 23 11 12 23 8 23 -8z"/>
<path d="M8209 1039 c-14 -27 6 -61 34 -57 17 2 23 11 25 36 5 47 32 43 34 -5
l1 -38 4 35 c3 19 10 38 16 42 7 4 -14 7 -46 7 -46 -1 -59 -5 -68 -20z m46
-19 c0 -13 -6 -25 -12 -27 -16 -6 -27 21 -19 43 9 23 31 11 31 -16z"/>
<path d="M8346 1051 c-3 -5 3 -7 14 -4 22 6 28 -12 8 -20 -10 -4 -10 -6 0 -6
6 -1 12 -8 12 -17 0 -12 -6 -15 -21 -11 -16 4 -19 3 -11 -5 20 -20 42 -1 39
34 -2 32 -28 51 -41 29z"/>
<path d="M8411 1023 c-1 -39 1 -43 23 -43 13 0 27 6 29 13 4 10 6 10 6 0 1 -7
6 -13 11 -13 6 0 10 18 10 40 0 22 -4 40 -10 40 -5 0 -10 -11 -10 -24 0 -22
-2 -23 -25 -13 -13 7 -26 19 -29 27 -2 8 -4 -4 -5 -27z m39 -18 c0 -8 -7 -15
-15 -15 -8 0 -15 7 -15 15 0 8 7 15 15 15 8 0 15 -7 15 -15z"/>
<path d="M8510 1021 c0 -37 2 -41 25 -41 23 0 25 3 22 38 -2 30 -7 38 -25 40
-20 3 -22 -1 -22 -37z m40 19 c0 -5 -7 -10 -15 -10 -8 0 -15 5 -15 10 0 6 7
10 15 10 8 0 15 -4 15 -10z m0 -35 c0 -8 -7 -15 -15 -15 -8 0 -15 7 -15 15 0
8 7 15 15 15 8 0 15 -7 15 -15z"/>
<path d="M8575 1050 c-4 -7 2 -9 19 -4 34 8 34 -9 0 -25 -33 -15 -26 -36 12
-38 28 -1 29 0 26 38 -4 33 -8 39 -27 39 -13 0 -27 -5 -30 -10z m45 -39 c0
-14 -18 -23 -31 -15 -8 4 -7 9 2 15 18 11 29 11 29 0z"/>
<path d="M8693 1020 c0 -25 2 -35 4 -22 3 13 12 22 23 22 11 0 20 -9 23 -22 2
-13 4 -3 4 22 1 25 -1 37 -4 28 -2 -10 -13 -18 -23 -18 -10 0 -21 8 -23 18 -3
9 -5 -3 -4 -28z"/>
<path d="M8776 1052 c-3 -6 3 -8 14 -5 26 7 26 -14 0 -22 -11 -3 -20 -15 -20
-26 0 -15 6 -19 30 -17 29 2 31 5 28 38 -2 27 -8 36 -25 38 -11 2 -24 -1 -27
-6z m34 -47 c0 -8 -7 -15 -15 -15 -16 0 -20 12 -8 23 11 12 23 8 23 -8z"/>
<path d="M8506 888 c7 -10 34 -10 34 0 0 4 -9 8 -19 8 -11 0 -17 -4 -15 -8z"/>
<path d="M8350 855 c-24 -29 14 -85 41 -58 9 9 7 11 -8 7 -13 -4 -22 0 -26 10
-10 25 3 48 24 43 11 -3 17 -1 13 4 -8 14 -30 11 -44 -6z"/>
<path d="M8415 860 c-4 -7 2 -9 19 -4 34 8 34 -9 0 -25 -33 -15 -26 -36 12
-38 28 -1 29 0 26 38 -4 33 -8 39 -27 39 -13 0 -27 -5 -30 -10z m45 -39 c0
-14 -18 -23 -31 -15 -8 4 -7 9 2 15 18 11 29 11 29 0z"/>
<path d="M8491 833 c-1 -49 10 -55 29 -15 l13 27 8 -30 c6 -28 7 -27 8 13 1
48 -10 54 -29 15 l-13 -28 -8 30 c-6 28 -7 27 -8 -12z"/>
<path d="M8573 863 c12 -3 17 -16 19 -41 l1 -37 4 35 c3 19 10 38 16 42 7 4
-4 7 -23 7 -19 -1 -27 -3 -17 -6z"/>
<path d="M8630 851 c-8 -15 -8 -27 0 -41 11 -20 44 -27 54 -12 3 5 -4 8 -16 8
-12 -1 -23 5 -25 12 -3 7 5 12 22 12 20 0 26 4 23 18 -5 25 -44 27 -58 3z m45
-1 c3 -5 -3 -10 -14 -10 -12 0 -21 5 -21 10 0 6 6 10 14 10 8 0 18 -4 21 -10z"/>
<path d="M9480 1025 l0 -135 225 2 225 1 0 134 0 133 -225 0 -225 0 0 -135z
m380 116 c33 -1 31 -3 -52 -51 -48 -28 -93 -50 -100 -50 -7 0 -51 23 -98 50
l-85 49 105 3 c58 2 125 2 150 1 25 -1 61 -2 80 -2z m60 -116 l0 -115 -210 0
-210 0 0 110 c0 61 3 110 7 110 4 0 51 -25 104 -55 l98 -56 103 60 c57 33 104
60 106 60 1 1 2 -51 2 -114z"/>
<path d="M9701 1504 c0 -11 3 -14 6 -6 3 7 2 16 -1 19 -3 4 -6 -2 -5 -13z"/>
<path d="M9701 1434 c0 -11 3 -14 6 -6 3 7 2 16 -1 19 -3 4 -6 -2 -5 -13z"/>
<path d="M6820 485 c0 -54 1 -55 29 -55 16 0 34 6 40 14 18 22 2 46 -30 46
-22 0 -29 5 -29 19 0 15 8 21 33 24 31 4 31 4 -5 5 l-38 2 0 -55z m60 -25 c0
-15 -7 -20 -25 -20 -18 0 -25 5 -25 20 0 15 7 20 25 20 18 0 25 -5 25 -20z"/>
<path d="M6925 490 c-4 -27 -11 -50 -16 -50 -5 0 -9 -9 -9 -20 0 -11 5 -20 10
-20 6 0 10 7 10 15 0 19 66 21 73 3 2 -7 3 0 1 16 -2 16 -4 46 -4 67 0 36 -2
39 -29 39 -27 0 -30 -3 -36 -50z m55 -5 c0 -42 -2 -45 -26 -45 -22 0 -25 3
-20 23 3 12 6 32 6 45 0 15 6 22 20 22 17 0 20 -7 20 -45z"/>
<path d="M7064 496 c-11 -29 1 -61 23 -64 29 -4 48 30 33 58 -12 23 -48 27
-56 6z m41 -26 c0 -13 -6 -25 -12 -27 -16 -6 -27 21 -19 43 9 23 31 11 31 -16z"/>
<path d="M7142 503 c11 -3 18 -17 21 -41 l4 -37 1 37 c2 34 3 36 37 35 32 -1
52 -17 23 -17 -7 0 -5 -5 5 -11 23 -14 11 -32 -16 -23 -17 5 -19 3 -11 -6 7
-6 20 -10 30 -8 14 2 19 12 19 38 l0 35 -65 1 c-36 1 -57 0 -48 -3z"/>
<path d="M7281 472 c-1 -42 0 -43 27 -40 34 4 39 41 5 46 -12 2 -24 11 -26 20
-3 9 -5 -2 -6 -26z m42 -17 c1 -5 -6 -11 -15 -13 -11 -2 -18 3 -18 13 0 17 30
18 33 0z"/>
<path d="M7353 470 c0 -25 2 -35 4 -22 2 12 2 32 0 45 -2 12 -4 2 -4 -23z"/>
<path d="M7380 470 c0 -38 2 -40 29 -40 36 0 43 9 35 49 -6 26 -11 31 -35 31
-27 0 -29 -3 -29 -40z m50 20 c0 -5 -7 -10 -15 -10 -8 0 -15 5 -15 10 0 6 7
10 15 10 8 0 15 -4 15 -10z m0 -35 c0 -8 -7 -15 -15 -15 -8 0 -15 7 -15 15 0
8 7 15 15 15 8 0 15 -7 15 -15z"/>
<path d="M7464 496 c-12 -31 0 -61 25 -61 31 0 50 28 35 53 -14 22 -52 28 -60
8z m49 -8 c6 -21 -4 -48 -19 -48 -18 0 -28 24 -20 45 7 18 33 20 39 3z"/>
<path d="M7540 470 c0 -38 2 -40 29 -40 36 0 43 9 35 49 -6 26 -11 31 -35 31
-27 0 -29 -3 -29 -40z m50 20 c0 -5 -7 -10 -15 -10 -8 0 -15 5 -15 10 0 6 7
10 15 10 8 0 15 -4 15 -10z m0 -35 c0 -8 -7 -15 -15 -15 -8 0 -15 7 -15 15 0
8 7 15 15 15 8 0 15 -7 15 -15z"/>
</g>
</svg>
