<?xml version="1.0" standalone="no"?>
<!DOCTYPE svg PUBLIC "-//W3C//DTD SVG 20010904//EN"
 "http://www.w3.org/TR/2001/REC-SVG-20010904/DTD/svg10.dtd">
<svg version="1.0" xmlns="http://www.w3.org/2000/svg"
 width="1276.000000pt" height="505.000000pt" viewBox="0 0 1276.000000 505.000000"
 preserveAspectRatio="xMidYMid meet">

<g transform="translate(0.000000,505.000000) scale(0.100000,-0.100000)"
fill="#000000" stroke="none">
<path d="M323 4912 l-133 -3 0 -1504 0 -1505 4094 0 c3266 0 4095 -3 4099 -12
4 -10 6 -10 6 0 1 18 1117 18 1124 0 4 -10 6 -10 6 0 1 9 314 12 1531 12
l1530 0 2 753 c2 413 2 1091 0 1505 l-2 752 -5933 0 c-3262 0 -5990 2 -6062 3
-71 1 -190 1 -262 -1z m117 -1507 l0 -1495 -115 0 -115 0 0 1495 0 1495 115 0
115 0 0 -1495z m254 1123 c-1 -205 -2 -541 -3 -745 l-1 -373 -115 0 -115 0 0
745 0 745 118 0 118 0 -2 -372z m11876 -373 l0 -745 -1525 0 -1525 0 0 75 c0
41 3 75 6 75 3 0 14 -5 25 -11 18 -9 18 -6 -6 40 -14 28 -25 53 -25 56 0 3 89
5 198 5 302 0 302 0 302 303 l0 197 105 0 c58 0 105 -3 105 -6 0 -3 -5 -14
-10 -25 -14 -25 -9 -24 50 6 l50 25 0 -197 c0 -225 7 -254 70 -285 32 -16 74
-18 438 -18 445 0 444 0 482 63 18 29 20 51 20 235 l0 202 140 0 c136 0 140
-1 130 -19 -16 -31 -12 -33 31 -10 44 22 58 16 59 -22 1 -82 93 -200 191 -244
56 -25 70 -27 148 -23 71 3 95 9 139 33 110 60 163 147 170 276 4 78 2 92 -23
148 -35 78 -113 152 -187 177 -195 68 -396 -45 -439 -246 -6 -27 -13 -50 -15
-50 -3 0 -23 9 -45 21 -40 20 -40 20 -30 0 6 -11 11 -22 11 -25 0 -3 -63 -6
-139 -6 l-140 0 -3 215 -3 215 -33 32 -32 33 -420 3 c-465 3 -461 3 -500 -61
-18 -29 -20 -51 -20 -235 l0 -202 -50 25 -51 26 7 -26 6 -25 -106 0 -106 0 0
203 c0 183 -2 205 -20 234 -39 64 -35 64 -500 61 l-420 -3 -32 -33 -33 -32 -3
-420 c-3 -465 -3 -461 61 -500 29 -18 51 -20 235 -20 l202 0 -25 -50 c-30 -59
-31 -64 -6 -50 11 5 22 10 26 10 3 0 5 -33 3 -72 l-3 -73 -4397 -3 -4398 -2 0
745 0 745 5930 0 5930 0 0 -745z m-2630 482 c13 -7 35 -28 47 -46 23 -34 23
-34 23 -430 0 -357 -2 -399 -18 -431 -34 -69 -39 -70 -483 -70 -396 0 -396 0
-430 23 -59 40 -59 35 -59 470 0 342 2 404 16 432 30 64 35 65 479 65 300 0
406 -3 425 -13z m1315 -3 c64 -30 65 -37 65 -481 0 -435 0 -430 -59 -470 -34
-23 -34 -23 -430 -23 -357 0 -399 2 -431 18 -69 34 -70 39 -70 483 0 396 0
396 23 430 40 59 35 59 470 59 343 0 404 -2 432 -16z m882 -213 c109 -55 168
-148 167 -266 0 -86 -25 -146 -84 -205 -59 -59 -119 -84 -205 -84 -201 -1
-339 188 -279 380 24 77 105 162 179 187 66 23 165 17 222 -12z m-11447 -1766
l0 -745 -115 0 -115 0 0 745 0 745 115 0 115 0 0 -745z m8818 533 l-3 -213
-46 -6 c-54 -8 -116 -38 -163 -80 -45 -39 -96 -140 -96 -191 0 -21 -2 -38 -5
-38 -3 0 -28 11 -56 25 -46 24 -49 24 -40 6 6 -11 11 -22 11 -25 0 -3 -47 -6
-104 -6 l-104 0 -4 203 c-3 176 -5 206 -22 233 -39 65 -31 64 -488 64 -386 0
-415 -1 -444 -19 -63 -38 -64 -47 -64 -480 0 -424 1 -432 54 -481 27 -25 29
-25 237 -28 115 -2 209 -5 209 -8 0 -3 -9 -22 -20 -44 -25 -49 -25 -53 0 -45
15 5 20 2 21 -12 1 -17 2 -17 6 0 4 14 11 17 29 13 l25 -7 -26 51 -25 50 202
0 c184 0 206 2 235 20 64 39 68 53 71 277 l4 203 104 0 c100 0 104 -1 94 -19
-17 -32 -12 -33 40 -6 27 14 52 25 55 25 3 0 5 -13 5 -30 0 -122 134 -263 265
-278 l44 -4 -24 -49 c-31 -60 -31 -61 1 -47 19 9 33 9 54 1 l29 -11 -24 49
c-14 26 -25 50 -25 52 0 2 20 7 45 10 94 13 188 83 236 177 34 65 34 204 1
272 -47 96 -164 178 -252 178 l-30 0 0 215 0 215 1525 0 1525 0 0 -745 0 -745
-5930 0 -5930 0 0 745 0 745 4400 0 4400 0 -2 -212z m-688 -53 c60 -31 60 -34
60 -485 l0 -410 -34 -38 -34 -37 -394 -3 c-216 -2 -408 0 -427 3 -20 4 -47 20
-63 37 l-28 30 0 420 c0 277 4 426 11 439 5 11 25 29 42 39 30 19 54 20 435
20 341 0 408 -2 432 -15z m840 -211 c177 -96 212 -340 69 -483 -183 -182 -498
-68 -517 188 -5 81 8 134 51 198 33 50 107 106 161 123 17 5 65 8 106 6 61 -2
86 -8 130 -32z"/>
<path d="M298 4793 c12 -2 30 -2 40 0 9 3 -1 5 -23 4 -22 0 -30 -2 -17 -4z"/>
<path d="M292 4378 c3 -28 7 -33 30 -33 14 0 30 -3 34 -7 4 -5 -9 -8 -29 -8
-36 0 -37 -1 -37 -35 0 -30 3 -35 24 -35 13 0 31 -3 40 -6 11 -4 16 -1 16 10
0 11 -9 16 -30 16 -20 0 -30 5 -30 15 0 10 10 15 30 15 25 0 30 4 30 24 0 13
-7 26 -15 30 -8 3 -15 10 -15 16 0 5 7 10 15 10 8 0 15 5 15 10 0 6 -18 10
-41 10 -39 0 -40 -1 -37 -32z m36 1 c-2 -6 -8 -10 -13 -10 -5 0 -11 4 -13 10
-2 6 4 11 13 11 9 0 15 -5 13 -11z"/>
<path d="M300 4215 c-17 -20 3 -45 37 -45 26 0 39 21 28 48 -7 15 -9 14 -15
-8 -8 -24 -8 -24 -9 -2 -1 25 -23 29 -41 7z"/>
<path d="M290 4110 c0 -16 5 -30 10 -30 6 0 10 5 10 10 0 6 14 10 30 10 17 0
30 5 30 10 0 6 -13 10 -30 10 -16 0 -30 5 -30 10 0 6 -4 10 -10 10 -5 0 -10
-13 -10 -30z"/>
<path d="M294 4055 c-7 -18 2 -45 15 -45 5 0 7 10 5 23 l-5 22 12 -23 c17 -31
44 -24 45 11 1 24 -2 27 -33 27 -21 0 -36 -6 -39 -15z m61 -15 c3 -5 1 -10 -4
-10 -6 0 -11 5 -11 10 0 6 2 10 4 10 3 0 8 -4 11 -10z"/>
<path d="M296 3983 c-3 -3 -6 -19 -6 -35 0 -26 3 -28 41 -28 39 0 40 1 37 32
-3 28 -7 33 -34 35 -17 1 -34 0 -38 -4z m20 -40 c-10 -10 -19 5 -10 18 6 11 8
11 12 0 2 -7 1 -15 -2 -18z m44 12 c0 -8 -4 -15 -10 -15 -5 0 -10 7 -10 15 0
8 5 15 10 15 6 0 10 -7 10 -15z"/>
<path d="M299 3884 c-17 -21 0 -49 31 -49 31 0 48 28 31 49 -8 9 -21 16 -31
16 -10 0 -23 -7 -31 -16z m51 -19 c0 -8 -9 -15 -20 -15 -11 0 -20 7 -20 15 0
8 9 15 20 15 11 0 20 -7 20 -15z"/>
<path d="M293 3793 c-3 -8 -1 -19 6 -26 8 -8 11 -7 11 4 0 8 10 15 24 15 18 1
23 -2 19 -14 -4 -10 -2 -13 6 -8 7 4 11 15 9 24 -4 22 -67 26 -75 5z"/>
<path d="M324 3706 c-3 -14 -12 -26 -20 -26 -8 0 -14 -4 -14 -10 0 -5 18 -10
41 -10 39 0 40 1 37 32 -4 42 -34 51 -44 14z m36 -11 c0 -8 -4 -15 -10 -15 -5
0 -10 7 -10 15 0 8 5 15 10 15 6 0 10 -7 10 -15z"/>
<path d="M290 3615 c0 -30 3 -35 24 -35 13 0 31 -3 40 -6 11 -4 16 -1 16 10 0
11 -9 16 -30 16 -20 0 -30 5 -30 15 0 10 10 15 30 15 17 0 30 5 30 10 0 6 -18
10 -40 10 -39 0 -40 -1 -40 -35z"/>
<path d="M299 3534 c-17 -21 0 -49 31 -49 31 0 48 28 31 49 -8 9 -21 16 -31
16 -10 0 -23 -7 -31 -16z m51 -19 c0 -8 -9 -15 -20 -15 -11 0 -20 7 -20 15 0
8 9 15 20 15 11 0 20 -7 20 -15z"/>
<path d="M290 3425 c0 -34 1 -35 40 -35 22 0 40 5 40 10 0 6 -13 10 -30 10
-20 0 -30 5 -30 15 0 10 10 15 30 15 17 0 30 5 30 10 0 6 -18 10 -40 10 -39 0
-40 -1 -40 -35z"/>
<path d="M292 3298 c2 -28 7 -33 28 -33 14 0 31 -4 38 -8 7 -5 12 -3 12 6 0 8
-7 17 -15 21 -8 3 -15 10 -15 16 0 5 7 10 15 10 8 0 15 5 15 10 0 6 -18 10
-41 10 -39 0 -40 -1 -37 -32z m36 1 c-2 -6 -8 -10 -13 -10 -5 0 -11 4 -13 10
-2 6 4 11 13 11 9 0 15 -5 13 -11z"/>
<path d="M290 3231 c0 -5 10 -16 23 -24 l22 -16 -22 0 c-41 -1 -24 -21 17 -21
45 0 51 11 18 34 l-22 16 22 0 c12 0 22 5 22 10 0 6 -18 10 -40 10 -22 0 -40
-4 -40 -9z"/>
<path d="M323 3153 c-41 -5 -43 -23 -3 -23 20 0 30 -5 30 -15 0 -10 -10 -15
-30 -15 -16 0 -30 -4 -30 -10 0 -5 18 -10 40 -10 38 0 40 2 40 30 0 17 5 30
10 30 6 0 10 5 10 10 0 10 -7 10 -67 3z"/>
<path d="M294 3035 c-7 -18 2 -45 15 -45 5 0 7 10 5 23 l-5 22 12 -23 c17 -31
44 -24 45 11 1 24 -2 27 -33 27 -21 0 -36 -6 -39 -15z m61 -15 c3 -5 1 -10 -4
-10 -6 0 -11 5 -11 10 0 6 2 10 4 10 3 0 8 -4 11 -10z"/>
<path d="M304 2962 c-7 -4 -12 -19 -12 -34 0 -27 2 -28 54 -28 30 0 54 5 54
10 0 6 -9 10 -20 10 -14 0 -18 5 -13 16 10 26 -35 45 -63 26z m46 -27 c0 -8
-9 -15 -20 -15 -11 0 -20 7 -20 15 0 8 9 15 20 15 11 0 20 -7 20 -15z"/>
<path d="M290 2850 c0 -16 5 -30 10 -30 6 0 10 5 10 10 0 6 14 10 30 10 17 0
30 5 30 10 0 6 -13 10 -30 10 -16 0 -30 5 -30 10 0 6 -4 10 -10 10 -5 0 -10
-13 -10 -30z"/>
<path d="M294 2785 c-9 -23 16 -46 45 -43 20 2 26 9 26 27 0 13 -6 26 -14 29
-9 3 -11 -1 -6 -17 5 -17 2 -21 -15 -21 -17 0 -20 4 -15 20 7 23 -13 28 -21 5z"/>
<path d="M290 2711 c0 -5 10 -16 23 -24 l22 -16 -22 0 c-41 -1 -24 -21 17 -21
45 0 51 11 18 34 l-22 16 22 0 c12 0 22 5 22 10 0 6 -18 10 -40 10 -22 0 -40
-4 -40 -9z"/>
<path d="M290 2615 c0 -22 4 -25 40 -25 22 0 40 5 40 10 0 6 -13 10 -30 10
-20 0 -30 5 -30 15 0 8 -4 15 -10 15 -5 0 -10 -11 -10 -25z"/>
<path d="M300 2555 c-17 -20 3 -45 37 -45 26 0 39 21 28 48 -7 15 -9 14 -15
-8 -8 -24 -8 -24 -9 -2 -1 25 -23 29 -41 7z"/>
<path d="M266 2474 c-3 -9 -6 -27 -6 -40 0 -22 3 -24 55 -24 30 0 55 5 55 10
0 6 -9 10 -20 10 -13 0 -20 7 -20 18 0 37 -52 58 -64 26z m44 -24 c0 -11 -7
-20 -15 -20 -8 0 -15 9 -15 20 0 11 7 20 15 20 8 0 15 -9 15 -20z"/>
<path d="M548 4793 c12 -2 30 -2 40 0 9 3 -1 5 -23 4 -22 0 -30 -2 -17 -4z"/>
<path d="M540 4390 c0 -16 5 -30 10 -30 6 0 10 5 10 10 0 6 14 10 30 10 17 0
30 5 30 10 0 6 -13 10 -30 10 -16 0 -30 5 -30 10 0 6 -4 10 -10 10 -5 0 -10
-13 -10 -30z"/>
<path d="M540 4340 c0 -5 7 -10 15 -10 8 0 15 -7 15 -15 0 -8 -7 -15 -15 -15
-8 0 -15 -4 -15 -10 0 -5 18 -10 40 -10 22 0 40 5 40 10 0 6 -7 10 -15 10 -8
0 -15 7 -15 15 0 8 7 15 15 15 8 0 15 5 15 10 0 6 -18 10 -40 10 -22 0 -40 -4
-40 -10z"/>
<path d="M550 4235 c-17 -20 3 -45 37 -45 26 0 39 21 28 48 -7 15 -9 14 -15
-8 -8 -24 -8 -24 -9 -2 -1 25 -23 29 -41 7z"/>
<path d="M540 4161 c0 -5 10 -16 23 -24 l22 -16 -22 0 c-41 -1 -24 -21 17 -21
45 0 51 11 18 34 l-22 16 22 0 c12 0 22 5 22 10 0 6 -18 10 -40 10 -22 0 -40
-4 -40 -9z"/>
<path d="M540 4055 c0 -30 3 -35 24 -35 13 0 31 -3 40 -6 11 -4 16 -1 16 10 0
11 -9 16 -30 16 -20 0 -30 5 -30 15 0 10 10 15 30 15 17 0 30 5 30 10 0 6 -18
10 -40 10 -39 0 -40 -1 -40 -35z"/>
<path d="M510 3975 c0 -9 12 -21 28 -27 l27 -12 -27 -4 c-49 -6 -30 -22 27
-22 57 0 76 16 28 22 l-28 4 28 14 c15 7 27 19 27 27 0 11 -5 11 -29 -2 -29
-15 -61 -12 -61 6 0 5 -4 9 -10 9 -5 0 -10 -7 -10 -15z"/>
<path d="M9115 4617 c-13 -10 -17 -22 -13 -43 5 -25 1 -32 -25 -49 -26 -17
-33 -28 -35 -63 l-3 -42 105 0 106 0 0 36 c0 48 -14 70 -51 83 -34 12 -53 6
-30 -8 11 -7 9 -11 -7 -20 -24 -13 -37 1 -37 39 0 19 5 25 23 26 13 1 26 -5
29 -12 8 -21 23 -6 23 21 0 39 -49 57 -85 32z m109 -109 c21 -29 21 -78 1 -78
-8 0 -16 8 -16 18 -1 16 -2 16 -6 0 -6 -24 -113 -27 -113 -3 0 8 -4 15 -10 15
-5 0 -10 -7 -10 -15 0 -8 -4 -15 -10 -15 -16 0 -11 52 7 72 20 22 36 23 53 3
17 -21 48 -19 62 5 16 26 23 25 42 -2z"/>
<path d="M9100 4218 c0 -1 -9 -27 -20 -55 -11 -29 -15 -53 -10 -53 6 0 10 7
10 15 0 10 10 15 30 15 20 0 30 -5 30 -15 0 -8 5 -15 10 -15 13 0 13 -4 -9 55
-10 27 -24 51 -30 53 -6 2 -11 2 -11 0z m24 -44 c9 -23 8 -24 -14 -24 -11 0
-20 2 -20 4 0 12 13 36 20 36 4 0 11 -7 14 -16z"/>
<path d="M9170 4151 c0 -39 2 -41 30 -41 29 0 30 2 28 38 -3 32 -7 37 -31 40
-25 3 -27 1 -27 -37z m50 19 c0 -5 -9 -10 -20 -10 -11 0 -20 5 -20 10 0 6 9
10 20 10 11 0 20 -4 20 -10z m0 -35 c0 -8 -9 -15 -20 -15 -11 0 -20 7 -20 15
0 8 9 15 20 15 11 0 20 -7 20 -15z"/>
<path d="M9248 4183 c6 -2 12 -20 12 -39 0 -19 5 -34 10 -34 6 0 10 15 10 34
0 19 6 37 13 39 6 3 -4 5 -23 5 -19 0 -29 -2 -22 -5z"/>
<path d="M9322 4178 c-27 -27 -3 -73 35 -66 27 5 25 72 -2 76 -11 1 -26 -3
-33 -10z m43 -28 c0 -28 -29 -40 -38 -15 -9 22 3 46 22 43 10 -2 16 -13 16
-28z"/>
<path d="M9401 4133 c1 -32 3 -50 6 -41 2 9 14 18 26 20 18 2 22 10 22 38 0
31 -3 35 -27 38 -28 3 -28 3 -27 -55z m44 17 c0 -27 -22 -39 -31 -16 -8 22 3
49 19 43 6 -2 12 -14 12 -27z"/>
<path d="M9481 4153 c-1 -47 5 -53 25 -25 18 23 18 37 0 23 -12 -10 -15 -7
-19 16 -3 20 -4 16 -6 -14z"/>
<path d="M9526 4182 c-2 -4 -1 -23 4 -42 l8 -35 1 43 c1 41 -3 50 -13 34z"/>
<path d="M9564 4179 c-4 -8 0 -9 15 -4 22 7 30 -10 9 -18 -10 -4 -10 -6 0 -6
6 -1 12 -8 12 -17 0 -11 -6 -15 -20 -11 -11 3 -18 1 -14 -4 8 -13 42 -11 46 3
2 6 2 24 0 40 -4 29 -34 40 -48 17z"/>
<path d="M9635 4180 c-4 -7 2 -9 19 -4 16 4 26 2 26 -5 0 -6 -11 -13 -26 -17
-37 -10 -27 -39 14 -40 32 -1 33 0 30 35 -3 31 -7 36 -30 39 -14 2 -29 -2 -33
-8z m45 -39 c0 -14 -18 -23 -31 -15 -8 4 -7 9 2 15 18 11 29 11 29 0z"/>
<path d="M9722 4153 c-2 -40 0 -43 23 -43 16 0 25 -6 25 -15 0 -8 5 -15 10
-15 7 0 8 19 4 53 -8 63 -14 73 -14 24 0 -30 -4 -37 -19 -37 -15 0 -21 8 -24
38 l-4 37 -1 -42z"/>
<path d="M9801 4153 c-1 -47 5 -53 25 -25 18 23 18 37 0 23 -12 -10 -15 -7
-19 16 -3 20 -4 16 -6 -14z"/>
<path d="M9846 4182 c-2 -4 -1 -23 4 -42 l8 -35 1 43 c1 41 -3 50 -13 34z"/>
<path d="M9884 4179 c-3 -6 -1 -16 4 -21 8 -8 8 -17 1 -30 -6 -10 -6 -18 0
-18 5 0 11 7 15 15 3 8 10 15 16 15 5 0 10 -7 10 -15 0 -8 5 -15 10 -15 6 0
10 18 10 40 0 38 -2 40 -29 40 -17 0 -33 -5 -37 -11z m46 -14 c0 -8 -7 -15
-15 -15 -8 0 -15 7 -15 15 0 8 7 15 15 15 8 0 15 -7 15 -15z"/>
<path d="M10426 4614 c-19 -18 -21 -45 -4 -62 9 -9 9 -12 -4 -12 -30 0 -68
-47 -68 -85 l0 -35 105 0 105 0 0 38 c0 40 -23 82 -44 82 -8 0 -11 10 -8 30 2
17 -1 37 -8 45 -16 20 -54 19 -74 -1z m62 -52 c2 -7 -2 -12 -8 -12 -9 0 -10
-3 -1 -14 9 -10 8 -16 -3 -26 -20 -15 -39 -3 -33 21 3 10 1 22 -4 25 -5 3 -7
10 -4 15 8 12 48 5 53 -9z m44 -49 c23 -20 25 -83 3 -83 -8 0 -16 8 -16 18 -1
16 -2 16 -6 0 -4 -14 -15 -18 -59 -18 -44 0 -54 3 -55 18 -1 16 -2 16 -6 0 -7
-28 -33 -22 -33 7 0 45 60 86 74 50 8 -22 44 -18 58 5 15 24 17 24 40 3z"/>
<path d="M10482 4343 l2 -58 3 53 c4 50 5 52 33 52 28 0 29 -2 33 -52 l3 -53
2 58 2 57 -40 0 -40 0 2 -57z"/>
<path d="M10584 4356 c-11 -30 1 -61 25 -64 13 -2 28 1 34 7 7 7 2 10 -18 8
-15 -1 -30 4 -32 11 -3 8 6 12 26 12 33 0 39 8 19 28 -16 16 -47 15 -54 -2z
m46 -6 c0 -5 -9 -10 -21 -10 -11 0 -17 5 -14 10 3 6 13 10 21 10 8 0 14 -4 14
-10z"/>
<path d="M10660 4316 c0 -31 5 -56 10 -56 6 0 10 6 10 14 0 8 10 16 23 18 18
2 22 9 22 38 0 32 -3 35 -32 38 l-33 3 0 -55z m55 14 c0 -27 -22 -39 -31 -16
-8 22 3 49 19 43 6 -2 12 -14 12 -27z"/>
<path d="M10752 4358 c-15 -15 -15 -41 0 -56 14 -14 44 -16 52 -3 3 4 -6 6
-19 3 -18 -3 -25 0 -25 12 0 11 9 16 26 16 19 0 25 5 22 18 -4 21 -39 27 -56
10z m43 -8 c3 -5 -3 -10 -14 -10 -12 0 -21 5 -21 10 0 6 6 10 14 10 8 0 18 -4
21 -10z"/>
<path d="M10830 4355 c10 -12 10 -21 2 -40 -7 -14 -8 -25 -3 -25 5 0 12 8 16
18 6 16 7 16 16 0 6 -10 15 -18 20 -18 6 0 3 10 -5 22 -14 20 -14 24 1 40 17
19 5 26 -14 7 -8 -8 -13 -8 -17 0 -4 6 -12 11 -18 11 -6 0 -6 -6 2 -15z"/>
<path d="M10904 4356 c-12 -31 0 -61 25 -61 31 0 50 28 35 53 -14 22 -52 28
-60 8z m49 -8 c6 -21 -4 -48 -19 -48 -18 0 -28 24 -20 45 7 18 33 20 39 3z"/>
<path d="M10990 4341 c0 -17 -4 -33 -10 -36 -5 -3 -10 -14 -9 -23 0 -11 3 -12
6 -4 2 6 17 12 33 12 16 0 31 -6 34 -12 4 -7 4 -2 1 12 -2 14 -5 37 -5 53 0
22 -4 27 -25 27 -21 0 -25 -5 -25 -29z m40 -11 c0 -22 -5 -30 -18 -30 -15 0
-18 6 -14 30 2 17 10 30 18 30 9 0 14 -11 14 -30z"/>
<path d="M11110 4331 c0 -39 2 -41 30 -41 29 0 30 2 28 38 -3 32 -7 37 -31 40
-25 3 -27 1 -27 -37z m50 19 c0 -5 -9 -10 -20 -10 -11 0 -20 5 -20 10 0 6 9
10 20 10 11 0 20 -4 20 -10z m0 -35 c0 -8 -9 -15 -20 -15 -11 0 -20 7 -20 15
0 8 9 15 20 15 11 0 20 -7 20 -15z"/>
<path d="M11026 4208 c3 -4 12 -8 20 -8 8 0 14 4 14 8 0 4 -9 8 -19 8 -11 0
-17 -4 -15 -8z"/>
<path d="M10580 4156 c0 -19 -5 -37 -10 -39 -6 -3 -5 -4 2 -3 7 1 14 17 16 34
5 46 32 43 32 -3 0 -19 5 -35 10 -35 6 0 10 18 10 40 0 38 -2 40 -30 40 -27 0
-30 -3 -30 -34z"/>
<path d="M10661 4150 l0 -45 22 30 22 29 6 -29 c6 -27 7 -25 8 13 1 48 -10 54
-29 15 l-13 -28 -8 30 c-6 27 -7 25 -8 -15z"/>
<path d="M10744 4165 c1 -13 9 -21 23 -23 12 -2 24 -11 26 -20 3 -9 5 3 4 28
0 25 -2 35 -4 23 -5 -27 -40 -31 -46 -5 -3 13 -4 12 -3 -3z"/>
<path d="M10823 4150 c0 -25 2 -35 4 -22 3 13 12 22 23 22 11 0 20 -9 23 -22
2 -13 4 -3 4 22 1 25 -1 37 -4 28 -2 -10 -13 -18 -23 -18 -10 0 -21 8 -23 18
-3 9 -5 -3 -4 -28z"/>
<path d="M10901 4153 c-1 -41 0 -43 28 -43 31 0 46 21 28 39 -6 6 -19 11 -28
11 -10 0 -20 8 -22 18 -3 9 -5 -2 -6 -25z m49 -18 c0 -8 -9 -15 -20 -15 -11 0
-20 7 -20 15 0 8 9 15 20 15 11 0 20 -7 20 -15z"/>
<path d="M10983 4150 c0 -25 2 -35 4 -22 2 12 2 32 0 45 -2 12 -4 2 -4 -23z"/>
<path d="M11011 4153 c-1 -49 10 -55 29 -15 l13 27 8 -30 c6 -27 7 -25 7 15
l1 45 -24 -29 -23 -29 -5 29 c-3 22 -4 19 -6 -13z"/>
<path d="M10714 4026 c-3 -8 -4 -31 -2 -52 3 -34 6 -39 27 -39 51 0 53 66 2
73 -32 5 -25 20 12 25 l32 4 -33 1 c-20 1 -35 -3 -38 -12z m50 -41 c8 -21 -3
-45 -20 -45 -18 0 -28 24 -20 45 3 8 12 15 20 15 7 0 16 -7 20 -15z"/>
<path d="M10562 3970 c0 -25 3 -34 5 -21 l5 25 20 -25 20 -24 -15 26 c-14 24
-14 28 1 43 9 9 11 16 5 16 -6 0 -14 -8 -18 -17 -7 -17 -8 -16 -15 2 -6 15 -8
8 -8 -25z"/>
<path d="M10625 4000 c-4 -7 2 -9 19 -4 16 4 26 2 26 -5 0 -6 -11 -13 -26 -17
-37 -10 -27 -39 14 -40 32 -1 33 0 30 35 -3 31 -7 36 -30 39 -14 2 -29 -2 -33
-8z m45 -39 c0 -14 -18 -23 -31 -15 -8 4 -7 9 2 15 18 11 29 11 29 0z"/>
<path d="M10790 3969 c0 -28 4 -39 13 -36 6 2 12 9 11 15 -1 7 -2 23 -2 37 -3
42 -22 28 -22 -16z"/>
<path d="M10832 3990 c-6 -11 -12 -23 -12 -27 0 -5 5 -1 10 7 8 12 10 9 10
-12 0 -16 5 -28 10 -28 6 0 10 18 10 40 0 44 -9 50 -28 20z"/>
<path d="M10883 3970 c0 -25 2 -35 4 -22 3 13 12 22 23 22 11 0 20 -9 23 -22
2 -13 4 -3 4 22 1 25 -1 37 -4 28 -2 -10 -13 -18 -23 -18 -10 0 -21 8 -23 18
-3 9 -5 -3 -4 -28z"/>
<path d="M10964 3996 c-11 -30 1 -61 25 -64 13 -2 28 1 34 7 7 7 2 10 -18 8
-15 -1 -30 4 -32 11 -3 8 6 12 26 12 33 0 39 8 19 28 -16 16 -47 15 -54 -2z
m46 -6 c0 -5 -9 -10 -21 -10 -11 0 -17 5 -14 10 3 6 13 10 21 10 8 0 14 -4 14
-10z"/>
<path d="M11042 4003 c11 -3 18 -17 21 -41 l4 -37 1 37 c1 25 7 38 20 41 9 3
-1 5 -23 5 -22 0 -32 -2 -23 -5z"/>
<path d="M548 3293 c12 -2 30 -2 40 0 9 3 -1 5 -23 4 -22 0 -30 -2 -17 -4z"/>
<path d="M574 2836 c-3 -14 -12 -26 -20 -26 -8 0 -14 -4 -14 -10 0 -5 18 -10
41 -10 39 0 40 1 37 32 -4 42 -34 51 -44 14z m36 -11 c0 -8 -4 -15 -10 -15 -5
0 -10 7 -10 15 0 8 5 15 10 15 6 0 10 -7 10 -15z"/>
<path d="M540 2740 c0 -16 5 -30 10 -30 6 0 10 5 10 10 0 6 14 10 30 10 17 0
30 5 30 10 0 6 -13 10 -30 10 -16 0 -30 5 -30 10 0 6 -4 10 -10 10 -5 0 -10
-13 -10 -30z"/>
<path d="M544 2685 c-9 -23 16 -46 45 -43 20 2 26 9 26 27 0 13 -6 26 -14 29
-9 3 -11 -1 -6 -17 5 -17 2 -21 -15 -21 -17 0 -20 4 -15 20 7 23 -13 28 -21 5z"/>
<path d="M549 2604 c-17 -21 0 -49 31 -49 31 0 48 28 31 49 -8 9 -21 16 -31
16 -10 0 -23 -7 -31 -16z m51 -19 c0 -8 -9 -15 -20 -15 -11 0 -20 7 -20 15 0
8 9 15 20 15 11 0 20 -7 20 -15z"/>
<path d="M510 2510 l0 -40 55 0 c30 0 55 5 55 10 0 6 -20 10 -45 10 -43 0 -45
1 -45 30 0 17 -4 30 -10 30 -5 0 -10 -18 -10 -40z"/>
<path d="M1883 3141 c-58 -36 -63 -58 -63 -281 l0 -200 -50 25 -51 26 7 -26 6
-25 -75 0 -74 0 -5 44 c-7 62 -42 128 -95 181 -60 58 -130 85 -227 85 -174 0
-306 -133 -306 -307 0 -96 27 -166 85 -226 71 -71 122 -92 230 -92 78 0 97 4
140 27 91 48 159 140 172 233 l6 45 73 0 c41 0 74 -3 74 -6 0 -3 -5 -14 -10
-25 -14 -25 -9 -24 50 6 l50 25 0 -197 c0 -225 7 -254 70 -285 32 -16 74 -18
438 -18 445 0 444 0 482 63 18 29 20 51 20 235 l0 202 75 0 c41 0 75 -3 75 -6
0 -3 -5 -14 -10 -25 -14 -25 -9 -24 50 6 l50 25 0 -197 c0 -225 7 -254 70
-285 32 -16 74 -18 438 -18 445 0 444 0 482 63 18 29 20 51 20 235 l0 202 75
0 c41 0 75 -3 75 -6 0 -3 -5 -14 -10 -25 -14 -25 -9 -24 50 6 l50 25 0 -197
c0 -225 7 -254 70 -285 32 -16 74 -18 438 -18 445 0 444 0 482 63 18 29 20 51
20 235 l0 202 75 0 c41 0 75 -3 75 -6 0 -3 -5 -14 -10 -25 -14 -25 -9 -24 49
6 l49 24 6 -42 c21 -131 135 -247 259 -263 34 -5 47 -11 47 -23 1 -14 2 -14
11 2 5 9 21 17 34 17 41 0 123 36 170 74 53 44 101 135 110 211 16 125 -57
254 -177 314 -51 26 -73 31 -133 31 -95 0 -154 -22 -219 -81 -56 -51 -90 -114
-102 -187 l-6 -41 -49 25 -50 25 7 -26 6 -25 -75 0 -76 0 -3 215 -3 215 -33
32 -32 33 -420 3 c-465 3 -461 3 -500 -61 -18 -29 -20 -51 -20 -235 l0 -202
-50 25 -51 26 7 -26 6 -25 -75 0 -76 0 -3 215 -3 215 -33 32 -32 33 -420 3
c-465 3 -461 3 -500 -61 -18 -29 -20 -51 -20 -235 l0 -202 -50 25 -51 26 7
-26 6 -25 -75 0 -76 0 -3 215 -3 215 -33 32 -32 33 -423 3 c-405 2 -423 1
-454 -17z m872 -7 c64 -30 65 -37 65 -481 0 -435 0 -430 -59 -470 -34 -23 -34
-23 -430 -23 -357 0 -399 2 -431 18 -69 34 -70 39 -70 483 0 396 0 396 23 430
40 59 35 59 470 59 343 0 404 -2 432 -16z m1250 0 c64 -30 65 -37 65 -481 0
-435 0 -430 -59 -470 -34 -23 -34 -23 -430 -23 -444 0 -449 1 -483 70 -16 32
-18 74 -18 431 0 396 0 396 23 430 40 59 35 59 470 59 343 0 404 -2 432 -16z
m1250 0 c64 -30 65 -37 65 -481 0 -435 0 -430 -59 -470 -34 -23 -34 -23 -430
-23 -357 0 -399 2 -431 18 -69 34 -70 39 -70 483 0 396 0 396 23 430 40 59 35
59 470 59 343 0 404 -2 432 -16z m-3845 -210 c177 -96 212 -340 69 -483 -183
-182 -498 -68 -517 188 -5 81 8 134 51 198 33 50 107 106 161 123 17 5 65 8
106 6 61 -2 86 -8 130 -32z m4583 20 c84 -29 174 -128 192 -212 31 -147 -34
-286 -163 -349 -48 -24 -69 -28 -137 -28 -67 0 -88 5 -130 27 -193 102 -229
347 -74 496 78 75 206 102 312 66z"/>
<path d="M1926 3114 c-19 -18 -21 -45 -4 -62 9 -9 9 -12 -4 -12 -30 0 -68 -47
-68 -85 l0 -35 105 0 105 0 0 38 c0 40 -23 82 -44 82 -8 0 -11 10 -8 30 2 17
-1 37 -8 45 -16 20 -54 19 -74 -1z m62 -52 c2 -7 -2 -12 -8 -12 -9 0 -10 -3
-1 -14 9 -10 8 -16 -3 -26 -20 -15 -39 -3 -33 21 3 10 1 22 -4 25 -5 3 -7 10
-4 15 8 12 48 5 53 -9z m44 -49 c23 -20 25 -83 3 -83 -8 0 -16 8 -16 18 -1 16
-2 16 -6 0 -4 -14 -15 -18 -59 -18 -44 0 -54 3 -55 18 -1 16 -2 16 -6 0 -7
-28 -33 -22 -33 7 0 45 60 86 74 50 8 -22 44 -18 58 5 15 24 17 24 40 3z"/>
<path d="M2005 2800 c-4 -6 -4 -14 -1 -17 3 -4 6 -1 6 5 0 7 9 12 20 12 26 0
28 -40 3 -41 -14 0 -13 -2 5 -9 12 -5 22 -14 22 -20 0 -17 -29 -23 -45 -10 -9
7 -18 11 -20 8 -3 -3 1 -11 10 -18 21 -18 65 -4 65 20 0 11 -4 20 -8 20 -4 0
-8 12 -7 28 0 20 -5 28 -22 30 -11 2 -24 -2 -28 -8z"/>
<path d="M2096 2771 c-3 -4 6 -6 19 -3 33 6 32 -14 0 -22 -16 -4 -25 -13 -25
-26 0 -15 7 -19 33 -18 31 1 32 2 29 40 -4 32 -8 38 -27 38 -13 0 -26 -4 -29
-9z m44 -41 c0 -13 -28 -25 -38 -16 -3 4 0 11 8 16 20 13 30 12 30 0z"/>
<path d="M2172 2743 l-2 -43 50 0 50 0 -2 43 -1 42 -4 -37 c-3 -24 -9 -38 -18
-38 -9 0 -15 14 -18 38 l-4 37 -1 -37 c-2 -30 -6 -38 -21 -38 -15 0 -21 8 -24
38 l-4 37 -1 -42z"/>
<path d="M2294 2766 c-3 -8 -4 -25 -2 -38 3 -20 9 -23 48 -23 43 0 45 1 48 33
5 46 32 43 32 -3 0 -19 5 -35 10 -35 6 0 10 18 10 40 0 38 -2 40 -30 40 -27 0
-30 -3 -30 -34 0 -32 -2 -33 -37 -32 -45 1 -59 26 -14 26 33 0 39 8 19 28 -16
16 -47 15 -54 -2z m46 -6 c0 -5 -9 -10 -21 -10 -11 0 -17 5 -14 10 3 6 13 10
21 10 8 0 14 -4 14 -10z"/>
<path d="M2503 2740 c0 -25 2 -35 4 -22 3 13 12 22 23 22 11 0 20 -9 23 -22 2
-13 4 -3 4 22 1 25 -1 37 -4 28 -2 -10 -13 -18 -23 -18 -10 0 -21 8 -23 18 -3
9 -5 -3 -4 -28z"/>
<path d="M2586 2771 c-3 -4 6 -6 19 -3 33 6 32 -14 -1 -22 -36 -9 -28 -41 11
-43 29 -1 30 0 27 38 -4 33 -8 39 -27 39 -13 0 -26 -4 -29 -9z m44 -41 c0 -13
-28 -25 -38 -16 -3 4 0 11 8 16 20 13 30 12 30 0z"/>
<path d="M2350 2618 c0 -4 6 -8 14 -8 8 0 17 4 20 8 2 4 -4 8 -15 8 -10 0 -19
-4 -19 -8z"/>
<path d="M2182 2588 c-25 -25 -6 -68 29 -68 10 0 21 5 24 10 4 7 -2 9 -19 4
-24 -6 -26 -4 -26 26 0 30 2 32 26 26 17 -5 23 -3 19 4 -8 14 -38 13 -53 -2z"/>
<path d="M2256 2591 c-3 -4 6 -6 19 -3 33 6 32 -14 -1 -22 -36 -9 -28 -41 11
-43 29 -1 30 0 27 38 -4 33 -8 39 -27 39 -13 0 -26 -4 -29 -9z m44 -41 c0 -13
-28 -25 -38 -16 -3 4 0 11 8 16 20 13 30 12 30 0z"/>
<path d="M2330 2559 c0 -28 4 -39 13 -36 6 2 12 9 11 15 -1 7 -2 23 -2 37 -3
42 -22 28 -22 -16z"/>
<path d="M2372 2580 c-6 -11 -12 -23 -12 -27 0 -5 5 -1 10 7 8 12 10 9 10 -12
0 -16 5 -28 10 -28 6 0 10 18 10 40 0 44 -9 50 -28 20z"/>
<path d="M2422 2593 c11 -3 18 -17 21 -41 l4 -37 1 37 c1 25 7 38 20 41 9 3
-1 5 -23 5 -22 0 -32 -2 -23 -5z"/>
<path d="M3176 3114 c-19 -18 -21 -45 -4 -62 9 -9 9 -12 -4 -12 -30 0 -68 -47
-68 -85 l0 -35 105 0 105 0 0 38 c0 40 -23 82 -44 82 -8 0 -11 10 -8 30 2 17
-1 37 -8 45 -16 20 -54 19 -74 -1z m62 -52 c2 -7 -2 -12 -8 -12 -9 0 -10 -3
-1 -14 9 -10 8 -16 -3 -26 -20 -15 -39 -3 -33 21 3 10 1 22 -4 25 -5 3 -7 10
-4 15 8 12 48 5 53 -9z m44 -49 c23 -20 25 -83 3 -83 -8 0 -16 8 -16 18 -1 16
-2 16 -6 0 -4 -14 -15 -18 -59 -18 -44 0 -54 3 -55 18 -1 16 -2 16 -6 0 -7
-28 -33 -22 -33 7 0 45 60 86 74 50 8 -22 44 -18 58 5 15 24 17 24 40 3z"/>
<path d="M3100 2755 c0 -30 5 -55 10 -55 6 0 10 11 10 25 0 20 5 25 25 25 20
0 25 -5 25 -25 0 -14 5 -25 10 -25 6 0 10 25 10 55 0 30 -4 55 -10 55 -5 0
-10 -11 -10 -25 0 -20 -5 -25 -25 -25 -20 0 -25 5 -25 25 0 14 -4 25 -10 25
-5 0 -10 -25 -10 -55z"/>
<path d="M3216 2771 c-3 -4 6 -6 19 -3 33 6 32 -14 0 -22 -16 -4 -25 -13 -25
-26 0 -15 7 -19 33 -18 31 1 32 2 29 40 -4 32 -8 38 -27 38 -13 0 -26 -4 -29
-9z m44 -41 c0 -13 -28 -25 -38 -16 -3 4 0 11 8 16 20 13 30 12 30 0z"/>
<path d="M3296 2765 c4 -8 11 -15 16 -15 6 0 5 6 -2 15 -7 8 -14 15 -16 15 -2
0 -1 -7 2 -15z"/>
<path d="M3331 2770 c0 -9 -10 -23 -21 -33 -11 -9 -20 -22 -20 -29 0 -7 9 -2
20 12 l20 25 1 -25 1 -25 7 25 c7 25 7 25 19 4 9 -18 20 -22 57 -21 l46 0 -3
36 c-2 29 -8 37 -27 39 -13 2 -28 -2 -35 -8 -8 -9 -4 -10 17 -5 17 5 27 3 27
-4 0 -6 -11 -13 -25 -17 -14 -3 -25 -14 -25 -23 -1 -14 -3 -13 -15 3 -10 14
-12 24 -4 40 9 19 9 19 -4 4 -8 -10 -17 -18 -20 -18 -3 0 -8 8 -10 18 -4 13
-5 13 -6 2z m109 -39 c0 -14 -18 -23 -31 -15 -8 4 -7 9 2 15 18 11 29 11 29 0z"/>
<path d="M3478 2740 c-4 -40 5 -53 16 -24 3 9 6 24 6 35 0 37 29 21 33 -18 l4
-38 1 43 c2 40 1 42 -27 42 -26 0 -29 -3 -33 -40z"/>
<path d="M3612 2740 c0 -25 3 -34 5 -21 l5 25 20 -25 20 -24 -15 26 c-14 24
-14 28 1 43 9 9 11 16 5 16 -6 0 -14 -8 -18 -17 -7 -17 -8 -16 -15 2 -6 15 -8
8 -8 -25z"/>
<path d="M3673 2740 c0 -25 2 -35 4 -22 3 13 12 22 23 22 11 0 20 -9 23 -22 2
-13 4 -3 4 22 1 25 -1 37 -4 28 -2 -10 -13 -18 -23 -18 -10 0 -21 8 -23 18 -3
9 -5 -3 -4 -28z"/>
<path d="M3762 2768 c-27 -27 -3 -73 35 -66 27 5 25 72 -2 76 -11 1 -26 -3
-33 -10z m43 -28 c0 -28 -29 -40 -38 -15 -9 22 3 46 22 43 10 -2 16 -13 16
-28z"/>
<path d="M3842 2738 l1 -43 4 38 c3 28 9 37 23 37 14 0 20 -9 23 -37 l4 -38 1
43 c2 40 1 42 -28 42 -29 0 -30 -2 -28 -42z"/>
<path d="M3922 2740 c0 -35 2 -39 7 -20 l7 25 13 -23 c7 -13 15 -21 18 -19 2
3 0 14 -5 24 -7 12 -7 25 -1 36 6 10 6 17 1 17 -6 0 -13 -8 -17 -17 -7 -17 -8
-16 -15 2 -6 15 -9 8 -8 -25z"/>
<path d="M3987 2758 c4 -13 8 -38 8 -55 0 -46 10 -41 29 14 19 56 20 80 1 38
l-13 -30 -11 28 c-13 32 -26 37 -14 5z"/>
<path d="M3151 2543 c1 -32 3 -50 6 -41 2 9 14 18 26 20 18 2 22 10 22 38 0
31 -3 35 -27 38 -28 3 -28 3 -27 -55z m44 17 c0 -13 -6 -25 -12 -27 -16 -6
-27 21 -19 43 9 23 31 11 31 -16z"/>
<path d="M3231 2578 c-5 -13 -5 -31 1 -40 9 -18 43 -24 52 -10 3 5 -4 8 -16 8
-12 -1 -23 5 -25 12 -3 8 6 12 26 12 33 0 39 8 19 28 -19 19 -48 14 -57 -10z
m49 2 c0 -5 -9 -10 -21 -10 -11 0 -17 5 -14 10 3 6 13 10 21 10 8 0 14 -4 14
-10z"/>
<path d="M3310 2560 c0 -22 5 -40 10 -40 6 0 10 15 10 34 0 24 5 36 18 39 10
3 6 5 -10 6 -26 1 -28 -2 -28 -39z"/>
<path d="M3371 2563 c-1 -49 10 -55 29 -15 l13 27 8 -30 c6 -27 7 -25 7 15 l1
45 -24 -29 -23 -29 -5 29 c-3 22 -4 19 -6 -13z"/>
<path d="M3454 2586 c-16 -41 20 -86 47 -59 6 6 1 9 -13 9 -18 -1 -23 4 -23
24 0 19 5 25 22 24 12 0 20 3 17 8 -8 13 -44 9 -50 -6z"/>
<path d="M3528 2593 c6 -2 12 -20 12 -39 0 -19 5 -34 10 -34 6 0 10 15 10 34
0 19 6 37 13 39 6 3 -4 5 -23 5 -19 0 -29 -2 -22 -5z"/>
<path d="M3601 2543 c1 -32 3 -50 6 -41 2 9 14 18 26 20 18 2 22 10 22 38 0
31 -3 35 -27 38 -28 3 -28 3 -27 -55z m44 17 c0 -13 -6 -25 -12 -27 -16 -6
-27 21 -19 43 9 23 31 11 31 -16z"/>
<path d="M3686 2591 c-3 -4 6 -6 19 -3 33 6 32 -14 0 -22 -16 -4 -25 -13 -25
-26 0 -15 7 -19 33 -18 31 1 32 2 29 40 -4 32 -8 38 -27 38 -13 0 -26 -4 -29
-9z m44 -41 c0 -13 -28 -25 -38 -16 -3 4 0 11 8 16 20 13 30 12 30 0z"/>
<path d="M3762 2563 c-2 -41 -1 -43 28 -43 21 0 30 -5 30 -17 0 -9 2 -14 5
-11 3 3 1 29 -4 59 -8 48 -9 50 -10 17 -1 -31 -5 -38 -20 -38 -15 0 -21 8 -24
38 l-4 37 -1 -42z"/>
<path d="M3851 2563 c-1 -49 10 -55 29 -15 l13 27 8 -30 c6 -27 7 -25 7 15 l1
45 -24 -29 -23 -29 -5 29 c-3 22 -4 19 -6 -13z"/>
<path d="M3931 2563 c-1 -47 5 -53 25 -25 18 23 18 37 0 23 -12 -10 -15 -7
-19 16 -3 20 -4 16 -6 -14z"/>
<path d="M3976 2592 c-2 -4 -1 -23 4 -42 l8 -35 1 43 c1 41 -3 50 -13 34z"/>
<path d="M4426 3114 c-19 -18 -21 -45 -4 -62 9 -9 9 -12 -4 -12 -30 0 -68 -47
-68 -85 l0 -35 105 0 105 0 0 38 c0 40 -23 82 -44 82 -8 0 -11 10 -8 30 2 17
-1 37 -8 45 -16 20 -54 19 -74 -1z m62 -52 c2 -7 -2 -12 -8 -12 -9 0 -10 -3
-1 -14 9 -10 8 -16 -3 -26 -20 -15 -39 -3 -33 21 3 10 1 22 -4 25 -5 3 -7 10
-4 15 8 12 48 5 53 -9z m44 -49 c23 -20 25 -83 3 -83 -8 0 -16 8 -16 18 -1 16
-2 16 -6 0 -4 -14 -15 -18 -59 -18 -44 0 -54 3 -55 18 -1 16 -2 16 -6 0 -7
-28 -33 -22 -33 7 0 45 60 86 74 50 8 -22 44 -18 58 5 15 24 17 24 40 3z"/>
<path d="M4400 2756 c0 -55 1 -56 29 -56 40 0 53 19 43 66 -7 35 -11 39 -40
42 l-32 3 0 -55z m60 24 c0 -15 -7 -20 -25 -20 -18 0 -25 5 -25 20 0 15 7 20
25 20 18 0 25 -5 25 -20z m5 -50 c0 -9 -11 -16 -27 -18 -23 -3 -28 1 -28 18 0
17 5 21 28 18 16 -2 27 -9 27 -18z"/>
<path d="M4500 2740 c0 -39 1 -41 28 -38 24 3 27 7 27 38 0 31 -3 35 -27 38
-27 3 -28 1 -28 -38z m45 20 c-3 -5 -13 -10 -21 -10 -8 0 -14 5 -14 10 0 6 9
10 21 10 11 0 17 -4 14 -10z m5 -35 c0 -8 -9 -15 -20 -15 -11 0 -20 7 -20 15
0 8 9 15 20 15 11 0 20 -7 20 -15z"/>
<path d="M4582 2768 c-27 -27 -3 -73 35 -66 27 5 25 72 -2 76 -11 1 -26 -3
-33 -10z m43 -28 c0 -16 -6 -26 -17 -28 -14 -3 -18 3 -18 28 0 25 4 31 18 28
11 -2 17 -12 17 -28z"/>
<path d="M4662 2734 c-7 -26 -10 -49 -7 -52 3 -3 5 0 5 6 0 16 57 15 64 0 4
-7 4 -2 1 12 -2 14 -5 37 -5 53 0 21 -5 27 -23 27 -19 0 -25 -8 -35 -46z m48
6 c0 -23 -4 -30 -20 -30 -22 0 -23 3 -14 38 9 33 34 28 34 -8z"/>
<path d="M4788 2740 c-4 -40 5 -53 16 -24 3 9 6 24 6 35 0 37 29 21 33 -18 l4
-38 1 43 c2 40 1 42 -27 42 -26 0 -29 -3 -33 -40z"/>
<path d="M4882 2768 c-27 -27 -3 -73 35 -66 27 5 25 72 -2 76 -11 1 -26 -3
-33 -10z m43 -28 c0 -16 -6 -26 -17 -28 -14 -3 -18 3 -18 28 0 25 4 31 18 28
11 -2 17 -12 17 -28z"/>
<path d="M4962 2738 l1 -43 4 37 c3 24 10 38 21 41 12 3 11 5 -5 6 -21 1 -23
-3 -21 -41z"/>
<path d="M5010 2739 c0 -28 4 -39 13 -36 6 2 12 9 11 15 -1 7 -2 23 -2 37 -3
42 -22 28 -22 -16z"/>
<path d="M5052 2760 c-6 -11 -12 -23 -12 -27 0 -5 5 -1 10 7 8 12 10 9 10 -12
0 -16 5 -28 10 -28 6 0 10 18 10 40 0 44 -9 50 -28 20z"/>
<path d="M5103 2740 c0 -25 2 -35 4 -22 3 13 12 22 23 22 11 0 20 -9 23 -22 2
-13 4 -3 4 22 1 25 -1 37 -4 28 -2 -10 -13 -18 -23 -18 -10 0 -21 8 -23 18 -3
9 -5 -3 -4 -28z"/>
<path d="M5186 2771 c-3 -4 6 -6 19 -3 33 6 32 -14 -1 -22 -36 -9 -28 -41 11
-43 29 -1 30 0 27 38 -4 33 -8 39 -27 39 -13 0 -26 -4 -29 -9z m44 -41 c0 -13
-28 -25 -38 -16 -3 4 0 11 8 16 20 13 30 12 30 0z"/>
<path d="M4521 2563 c-1 -47 5 -53 25 -25 18 23 18 37 0 23 -12 -10 -15 -7
-19 16 -3 20 -4 16 -6 -14z"/>
<path d="M4566 2592 c-2 -4 -1 -23 4 -42 l8 -35 1 43 c1 41 -3 50 -13 34z"/>
<path d="M4652 2558 l1 -43 4 38 c6 50 33 52 33 2 0 -19 5 -35 10 -35 6 0 10
18 10 40 0 38 -2 40 -30 40 -29 0 -30 -2 -28 -42z"/>
<path d="M4730 2591 c0 -6 7 -8 15 -5 31 12 37 -9 5 -22 -39 -17 -35 -39 9
-40 31 -1 32 0 29 35 -3 31 -7 36 -30 39 -16 2 -28 -1 -28 -7z m44 -46 c-6
-16 -34 -21 -34 -7 0 13 11 22 26 22 8 0 11 -6 8 -15z"/>
<path d="M4811 2541 c1 -32 4 -48 7 -36 4 11 16 20 26 20 51 0 43 69 -8 71
-25 1 -26 -1 -25 -55z m53 34 c7 -20 -3 -45 -19 -45 -7 0 -15 7 -19 15 -7 20
3 45 19 45 7 0 15 -7 19 -15z"/>
<path d="M4902 2588 c-27 -27 -3 -73 35 -66 27 5 25 72 -2 76 -11 1 -26 -3
-33 -10z m43 -28 c0 -15 -6 -26 -16 -28 -19 -3 -31 21 -22 43 9 25 38 13 38
-15z"/>
<path d="M4978 2560 c-2 -22 0 -40 4 -40 5 0 8 16 8 35 0 28 4 35 19 35 15 0
21 -8 24 -37 l4 -38 1 43 c2 40 1 42 -27 42 -26 0 -29 -3 -33 -40z"/>
<path d="M5063 2583 c-4 -10 -1 -19 6 -21 9 -3 8 -9 -5 -23 -10 -12 -13 -19
-5 -19 6 0 14 7 17 15 8 21 32 19 37 -2 3 -10 5 1 6 25 1 39 -1 42 -24 42 -15
0 -28 -7 -32 -17z m47 -9 c0 -9 -7 -14 -17 -12 -25 5 -28 28 -4 28 12 0 21 -6
21 -16z"/>
<path d="M5660 2655 l0 -135 225 2 225 1 0 134 0 133 -225 0 -225 0 0 -135z
m380 116 c33 -1 31 -3 -52 -51 -48 -28 -93 -50 -100 -50 -7 0 -51 23 -98 50
l-85 49 105 3 c58 2 125 2 150 1 25 -1 61 -2 80 -2z m60 -116 l0 -115 -210 0
-210 0 0 110 c0 61 3 110 7 110 4 0 51 -25 104 -55 l98 -56 103 60 c57 33 104
60 106 60 1 1 2 -51 2 -114z"/>
<path d="M5882 2250 c0 -14 2 -19 5 -12 2 6 2 18 0 25 -3 6 -5 1 -5 -13z"/>
<path d="M9512 2200 c0 -14 2 -19 5 -12 2 6 2 18 0 25 -3 6 -5 1 -5 -13z"/>
<path d="M5881 2174 c0 -11 3 -14 6 -6 3 7 2 16 -1 19 -3 4 -6 -2 -5 -13z"/>
<path d="M9512 2120 c0 -14 2 -19 5 -12 2 6 2 18 0 25 -3 6 -5 1 -5 -13z"/>
<path d="M5882 2100 c0 -14 2 -19 5 -12 2 6 2 18 0 25 -3 6 -5 1 -5 -13z"/>
<path d="M9512 2050 c0 -14 2 -19 5 -12 2 6 2 18 0 25 -3 6 -5 1 -5 -13z"/>
<path d="M5881 2024 c0 -11 3 -14 6 -6 3 7 2 16 -1 19 -3 4 -6 -2 -5 -13z"/>
<path d="M8381 1974 c0 -11 3 -14 6 -6 3 7 2 16 -1 19 -3 4 -6 -2 -5 -13z"/>
<path d="M9512 1970 c0 -14 2 -19 5 -12 2 6 2 18 0 25 -3 6 -5 1 -5 -13z"/>
<path d="M5882 1950 c0 -14 2 -19 5 -12 2 6 2 18 0 25 -3 6 -5 1 -5 -13z"/>
<path d="M7983 3104 c-13 -21 -14 -30 -5 -45 9 -15 9 -19 0 -19 -26 0 -68 -53
-68 -87 l0 -33 110 0 110 0 0 34 c0 36 -32 86 -56 86 -12 0 -12 4 -4 21 9 16
8 26 -5 45 -21 32 -59 32 -82 -2z m64 -58 c-4 -56 -42 -58 -44 -2 -1 29 2 34
23 34 20 0 23 -5 21 -32z m47 -32 c18 -17 22 -84 6 -84 -5 0 -10 7 -10 15 0 8
-4 15 -10 15 -5 0 -10 -7 -10 -15 0 -12 -13 -15 -55 -15 -45 0 -55 3 -56 18
-1 16 -2 16 -6 0 -7 -29 -23 -21 -23 11 0 29 22 61 41 61 6 0 17 -7 25 -15 21
-20 37 -19 59 5 22 24 20 24 39 4z"/>
<path d="M7950 2755 l0 -56 33 3 c31 3 32 4 32 53 0 49 -1 50 -32 53 l-33 3 0
-56z m55 25 c0 -8 -10 -16 -22 -18 -18 -3 -23 2 -23 18 0 16 5 21 23 18 12 -2
22 -10 22 -18z m3 -52 c3 -13 -3 -18 -22 -18 -20 0 -26 5 -26 21 0 15 5 20 22
17 13 -2 24 -11 26 -20z"/>
<path d="M8040 2740 c0 -38 2 -40 29 -40 36 0 43 9 35 49 -6 26 -11 31 -35 31
-27 0 -29 -3 -29 -40z m50 20 c0 -5 -7 -10 -15 -10 -8 0 -15 5 -15 10 0 6 7
10 15 10 8 0 15 -4 15 -10z m0 -35 c0 -8 -7 -15 -15 -15 -8 0 -15 7 -15 15 0
8 7 15 15 15 8 0 15 -7 15 -15z"/>
<path d="M8124 2766 c-12 -31 0 -61 25 -61 31 0 50 28 35 53 -14 22 -52 28
-60 8z m49 -8 c6 -21 -4 -48 -19 -48 -18 0 -28 24 -20 45 7 18 33 20 39 3z"/>
<path d="M8210 2751 c0 -17 -4 -33 -10 -36 -5 -3 -10 -14 -9 -23 0 -11 3 -12
6 -4 2 6 17 12 33 12 16 0 31 -6 34 -12 4 -7 4 -2 1 12 -2 14 -5 37 -5 53 0
22 -4 27 -25 27 -21 0 -25 -5 -25 -29z m40 -11 c0 -22 -5 -30 -18 -30 -15 0
-18 6 -14 30 2 17 10 30 18 30 9 0 14 -11 14 -30z"/>
<path d="M8340 2746 c0 -19 -5 -37 -10 -39 -6 -3 -5 -4 2 -3 7 1 14 17 16 34
5 46 32 43 32 -3 0 -19 5 -35 10 -35 6 0 10 18 10 40 0 38 -2 40 -30 40 -27 0
-30 -3 -30 -34z"/>
<path d="M8421 2740 l0 -45 22 30 22 29 6 -29 c6 -27 7 -25 8 13 1 48 -10 54
-29 15 l-13 -28 -8 30 c-6 27 -7 25 -8 -15z"/>
<path d="M8504 2755 c1 -13 9 -21 23 -23 12 -2 24 -11 26 -20 3 -9 5 3 4 28 0
25 -2 35 -4 23 -5 -27 -40 -31 -46 -5 -3 13 -4 12 -3 -3z"/>
<path d="M8583 2740 c0 -25 2 -35 4 -22 3 13 12 22 23 22 11 0 20 -9 23 -22 2
-13 4 -3 4 22 1 25 -1 37 -4 28 -2 -10 -13 -18 -23 -18 -10 0 -21 8 -23 18 -3
9 -5 -3 -4 -28z"/>
<path d="M8661 2743 c-1 -41 0 -43 28 -43 31 0 46 21 28 39 -6 6 -19 11 -28
11 -10 0 -20 8 -22 18 -3 9 -5 -2 -6 -25z m49 -18 c0 -8 -9 -15 -20 -15 -11 0
-20 7 -20 15 0 8 9 15 20 15 11 0 20 -7 20 -15z"/>
<path d="M8743 2740 c0 -25 2 -35 4 -22 2 12 2 32 0 45 -2 12 -4 2 -4 -23z"/>
<path d="M8773 2762 c15 -16 15 -20 1 -40 -8 -12 -11 -22 -5 -22 5 0 14 8 20
18 9 16 10 16 16 0 4 -10 11 -18 16 -18 5 0 4 11 -3 25 -8 19 -8 28 2 40 7 9
8 15 2 15 -6 0 -12 -6 -15 -12 -4 -10 -7 -10 -18 0 -20 19 -34 14 -16 -6z"/>
<path d="M8146 2584 c-3 -9 -6 -24 -6 -35 0 -10 -4 -19 -10 -19 -5 0 -10 -7
-10 -15 0 -8 5 -15 10 -15 6 0 10 5 10 10 0 15 48 12 53 -2 9 -27 15 -1 10 45
-5 41 -9 47 -28 47 -13 0 -26 -7 -29 -16z m34 -24 c0 -20 -5 -30 -15 -30 -16
0 -19 17 -9 44 10 26 24 18 24 -14z"/>
<path d="M8226 2591 c-3 -4 6 -6 19 -3 33 6 32 -14 -1 -22 -36 -9 -28 -41 11
-43 29 -1 30 0 27 38 -4 33 -8 39 -27 39 -13 0 -26 -4 -29 -9z m44 -41 c0 -13
-28 -25 -38 -16 -3 4 0 11 8 16 20 13 30 12 30 0z"/>
<path d="M8300 2560 c0 -22 5 -40 10 -40 6 0 10 9 10 20 0 11 7 20 15 20 8 0
15 -9 15 -20 0 -11 5 -20 10 -20 6 0 10 18 10 40 0 22 -4 40 -10 40 -5 0 -10
-7 -10 -15 0 -8 -7 -15 -15 -15 -8 0 -15 7 -15 15 0 8 -4 15 -10 15 -5 0 -10
-18 -10 -40z"/>
<path d="M8393 2560 c0 -25 2 -35 4 -22 3 13 12 22 23 22 11 0 20 -9 23 -22 2
-13 4 -3 4 22 1 25 -1 37 -4 28 -2 -10 -13 -18 -23 -18 -10 0 -21 8 -23 18 -3
9 -5 -3 -4 -28z"/>
<path d="M8471 2563 c-1 -41 0 -43 28 -43 31 0 46 21 28 39 -6 6 -19 11 -28
11 -10 0 -20 8 -22 18 -3 9 -5 -2 -6 -25z m49 -18 c0 -8 -9 -15 -20 -15 -11 0
-20 7 -20 15 0 8 9 15 20 15 11 0 20 -7 20 -15z"/>
<path d="M8553 2560 c0 -25 2 -35 4 -22 2 12 2 32 0 45 -2 12 -4 2 -4 -23z"/>
<path d="M8583 2582 c15 -16 15 -20 1 -40 -8 -12 -11 -22 -5 -22 5 0 14 8 20
18 9 16 10 16 16 0 4 -10 11 -18 16 -18 5 0 4 11 -3 25 -8 19 -8 28 2 40 7 9
8 15 2 15 -6 0 -12 -6 -15 -12 -4 -10 -7 -10 -18 0 -20 19 -34 14 -16 -6z"/>
<path d="M9290 2655 l0 -136 223 3 222 3 3 133 3 132 -226 0 -225 0 0 -135z
m396 112 c5 -5 -159 -97 -173 -97 -6 0 -48 21 -94 48 l-84 47 125 5 c129 5
219 4 226 -3z m-262 -66 l89 -52 101 57 c55 31 104 59 109 61 4 2 7 -48 7
-111 l0 -116 -215 0 -215 0 0 115 c0 107 1 115 18 106 9 -5 57 -32 106 -60z"/>
<path d="M5881 1874 c0 -11 3 -14 6 -6 3 7 2 16 -1 19 -3 4 -6 -2 -5 -13z"/>
<path d="M8381 1824 c0 -11 3 -14 6 -6 3 7 2 16 -1 19 -3 4 -6 -2 -5 -13z"/>
<path d="M9512 1820 c0 -14 2 -19 5 -12 2 6 2 18 0 25 -3 6 -5 1 -5 -13z"/>
<path d="M5882 1800 c0 -14 2 -19 5 -12 2 6 2 18 0 25 -3 6 -5 1 -5 -13z"/>
<path d="M8382 1750 c0 -14 2 -19 5 -12 2 6 2 18 0 25 -3 6 -5 1 -5 -13z"/>
<path d="M9512 1750 c0 -14 2 -19 5 -12 2 6 2 18 0 25 -3 6 -5 1 -5 -13z"/>
<path d="M5881 1724 c0 -11 3 -14 6 -6 3 7 2 16 -1 19 -3 4 -6 -2 -5 -13z"/>
<path d="M8293 1660 c0 -30 2 -43 4 -27 3 21 10 27 28 27 18 0 25 -6 28 -27 2
-16 4 -3 4 27 0 30 -2 45 -4 33 -3 -16 -11 -23 -28 -23 -17 0 -25 7 -28 23 -2
12 -4 -3 -4 -33z"/>
<path d="M8384 1676 c-16 -41 20 -86 47 -59 6 6 1 9 -12 9 -12 -1 -24 5 -26
12 -3 7 5 12 22 12 20 0 26 4 23 18 -4 22 -46 29 -54 8z m41 -6 c3 -5 -3 -10
-15 -10 -12 0 -18 5 -15 10 3 6 10 10 15 10 5 0 12 -4 15 -10z"/>
<path d="M8457 1682 c6 -4 13 -23 16 -42 l4 -35 1 37 c2 25 7 38 20 41 9 3 1
5 -18 6 -19 0 -30 -3 -23 -7z"/>
<path d="M9512 1670 c0 -14 2 -19 5 -12 2 6 2 18 0 25 -3 6 -5 1 -5 -13z"/>
<path d="M5882 1650 c0 -14 2 -19 5 -12 2 6 2 18 0 25 -3 6 -5 1 -5 -13z"/>
<path d="M9512 1600 c0 -14 2 -19 5 -12 2 6 2 18 0 25 -3 6 -5 1 -5 -13z"/>
<path d="M5881 1574 c0 -11 3 -14 6 -6 3 7 2 16 -1 19 -3 4 -6 -2 -5 -13z"/>
<path d="M8381 1524 c0 -11 3 -14 6 -6 3 7 2 16 -1 19 -3 4 -6 -2 -5 -13z"/>
<path d="M9512 1520 c0 -14 2 -19 5 -12 2 6 2 18 0 25 -3 6 -5 1 -5 -13z"/>
<path d="M5882 1500 c0 -14 2 -19 5 -12 2 6 2 18 0 25 -3 6 -5 1 -5 -13z"/>
<path d="M8381 1453 l-1 -23 -982 -1 c-541 -1 -986 -1 -991 0 -4 1 -1325 1
-2935 1 -1610 -1 -3009 0 -3109 0 l-183 1 0 -641 0 -640 6200 0 6200 0 0 640
0 640 -1529 0 -1530 0 -4 23 -4 22 -2 -22 -1 -23 -559 0 -560 0 -4 23 -4 22
-2 -22z m-7951 -663 l0 -610 -110 0 -110 0 0 610 0 610 110 0 110 0 0 -610z
m12130 0 l0 -610 -6050 0 -6050 0 0 610 0 610 6050 0 6050 0 0 -610z"/>
<path d="M304 1055 c-8 -19 2 -45 17 -45 8 0 8 4 -1 15 -10 12 -10 19 -2 27 8
8 13 4 18 -16 9 -36 39 -31 40 7 1 24 -2 27 -33 27 -21 0 -36 -6 -39 -15z m64
-18 c5 -24 -15 -21 -21 4 -3 13 -1 19 6 16 7 -2 13 -11 15 -20z"/>
<path d="M300 981 c0 -5 11 -12 25 -15 14 -4 25 -11 25 -16 0 -5 -11 -12 -25
-16 -40 -10 -29 -24 18 -23 39 1 40 2 12 9 l-30 7 28 7 c15 5 27 12 27 16 0 4
-12 11 -27 16 l-28 7 30 7 c28 7 27 8 -12 9 -24 0 -43 -3 -43 -8z"/>
<path d="M310 880 c-23 -15 1 -45 36 -45 31 0 45 28 25 48 -9 9 -11 5 -9 -12
2 -13 -3 -26 -9 -28 -8 -3 -13 5 -13 21 0 28 -6 31 -30 16z m20 -22 c0 -16 -3
-19 -11 -11 -6 6 -8 16 -5 22 11 17 16 13 16 -11z"/>
<path d="M303 766 c2 -66 21 -91 55 -70 21 14 23 55 2 62 -13 5 -13 3 -1 -11
17 -21 7 -47 -18 -47 -23 0 -35 28 -20 46 8 10 8 14 0 14 -6 0 -11 4 -11 9 0
6 17 12 38 14 l37 4 -37 1 c-25 1 -38 7 -41 20 -3 9 -5 -10 -4 -42z"/>
<path d="M325 637 l29 -22 -29 -6 c-26 -6 -23 -7 15 -7 l45 -1 -29 24 -29 23
29 5 c21 3 16 4 -16 5 l-45 1 30 -22z"/>
<path d="M280 565 c-19 -23 -4 -64 26 -71 55 -14 98 38 62 74 -21 21 -32 13
-12 -9 23 -25 9 -53 -29 -57 -32 -4 -56 31 -36 54 6 8 10 17 7 19 -3 3 -11 -1
-18 -10z"/>
<path d="M8381 1374 c0 -11 3 -14 6 -6 3 7 2 16 -1 19 -3 4 -6 -2 -5 -13z"/>
<path d="M9512 1370 c0 -14 2 -19 5 -12 2 6 2 18 0 25 -3 6 -5 1 -5 -13z"/>
<path d="M5882 1350 c0 -14 2 -19 5 -12 2 6 2 18 0 25 -3 6 -5 1 -5 -13z"/>
<path d="M6805 1321 c-100 -25 -109 -49 -113 -293 -2 -109 -6 -198 -8 -198 -3
0 -22 9 -44 20 -22 11 -42 20 -45 20 -3 0 -1 -9 5 -20 12 -22 11 -22 -45 -22
-19 0 -65 0 -101 1 l-65 1 4 137 c4 157 3 160 -79 186 -69 23 -160 36 -301 43
l-122 7 23 46 24 46 -49 0 c-27 0 -49 -1 -49 -3 0 -1 9 -20 20 -42 11 -22 20
-42 20 -45 0 -3 -26 -5 -57 -5 -168 -1 -373 -36 -418 -72 l-25 -19 0 -288 c0
-330 -6 -309 97 -341 99 -31 265 -43 486 -37 208 6 319 22 386 54 l36 18 3
148 3 147 110 0 c105 0 109 -1 99 -19 -17 -32 -12 -33 39 -6 l49 24 4 -204 c5
-313 -27 -295 508 -295 535 0 503 -18 508 296 l3 204 135 0 c131 0 135 -1 129
-20 -8 -25 -6 -25 50 2 l46 22 159 -159 160 -160 158 158 c86 86 165 157 175
157 10 0 15 5 12 10 -3 6 -14 10 -23 10 -21 0 -307 286 -321 320 -8 21 -10 22
-10 5 -1 -12 -64 -83 -158 -177 l-156 -157 -49 25 -49 25 6 -24 c7 -25 10 -25
-192 -19 l-73 2 0 193 c0 211 -6 240 -63 281 -28 20 -41 21 -420 23 -216 1
-405 -2 -422 -6z m850 -44 c29 -29 33 -41 38 -102 4 -39 5 -135 3 -215 -2 -80
-4 -239 -5 -353 l-1 -209 -34 -34 -34 -34 -422 0 -422 0 -34 34 -34 34 0 411
c0 348 2 417 15 441 31 59 31 59 483 60 l414 0 33 -33z m-1447 -112 c162 -26
215 -68 125 -99 -87 -30 -221 -38 -511 -33 -259 5 -326 11 -394 38 -59 24 -23
59 84 84 157 36 503 41 696 10z m2337 -195 l150 -150 -153 -153 -152 -152
-152 152 -153 153 150 150 c82 82 152 150 155 150 3 0 73 -68 155 -150z
m-2985 59 c48 -7 189 -12 320 -13 236 0 385 13 462 40 35 12 38 12 38 -6 0
-25 -69 -47 -187 -61 -114 -14 -628 -6 -693 10 -73 18 -100 32 -100 51 0 16 3
16 38 5 21 -8 76 -19 122 -26z m0 -50 c48 -7 189 -12 320 -13 236 0 385 13
462 40 35 12 38 12 38 -6 0 -25 -69 -47 -187 -61 -114 -14 -628 -6 -693 10
-73 18 -100 32 -100 51 0 16 3 16 38 5 21 -8 76 -19 122 -26z m0 -50 c48 -7
189 -12 320 -13 236 0 385 13 462 40 l38 13 -2 -222 -3 -222 -37 -18 c-77 -38
-189 -50 -448 -51 -256 0 -376 13 -456 51 l-34 17 0 222 0 222 38 -13 c21 -8
76 -19 122 -26z"/>
<path d="M6779 1283 c-1 -5 -1 -11 0 -15 0 -5 -8 -8 -18 -8 -23 0 -34 -23 -18
-39 8 -8 8 -11 -1 -11 -17 0 -15 -40 3 -46 8 -4 15 -10 15 -15 0 -19 50 -61
66 -55 10 4 20 2 24 -4 8 -14 40 -2 40 15 0 7 8 12 18 11 13 -1 17 6 15 27 -1
15 2 27 8 27 13 0 11 16 -4 32 -7 7 -16 21 -20 31 -3 9 -14 17 -22 17 -9 0
-14 4 -10 9 9 15 -30 32 -42 20 -8 -8 -13 -7 -17 0 -8 12 -35 15 -37 4z m34
-17 c3 -7 -9 -26 -26 -41 -20 -18 -27 -30 -19 -32 20 -8 14 -22 -8 -16 -21 6
-28 23 -9 23 7 0 9 10 5 26 -6 22 -4 25 9 20 12 -4 19 0 22 14 6 23 19 26 26
6z m47 -12 c0 -8 -4 -12 -10 -9 -5 3 -10 10 -10 16 0 5 5 9 10 9 6 0 10 -7 10
-16z m-12 -26 c8 -8 15 -8 27 2 13 11 15 9 15 -9 0 -12 7 -24 15 -27 12 -5 13
-10 4 -20 -9 -11 -9 -18 0 -28 10 -12 8 -15 -11 -18 -13 -2 -22 -9 -21 -15 2
-8 -10 -11 -35 -9 -20 2 -37 9 -37 14 0 6 -9 18 -20 26 -13 10 -15 15 -6 16 9
0 11 8 7 25 -5 19 -2 25 9 25 9 0 18 7 21 15 7 18 16 19 32 3z"/>
<path d="M6822 1188 c-26 -26 1 -65 38 -53 16 5 20 14 18 33 -3 30 -35 41 -56
20z m31 -23 c-22 -17 -30 -11 -13 10 7 8 17 12 22 9 5 -3 1 -12 -9 -19z"/>
<path d="M6762 908 l2 -53 3 48 c4 44 6 47 33 47 27 0 29 -3 33 -47 l3 -48 2
53 2 52 -40 0 -40 0 2 -52z"/>
<path d="M6860 921 c-18 -35 3 -60 50 -59 39 0 40 1 40 34 0 49 28 46 33 -3
l4 -38 1 43 c2 39 0 42 -23 42 -22 0 -25 -4 -25 -35 0 -44 -18 -46 -22 -2 -4
39 -40 51 -58 18z m45 -21 c0 -13 -6 -25 -12 -27 -16 -6 -27 21 -19 43 9 23
31 11 31 -16z"/>
<path d="M7010 899 c0 -38 2 -40 27 -37 35 4 45 37 14 45 -12 3 -21 12 -21 19
0 8 -4 14 -10 14 -5 0 -10 -18 -10 -41z m50 -14 c0 -8 -7 -15 -15 -15 -8 0
-15 7 -15 15 0 8 7 15 15 15 8 0 15 -7 15 -15z"/>
<path d="M7086 931 c-3 -5 3 -7 14 -4 22 6 28 -12 8 -20 -10 -4 -10 -6 0 -6 6
-1 12 -8 12 -17 0 -12 -6 -15 -21 -11 -16 4 -19 3 -11 -5 20 -20 42 -1 39 34
-2 32 -28 51 -41 29z"/>
<path d="M7150 925 c-26 -31 13 -82 44 -56 19 16 21 42 4 59 -16 16 -33 15
-48 -3z m44 -10 c7 -20 -3 -45 -19 -45 -7 0 -15 7 -19 15 -7 20 3 45 19 45 7
0 15 -7 19 -15z"/>
<path d="M7220 900 c0 -39 1 -41 28 -38 24 3 27 7 27 38 0 31 -3 35 -27 38
-27 3 -28 1 -28 -38z m40 20 c0 -5 -7 -10 -15 -10 -8 0 -15 5 -15 10 0 6 7 10
15 10 8 0 15 -4 15 -10z m3 -35 c1 -5 -6 -11 -15 -13 -11 -2 -18 3 -18 13 0
17 30 18 33 0z"/>
<path d="M7295 930 c-4 -7 2 -9 19 -4 15 3 26 2 26 -4 0 -5 -12 -13 -26 -16
-36 -9 -28 -41 11 -43 29 -1 30 0 27 38 -4 33 -8 39 -27 39 -13 0 -27 -5 -30
-10z m45 -40 c0 -13 -28 -25 -38 -16 -3 4 0 11 8 16 20 13 30 12 30 0z"/>
<path d="M7367 932 c6 -4 13 -23 16 -42 l4 -35 1 37 c2 25 7 38 20 41 9 3 1 5
-18 6 -19 0 -30 -3 -23 -7z"/>
<path d="M7430 921 c-18 -35 3 -60 50 -59 39 0 40 1 40 34 0 49 28 46 33 -3
l4 -38 1 43 c2 39 0 42 -23 42 -22 0 -25 -4 -25 -34 0 -32 -2 -34 -32 -33 -39
2 -51 27 -13 27 20 0 26 4 23 18 -5 25 -44 27 -58 3z m45 -1 c3 -5 -3 -10 -14
-10 -12 0 -21 5 -21 10 0 6 6 10 14 10 8 0 18 -4 21 -10z"/>
<path d="M7581 902 c-1 -42 0 -43 27 -40 34 4 39 41 5 46 -12 2 -24 11 -26 20
-3 9 -5 -2 -6 -26z m42 -17 c1 -5 -6 -11 -15 -13 -11 -2 -18 3 -18 13 0 17 30
18 33 0z"/>
<path d="M6844 745 c-17 -42 21 -84 49 -56 9 9 5 11 -13 9 -21 -3 -25 1 -25
22 0 20 5 25 25 25 19 0 28 -8 37 -34 10 -25 10 -37 2 -47 -7 -8 -7 -14 -2
-14 6 0 19 25 30 55 12 30 17 55 13 55 -4 0 -11 -15 -17 -32 l-10 -33 -7 31
c-6 27 -11 31 -42 32 -22 1 -37 -4 -40 -13z"/>
<path d="M6982 723 l-2 -43 45 0 c35 0 45 -4 45 -17 0 -9 2 -14 5 -11 3 3 1
29 -4 59 -8 48 -9 50 -10 17 -1 -26 -6 -38 -15 -38 -10 0 -16 13 -19 38 l-4
37 -1 -37 c-1 -26 -7 -38 -16 -38 -10 0 -16 13 -19 38 l-4 37 -1 -42z"/>
<path d="M7094 746 c-16 -41 20 -86 47 -59 6 6 1 9 -12 9 -12 -1 -24 5 -26 12
-3 7 5 12 22 12 20 0 26 4 23 18 -4 22 -46 29 -54 8z m41 -6 c3 -5 -3 -10 -15
-10 -12 0 -18 5 -15 10 3 6 10 10 15 10 5 0 12 -4 15 -10z"/>
<path d="M7170 745 c-24 -29 14 -85 41 -58 9 9 7 11 -8 7 -13 -4 -22 0 -26 10
-10 25 3 48 24 43 11 -3 17 -1 13 4 -8 14 -30 11 -44 -6z"/>
<path d="M7237 752 c6 -4 13 -23 16 -42 l4 -35 1 37 c2 25 7 38 20 41 9 3 1 5
-18 6 -19 0 -30 -3 -23 -7z"/>
<path d="M7300 720 c0 -36 3 -40 24 -40 31 0 37 10 30 49 -5 24 -12 31 -30 31
-21 0 -24 -5 -24 -40z m40 20 c0 -5 -7 -10 -15 -10 -8 0 -15 5 -15 10 0 6 7
10 15 10 8 0 15 -4 15 -10z m3 -35 c1 -5 -6 -11 -15 -13 -11 -2 -18 3 -18 13
0 17 30 18 33 0z"/>
<path d="M7375 719 c11 -31 12 -45 4 -55 -8 -9 -8 -14 -1 -14 12 0 47 98 39
107 -3 3 -10 -10 -15 -28 l-10 -34 -7 33 c-4 17 -11 32 -16 32 -4 0 -2 -19 6
-41z"/>
<path d="M7442 748 c-25 -25 -6 -68 29 -68 10 0 21 5 24 10 4 7 -2 9 -18 5
-17 -5 -26 -2 -30 9 -5 12 0 16 23 16 17 0 30 4 30 8 0 12 -22 32 -35 32 -6 0
-16 -5 -23 -12z m43 -8 c4 -6 -5 -10 -20 -10 -15 0 -24 4 -20 10 3 6 12 10 20
10 8 0 17 -4 20 -10z"/>
<path d="M7513 753 c12 -3 17 -16 19 -41 l1 -37 4 35 c3 19 10 38 16 42 7 4
-4 7 -23 7 -19 -1 -27 -3 -17 -6z"/>
<path d="M8282 968 c-19 -19 -14 -36 29 -93 l41 -55 -46 -64 c-44 -61 -45 -64
-27 -80 18 -16 21 -15 64 39 l46 56 42 -53 c45 -57 56 -62 72 -36 9 13 2 28
-32 73 -48 64 -48 65 10 141 26 35 29 45 20 63 -7 11 -15 21 -19 21 -4 -1 -25
-25 -47 -55 -22 -30 -42 -55 -45 -55 -3 0 -23 23 -44 50 -46 60 -49 63 -64 48z"/>
<path d="M8382 1300 c0 -14 2 -19 5 -12 2 6 2 18 0 25 -3 6 -5 1 -5 -13z"/>
<path d="M9512 1300 c0 -14 2 -19 5 -12 2 6 2 18 0 25 -3 6 -5 1 -5 -13z"/>
<path d="M8381 1224 c0 -11 3 -14 6 -6 3 7 2 16 -1 19 -3 4 -6 -2 -5 -13z"/>
<path d="M9512 1220 c0 -14 2 -19 5 -12 2 6 2 18 0 25 -3 6 -5 1 -5 -13z"/>
<path d="M9512 1150 c0 -14 2 -19 5 -12 2 6 2 18 0 25 -3 6 -5 1 -5 -13z"/>
<path d="M9512 1070 c0 -14 2 -19 5 -12 2 6 2 18 0 25 -3 6 -5 1 -5 -13z"/>
<path d="M9512 1000 c0 -14 2 -19 5 -12 2 6 2 18 0 25 -3 6 -5 1 -5 -13z"/>
<path d="M9512 920 c0 -14 2 -19 5 -12 2 6 2 18 0 25 -3 6 -5 1 -5 -13z"/>
<path d="M8837 833 c-3 -21 -8 -49 -11 -63 -3 -14 -4 -19 0 -12 3 6 21 12 39
12 18 0 36 -6 39 -12 4 -7 4 -2 1 12 -2 14 -5 42 -5 63 0 34 -2 37 -29 37 -26
0 -29 -4 -34 -37z m53 -13 c0 -35 -3 -40 -23 -40 -20 0 -22 4 -19 40 3 31 8
40 23 40 15 0 19 -7 19 -40z"/>
<path d="M9512 850 c0 -14 2 -19 5 -12 2 6 2 18 0 25 -3 6 -5 1 -5 -13z"/>
<path d="M8926 842 c-3 -6 2 -8 13 -5 10 3 21 0 25 -5 3 -5 -5 -13 -19 -16
-16 -4 -25 -13 -25 -26 0 -16 6 -20 30 -18 29 2 31 5 28 38 -2 27 -8 36 -25
38 -11 2 -24 -1 -27 -6z m44 -42 c0 -13 -28 -25 -38 -16 -3 4 0 11 8 16 20 13
30 12 30 0z"/>
<path d="M8780 820 c0 -5 7 -10 15 -10 8 0 15 5 15 10 0 6 -7 10 -15 10 -8 0
-15 -4 -15 -10z"/>
<path d="M9005 820 c-3 -5 3 -10 15 -10 12 0 18 5 15 10 -3 6 -10 10 -15 10
-5 0 -12 -4 -15 -10z"/>
<path d="M9080 820 c0 -5 7 -10 15 -10 8 0 15 5 15 10 0 6 -7 10 -15 10 -8 0
-15 -4 -15 -10z"/>
<path d="M9155 820 c-3 -5 3 -10 15 -10 12 0 18 5 15 10 -3 6 -10 10 -15 10
-5 0 -12 -4 -15 -10z"/>
<path d="M9230 820 c0 -5 7 -10 15 -10 8 0 15 5 15 10 0 6 -7 10 -15 10 -8 0
-15 -4 -15 -10z"/>
<path d="M9305 820 c-3 -5 3 -10 15 -10 12 0 18 5 15 10 -3 6 -10 10 -15 10
-5 0 -12 -4 -15 -10z"/>
<path d="M9380 820 c0 -5 7 -10 15 -10 8 0 15 5 15 10 0 6 -7 10 -15 10 -8 0
-15 -4 -15 -10z"/>
<path d="M9455 820 c-3 -5 3 -10 15 -10 12 0 18 5 15 10 -3 6 -10 10 -15 10
-5 0 -12 -4 -15 -10z"/>
<path d="M5460 274 l0 -55 38 3 c32 3 37 6 37 28 0 20 -6 26 -27 28 -20 2 -28
9 -28 22 0 13 9 20 28 23 22 3 20 4 -10 6 l-38 1 0 -56z m65 -24 c0 -8 -10
-16 -22 -18 -18 -3 -23 2 -23 18 0 16 5 21 23 18 12 -2 22 -10 22 -18z"/>
<path d="M5570 286 c0 -25 -4 -48 -10 -51 -5 -3 -9 -16 -9 -28 1 -17 2 -18 6
-4 5 20 79 25 86 5 2 -7 3 0 1 16 -2 16 -4 46 -4 67 0 38 -1 39 -35 39 -35 0
-35 0 -35 -44z m60 -11 c0 -43 -1 -45 -29 -45 -28 0 -29 1 -20 38 5 20 9 40 9
45 0 4 9 7 20 7 17 0 20 -7 20 -45z"/>
<path d="M5700 260 c0 -43 15 -55 22 -17 5 29 -1 57 -13 57 -5 0 -9 -18 -9
-40z"/>
<path d="M5735 289 c-11 -17 1 -21 15 -4 8 9 8 15 2 15 -6 0 -14 -5 -17 -11z"/>
<path d="M5780 265 c0 -37 -22 -49 -34 -19 -4 9 -9 15 -11 12 -12 -12 9 -38
31 -38 21 0 24 5 24 35 0 24 5 35 15 35 10 0 15 -11 15 -35 0 -19 5 -35 10
-35 6 0 10 18 10 40 0 38 -2 40 -30 40 -28 0 -30 -3 -30 -35z"/>
<path d="M5861 263 c-1 -49 10 -55 29 -15 l13 27 8 -30 c6 -27 7 -25 7 15 l1
45 -24 -29 -23 -29 -5 29 c-3 22 -4 19 -6 -13z"/>
<path d="M5944 286 c-11 -30 1 -61 25 -64 13 -2 28 1 34 7 7 7 2 10 -18 8 -15
-1 -30 4 -32 11 -3 8 6 12 26 12 33 0 39 8 19 28 -16 16 -47 15 -54 -2z m46
-6 c0 -5 -9 -10 -21 -10 -11 0 -17 5 -14 10 3 6 13 10 21 10 8 0 14 -4 14 -10z"/>
<path d="M6033 260 c0 -25 2 -35 4 -22 3 13 12 22 23 22 11 0 20 -9 23 -22 2
-13 4 -3 4 22 1 25 -1 37 -4 28 -2 -10 -13 -18 -23 -18 -10 0 -21 8 -23 18 -3
9 -5 -3 -4 -28z"/>
<path d="M6112 293 c11 -3 18 -17 21 -41 l4 -37 1 37 c1 25 7 38 20 41 9 3 -1
5 -23 5 -22 0 -32 -2 -23 -5z"/>
<path d="M6182 288 c-27 -27 -3 -73 35 -66 27 5 25 72 -2 76 -11 1 -26 -3 -33
-10z m43 -28 c0 -16 -6 -26 -17 -28 -14 -3 -18 3 -18 28 0 25 4 31 18 28 11
-2 17 -12 17 -28z"/>
<path d="M6260 260 c0 -39 1 -41 28 -38 24 3 27 7 27 38 0 31 -3 35 -27 38
-27 3 -28 1 -28 -38z m45 20 c-3 -5 -13 -10 -21 -10 -8 0 -14 5 -14 10 0 6 9
10 21 10 11 0 17 -4 14 -10z m5 -35 c0 -8 -9 -15 -20 -15 -11 0 -20 7 -20 15
0 8 9 15 20 15 11 0 20 -7 20 -15z"/>
</g>
</svg>
