<?xml version="1.0" standalone="no"?>
<!DOCTYPE svg PUBLIC "-//W3C//DTD SVG 20010904//EN"
 "http://www.w3.org/TR/2001/REC-SVG-20010904/DTD/svg10.dtd">
<svg version="1.0" xmlns="http://www.w3.org/2000/svg"
 width="1277.000000pt" height="564.000000pt" viewBox="0 0 1277.000000 564.000000"
 preserveAspectRatio="xMidYMid meet">

<g transform="translate(0.000000,564.000000) scale(0.100000,-0.100000)"
fill="#000000" stroke="none">
<path d="M338 5472 c-71 -1 -128 -4 -129 -5 -1 -1 -3 -791 -5 -1754 l-5 -1753
3413 0 c1877 0 3551 0 3721 0 269 0 307 -1 307 -15 0 -8 5 -15 10 -15 6 0 10
7 10 15 0 13 281 15 2465 15 l2465 0 2 878 c2 482 2 1272 0 1755 l-2 877
-5933 0 c-3262 0 -5990 2 -6062 3 -71 1 -187 1 -257 -1z m112 -1757 l0 -1745
-115 0 -115 0 0 1745 0 1745 115 0 115 0 0 -1745z m254 1318 c-1 -236 -2 -627
-3 -870 l-1 -443 -115 0 -115 0 0 870 0 870 118 0 118 0 -2 -427z m11876 -443
l0 -870 -960 0 -960 0 0 274 0 274 52 12 c99 21 188 94 231 189 31 69 29 178
-5 252 -64 139 -220 216 -365 180 -111 -28 -211 -130 -234 -240 -7 -31 -13
-57 -15 -59 -1 -2 -20 6 -43 17 -50 26 -54 26 -46 1 6 -19 2 -20 -69 -20 l-76
0 0 203 c0 316 32 297 -499 297 -424 0 -432 -1 -481 -54 -25 -27 -25 -29 -28
-237 -2 -115 -5 -209 -8 -209 -3 0 -22 9 -44 20 -49 25 -53 25 -45 0 6 -19 2
-20 -68 -20 l-74 0 -7 48 c-12 93 -90 192 -185 236 -35 16 -66 21 -126 21
-104 -1 -167 -27 -234 -101 -59 -65 -81 -124 -81 -219 0 -60 5 -82 31 -133 40
-82 103 -136 187 -162 35 -11 70 -20 78 -20 11 0 8 -12 -11 -50 -27 -52 -26
-57 6 -40 19 11 19 6 17 -222 l-3 -233 -3897 -3 -3898 -2 0 870 0 870 5930 0
5930 0 0 -870z m-2557 478 c10 -5 27 -24 37 -41 19 -30 20 -54 20 -435 0 -341
-2 -408 -15 -432 -31 -60 -34 -60 -485 -60 l-410 0 -38 34 -37 34 -3 399 c-2
265 0 410 8 435 11 40 50 73 90 80 51 8 815 -4 833 -14z m-1375 -198 c60 -27
117 -81 150 -145 36 -68 38 -185 4 -259 -12 -27 -24 -47 -27 -44 -3 3 5 27 17
54 31 67 30 170 -1 236 -31 63 -84 116 -148 145 -46 21 -66 24 -131 21 -91 -4
-139 -25 -198 -84 -109 -109 -109 -295 0 -407 53 -53 110 -79 187 -85 88 -6
154 16 219 75 27 25 50 40 50 35 0 -21 -93 -91 -140 -107 -127 -42 -251 -9
-338 90 -49 56 -72 119 -72 196 0 221 226 368 428 279z m2125 0 c68 -32 113
-76 146 -142 59 -117 37 -262 -54 -353 -91 -91 -236 -113 -353 -54 -108 54
-166 147 -166 269 0 85 21 143 73 203 88 100 237 132 354 77z m-2128 -25 c55
-27 120 -96 140 -149 22 -56 17 -175 -9 -228 -9 -20 -36 -55 -59 -77 -149
-148 -403 -79 -463 126 -39 133 40 290 170 337 56 21 169 16 221 -9z m340
-282 c-7 -28 -4 -28 45 -3 22 11 42 20 45 20 3 0 5 -89 5 -197 0 -179 2 -201
20 -230 42 -70 29 -68 485 -68 542 0 505 -21 505 294 l0 201 48 1 c26 0 60 2
75 3 25 1 27 -1 22 -21 -7 -28 -4 -28 45 -3 22 11 41 20 43 20 3 0 7 -18 11
-41 20 -127 123 -232 256 -260 l50 -11 0 -274 0 -274 -1055 0 -1055 0 0 235
c0 230 0 235 19 225 32 -17 33 -12 6 39 l-25 50 53 11 c70 14 147 60 187 110
35 44 70 126 70 165 0 22 4 24 53 27 97 6 99 5 92 -19z m-8285 -1723 l0 -870
-115 0 -115 0 0 870 0 870 115 0 115 0 0 -870z m7820 596 l0 -273 -41 -7
c-141 -23 -269 -155 -269 -278 0 -34 -12 -35 -67 -3 -46 25 -49 25 -33 -6 10
-18 7 -19 -64 -19 l-74 0 -11 50 c-28 133 -133 236 -260 256 l-41 7 0 218 0
219 -2730 0 -2730 0 0 -81 c0 -76 -1 -80 -20 -74 -25 8 -25 4 0 -45 11 -22 20
-42 20 -45 0 -3 -87 -5 -192 -5 -212 0 -241 -6 -282 -63 -19 -26 -21 -45 -24
-233 -2 -112 -7 -204 -10 -204 -4 0 -26 11 -49 25 -46 25 -49 25 -33 -6 10
-18 6 -19 -100 -19 l-110 0 0 25 c0 39 -35 99 -81 138 -107 92 -274 55 -339
-74 -27 -51 -27 -146 -1 -197 84 -164 318 -164 402 0 10 21 19 49 19 63 0 24
2 25 70 26 162 2 153 3 140 -21 -6 -11 -8 -20 -5 -20 3 0 23 9 45 20 22 11 41
20 44 20 2 0 6 -89 8 -197 4 -221 10 -247 71 -280 29 -16 69 -18 444 -18 400
0 412 1 440 21 57 41 63 70 63 280 l0 192 41 4 c23 2 56 2 75 0 29 -4 32 -6
23 -23 -12 -24 -8 -24 41 1 22 11 41 20 44 20 2 0 6 -89 8 -197 4 -221 10
-247 71 -280 29 -16 69 -18 442 -18 412 0 455 3 455 36 0 6 -10 3 -22 -5 -33
-23 -824 -24 -868 -1 -60 31 -60 34 -60 484 l0 411 28 31 c21 24 41 34 78 39
27 5 218 6 424 3 404 -5 401 -5 437 -60 17 -25 18 -59 15 -425 -2 -273 0 -398
7 -398 7 0 11 64 11 190 l0 190 75 0 c73 0 75 -1 65 -20 -6 -11 -8 -20 -5 -20
3 0 23 9 45 20 53 27 60 25 60 -13 0 -50 55 -151 107 -197 42 -36 144 -80 189
-80 8 0 15 -8 15 -17 1 -16 2 -16 6 -1 3 11 22 21 56 28 70 14 147 60 187 110
35 45 70 126 70 165 0 30 9 31 60 5 50 -26 52 -25 38 6 -9 19 -9 33 -1 54 l11
29 -49 -24 c-26 -14 -50 -25 -52 -25 -3 0 -7 21 -11 48 -12 93 -90 192 -185
236 -67 30 -187 29 -259 -3 -95 -43 -182 -163 -182 -253 0 -34 -12 -35 -67 -3
-46 25 -49 25 -33 -6 10 -18 7 -19 -64 -19 l-75 0 -3 204 c-5 314 27 296 -508
296 -535 0 -503 18 -508 -296 -2 -112 -7 -204 -10 -204 -4 0 -26 11 -49 25
-46 25 -49 25 -33 -6 10 -18 7 -19 -64 -19 l-75 0 -3 204 c-3 188 -5 207 -24
233 -41 57 -70 63 -281 63 -106 0 -193 2 -193 5 0 3 9 23 20 45 25 49 25 53 0
45 -19 -6 -20 -2 -20 64 l0 71 1360 1 c748 0 1394 0 1435 0 41 0 649 0 1350 0
l1275 -1 0 -208 0 -208 -57 -12 c-76 -16 -154 -69 -198 -135 -126 -192 -22
-439 205 -488 27 -6 50 -13 50 -15 0 -3 -9 -23 -21 -45 -23 -46 -20 -56 10
-39 15 8 27 8 42 0 30 -17 33 -7 10 39 -12 22 -21 42 -21 45 0 2 24 9 52 16
66 14 125 48 171 99 45 50 64 87 78 150 10 48 11 49 51 53 22 2 55 2 74 0 29
-4 32 -6 23 -23 -12 -24 -8 -24 41 1 53 27 60 25 60 -13 0 -51 55 -151 107
-197 61 -54 161 -85 238 -75 175 21 294 165 283 339 -10 149 -120 269 -265
292 l-43 7 0 273 0 274 1055 0 1055 0 0 -231 c0 -226 0 -230 -20 -224 -25 8
-25 4 1 -46 11 -23 19 -42 17 -43 -2 -2 -28 -8 -59 -15 -110 -23 -212 -123
-240 -234 -36 -145 41 -301 180 -365 74 -34 183 -36 252 -5 95 43 168 132 189
230 11 50 12 51 52 55 22 2 55 2 74 0 29 -4 32 -6 23 -23 -12 -24 -7 -24 41 1
l38 20 11 -52 c15 -67 56 -142 100 -180 98 -86 249 -110 363 -56 66 31 128 91
160 156 33 69 37 187 8 265 -26 69 -94 143 -164 177 -72 34 -182 39 -257 11
-105 -40 -185 -135 -210 -250 l-11 -52 -44 25 c-47 26 -50 26 -34 -5 10 -18 7
-19 -64 -19 l-74 0 -11 50 c-29 135 -137 239 -266 256 l-44 7 25 49 c24 48 24
49 5 43 -21 -6 -21 -4 -21 224 l0 231 960 0 960 0 0 -870 0 -870 -2775 0
c-2152 0 -2775 3 -2775 12 0 9 -3 9 -12 0 -9 -9 -300 -12 -1250 -12 -1172 0
-1238 1 -1238 18 -1 16 -1 16 -11 -1 -9 -16 -111 -17 -1904 -17 l-1895 0 0
870 0 870 3900 0 3900 0 0 -274z m-5873 -122 c13 -8 31 -26 40 -41 19 -29 20
-54 15 -641 l-2 -214 -34 -34 -34 -34 -411 0 c-452 0 -455 0 -486 60 -13 24
-15 92 -15 439 l0 411 28 31 c21 23 41 34 73 39 24 4 215 5 424 3 306 -4 384
-8 402 -19z m2001 -194 c60 -27 117 -81 150 -145 22 -42 27 -63 27 -130 0 -68
-4 -89 -28 -137 -63 -129 -202 -194 -349 -163 -84 18 -183 108 -212 192 -87
254 168 490 412 383z m3125 0 c68 -32 113 -76 146 -142 59 -117 37 -262 -54
-353 -91 -91 -236 -113 -353 -54 -108 54 -166 147 -166 269 0 85 21 143 73
203 88 100 237 132 354 77z m875 0 c60 -27 117 -81 150 -145 22 -42 27 -63 27
-130 0 -68 -4 -89 -28 -137 -63 -129 -202 -194 -349 -163 -84 18 -183 108
-212 192 -87 254 168 490 412 383z m2125 0 c68 -32 113 -76 146 -142 59 -117
37 -262 -54 -353 -91 -91 -236 -113 -353 -54 -108 54 -166 147 -166 269 0 85
21 143 73 203 88 100 237 132 354 77z m873 -14 c106 -49 167 -145 168 -261 1
-92 -29 -160 -96 -220 -63 -57 -129 -79 -217 -73 -159 12 -265 127 -266 289 0
64 4 84 30 134 32 63 100 124 159 143 61 19 166 14 222 -12z m-10365 -79 c118
-63 145 -222 56 -324 -61 -69 -160 -91 -242 -54 -158 71 -167 298 -16 378 31
16 61 23 101 23 40 0 70 -7 101 -23z"/>
<path d="M308 5353 c12 -2 30 -2 40 0 9 3 -1 5 -23 4 -22 0 -30 -2 -17 -4z"/>
<path d="M304 4505 c-7 -18 2 -45 15 -45 5 0 7 10 5 23 l-5 22 12 -23 c17 -31
44 -24 45 11 1 24 -2 27 -33 27 -21 0 -36 -6 -39 -15z m61 -15 c3 -5 1 -10 -4
-10 -6 0 -11 5 -11 10 0 6 2 10 4 10 3 0 8 -4 11 -10z"/>
<path d="M303 4423 c-3 -8 -1 -19 6 -26 8 -8 11 -7 11 4 0 8 10 15 24 15 18 1
23 -2 19 -14 -4 -10 -2 -13 6 -8 7 4 11 15 9 24 -4 22 -67 26 -75 5z"/>
<path d="M306 4352 c-11 -18 -2 -78 13 -89 14 -11 14 -12 -1 -13 -38 0 -16
-20 22 -20 38 0 60 20 23 20 -17 1 -17 2 -2 13 11 8 17 27 16 55 -1 41 -2 42
-33 42 -18 0 -35 -4 -38 -8z m53 -52 c13 -1 13 -3 -3 -15 -15 -12 -22 -12 -34
-3 -8 7 -10 14 -4 16 5 1 8 13 6 25 l-5 22 12 -22 c7 -13 19 -23 28 -23z m6
30 c3 -5 1 -10 -4 -10 -6 0 -11 5 -11 10 0 6 2 10 4 10 3 0 8 -4 11 -10z"/>
<path d="M304 4185 c-7 -18 2 -45 15 -45 5 0 7 10 5 23 l-5 22 12 -23 c17 -31
44 -24 45 11 1 24 -2 27 -33 27 -21 0 -36 -6 -39 -15z m61 -15 c3 -5 1 -10 -4
-10 -6 0 -11 5 -11 10 0 6 2 10 4 10 3 0 8 -4 11 -10z"/>
<path d="M303 4103 c-3 -8 -1 -19 6 -26 8 -8 11 -7 11 4 0 8 10 15 24 15 18 1
23 -2 19 -14 -4 -10 -2 -13 6 -8 7 4 11 15 9 24 -4 22 -67 26 -75 5z"/>
<path d="M310 3985 c-17 -20 3 -45 37 -45 26 0 39 21 28 48 -7 15 -9 14 -15
-8 -8 -24 -8 -24 -9 -2 -1 25 -23 29 -41 7z"/>
<path d="M300 3911 c0 -5 10 -16 23 -24 l22 -16 -22 0 c-41 -1 -24 -21 17 -21
45 0 51 11 18 34 l-22 16 22 0 c12 0 22 5 22 10 0 6 -18 10 -40 10 -22 0 -40
-4 -40 -9z"/>
<path d="M300 3820 c0 -5 7 -10 15 -10 8 0 15 -7 15 -15 0 -8 -7 -15 -15 -15
-8 0 -15 -4 -15 -10 0 -5 18 -10 40 -10 22 0 40 5 40 10 0 6 -7 10 -15 10 -8
0 -15 7 -15 15 0 8 7 15 15 15 8 0 15 5 15 10 0 6 -18 10 -40 10 -22 0 -40 -4
-40 -10z"/>
<path d="M304 3725 c-7 -18 2 -45 15 -45 5 0 7 10 5 23 l-5 22 12 -23 c17 -31
44 -24 45 11 1 24 -2 27 -33 27 -21 0 -36 -6 -39 -15z m61 -15 c3 -5 1 -10 -4
-10 -6 0 -11 5 -11 10 0 6 2 10 4 10 3 0 8 -4 11 -10z"/>
<path d="M306 3653 c-3 -3 -6 -19 -6 -35 0 -26 3 -28 41 -28 39 0 40 1 37 32
-3 28 -7 33 -34 35 -17 1 -34 0 -38 -4z m20 -40 c-10 -10 -19 5 -10 18 6 11 8
11 12 0 2 -7 1 -15 -2 -18z m44 12 c0 -8 -4 -15 -10 -15 -5 0 -10 7 -10 15 0
8 5 15 10 15 6 0 10 -7 10 -15z"/>
<path d="M300 3561 c0 -5 10 -16 23 -24 l22 -16 -22 0 c-41 -1 -24 -21 17 -21
45 0 51 11 18 34 l-22 16 22 0 c12 0 22 5 22 10 0 6 -18 10 -40 10 -22 0 -40
-4 -40 -9z"/>
<path d="M300 3472 c0 -6 8 -16 18 -21 16 -10 16 -10 0 -11 -10 0 -18 -4 -18
-10 0 -5 8 -10 18 -10 16 -1 16 -1 0 -11 -10 -5 -18 -15 -18 -21 0 -7 6 -6 15
2 12 10 21 10 40 2 28 -13 34 2 8 17 -17 10 -17 10 0 11 9 0 17 5 17 10 0 6
-8 10 -17 10 -17 1 -17 1 0 11 26 15 20 30 -8 17 -19 -8 -28 -8 -40 2 -9 8
-15 9 -15 2z"/>
<path d="M300 3351 c0 -6 15 -14 33 -19 l32 -8 -32 -7 c-31 -6 -33 -9 -33 -52
0 -41 2 -45 24 -45 13 0 31 -3 40 -6 11 -4 16 -1 16 10 0 11 -9 16 -30 16 -20
0 -30 5 -30 15 0 10 10 15 30 15 41 0 38 20 -2 21 -32 0 -32 0 -8 10 14 6 35
8 48 6 33 -6 27 12 -10 27 -57 23 -78 28 -78 17z"/>
<path d="M304 3175 c-9 -23 16 -46 45 -43 20 2 26 9 26 27 0 13 -6 26 -14 29
-9 3 -11 -1 -6 -17 5 -17 2 -21 -15 -21 -17 0 -20 4 -15 20 7 23 -13 28 -21 5z"/>
<path d="M270 3088 c0 -33 18 -48 56 -48 39 0 63 24 47 48 -22 35 -80 19 -70
-20 3 -10 1 -16 -4 -12 -5 3 -9 14 -9 24 0 10 -4 22 -10 25 -6 3 -10 -4 -10
-17z m90 -13 c0 -8 -9 -15 -20 -15 -11 0 -20 7 -20 15 0 8 9 15 20 15 11 0 20
-7 20 -15z"/>
<path d="M286 3004 c-46 -46 15 -106 75 -74 12 7 19 21 19 40 0 46 -61 68 -94
34z m69 -34 c0 -20 -6 -26 -28 -28 -29 -4 -44 16 -33 44 4 10 15 14 33 12 22
-2 28 -8 28 -28z"/>
<path d="M558 5353 c12 -2 30 -2 40 0 9 3 -1 5 -23 4 -22 0 -30 -2 -17 -4z"/>
<path d="M560 5030 c0 -16 5 -30 10 -30 6 0 10 5 10 10 0 6 14 10 30 10 17 0
30 5 30 10 0 6 -13 10 -30 10 -16 0 -30 5 -30 10 0 6 -4 10 -10 10 -5 0 -10
-13 -10 -30z"/>
<path d="M560 4980 c0 -5 7 -10 15 -10 8 0 15 -7 15 -15 0 -8 -7 -15 -15 -15
-8 0 -15 -4 -15 -10 0 -5 18 -10 40 -10 22 0 40 5 40 10 0 6 -7 10 -15 10 -8
0 -15 7 -15 15 0 8 7 15 15 15 8 0 15 5 15 10 0 6 -18 10 -40 10 -22 0 -40 -4
-40 -10z"/>
<path d="M564 4875 c-7 -18 2 -45 15 -45 5 0 7 10 5 23 l-5 22 12 -23 c17 -31
44 -24 45 11 1 24 -2 27 -33 27 -21 0 -36 -6 -39 -15z m61 -15 c3 -5 1 -10 -4
-10 -6 0 -11 5 -11 10 0 6 2 10 4 10 3 0 8 -4 11 -10z"/>
<path d="M560 4780 c0 -16 5 -30 10 -30 6 0 10 5 10 10 0 6 14 10 30 10 17 0
30 5 30 10 0 6 -13 10 -30 10 -16 0 -30 5 -30 10 0 6 -4 10 -10 10 -5 0 -10
-13 -10 -30z"/>
<path d="M594 4726 c-3 -14 -12 -26 -20 -26 -8 0 -14 -4 -14 -10 0 -5 18 -10
41 -10 39 0 40 1 37 32 -4 42 -34 51 -44 14z m36 -11 c0 -8 -4 -15 -10 -15 -5
0 -10 7 -10 15 0 8 5 15 10 15 6 0 10 -7 10 -15z"/>
<path d="M560 4625 c0 -30 3 -35 24 -35 13 0 31 -3 40 -6 11 -4 16 -1 16 10 0
11 -9 16 -30 16 -20 0 -30 5 -30 15 0 10 10 15 30 15 17 0 30 5 30 10 0 6 -18
10 -40 10 -39 0 -40 -1 -40 -35z"/>
<path d="M560 4551 c0 -6 15 -14 33 -19 l32 -8 -32 -7 c-18 -4 -33 -11 -33
-17 0 -7 8 -9 23 -3 12 4 37 8 55 8 17 0 32 4 32 8 0 4 -15 14 -32 21 -57 23
-78 28 -78 17z"/>
<path d="M564 4465 c-9 -23 16 -46 45 -43 20 2 26 9 26 27 0 13 -6 26 -14 29
-9 3 -11 -1 -6 -17 5 -17 2 -21 -15 -21 -17 0 -20 4 -15 20 7 23 -13 28 -21 5z"/>
<path d="M560 4390 c0 -5 7 -10 15 -10 8 0 15 -7 15 -15 0 -8 -7 -15 -15 -15
-8 0 -15 -4 -15 -10 0 -5 18 -10 40 -10 22 0 40 5 40 10 0 6 -7 10 -15 10 -8
0 -15 7 -15 15 0 8 7 15 15 15 8 0 15 5 15 10 0 6 -18 10 -40 10 -22 0 -40 -4
-40 -10z"/>
<path d="M569 4294 c-17 -21 0 -49 31 -49 31 0 48 28 31 49 -8 9 -21 16 -31
16 -10 0 -23 -7 -31 -16z m51 -19 c0 -8 -9 -15 -20 -15 -11 0 -20 7 -20 15 0
8 9 15 20 15 11 0 20 -7 20 -15z"/>
<path d="M530 4215 c0 -9 12 -21 28 -27 l27 -12 -27 -4 c-49 -6 -30 -22 27
-22 57 0 76 16 28 22 l-28 4 28 14 c15 7 27 19 27 27 0 11 -5 11 -29 -2 -29
-15 -61 -12 -61 6 0 5 -4 9 -10 9 -5 0 -10 -7 -10 -15z"/>
<path d="M9136 5028 c-16 -22 -22 -111 -10 -142 9 -22 204 -24 204 -2 0 8 5
16 11 18 6 2 11 28 12 58 l2 55 -40 3 c-22 2 -44 10 -48 18 -5 9 -26 14 -62
14 -44 0 -57 -4 -69 -22z m114 3 c0 -6 -15 -12 -32 -14 -18 -2 5 -5 50 -5 62
-2 83 -5 80 -14 -3 -7 -29 -16 -59 -19 l-54 -6 58 -1 c66 -2 78 -22 13 -22
-25 0 -48 -4 -51 -10 -4 -6 12 -10 39 -10 61 0 59 -20 -1 -22 -44 -1 -45 -2
-10 -5 71 -8 36 -23 -53 -23 l-90 0 0 73 c0 41 3 77 7 80 10 11 103 8 103 -2z"/>
<path d="M9126 4724 c-31 -30 -9 -84 34 -84 24 0 50 26 50 50 0 24 -26 50 -50
50 -10 0 -26 -7 -34 -16z m64 -14 c15 -28 -4 -62 -33 -58 -22 3 -34 35 -23 64
8 21 44 17 56 -6z"/>
<path d="M9232 4728 c-32 -32 1 -104 36 -81 25 16 21 55 -7 69 l-24 12 29 5
c27 4 27 4 4 6 -15 0 -31 -4 -38 -11z m42 -34 c8 -22 -5 -45 -23 -42 -10 2
-16 14 -17 34 -1 25 2 30 17 27 10 -3 20 -11 23 -19z"/>
<path d="M9304 4706 c-3 -8 -4 -25 -2 -38 3 -20 9 -23 43 -23 38 0 40 2 43 33
5 46 30 42 35 -5 l4 -38 1 43 c2 40 1 42 -28 42 -27 0 -30 -3 -30 -33 0 -29
-3 -33 -27 -32 -23 0 -28 5 -28 25 0 20 4 25 23 23 13 -2 21 1 17 7 -9 15 -45
12 -51 -4z"/>
<path d="M9455 4679 c11 -31 12 -45 4 -55 -8 -9 -8 -14 -1 -14 12 0 47 98 39
107 -3 3 -10 -10 -15 -28 l-10 -34 -7 33 c-4 17 -11 32 -16 32 -4 0 -2 -19 6
-41z"/>
<path d="M9522 4704 c15 -15 15 -19 1 -43 l-15 -26 21 25 21 25 1 -25 1 -25 7
25 7 25 13 -23 c7 -13 15 -21 18 -19 3 3 0 14 -5 23 -7 12 -7 25 -1 36 12 23
0 23 -17 1 -13 -17 -13 -17 -14 2 l-1 20 -9 -20 c-7 -18 -8 -19 -15 -2 -4 9
-12 17 -18 17 -6 0 -4 -7 5 -16z"/>
<path d="M9611 4683 c-1 -49 10 -55 29 -15 l13 27 8 -30 c6 -28 7 -27 8 13 1
48 -10 54 -29 15 l-13 -28 -8 30 c-6 28 -7 27 -8 -12z"/>
<path d="M9690 4680 c0 -36 3 -40 24 -40 31 0 37 10 30 49 -5 24 -12 31 -30
31 -21 0 -24 -5 -24 -40z m40 20 c0 -5 -7 -10 -15 -10 -8 0 -15 5 -15 10 0 6
7 10 15 10 8 0 15 -4 15 -10z m3 -35 c1 -5 -6 -11 -15 -13 -11 -2 -18 3 -18
13 0 17 30 18 33 0z"/>
<path d="M9766 4712 c-3 -6 2 -8 13 -5 10 3 21 0 25 -5 3 -5 -5 -13 -19 -16
-16 -4 -25 -13 -25 -26 0 -16 6 -20 30 -18 29 2 31 5 28 38 -2 27 -8 36 -25
38 -11 2 -24 -1 -27 -6z m44 -42 c0 -13 -28 -25 -38 -16 -3 4 0 11 8 16 20 13
30 12 30 0z"/>
<path d="M9843 4680 c0 -25 2 -35 4 -22 2 12 11 22 18 22 7 0 16 -10 18 -22 2
-13 4 -3 4 22 1 25 -1 37 -4 28 -2 -10 -11 -18 -18 -18 -7 0 -16 8 -18 18 -3
9 -5 -3 -4 -28z"/>
<path d="M9910 4680 c0 -46 11 -51 31 -13 l14 26 6 -29 c6 -25 7 -24 8 14 1
49 -3 52 -23 15 l-15 -28 -1 28 c0 15 -4 27 -10 27 -5 0 -10 -18 -10 -40z"/>
<path d="M9990 4701 c-8 -15 -8 -27 0 -41 11 -20 44 -27 54 -12 3 5 -4 8 -16
8 -12 -1 -23 5 -25 12 -3 7 5 12 22 12 20 0 26 4 23 18 -5 25 -44 27 -58 3z
m45 -1 c3 -5 -3 -10 -14 -10 -12 0 -21 5 -21 10 0 6 6 10 14 10 8 0 18 -4 21
-10z"/>
<path d="M9386 4521 c-3 -5 3 -7 14 -4 22 6 28 -12 8 -20 -10 -4 -10 -6 0 -6
6 -1 12 -8 12 -17 0 -12 -6 -15 -21 -11 -16 4 -19 3 -11 -5 20 -20 42 -1 39
34 -2 32 -28 51 -41 29z"/>
<path d="M9445 4520 c-4 -7 2 -9 19 -4 34 8 34 -9 0 -25 -33 -15 -26 -36 12
-38 28 -1 29 0 26 38 -4 33 -8 39 -27 39 -13 0 -27 -5 -30 -10z m45 -39 c0
-14 -18 -23 -31 -15 -8 4 -7 9 2 15 18 11 29 11 29 0z"/>
<path d="M9522 4490 c0 -35 2 -39 7 -20 l7 25 13 -23 c7 -13 15 -21 18 -19 2
3 -1 15 -7 27 -9 16 -9 25 1 36 7 8 7 14 1 14 -5 0 -13 -8 -17 -17 -7 -17 -8
-16 -15 2 -6 15 -9 8 -8 -25z"/>
<path d="M9585 4520 c-4 -7 2 -9 19 -4 34 8 34 -9 0 -25 -33 -15 -26 -36 12
-38 28 -1 29 0 26 38 -4 33 -8 39 -27 39 -13 0 -27 -5 -30 -10z m45 -39 c0
-14 -18 -23 -31 -15 -8 4 -7 9 2 15 18 11 29 11 29 0z"/>
<path d="M9665 4521 c-4 -7 0 -8 11 -4 13 5 16 3 11 -10 -3 -9 -2 -19 4 -22
14 -9 -1 -27 -17 -21 -8 3 -14 1 -14 -5 0 -6 10 -9 23 -7 18 2 22 9 22 38 0
35 -25 54 -40 31z"/>
<path d="M9725 4520 c-4 -7 2 -9 19 -4 15 3 26 2 26 -4 0 -5 -12 -13 -26 -16
-36 -9 -28 -41 11 -43 29 -1 30 0 27 38 -4 33 -8 39 -27 39 -13 0 -27 -5 -30
-10z m45 -40 c0 -13 -28 -25 -38 -16 -3 4 0 11 8 16 20 13 30 12 30 0z"/>
<path d="M10420 4590 l0 -130 225 0 225 0 0 130 0 130 -225 0 -225 0 0 -130z
m410 116 c0 -2 -41 -27 -91 -55 l-90 -52 -97 56 -97 55 188 0 c103 0 187 -2
187 -4z m-268 -72 c43 -24 82 -44 87 -44 5 0 53 25 106 55 54 30 99 55 101 55
2 0 4 -52 4 -115 l0 -115 -210 0 -210 0 0 115 0 116 23 -12 c12 -7 57 -32 99
-55z"/>
<path d="M8300 4590 l0 -130 225 0 225 0 0 130 0 130 -225 0 -225 0 0 -130z
m385 102 c-16 -10 -60 -35 -96 -55 l-67 -37 -88 51 c-49 28 -91 53 -93 55 -2
2 81 4 185 4 187 0 189 0 159 -18z m-268 -47 c54 -30 102 -55 106 -55 5 0 53
25 107 55 54 30 101 55 104 55 3 0 6 -52 6 -115 l0 -115 -215 0 -215 0 0 115
c0 63 2 115 5 115 2 0 49 -25 102 -55z"/>
<path d="M558 3603 c12 -2 30 -2 40 0 9 3 -1 5 -23 4 -22 0 -30 -2 -17 -4z"/>
<path d="M560 3070 c0 -16 5 -30 10 -30 6 0 10 5 10 10 0 6 14 10 30 10 17 0
30 5 30 10 0 6 -13 10 -30 10 -16 0 -30 5 -30 10 0 6 -4 10 -10 10 -5 0 -10
-13 -10 -30z"/>
<path d="M560 3020 c0 -5 7 -10 15 -10 8 0 15 -7 15 -15 0 -8 -7 -15 -15 -15
-8 0 -15 -4 -15 -10 0 -5 18 -10 40 -10 22 0 40 5 40 10 0 6 -7 10 -15 10 -8
0 -15 7 -15 15 0 8 7 15 15 15 8 0 15 5 15 10 0 6 -18 10 -40 10 -22 0 -40 -4
-40 -10z"/>
<path d="M570 2925 c-17 -20 3 -45 37 -45 26 0 39 21 28 48 -7 15 -9 14 -15
-8 -8 -24 -8 -24 -9 -2 -1 25 -23 29 -41 7z"/>
<path d="M560 2851 c0 -5 10 -16 23 -24 l22 -16 -22 0 c-41 -1 -24 -21 17 -21
45 0 51 11 18 34 l-22 16 22 0 c12 0 22 5 22 10 0 6 -18 10 -40 10 -22 0 -40
-4 -40 -9z"/>
<path d="M560 2735 c0 -30 3 -35 24 -35 13 0 31 -3 40 -6 11 -4 16 -1 16 10 0
11 -9 16 -30 16 -20 0 -30 5 -30 15 0 10 10 15 30 15 17 0 30 5 30 10 0 6 -18
10 -40 10 -39 0 -40 -1 -40 -35z"/>
<path d="M530 2665 c0 -9 12 -21 28 -27 l27 -12 -27 -4 c-49 -6 -30 -22 27
-22 57 0 76 16 28 22 l-28 4 28 14 c15 7 27 19 27 27 0 11 -5 11 -29 -2 -29
-15 -61 -12 -61 6 0 5 -4 9 -10 9 -5 0 -10 -7 -10 -15z"/>
<path d="M3060 3295 c-7 -9 -10 -27 -6 -45 4 -22 2 -30 -9 -30 -29 0 -55 -38
-55 -80 l0 -40 105 0 105 0 0 38 c0 42 -23 82 -46 82 -12 0 -14 7 -9 30 4 19
2 36 -5 45 -16 19 -64 19 -80 0z m56 -67 c-1 -25 -6 -33 -20 -33 -14 0 -19 8
-21 33 -2 27 1 32 20 32 19 0 22 -5 21 -32z m-52 -33 c7 -20 45 -19 69 2 18
17 20 17 38 -6 23 -28 25 -71 4 -71 -8 0 -15 6 -16 13 0 10 -2 10 -6 0 -3 -9
-26 -13 -64 -13 -40 0 -59 4 -60 13 0 10 -2 10 -6 0 -9 -24 -23 -13 -23 16 0
20 8 35 22 45 28 20 34 20 42 1z"/>
<path d="M3016 2974 c-32 -32 -10 -94 34 -94 26 0 50 27 50 55 0 28 -24 55
-50 55 -10 0 -26 -7 -34 -16z m65 -15 c8 -16 8 -28 0 -45 -18 -41 -71 -25 -71
21 0 44 50 61 71 24z"/>
<path d="M3161 2980 c-1 -8 -11 -20 -23 -25 -31 -13 -31 -56 -1 -70 12 -5 24
-16 27 -25 2 -9 4 -7 5 6 1 15 7 20 24 20 19 -1 22 4 22 34 0 28 -4 35 -20 35
-11 0 -23 9 -27 20 -4 13 -6 14 -7 5z m-1 -60 c0 -20 -5 -30 -15 -30 -10 0
-15 10 -15 30 0 20 5 30 15 30 10 0 15 -10 15 -30z m45 0 c0 -27 -20 -38 -28
-15 -8 20 3 47 17 42 6 -2 11 -14 11 -27z"/>
<path d="M3244 2946 c-12 -31 0 -61 25 -61 31 0 50 28 35 53 -14 22 -52 28
-60 8z m49 -8 c6 -21 -4 -48 -19 -48 -18 0 -28 24 -20 45 7 18 33 20 39 3z"/>
<path d="M3320 2906 c0 -31 5 -56 10 -56 6 0 10 6 10 14 0 8 10 16 23 18 18 2
22 9 22 38 0 32 -3 35 -32 38 l-33 3 0 -55z m55 14 c0 -13 -6 -25 -12 -27 -16
-6 -27 21 -19 43 9 23 31 11 31 -16z"/>
<path d="M3411 2918 l2 -43 6 35 7 35 8 -32 c9 -40 21 -42 32 -5 l7 27 7 -30
c7 -28 8 -27 9 13 1 46 -15 57 -25 17 -3 -14 -10 -25 -14 -25 -4 0 -11 11 -14
25 -10 40 -26 29 -25 -17z"/>
<path d="M3520 2926 c0 -19 -6 -37 -12 -39 -8 -3 -6 -6 5 -6 13 -1 17 7 17 34
0 24 5 35 15 35 10 0 15 -11 15 -35 0 -19 5 -35 10 -35 6 0 10 18 10 40 0 38
-2 40 -30 40 -27 0 -30 -3 -30 -34z"/>
<path d="M3601 2938 c-5 -13 -5 -31 1 -40 9 -18 43 -24 52 -10 3 5 -4 8 -16 8
-12 -1 -23 5 -25 12 -3 8 6 12 26 12 33 0 39 8 19 28 -19 19 -48 14 -57 -10z
m49 2 c0 -5 -9 -10 -21 -10 -11 0 -17 5 -14 10 3 6 13 10 21 10 8 0 14 -4 14
-10z"/>
<path d="M3683 2920 c0 -25 2 -35 4 -22 3 13 12 22 23 22 11 0 20 -9 23 -22 2
-13 4 -3 4 22 1 25 -1 37 -4 28 -2 -10 -13 -18 -23 -18 -10 0 -21 8 -23 18 -3
9 -5 -3 -4 -28z"/>
<path d="M3760 2919 c0 -28 4 -39 13 -36 6 2 12 9 11 15 -1 7 -2 23 -2 37 -3
42 -22 28 -22 -16z"/>
<path d="M3802 2940 c-6 -11 -12 -23 -12 -27 0 -5 5 -1 10 7 8 12 10 9 10 -12
0 -16 5 -28 10 -28 6 0 10 18 10 40 0 44 -9 50 -28 20z"/>
<path d="M3851 2938 c-5 -13 -5 -31 1 -40 9 -18 43 -24 52 -10 3 5 -4 8 -16 8
-12 -1 -23 5 -25 12 -3 8 6 12 26 12 33 0 39 8 19 28 -19 19 -48 14 -57 -10z
m49 2 c0 -5 -9 -10 -21 -10 -11 0 -17 5 -14 10 3 6 13 10 21 10 8 0 14 -4 14
-10z"/>
<path d="M4950 2840 c0 -5 7 -10 15 -10 8 0 15 5 15 10 0 6 -7 10 -15 10 -8 0
-15 -4 -15 -10z"/>
<path d="M5030 2840 c0 -5 7 -10 15 -10 8 0 15 5 15 10 0 6 -7 10 -15 10 -8 0
-15 -4 -15 -10z"/>
<path d="M5100 2840 c0 -5 7 -10 15 -10 8 0 15 5 15 10 0 6 -7 10 -15 10 -8 0
-15 -4 -15 -10z"/>
<path d="M5180 2840 c0 -5 7 -10 15 -10 8 0 15 5 15 10 0 6 -7 10 -15 10 -8 0
-15 -4 -15 -10z"/>
<path d="M5250 2840 c0 -5 7 -10 15 -10 8 0 15 5 15 10 0 6 -7 10 -15 10 -8 0
-15 -4 -15 -10z"/>
<path d="M5330 2840 c0 -5 7 -10 15 -10 8 0 15 5 15 10 0 6 -7 10 -15 10 -8 0
-15 -4 -15 -10z"/>
<path d="M5400 2840 c0 -5 7 -10 15 -10 8 0 15 5 15 10 0 6 -7 10 -15 10 -8 0
-15 -4 -15 -10z"/>
<path d="M5480 2840 c0 -5 7 -10 15 -10 8 0 15 5 15 10 0 6 -7 10 -15 10 -8 0
-15 -4 -15 -10z"/>
<path d="M5550 2840 c0 -5 7 -10 15 -10 8 0 15 5 15 10 0 6 -7 10 -15 10 -8 0
-15 -4 -15 -10z"/>
<path d="M5630 2840 c0 -5 7 -10 15 -10 8 0 15 5 15 10 0 6 -7 10 -15 10 -8 0
-15 -4 -15 -10z"/>
<path d="M5700 2840 c0 -5 7 -10 15 -10 8 0 15 5 15 10 0 6 -7 10 -15 10 -8 0
-15 -4 -15 -10z"/>
<path d="M5780 2840 c0 -5 7 -10 15 -10 8 0 15 5 15 10 0 6 -7 10 -15 10 -8 0
-15 -4 -15 -10z"/>
<path d="M5850 2840 c0 -5 7 -10 15 -10 8 0 15 5 15 10 0 6 -7 10 -15 10 -8 0
-15 -4 -15 -10z"/>
<path d="M5930 2840 c0 -5 7 -10 15 -10 8 0 15 5 15 10 0 6 -7 10 -15 10 -8 0
-15 -4 -15 -10z"/>
<path d="M6000 2840 c0 -5 7 -10 15 -10 8 0 15 5 15 10 0 6 -7 10 -15 10 -8 0
-15 -4 -15 -10z"/>
<path d="M6080 2840 c0 -5 7 -10 15 -10 8 0 15 5 15 10 0 6 -7 10 -15 10 -8 0
-15 -4 -15 -10z"/>
<path d="M6150 2840 c0 -5 7 -10 15 -10 8 0 15 5 15 10 0 6 -7 10 -15 10 -8 0
-15 -4 -15 -10z"/>
<path d="M6230 2840 c0 -5 7 -10 15 -10 8 0 15 5 15 10 0 6 -7 10 -15 10 -8 0
-15 -4 -15 -10z"/>
<path d="M6300 2840 c0 -5 7 -10 15 -10 8 0 15 5 15 10 0 6 -7 10 -15 10 -8 0
-15 -4 -15 -10z"/>
<path d="M6380 2840 c0 -5 7 -10 15 -10 8 0 15 5 15 10 0 6 -7 10 -15 10 -8 0
-15 -4 -15 -10z"/>
<path d="M6450 2840 c0 -5 7 -10 15 -10 8 0 15 5 15 10 0 6 -7 10 -15 10 -8 0
-15 -4 -15 -10z"/>
<path d="M6530 2840 c0 -5 7 -10 15 -10 8 0 15 5 15 10 0 6 -7 10 -15 10 -8 0
-15 -4 -15 -10z"/>
<path d="M6600 2840 c0 -5 7 -10 15 -10 8 0 15 5 15 10 0 6 -7 10 -15 10 -8 0
-15 -4 -15 -10z"/>
<path d="M6680 2840 c0 -5 7 -10 15 -10 8 0 15 5 15 10 0 6 -7 10 -15 10 -8 0
-15 -4 -15 -10z"/>
<path d="M6750 2840 c0 -5 7 -10 15 -10 8 0 15 5 15 10 0 6 -7 10 -15 10 -8 0
-15 -4 -15 -10z"/>
<path d="M6830 2840 c0 -5 7 -10 15 -10 8 0 15 5 15 10 0 6 -7 10 -15 10 -8 0
-15 -4 -15 -10z"/>
<path d="M6900 2840 c0 -5 7 -10 15 -10 8 0 15 5 15 10 0 6 -7 10 -15 10 -8 0
-15 -4 -15 -10z"/>
<path d="M6980 2840 c0 -5 7 -10 15 -10 8 0 15 5 15 10 0 6 -7 10 -15 10 -8 0
-15 -4 -15 -10z"/>
<path d="M7022 2800 c0 -14 2 -19 5 -12 2 6 2 18 0 25 -3 6 -5 1 -5 -13z"/>
<path d="M3246 2771 c-3 -5 3 -7 14 -4 11 3 20 0 20 -6 0 -6 -6 -11 -12 -11
-10 0 -9 -3 1 -9 17 -11 4 -34 -15 -27 -8 3 -14 1 -14 -5 0 -6 10 -9 23 -7 18
2 22 9 22 38 0 24 -5 36 -17 38 -9 2 -19 -1 -22 -7z"/>
<path d="M3310 2771 c0 -6 7 -8 15 -5 31 12 37 -9 5 -22 -39 -17 -35 -39 9
-40 31 -1 32 0 29 35 -3 31 -7 36 -30 39 -16 2 -28 -1 -28 -7z m44 -46 c-6
-16 -34 -21 -34 -7 0 13 11 22 26 22 8 0 11 -6 8 -15z"/>
<path d="M3392 2740 c0 -34 2 -39 7 -20 l7 25 15 -22 c7 -13 17 -23 22 -23 4
0 1 10 -7 22 -11 15 -12 27 -5 42 9 19 9 20 -4 4 -8 -10 -17 -18 -20 -18 -3 0
-8 8 -10 18 -3 9 -5 -3 -5 -28z"/>
<path d="M3466 2771 c-3 -4 6 -6 19 -3 33 6 32 -14 0 -22 -16 -4 -25 -13 -25
-26 0 -15 7 -19 33 -18 31 1 32 2 29 40 -4 32 -8 38 -27 38 -13 0 -26 -4 -29
-9z m44 -41 c0 -13 -28 -25 -38 -16 -3 4 0 11 8 16 20 13 30 12 30 0z"/>
<path d="M3546 2771 c-3 -5 3 -7 14 -4 22 6 28 -12 8 -20 -10 -4 -10 -6 0 -6
6 -1 12 -8 12 -17 0 -11 -6 -15 -20 -11 -11 3 -20 1 -20 -5 0 -5 10 -8 23 -6
18 2 22 9 22 38 0 24 -5 36 -17 38 -9 2 -19 -1 -22 -7z"/>
<path d="M3616 2771 c-3 -4 6 -6 19 -3 33 6 32 -14 -1 -22 -36 -9 -28 -41 11
-43 29 -1 30 0 27 38 -4 33 -8 39 -27 39 -13 0 -26 -4 -29 -9z m44 -41 c0 -13
-28 -25 -38 -16 -3 4 0 11 8 16 20 13 30 12 30 0z"/>
<path d="M7022 2720 c0 -14 2 -19 5 -12 2 6 2 18 0 25 -3 6 -5 1 -5 -13z"/>
<path d="M7022 2650 c0 -14 2 -19 5 -12 2 6 2 18 0 25 -3 6 -5 1 -5 -13z"/>
<path d="M7022 2570 c0 -14 2 -19 5 -12 2 6 2 18 0 25 -3 6 -5 1 -5 -13z"/>
<path d="M7022 2500 c0 -14 2 -19 5 -12 2 6 2 18 0 25 -3 6 -5 1 -5 -13z"/>
<path d="M4521 2434 c0 -11 3 -14 6 -6 3 7 2 16 -1 19 -3 4 -6 -2 -5 -13z"/>
<path d="M7022 2420 c0 -14 2 -19 5 -12 2 6 2 18 0 25 -3 6 -5 1 -5 -13z"/>
<path d="M7640 2397 c0 -7 -12 -13 -27 -12 -25 0 -28 -3 -28 -35 0 -32 3 -35
28 -35 15 1 27 -3 27 -7 0 -4 7 -5 15 -2 9 4 15 19 15 40 0 27 4 34 19 34 15
0 21 -8 24 -37 l4 -38 1 43 c2 40 1 42 -28 42 -16 0 -30 5 -30 10 0 6 -4 10
-10 10 -5 0 -10 -6 -10 -13z m-15 -47 c0 -27 -22 -39 -31 -16 -8 22 3 49 19
43 6 -2 12 -14 12 -27z m35 8 c0 -19 -2 -20 -10 -8 -13 19 -13 30 0 30 6 0 10
-10 10 -22z"/>
<path d="M3935 2380 c-5 -9 -1 -10 14 -5 12 4 21 2 21 -4 0 -6 -6 -11 -12 -11
-7 0 -5 -5 5 -11 23 -14 11 -32 -16 -23 -17 5 -19 3 -11 -6 7 -6 20 -10 30 -8
14 2 19 12 19 38 0 28 -4 36 -22 38 -11 2 -24 -2 -28 -8z"/>
<path d="M4005 2380 c-4 -7 2 -9 19 -4 16 4 26 2 26 -5 0 -6 -11 -13 -26 -17
-37 -10 -27 -39 14 -40 32 -1 33 0 30 35 -3 31 -7 36 -30 39 -14 2 -29 -2 -33
-8z m45 -39 c0 -14 -18 -23 -31 -15 -8 4 -7 9 2 15 18 11 29 11 29 0z"/>
<path d="M4092 2350 c0 -35 2 -39 7 -20 l7 25 13 -23 c7 -13 15 -21 18 -19 2
3 0 14 -5 24 -7 12 -7 25 -1 36 6 10 6 17 1 17 -6 0 -13 -8 -17 -17 -7 -17 -8
-16 -15 2 -6 15 -9 8 -8 -25z"/>
<path d="M4160 2381 c0 -6 7 -8 15 -5 31 12 37 -9 5 -22 -39 -17 -35 -39 9
-40 31 -1 32 0 29 35 -3 31 -7 36 -30 39 -16 2 -28 -1 -28 -7z m44 -46 c-6
-16 -34 -21 -34 -7 0 13 11 22 26 22 8 0 11 -6 8 -15z"/>
<path d="M4246 2381 c-3 -5 3 -7 14 -4 11 3 20 0 20 -6 0 -6 -6 -11 -12 -11
-10 0 -9 -3 1 -9 17 -11 4 -34 -15 -27 -8 3 -14 1 -14 -5 0 -6 10 -9 23 -7 18
2 22 9 22 38 0 24 -5 36 -17 38 -9 2 -19 -1 -22 -7z"/>
<path d="M4353 2350 c0 -25 2 -35 4 -22 3 13 12 22 23 22 11 0 20 -9 23 -22 2
-13 4 -3 4 22 1 25 -1 37 -4 28 -2 -10 -13 -18 -23 -18 -10 0 -21 8 -23 18 -3
9 -5 -3 -4 -28z"/>
<path d="M4434 2376 c-11 -30 1 -61 25 -64 13 -2 28 1 34 7 7 7 2 10 -18 8
-15 -1 -30 4 -32 11 -3 8 6 12 26 12 33 0 39 8 19 28 -16 16 -47 15 -54 -2z
m46 -6 c0 -5 -9 -10 -21 -10 -11 0 -17 5 -14 10 3 6 13 10 21 10 8 0 14 -4 14
-10z"/>
<path d="M4562 2378 c-27 -27 -3 -73 35 -66 27 5 25 72 -2 76 -11 1 -26 -3
-33 -10z m43 -28 c0 -16 -6 -26 -17 -28 -14 -3 -18 3 -18 28 0 25 4 31 18 28
11 -2 17 -12 17 -28z"/>
<path d="M4642 2348 l1 -43 4 38 c3 28 9 37 23 37 14 0 20 -9 23 -37 l4 -38 1
43 c2 40 1 42 -28 42 -29 0 -30 -2 -28 -42z"/>
<path d="M4730 2356 c0 -19 -6 -37 -12 -39 -8 -3 -6 -6 5 -6 13 -1 17 7 17 34
0 24 5 35 15 35 10 0 15 -11 15 -35 0 -19 5 -35 10 -35 6 0 10 18 10 40 0 38
-2 40 -30 40 -27 0 -30 -3 -30 -34z"/>
<path d="M4816 2381 c-3 -4 6 -6 19 -3 33 6 32 -14 0 -22 -16 -4 -25 -13 -25
-26 0 -15 7 -19 33 -18 31 1 32 2 29 40 -4 32 -8 38 -27 38 -13 0 -26 -4 -29
-9z m44 -41 c0 -13 -28 -25 -38 -16 -3 4 0 11 8 16 20 13 30 12 30 0z"/>
<path d="M4880 2381 c0 -23 14 -41 31 -41 10 0 19 -7 19 -15 0 -8 5 -15 10
-15 6 0 10 18 10 40 0 22 -4 40 -10 40 -5 0 -10 -9 -10 -20 0 -11 -7 -20 -15
-20 -8 0 -15 9 -15 20 0 11 -4 20 -10 20 -5 0 -10 -4 -10 -9z"/>
<path d="M4971 2368 c-5 -13 -5 -31 1 -40 9 -18 43 -24 52 -10 3 5 -4 8 -16 8
-12 -1 -23 5 -25 12 -3 8 6 12 26 12 33 0 39 8 19 28 -19 19 -48 14 -57 -10z
m49 2 c0 -5 -9 -10 -21 -10 -11 0 -17 5 -14 10 3 6 13 10 21 10 8 0 14 -4 14
-10z"/>
<path d="M5053 2350 c0 -25 2 -35 4 -22 3 13 12 22 23 22 11 0 20 -9 23 -22 2
-13 4 -3 4 22 1 25 -1 37 -4 28 -2 -10 -13 -18 -23 -18 -10 0 -21 8 -23 18 -3
9 -5 -3 -4 -28z"/>
<path d="M7165 2380 c-5 -9 -1 -10 14 -5 12 4 21 2 21 -4 0 -6 -6 -11 -12 -11
-7 0 -5 -5 5 -11 23 -14 11 -32 -16 -23 -17 5 -19 3 -11 -6 7 -6 20 -10 30 -8
14 2 19 12 19 38 0 28 -4 36 -22 38 -11 2 -24 -2 -28 -8z"/>
<path d="M7235 2380 c-4 -7 2 -9 19 -4 16 4 26 2 26 -5 0 -6 -11 -13 -26 -17
-37 -10 -27 -39 14 -40 32 -1 33 0 30 35 -3 31 -7 36 -30 39 -14 2 -29 -2 -33
-8z m45 -39 c0 -14 -18 -23 -31 -15 -8 4 -7 9 2 15 18 11 29 11 29 0z"/>
<path d="M7322 2350 c0 -25 3 -34 5 -21 l5 25 20 -25 20 -24 -15 26 c-14 24
-14 28 1 43 9 9 11 16 5 16 -6 0 -14 -8 -18 -17 -7 -17 -8 -16 -15 2 -6 15 -8
8 -8 -25z"/>
<path d="M7390 2381 c0 -6 7 -8 15 -5 31 12 37 -9 5 -22 -39 -17 -35 -39 9
-40 31 -1 32 0 29 35 -3 31 -7 36 -30 39 -16 2 -28 -1 -28 -7z m44 -46 c-6
-16 -34 -21 -34 -7 0 13 11 22 26 22 8 0 11 -6 8 -15z"/>
<path d="M7476 2381 c-3 -5 3 -7 14 -4 11 3 20 0 20 -6 0 -6 -6 -11 -12 -11
-10 0 -9 -3 1 -9 17 -11 4 -34 -15 -27 -8 3 -14 1 -14 -5 0 -6 10 -9 23 -7 18
2 22 9 22 38 0 24 -5 36 -17 38 -9 2 -19 -1 -22 -7z"/>
<path d="M7748 2350 c-2 -22 0 -40 4 -40 5 0 8 16 8 35 0 28 4 35 19 35 15 0
21 -8 24 -37 l4 -38 1 43 c2 40 1 42 -27 42 -26 0 -29 -3 -33 -40z"/>
<path d="M7836 2381 c-3 -4 6 -6 19 -3 33 6 32 -14 -1 -22 -36 -9 -28 -41 11
-43 29 -1 30 0 27 38 -4 33 -8 39 -27 39 -13 0 -26 -4 -29 -9z m44 -41 c0 -13
-28 -25 -38 -16 -3 4 0 11 8 16 20 13 30 12 30 0z"/>
<path d="M7914 2365 c1 -13 9 -21 23 -23 12 -2 24 -11 26 -20 3 -9 5 3 4 28 0
25 -2 35 -4 23 -5 -27 -40 -31 -46 -5 -3 13 -4 12 -3 -3z"/>
<path d="M7991 2368 c-5 -13 -5 -31 1 -40 9 -18 43 -24 52 -10 3 5 -4 8 -16 8
-12 -1 -23 5 -25 12 -3 8 6 12 26 12 33 0 39 8 19 28 -19 19 -48 14 -57 -10z
m49 2 c0 -5 -9 -10 -21 -10 -11 0 -17 5 -14 10 3 6 13 10 21 10 8 0 14 -4 14
-10z"/>
<path d="M8073 2350 c0 -25 2 -35 4 -22 3 13 12 22 23 22 11 0 20 -9 23 -22 2
-13 4 -3 4 22 1 25 -1 37 -4 28 -2 -10 -13 -18 -23 -18 -10 0 -21 8 -23 18 -3
9 -5 -3 -4 -28z"/>
<path d="M4522 2360 c0 -14 2 -19 5 -12 2 6 2 18 0 25 -3 6 -5 1 -5 -13z"/>
<path d="M7022 2350 c0 -14 2 -19 5 -12 2 6 2 18 0 25 -3 6 -5 1 -5 -13z"/>
<path d="M4521 2284 c0 -11 3 -14 6 -6 3 7 2 16 -1 19 -3 4 -6 -2 -5 -13z"/>
<path d="M7022 2270 c0 -14 2 -19 5 -12 2 6 2 18 0 25 -3 6 -5 1 -5 -13z"/>
<path d="M7640 2245 c0 -8 5 -15 10 -15 6 0 10 7 10 15 0 8 -4 15 -10 15 -5 0
-10 -7 -10 -15z"/>
<path d="M4522 2210 c0 -14 2 -19 5 -12 2 6 2 18 0 25 -3 6 -5 1 -5 -13z"/>
<path d="M7022 2200 c0 -14 2 -19 5 -12 2 6 2 18 0 25 -3 6 -5 1 -5 -13z"/>
<path d="M7640 2169 c0 -11 5 -17 10 -14 6 3 10 13 10 21 0 8 -4 14 -10 14 -5
0 -10 -9 -10 -21z"/>
<path d="M4521 2134 c0 -11 3 -14 6 -6 3 7 2 16 -1 19 -3 4 -6 -2 -5 -13z"/>
<path d="M7022 2120 c0 -14 2 -19 5 -12 2 6 2 18 0 25 -3 6 -5 1 -5 -13z"/>
<path d="M7640 2095 c0 -8 5 -15 10 -15 6 0 10 7 10 15 0 8 -4 15 -10 15 -5 0
-10 -7 -10 -15z"/>
<path d="M4522 2060 c0 -14 2 -19 5 -12 2 6 2 18 0 25 -3 6 -5 1 -5 -13z"/>
<path d="M7022 2050 c0 -14 2 -19 5 -12 2 6 2 18 0 25 -3 6 -5 1 -5 -13z"/>
<path d="M7640 2019 c0 -11 5 -17 10 -14 6 3 10 13 10 21 0 8 -4 14 -10 14 -5
0 -10 -9 -10 -21z"/>
<path d="M1810 3295 c-7 -9 -10 -27 -6 -45 4 -22 2 -30 -9 -30 -29 0 -55 -38
-55 -80 l0 -40 105 0 105 0 0 38 c0 42 -23 82 -46 82 -12 0 -14 7 -9 30 4 19
2 36 -5 45 -16 19 -64 19 -80 0z m56 -67 c-1 -25 -6 -33 -20 -33 -14 0 -19 8
-21 33 -2 27 1 32 20 32 19 0 22 -5 21 -32z m-52 -33 c7 -20 45 -19 69 2 18
17 20 17 38 -6 23 -28 25 -71 4 -71 -8 0 -15 6 -16 13 0 10 -2 10 -6 0 -3 -9
-26 -13 -64 -13 -40 0 -59 4 -60 13 0 10 -2 10 -6 0 -9 -24 -23 -13 -23 16 0
20 8 35 22 45 28 20 34 20 42 1z"/>
<path d="M1870 2934 l0 -55 38 3 c36 3 37 4 38 43 1 50 -10 65 -47 65 -28 0
-29 -1 -29 -56z m60 26 c0 -13 -7 -20 -20 -20 -13 0 -20 7 -20 20 0 13 7 20
20 20 13 0 20 -7 20 -20z m5 -50 c0 -8 -10 -16 -22 -18 -18 -3 -23 2 -23 18 0
16 5 21 23 18 12 -2 22 -10 22 -18z"/>
<path d="M2084 2976 c-3 -8 -4 -31 -2 -52 3 -34 6 -39 27 -39 51 0 53 66 2 73
-32 5 -25 20 12 25 l32 4 -33 1 c-20 1 -35 -3 -38 -12z m50 -41 c8 -21 -3 -45
-20 -45 -8 0 -17 7 -20 15 -8 21 2 45 20 45 7 0 16 -7 20 -15z"/>
<path d="M1971 2923 c-1 -41 0 -43 28 -43 31 0 46 21 28 39 -6 6 -19 11 -28
11 -10 0 -20 8 -22 18 -3 9 -5 -2 -6 -25z m49 -18 c0 -8 -9 -15 -20 -15 -11 0
-20 7 -20 15 0 8 9 15 20 15 11 0 20 -7 20 -15z"/>
<path d="M2053 2920 c0 -25 2 -35 4 -22 2 12 2 32 0 45 -2 12 -4 2 -4 -23z"/>
<path d="M2160 2919 c0 -28 4 -39 13 -36 6 2 12 9 11 15 -1 7 -2 23 -2 37 -3
42 -22 28 -22 -16z"/>
<path d="M2202 2940 c-6 -11 -12 -23 -12 -27 0 -5 5 -1 10 7 8 12 10 9 10 -12
0 -16 5 -28 10 -28 6 0 10 18 10 40 0 44 -9 50 -28 20z"/>
<path d="M2251 2901 c1 -32 4 -48 7 -36 4 11 16 20 26 20 51 0 43 69 -8 71
-25 1 -26 -1 -25 -55z m49 19 c0 -20 -5 -30 -15 -30 -18 0 -30 24 -21 45 10
28 36 17 36 -15z"/>
<path d="M2336 2951 c-3 -4 6 -6 19 -3 33 6 32 -14 -1 -22 -36 -9 -28 -41 11
-43 29 -1 30 0 27 38 -4 33 -8 39 -27 39 -13 0 -26 -4 -29 -9z m44 -41 c0 -13
-28 -25 -38 -16 -3 4 0 11 8 16 20 13 30 12 30 0z"/>
<path d="M2422 2948 c-25 -25 -7 -68 29 -68 10 0 21 5 24 10 4 7 -2 9 -18 5
-17 -5 -26 -2 -30 9 -5 12 0 16 24 16 24 0 30 4 27 18 -4 21 -39 27 -56 10z
m43 -8 c4 -6 -5 -10 -20 -10 -15 0 -24 4 -20 10 3 6 12 10 20 10 8 0 17 -4 20
-10z"/>
<path d="M2498 2953 c6 -2 12 -20 12 -39 0 -19 5 -34 10 -34 6 0 10 15 10 34
0 19 6 37 13 39 6 3 -4 5 -23 5 -19 0 -29 -2 -22 -5z"/>
<path d="M1998 2735 c15 -40 15 -47 2 -56 -13 -9 -13 -10 0 -6 8 2 23 25 33
52 20 54 15 75 -6 24 l-14 -34 -7 33 c-4 17 -12 32 -16 32 -5 0 -1 -20 8 -45z"/>
<path d="M2072 2768 c-32 -32 -3 -69 49 -65 30 2 34 6 37 35 5 46 32 43 32 -3
0 -19 5 -35 10 -35 6 0 10 18 10 40 0 38 -2 40 -30 40 -27 0 -30 -3 -30 -33 0
-31 -2 -33 -34 -34 -36 -1 -50 14 -39 43 3 9 13 14 24 11 11 -3 19 -1 19 4 0
13 -34 11 -48 -3z"/>
<path d="M2227 2758 c4 -13 8 -38 8 -55 0 -46 10 -41 29 14 19 56 20 80 1 38
l-13 -30 -11 28 c-13 32 -26 37 -14 5z"/>
<path d="M2302 2738 l1 -43 4 37 c3 28 9 38 26 41 18 4 17 5 -5 6 -27 1 -28
-1 -26 -41z"/>
<path d="M2361 2740 l0 -45 22 30 22 29 6 -29 c6 -27 7 -25 8 13 1 48 -10 54
-29 15 l-13 -28 -8 30 c-6 27 -7 25 -8 -15z"/>
<path d="M4424 3104 c-130 -47 -209 -204 -170 -337 60 -205 314 -274 463 -126
23 22 50 57 59 77 26 53 31 172 9 228 -20 53 -85 122 -140 149 -52 25 -165 30
-221 9z m187 -9 c174 -59 235 -279 119 -425 -72 -92 -220 -122 -326 -67 -94
48 -143 130 -144 237 0 187 176 314 351 255z"/>
<path d="M7535 3097 c-66 -31 -112 -79 -143 -146 -21 -45 -24 -64 -20 -125 6
-88 31 -139 94 -195 136 -120 348 -79 431 83 52 103 38 224 -38 310 -58 65
-107 88 -199 93 -64 3 -83 0 -125 -20z m231 -15 c85 -43 154 -152 154 -242 0
-135 -135 -270 -270 -270 -56 0 -132 31 -177 73 -67 62 -87 107 -88 197 0 65
4 82 31 130 32 57 97 111 158 130 47 14 146 5 192 -18z"/>
<path d="M8300 2840 l0 -130 225 0 225 0 0 130 0 130 -225 0 -225 0 0 -130z
m385 102 c-16 -10 -60 -35 -96 -55 l-67 -37 -88 51 c-49 28 -91 53 -93 55 -2
2 81 4 185 4 187 0 189 0 159 -18z m-268 -47 c54 -30 102 -55 106 -55 5 0 53
25 107 55 54 30 101 55 104 55 3 0 6 -52 6 -115 l0 -115 -215 0 -215 0 0 115
c0 63 2 115 5 115 2 0 49 -25 102 -55z"/>
<path d="M10525 3107 c-62 -30 -126 -98 -150 -160 -26 -69 -18 -189 17 -248
33 -55 70 -91 128 -121 37 -19 60 -23 130 -23 75 0 91 3 138 30 59 32 91 66
125 129 32 61 31 193 -1 256 -30 58 -66 95 -121 128 -37 21 -60 27 -130 30
-75 3 -93 0 -136 -21z m251 -15 c98 -50 162 -169 151 -277 -23 -227 -291 -333
-461 -184 -63 56 -88 107 -94 195 -4 61 -1 80 20 125 31 67 77 115 143 146 42
20 61 23 125 20 51 -2 88 -11 116 -25z"/>
<path d="M10420 2840 l0 -130 225 0 225 0 0 130 0 130 -225 0 -225 0 0 -130z
m410 116 c0 -2 -41 -27 -91 -55 l-90 -52 -97 56 -97 55 188 0 c103 0 187 -2
187 -4z m-268 -72 c43 -24 82 -44 87 -44 5 0 53 25 106 55 54 30 99 55 101 55
2 0 4 -52 4 -115 l0 -115 -210 0 -210 0 0 115 0 116 23 -12 c12 -7 57 -32 99
-55z"/>
<path d="M4522 1910 c0 -14 2 -19 5 -12 2 6 2 18 0 25 -3 6 -5 1 -5 -13z"/>
<path d="M7022 1900 c0 -14 2 -19 5 -12 2 6 2 18 0 25 -3 6 -5 1 -5 -13z"/>
<path d="M7640 1869 c0 -11 5 -17 10 -14 6 3 10 13 10 21 0 8 -4 14 -10 14 -5
0 -10 -9 -10 -21z"/>
<path d="M4521 1834 c0 -11 3 -14 6 -6 3 7 2 16 -1 19 -3 4 -6 -2 -5 -13z"/>
<path d="M7022 1820 c0 -14 2 -19 5 -12 2 6 2 18 0 25 -3 6 -5 1 -5 -13z"/>
<path d="M7640 1795 c0 -8 5 -15 10 -15 6 0 10 7 10 15 0 8 -4 15 -10 15 -5 0
-10 -7 -10 -15z"/>
<path d="M4521 1763 l-1 -23 -1987 0 c-1094 -1 -2068 0 -2166 0 l-177 1 0
-766 0 -765 6200 0 6200 0 0 765 0 765 -2779 0 c-2639 0 -2780 1 -2784 18 -4
16 -5 16 -6 0 -1 -16 -24 -18 -298 -20 -164 -2 -724 -2 -1245 0 l-947 2 -4 23
-4 22 -2 -22z m-4081 -788 l0 -735 -110 0 -110 0 0 735 0 735 110 0 110 0 0
-735z m12130 0 l0 -735 -6050 0 -6050 0 0 735 0 735 6050 0 6050 0 0 -735z"/>
<path d="M318 1493 c12 -2 32 -2 45 0 12 2 2 4 -23 4 -25 0 -35 -2 -22 -4z"/>
<path d="M337 1464 c-4 -4 -7 -15 -7 -25 0 -10 -8 -20 -17 -22 -10 -3 1 -5 25
-6 42 -1 43 0 40 26 -3 27 -26 41 -41 27z m33 -30 c0 -8 -7 -14 -15 -14 -15 0
-21 21 -9 33 10 9 24 -2 24 -19z"/>
<path d="M302 1365 c0 -22 2 -32 5 -23 3 11 17 18 41 21 l37 4 -37 1 c-25 1
-38 7 -41 20 -3 9 -5 -1 -5 -23z"/>
<path d="M304 1305 c-8 -19 2 -45 17 -45 8 0 8 4 -1 15 -10 12 -10 19 -2 27 8
8 13 4 18 -16 9 -36 39 -31 40 7 1 24 -2 27 -33 27 -21 0 -36 -6 -39 -15z m64
-18 c5 -24 -15 -21 -21 4 -3 13 -1 19 6 16 7 -2 13 -11 15 -20z"/>
<path d="M300 1210 c0 -27 3 -30 34 -30 19 0 37 -6 39 -12 3 -8 6 -6 6 5 1 13
-7 17 -34 17 -28 0 -35 4 -35 19 0 15 8 21 38 24 l37 4 -42 1 c-41 2 -43 1
-43 -28z"/>
<path d="M300 1120 c0 -29 2 -30 43 -28 l42 1 -37 4 c-29 3 -38 9 -38 23 0 14
9 20 38 23 l37 4 -42 1 c-41 2 -43 1 -43 -28z"/>
<path d="M310 1046 c-18 -22 5 -48 39 -44 20 2 26 9 26 28 0 19 -6 26 -26 28
-14 2 -31 -4 -39 -12z m55 -16 c0 -18 -33 -26 -47 -12 -6 6 -7 15 -3 22 10 16
50 8 50 -10z"/>
<path d="M303 944 c-14 -38 41 -71 66 -40 16 19 11 48 -9 54 -13 5 -13 3 -1
-11 17 -21 7 -47 -18 -47 -23 0 -35 28 -20 46 9 11 9 14 0 14 -6 0 -14 -7 -18
-16z"/>
<path d="M325 837 l29 -22 -29 -6 c-26 -6 -23 -7 15 -7 l45 -1 -29 24 -29 23
29 5 c21 3 16 4 -16 5 l-45 1 30 -22z"/>
<path d="M307 774 c-4 -4 -7 -18 -7 -31 0 -20 5 -23 41 -23 38 0 40 1 37 28
-2 22 -9 28 -33 30 -17 2 -34 0 -38 -4z m19 -41 c-11 -11 -19 6 -11 24 8 17 8
17 12 0 3 -10 2 -21 -1 -24z m44 17 c0 -11 -4 -20 -10 -20 -5 0 -10 9 -10 20
0 11 5 20 10 20 6 0 10 -9 10 -20z"/>
<path d="M313 688 c-6 -7 -10 -21 -10 -30 0 -15 9 -18 56 -17 31 1 48 3 39 6
-10 2 -18 13 -18 23 0 28 -49 41 -67 18z m52 -18 c0 -18 -33 -26 -47 -12 -6 6
-7 15 -3 22 10 16 50 8 50 -10z"/>
<path d="M310 610 c-23 -15 1 -45 36 -45 31 0 45 28 25 48 -9 9 -11 5 -9 -12
2 -13 -3 -26 -9 -28 -8 -3 -13 5 -13 21 0 28 -6 31 -30 16z m20 -22 c0 -16 -3
-19 -11 -11 -6 6 -8 16 -5 22 11 17 16 13 16 -11z"/>
<path d="M280 525 c-19 -23 -4 -64 26 -71 55 -14 98 38 62 74 -21 21 -32 13
-12 -9 23 -25 9 -53 -29 -57 -32 -4 -56 31 -36 54 6 8 10 17 7 19 -3 3 -11 -1
-18 -10z"/>
<path d="M4521 1684 c0 -11 3 -14 6 -6 3 7 2 16 -1 19 -3 4 -6 -2 -5 -13z"/>
<path d="M7022 1670 c0 -14 2 -19 5 -12 2 6 2 18 0 25 -3 6 -5 1 -5 -13z"/>
<path d="M7640 1645 c0 -8 5 -15 10 -15 6 0 10 7 10 15 0 8 -4 15 -10 15 -5 0
-10 -7 -10 -15z"/>
<path d="M4522 1610 c0 -14 2 -19 5 -12 2 6 2 18 0 25 -3 6 -5 1 -5 -13z"/>
<path d="M7640 1569 c0 -11 5 -17 10 -14 6 3 10 13 10 21 0 8 -4 14 -10 14 -5
0 -10 -9 -10 -21z"/>
<path d="M4470 1574 c0 -2 11 -27 25 -54 l25 -49 -231 -3 -231 -3 -34 -37 -34
-38 0 -417 c0 -456 0 -450 59 -490 l34 -23 434 0 c479 0 485 1 523 62 18 30
20 50 20 236 l0 202 90 0 c50 0 90 -3 90 -6 0 -3 -5 -14 -10 -25 -14 -25 -9
-24 50 6 l50 25 0 -197 c0 -225 7 -254 70 -285 32 -16 76 -18 470 -18 572 0
533 -22 538 297 l4 203 104 0 c100 0 104 -1 94 -19 -17 -32 -12 -33 41 -5 l52
26 158 -158 159 -159 158 158 c93 93 165 157 177 158 20 0 20 0 0 9 -30 12
-323 312 -328 335 -5 20 -5 20 -6 0 -1 -12 -67 -86 -160 -179 l-158 -158 -52
27 c-47 24 -51 24 -42 6 6 -11 11 -22 11 -25 0 -3 -47 -6 -104 -6 l-104 0 -4
203 c-3 176 -5 206 -22 233 -39 65 -28 64 -518 64 -580 0 -538 23 -538 -300
l0 -200 -50 25 -51 26 7 -26 6 -25 -91 0 -91 0 0 203 c0 302 5 297 -315 297
-118 0 -215 2 -215 5 0 3 11 28 25 54 l24 49 -29 -11 c-21 -8 -35 -8 -54 1
-14 6 -26 9 -26 6z m542 -152 l33 -32 3 -413 c2 -399 2 -413 -18 -445 -38 -61
-45 -62 -513 -62 l-424 0 -34 23 c-59 40 -59 35 -59 475 0 362 2 407 17 433
35 59 35 59 520 56 l443 -2 32 -33z m1318 23 c60 -31 60 -34 60 -485 l0 -410
-34 -38 -34 -37 -439 -3 c-402 -2 -441 -1 -473 15 -69 35 -70 40 -70 484 0
396 0 396 23 430 12 18 34 39 47 46 19 10 132 13 458 13 368 0 437 -2 462 -15z
m848 -632 l-153 -153 -152 152 -153 153 152 152 153 153 152 -152 153 -153
-152 -152z"/>
<path d="M4070 1425 c0 -8 -6 -15 -14 -15 -19 0 -40 -26 -27 -35 7 -4 6 -13
-2 -26 -10 -17 -9 -22 6 -33 9 -7 17 -17 17 -22 1 -17 58 -66 64 -55 5 7 13 7
27 -2 17 -10 22 -9 32 4 7 8 20 18 30 22 10 4 17 15 16 24 -1 10 2 27 6 37 6
13 3 23 -6 30 -9 6 -18 19 -22 29 -3 9 -14 17 -22 17 -9 0 -14 4 -10 9 9 15
-30 32 -42 20 -8 -8 -13 -7 -17 0 -10 16 -36 13 -36 -4z m23 -36 c-30 -20 -50
-49 -33 -49 5 0 10 -4 10 -9 0 -5 -9 -7 -20 -4 -16 4 -18 9 -9 19 6 7 8 22 4
33 -5 16 -3 20 10 15 11 -5 18 0 22 14 4 18 8 19 24 9 17 -11 17 -12 -8 -28z
m57 9 c0 -19 -2 -20 -10 -8 -13 19 -13 30 0 30 6 0 10 -10 10 -22z m-20 -19
c0 -7 10 -9 25 -5 18 5 25 2 25 -8 0 -8 8 -19 17 -25 14 -7 15 -12 5 -24 -9
-11 -10 -17 -2 -22 6 -3 8 -11 4 -16 -3 -5 -9 -7 -14 -4 -5 3 -14 -4 -21 -16
-8 -16 -13 -18 -19 -9 -4 7 -17 10 -29 7 -14 -3 -21 0 -21 9 0 7 -10 18 -21
25 -16 8 -18 13 -9 19 7 4 9 16 5 29 -5 17 -2 21 14 21 12 0 21 7 21 15 0 8 5
15 10 15 6 0 10 -5 10 -11z"/>
<path d="M4111 1332 c-12 -23 4 -52 29 -52 25 0 41 30 29 53 -13 22 -46 22
-58 -1z m35 -20 c-8 -9 -19 -13 -22 -9 -10 9 16 38 28 31 6 -4 4 -13 -6 -22z"/>
<path d="M4041 1106 c-7 -8 -11 -30 -9 -48 6 -64 98 -58 98 7 0 44 -63 73 -89
41z m70 -17 c8 -16 8 -28 0 -45 -18 -41 -71 -25 -71 21 0 44 50 61 71 24z"/>
<path d="M4152 1048 l1 -43 4 38 c6 50 33 52 33 2 0 -19 5 -35 10 -35 6 0 10
18 10 40 0 38 -2 40 -30 40 -29 0 -30 -2 -28 -42z"/>
<path d="M4228 1050 c-4 -40 5 -53 16 -24 3 9 6 24 6 35 0 37 29 21 33 -18 l4
-38 1 43 c2 40 1 42 -27 42 -26 0 -29 -3 -33 -40z"/>
<path d="M4315 1080 c-4 -7 2 -9 19 -4 16 4 26 2 26 -5 0 -6 -11 -13 -26 -17
-37 -10 -27 -39 14 -40 32 -1 33 0 30 35 -3 31 -7 36 -30 39 -14 2 -29 -2 -33
-8z m45 -39 c0 -14 -18 -23 -31 -15 -8 4 -7 9 2 15 18 11 29 11 29 0z"/>
<path d="M4398 1083 c6 -2 12 -20 12 -39 0 -19 5 -34 10 -34 6 0 10 15 10 34
0 19 6 37 13 39 6 3 -4 5 -23 5 -19 0 -29 -2 -22 -5z"/>
<path d="M4466 1081 c-3 -4 6 -6 19 -3 33 6 32 -14 -1 -22 -36 -9 -28 -41 11
-43 29 -1 30 0 27 38 -4 33 -8 39 -27 39 -13 0 -26 -4 -29 -9z m44 -41 c0 -13
-28 -25 -38 -16 -3 4 0 11 8 16 20 13 30 12 30 0z"/>
<path d="M4585 1080 c-5 -9 -1 -10 14 -5 12 4 21 2 21 -4 0 -6 -6 -11 -12 -11
-7 0 -5 -5 5 -11 23 -14 11 -32 -16 -23 -17 5 -19 3 -11 -6 7 -6 20 -10 30 -8
14 2 19 12 19 38 0 28 -4 36 -22 38 -11 2 -24 -2 -28 -8z"/>
<path d="M4660 1081 c0 -6 7 -8 15 -5 31 12 37 -9 5 -22 -39 -17 -35 -39 9
-40 31 -1 32 0 29 35 -3 31 -7 36 -30 39 -16 2 -28 -1 -28 -7z m44 -46 c-6
-16 -34 -21 -34 -7 0 13 11 22 26 22 8 0 11 -6 8 -15z"/>
<path d="M4742 1050 c0 -35 2 -39 7 -20 l7 25 13 -23 c7 -13 15 -21 18 -19 2
3 0 14 -5 24 -7 12 -7 25 -1 36 6 10 6 17 1 17 -6 0 -13 -8 -17 -17 -7 -17 -8
-16 -15 2 -6 15 -9 8 -8 -25z"/>
<path d="M4810 1081 c0 -6 7 -8 15 -5 31 12 37 -9 5 -22 -39 -17 -35 -39 9
-40 31 -1 32 0 29 35 -3 31 -7 36 -30 39 -16 2 -28 -1 -28 -7z m44 -46 c-6
-16 -34 -21 -34 -7 0 13 11 22 26 22 8 0 11 -6 8 -15z"/>
<path d="M4896 1081 c-3 -5 3 -7 14 -4 11 3 20 0 20 -6 0 -6 -6 -11 -12 -11
-10 0 -9 -3 1 -9 17 -11 4 -34 -15 -27 -8 3 -14 1 -14 -5 0 -6 10 -9 23 -7 18
2 22 9 22 38 0 24 -5 36 -17 38 -9 2 -19 -1 -22 -7z"/>
<path d="M4966 1081 c-3 -4 6 -6 19 -3 33 6 32 -14 0 -22 -16 -4 -25 -13 -25
-26 0 -15 7 -19 33 -18 31 1 32 2 29 40 -4 32 -8 38 -27 38 -13 0 -26 -4 -29
-9z m44 -41 c0 -13 -28 -25 -38 -16 -3 4 0 11 8 16 20 13 30 12 30 0z"/>
<path d="M5413 1427 c-4 -8 -16 -17 -27 -20 -12 -5 -17 -14 -13 -27 3 -11 1
-23 -4 -26 -13 -7 -11 -20 4 -36 7 -7 16 -21 20 -30 3 -10 14 -18 22 -18 9 0
14 -4 10 -9 -9 -16 30 -32 43 -19 9 9 12 9 12 0 0 -7 9 -12 20 -12 11 0 20 7
20 15 0 8 9 15 19 15 22 0 37 30 20 40 -8 6 -8 9 0 14 16 11 13 46 -4 46 -8 0
-15 6 -15 13 0 23 -48 59 -70 52 -11 -4 -20 -2 -20 4 0 15 -27 14 -37 -2z m16
-46 c-36 -29 -38 -43 -4 -28 14 7 25 18 25 25 0 14 16 16 25 2 3 -6 17 -7 31
-4 20 5 23 3 18 -10 -5 -12 0 -19 15 -23 17 -4 19 -8 10 -19 -6 -8 -9 -21 -5
-29 3 -9 0 -15 -10 -15 -9 0 -18 -9 -21 -20 -6 -21 -23 -28 -23 -9 0 7 -10 9
-25 5 -20 -5 -25 -3 -25 14 0 11 -7 20 -15 20 -18 0 -19 12 -3 28 6 6 8 15 4
19 -4 4 -10 2 -14 -4 -5 -8 -13 -9 -22 -3 -11 7 -11 11 -1 23 8 11 9 17 1 22
-6 3 -8 11 -4 16 3 5 9 7 14 4 5 -3 14 4 20 15 9 16 13 18 24 8 11 -11 9 -17
-15 -37z m58 17 c-3 -8 -6 -5 -6 6 -1 11 2 17 5 13 3 -3 4 -12 1 -19z"/>
<path d="M5454 1336 c-11 -28 1 -51 25 -51 32 0 49 28 32 49 -17 20 -50 21
-57 2z m33 -23 c-9 -9 -20 -13 -24 -9 -4 4 -1 11 7 16 25 16 35 11 17 -7z"/>
<path d="M5627 1192 c-22 -24 -21 -55 1 -75 39 -35 82 -15 82 38 0 17 -5 36
-12 43 -18 18 -53 15 -71 -6z m61 -4 c16 -16 15 -53 -3 -68 -33 -28 -71 12
-54 58 9 24 38 29 57 10z"/>
<path d="M5732 1138 l1 -43 4 38 c3 28 9 37 23 37 14 0 20 -9 23 -37 l4 -38 1
43 c2 40 1 42 -28 42 -29 0 -30 -2 -28 -42z"/>
<path d="M5820 1146 c0 -19 -6 -37 -12 -39 -8 -3 -6 -6 5 -6 13 -1 17 7 17 34
0 24 5 35 15 35 10 0 15 -11 15 -35 0 -19 5 -35 10 -35 6 0 10 18 10 40 0 38
-2 40 -30 40 -27 0 -30 -3 -30 -34z"/>
<path d="M5906 1171 c-3 -4 6 -6 19 -3 33 6 32 -14 0 -22 -16 -4 -25 -13 -25
-26 0 -15 7 -19 33 -18 31 1 32 2 29 40 -4 32 -8 38 -27 38 -13 0 -26 -4 -29
-9z m44 -41 c0 -13 -28 -25 -38 -16 -3 4 0 11 8 16 20 13 30 12 30 0z"/>
<path d="M5982 1173 c11 -3 18 -17 21 -41 l4 -37 1 37 c1 25 7 38 20 41 9 3
-1 5 -23 5 -22 0 -32 -2 -23 -5z"/>
<path d="M6050 1171 c0 -6 7 -8 15 -5 31 12 37 -9 5 -22 -39 -17 -35 -39 9
-40 31 -1 32 0 29 35 -3 31 -7 36 -30 39 -16 2 -28 -1 -28 -7z m44 -46 c-6
-16 -34 -21 -34 -7 0 13 11 22 26 22 8 0 11 -6 8 -15z"/>
<path d="M5600 960 c0 -22 5 -40 10 -40 6 0 10 16 10 35 0 50 27 48 33 -2 l4
-38 1 43 c2 40 1 42 -28 42 -28 0 -30 -2 -30 -40z"/>
<path d="M5680 946 c0 -31 5 -56 10 -56 6 0 10 6 10 14 0 8 10 16 23 18 18 2
22 9 22 38 0 32 -3 35 -32 38 l-33 3 0 -55z m55 14 c0 -13 -6 -25 -12 -27 -16
-6 -27 21 -19 43 9 23 31 11 31 -16z"/>
<path d="M5772 988 c-27 -27 -3 -73 35 -66 27 5 25 72 -2 76 -11 1 -26 -3 -33
-10z m43 -28 c0 -16 -6 -26 -17 -28 -14 -3 -18 3 -18 28 0 25 4 31 18 28 11
-2 17 -12 17 -28z"/>
<path d="M5852 963 l-2 -43 50 0 50 0 -2 43 -1 42 -4 -37 c-3 -24 -9 -38 -18
-38 -9 0 -15 14 -18 38 l-4 37 -1 -37 c-2 -30 -6 -38 -21 -38 -15 0 -21 8 -24
38 l-4 37 -1 -42z"/>
<path d="M5980 966 c0 -19 -6 -37 -12 -39 -8 -3 -6 -6 5 -6 13 -1 17 7 17 34
0 24 5 35 15 35 10 0 15 -11 15 -35 0 -19 5 -35 10 -35 6 0 10 18 10 40 0 38
-2 40 -30 40 -27 0 -30 -3 -30 -34z"/>
<path d="M6066 991 c-3 -4 6 -6 19 -3 33 6 32 -14 0 -22 -16 -4 -25 -13 -25
-26 0 -15 7 -19 33 -18 31 1 32 2 29 40 -4 32 -8 38 -27 38 -13 0 -26 -4 -29
-9z m44 -41 c0 -13 -28 -25 -38 -16 -3 4 0 11 8 16 20 13 30 12 30 0z"/>
<path d="M5576 800 c3 -14 8 -36 11 -49 4 -14 0 -27 -8 -33 -12 -8 -11 -9 1
-6 17 5 36 40 44 83 l6 30 -12 -27 c-7 -16 -15 -28 -18 -28 -3 0 -11 12 -18
28 -11 25 -11 25 -6 2z"/>
<path d="M5652 808 c-25 -25 -6 -68 29 -68 10 0 21 5 24 10 4 7 -2 9 -19 4
-24 -6 -26 -4 -26 26 0 30 2 32 26 26 17 -5 23 -3 19 4 -8 14 -38 13 -53 -2z"/>
<path d="M5722 778 l1 -43 4 38 c3 28 9 37 23 37 14 0 20 -9 23 -37 l4 -38 1
43 c2 40 1 42 -28 42 -29 0 -30 -2 -28 -42z"/>
<path d="M5804 806 c-11 -30 1 -61 25 -64 13 -2 28 1 34 7 7 7 2 10 -18 8 -15
-1 -30 4 -32 11 -3 8 6 12 26 12 33 0 39 8 19 28 -16 16 -47 15 -54 -2z m46
-6 c0 -5 -9 -10 -21 -10 -11 0 -17 5 -14 10 3 6 13 10 21 10 8 0 14 -4 14 -10z"/>
<path d="M5892 783 l-2 -43 50 0 50 0 -2 43 -1 42 -4 -37 c-3 -29 -9 -38 -23
-38 -14 0 -20 9 -23 38 l-4 37 -1 -37 c-1 -26 -7 -38 -16 -38 -10 0 -16 13
-19 38 l-4 37 -1 -42z"/>
<path d="M6013 780 c0 -25 2 -35 4 -22 3 13 12 22 23 22 11 0 20 -9 23 -22 2
-13 4 -3 4 22 1 25 -1 37 -4 28 -2 -10 -13 -18 -23 -18 -10 0 -21 8 -23 18 -3
9 -5 -3 -4 -28z"/>
<path d="M6094 806 c-11 -29 1 -61 23 -64 29 -4 48 30 33 58 -12 23 -48 27
-56 6z m41 -26 c0 -27 -22 -39 -31 -16 -8 22 3 49 19 43 6 -2 12 -14 12 -27z"/>
<path d="M6912 1109 c-14 -23 -13 -25 46 -104 l30 -39 -46 -59 c-34 -46 -43
-63 -35 -75 18 -29 31 -23 73 32 l42 56 48 -60 c48 -60 48 -61 64 -38 17 24
20 18 -41 102 -32 43 -32 44 -15 67 77 101 74 94 55 118 l-18 22 -43 -56 c-24
-30 -46 -55 -50 -55 -4 1 -25 25 -47 55 -22 30 -42 55 -45 55 -3 0 -11 -9 -18
-21z"/>
<path d="M6923 1530 c0 -25 2 -35 4 -22 2 12 11 22 18 22 7 0 16 -10 18 -22 2
-13 4 -3 4 22 1 25 -1 37 -4 28 -2 -10 -11 -18 -18 -18 -7 0 -16 8 -18 18 -3
9 -5 -3 -4 -28z"/>
<path d="M7000 1555 c-18 -21 -4 -65 20 -65 10 0 21 4 24 8 3 5 -4 8 -16 8
-12 -1 -23 5 -25 12 -3 8 6 12 26 12 33 0 39 8 19 28 -16 16 -33 15 -48 -3z
m40 -5 c0 -5 -9 -10 -21 -10 -11 0 -17 5 -14 10 3 6 13 10 21 10 8 0 14 -4 14
-10z"/>
<path d="M7067 1562 c6 -4 13 -23 16 -42 l4 -35 1 37 c2 25 7 38 20 41 9 3 1
5 -18 6 -19 0 -30 -3 -23 -7z"/>
<path d="M7640 1495 c0 -8 5 -15 10 -15 6 0 10 7 10 15 0 8 -4 15 -10 15 -5 0
-10 -7 -10 -15z"/>
<path d="M7640 1419 c0 -11 5 -17 10 -14 6 3 10 13 10 21 0 8 -4 14 -10 14 -5
0 -10 -9 -10 -21z"/>
<path d="M7022 1370 c0 -14 2 -19 5 -12 2 6 2 18 0 25 -3 6 -5 1 -5 -13z"/>
<path d="M7640 1345 c0 -8 5 -15 10 -15 6 0 10 7 10 15 0 8 -4 15 -10 15 -5 0
-10 -7 -10 -15z"/>
<path d="M7640 1269 c0 -11 5 -17 10 -14 6 3 10 13 10 21 0 8 -4 14 -10 14 -5
0 -10 -9 -10 -21z"/>
<path d="M7640 1195 c0 -8 5 -15 10 -15 6 0 10 7 10 15 0 8 -4 15 -10 15 -5 0
-10 -7 -10 -15z"/>
<path d="M7640 1119 c0 -11 5 -17 10 -14 6 3 10 13 10 21 0 8 -4 14 -10 14 -5
0 -10 -9 -10 -21z"/>
<path d="M7640 1045 c0 -8 5 -15 10 -15 6 0 10 7 10 15 0 8 -4 15 -10 15 -5 0
-10 -7 -10 -15z"/>
<path d="M7400 975 c0 -14 -5 -34 -12 -45 -7 -10 -8 -23 -4 -27 5 -4 11 -2 13
5 3 6 15 12 28 12 13 0 26 -6 29 -12 4 -7 4 -2 1 12 -2 14 -5 37 -5 53 0 22
-4 27 -25 27 -20 0 -25 -5 -25 -25z m40 -15 c0 -20 -5 -30 -15 -30 -10 0 -15
10 -15 30 0 20 5 30 15 30 10 0 15 -10 15 -30z"/>
<path d="M7475 990 c-4 -7 2 -9 19 -4 15 3 26 2 26 -4 0 -5 -12 -13 -26 -16
-36 -9 -28 -41 11 -43 29 -1 30 0 27 38 -4 33 -8 39 -27 39 -13 0 -27 -5 -30
-10z m45 -40 c0 -13 -28 -25 -38 -16 -3 4 0 11 8 16 20 13 30 12 30 0z"/>
<path d="M7640 975 c0 -8 5 -15 10 -15 6 0 10 7 10 15 0 8 -4 15 -10 15 -5 0
-10 -7 -10 -15z"/>
<path d="M7568 963 c6 -2 18 -2 25 0 6 3 1 5 -13 5 -14 0 -19 -2 -12 -5z"/>
</g>
</svg>
