<?xml version="1.0" standalone="no"?>
<!DOCTYPE svg PUBLIC "-//W3C//DTD SVG 20010904//EN"
 "http://www.w3.org/TR/2001/REC-SVG-20010904/DTD/svg10.dtd">
<svg version="1.0" xmlns="http://www.w3.org/2000/svg"
 width="1224.000000pt" height="805.000000pt" viewBox="0 0 1224.000000 805.000000"
 preserveAspectRatio="xMidYMid meet">

<g transform="translate(0.000000,805.000000) scale(0.100000,-0.100000)"
fill="#000000" stroke="none">
<path d="M4442 7859 c-171 -22 -331 -83 -378 -144 -30 -40 -34 -90 -9 -129 53
-80 239 -144 473 -162 l91 -7 -30 -59 c-27 -54 -28 -58 -9 -48 11 6 25 8 30 5
6 -4 10 -60 10 -131 l0 -124 575 0 575 0 0 -175 0 -175 -360 0 -360 0 0 -118
0 -118 -55 -27 -55 -27 -450 0 -450 0 -290 145 -290 145 -297 -149 -298 -148
293 -147 292 -146 0 -830 0 -830 -360 0 -360 0 0 -145 0 -145 -175 0 -175 0 0
655 0 655 -130 0 c-71 0 -130 3 -130 6 0 3 5 14 10 25 14 25 9 24 -50 -6 -27
-14 -51 -25 -52 -25 -2 0 -12 16 -22 35 -112 208 -877 242 -1105 50 -138 -117
-9 -247 298 -299 l75 -12 -75 -13 c-221 -39 -351 -115 -351 -205 0 -97 120
-164 377 -211 40 -8 40 -8 -33 -20 -210 -37 -345 -117 -345 -205 0 -88 136
-167 347 -203 l80 -13 -75 -13 c-221 -39 -351 -115 -351 -205 0 -97 120 -164
377 -211 40 -8 40 -8 -33 -20 -210 -37 -345 -117 -345 -205 0 -88 136 -167
347 -203 l80 -13 -75 -13 c-161 -29 -288 -83 -329 -141 -26 -37 -28 -88 -5
-124 21 -31 95 -81 144 -97 20 -6 42 -18 48 -27 7 -9 13 -11 13 -5 0 7 18 6
58 -2 31 -7 75 -16 97 -20 40 -8 40 -8 -33 -20 -210 -37 -345 -117 -345 -205
0 -91 133 -166 363 -206 142 -24 410 -15 541 19 150 39 238 93 261 159 l10 27
59 -30 c53 -26 59 -27 50 -10 -6 11 -11 22 -11 25 0 3 59 6 130 6 l130 0 0
655 0 655 175 0 175 0 0 -145 0 -145 360 0 360 0 0 -323 0 -322 -292 -146
-293 -146 293 -147 292 -146 0 -305 0 -306 -25 -49 -25 -50 -335 0 -335 0 0
-300 0 -300 360 0 360 0 0 -175 0 -175 -906 0 -905 0 -87 25 c-119 34 -214 46
-367 46 -161 0 -264 -14 -381 -52 -236 -76 -273 -207 -84 -302 124 -62 257
-87 465 -87 208 0 341 25 465 87 141 71 159 163 48 243 l-41 30 349 -2 349 -3
3 -104 c2 -90 1 -103 -13 -97 -8 3 -22 9 -31 12 -11 5 -7 -11 16 -57 l32 -63
29 54 c34 66 35 74 10 60 -11 -5 -22 -10 -25 -10 -3 0 -6 47 -6 105 l0 105
540 0 540 0 0 -125 c0 -69 -3 -125 -6 -125 -3 0 -14 5 -25 11 -17 9 -16 2 11
-50 l30 -61 -43 0 c-67 0 -198 -19 -283 -40 -105 -27 -180 -63 -220 -106 l-34
-35 -26 31 c-72 85 -312 150 -554 150 -241 0 -491 -70 -556 -155 -108 -142
118 -273 501 -291 263 -13 551 60 618 156 l15 22 38 -37 c65 -65 196 -112 379
-134 288 -35 628 31 721 142 l24 28 36 -37 c65 -64 197 -111 379 -133 288 -35
628 31 721 142 l24 28 36 -37 c65 -64 197 -111 379 -133 317 -39 671 42 739
170 64 120 -122 230 -439 261 -66 6 -121 13 -123 14 -2 1 8 25 22 53 31 60 32
65 7 51 -11 -5 -22 -10 -25 -10 -3 0 -6 59 -6 130 l0 130 -1160 0 -1160 0 0
175 0 175 360 0 360 0 0 300 0 300 -335 0 -335 0 -25 50 -25 49 0 306 0 305
292 146 293 147 -293 146 -292 146 0 322 0 323 360 0 360 0 0 145 0 145 430 0
430 0 293 -146 292 -146 293 146 292 146 370 0 371 0 59 -30 60 -30 0 -115 0
-115 335 0 335 0 25 -50 c25 -49 25 -51 25 -320 l0 -270 -325 0 -325 0 0 -335
0 -335 325 0 325 0 0 -265 c0 -264 0 -266 -25 -315 l-25 -50 -335 0 -335 0 0
-300 0 -300 360 0 360 0 0 -175 0 -175 -310 0 -310 0 0 -130 c0 -71 -3 -130
-6 -130 -3 0 -14 5 -25 10 -25 14 -24 9 6 -50 14 -27 25 -52 25 -55 0 -3 -21
-5 -47 -5 -64 0 -229 -26 -301 -46 -82 -24 -165 -68 -196 -104 -37 -45 -43
-77 -20 -119 68 -128 422 -209 739 -170 176 22 309 68 376 130 l31 29 40 -36
c66 -59 195 -103 368 -124 285 -34 620 32 716 142 l29 33 33 -37 c98 -109 434
-174 712 -138 247 32 404 110 417 207 4 32 0 45 -23 72 -38 46 -91 77 -179
106 -80 26 -253 55 -329 55 -25 0 -46 2 -46 5 0 3 11 28 25 55 30 59 31 64 6
50 -11 -5 -22 -10 -25 -10 -3 0 -6 59 -6 130 l0 130 -840 0 -840 0 0 175 0
175 360 0 360 0 0 300 0 300 -335 0 -335 0 -25 50 c-25 49 -25 51 -25 315 l0
265 325 0 325 0 0 165 0 165 215 0 215 0 0 -215 0 -215 176 0 c191 0 178 4
157 -48 -4 -8 19 -1 54 16 l60 31 12 -34 c42 -116 315 -194 641 -182 591 22
718 327 176 422 -52 9 -64 14 -46 18 221 48 302 79 355 138 39 43 45 81 20
128 -31 61 -171 125 -340 155 -53 9 -68 15 -44 15 20 1 80 12 134 26 349 88
354 283 11 370 -356 90 -841 13 -906 -145 -7 -16 -16 -30 -19 -30 -4 0 -33 14
-65 31 l-58 31 16 -31 17 -31 -176 0 -175 0 0 -215 0 -215 -215 0 -215 0 0
160 0 160 -325 0 -325 0 0 265 0 265 27 55 27 55 333 0 333 0 0 115 0 115 60
30 c57 29 65 30 185 30 l125 0 292 -146 293 -146 297 148 298 149 -295 147
-295 148 0 830 0 830 365 0 365 0 0 140 0 140 175 0 175 0 0 -865 0 -865 136
0 c117 0 135 -2 130 -15 -3 -8 -9 -22 -12 -31 -5 -11 10 -7 54 15 l62 31 6
-25 c3 -14 26 -43 51 -65 176 -154 746 -176 1005 -38 66 35 95 64 107 105 24
84 -75 166 -258 212 -47 11 -95 21 -107 21 -13 0 -26 4 -29 10 -4 6 6 10 23
10 16 0 64 9 106 20 171 44 266 111 266 189 0 52 -35 93 -113 133 -63 31 -226
77 -281 79 -17 0 10 9 59 19 50 10 105 23 124 29 19 6 38 8 42 5 5 -3 9 -2 9
3 0 4 24 21 54 36 63 33 93 63 105 104 24 84 -75 166 -258 212 -47 11 -95 21
-107 21 -13 0 -26 5 -29 10 -4 6 6 10 23 10 16 0 64 9 106 20 171 44 266 111
266 189 0 52 -35 93 -113 133 -62 31 -226 77 -281 79 -19 1 -4 6 39 15 160 31
276 77 324 128 47 50 42 116 -10 166 -52 48 -245 120 -325 120 -13 0 -26 5
-29 10 -4 6 6 10 23 10 16 0 64 9 106 20 171 44 266 111 266 189 0 52 -35 93
-113 133 -62 31 -226 77 -281 79 -19 1 -4 6 39 15 160 31 276 77 324 128 47
50 42 116 -10 166 -102 96 -404 155 -667 131 -243 -23 -403 -85 -448 -174 -9
-18 -18 -33 -19 -35 -2 -2 -26 8 -54 22 -60 31 -65 32 -51 7 5 -11 10 -22 10
-25 0 -3 -61 -6 -135 -6 l-135 0 0 -435 0 -435 -175 0 -175 0 0 145 0 145
-735 0 -735 0 0 -145 0 -145 -185 0 -185 0 -290 145 -290 145 -290 -145 -290
-145 -303 0 -303 0 -55 28 -54 27 -3 118 -3 117 -359 0 -360 0 0 175 0 175
580 0 580 0 0 130 c0 72 3 130 6 130 3 0 14 -5 25 -10 25 -14 24 -9 -6 50 -14
27 -25 51 -25 53 0 2 39 7 88 11 175 13 342 59 421 117 172 124 6 276 -349
319 -285 34 -615 -28 -716 -136 l-34 -35 -26 31 c-53 63 -204 118 -384 140
-285 34 -615 -28 -716 -136 l-34 -35 -26 31 c-92 109 -445 176 -732 139z m411
-25 c334 -52 445 -208 223 -314 -106 -50 -211 -71 -396 -77 -188 -6 -301 5
-424 43 -296 92 -265 258 62 335 158 38 346 42 535 13z m1160 0 c266 -41 399
-149 311 -253 -33 -40 -129 -85 -235 -112 -107 -26 -373 -37 -503 -20 -157 21
-326 86 -326 126 0 19 66 21 73 3 2 -7 3 0 1 16 -2 16 -4 41 -4 57 0 26 -4 29
-30 29 -23 0 -30 -5 -30 -19 0 -25 -20 -81 -30 -81 -14 0 -32 60 -26 86 22 88
214 166 450 183 124 9 221 5 349 -15z m1160 0 c334 -52 445 -208 223 -314
-106 -50 -211 -71 -396 -77 -188 -6 -301 5 -424 43 -296 92 -265 258 62 335
158 38 346 42 535 13z m-1853 -199 c0 -31 -3 -35 -26 -35 -20 0 -25 4 -20 16
3 9 6 24 6 35 0 12 7 19 20 19 16 0 20 -7 20 -35z m-83 -71 c69 -70 214 -117
420 -136 l121 -12 -29 -59 c-26 -51 -27 -57 -10 -48 11 6 22 11 25 11 3 0 6
-56 6 -125 l0 -125 -570 0 -570 0 0 125 c0 69 3 125 6 125 3 0 14 -5 25 -10
25 -14 24 -9 -6 50 -14 27 -25 52 -25 55 0 3 19 5 41 5 70 0 248 30 328 55 82
26 163 72 183 105 7 11 14 20 16 20 1 0 19 -16 39 -36z m1160 0 c69 -70 214
-117 420 -136 l121 -12 -29 -59 c-27 -53 -28 -57 -9 -47 11 6 25 8 30 5 6 -4
10 -58 10 -126 l0 -119 -575 0 -575 0 0 125 c0 69 3 125 6 125 3 0 14 -5 25
-10 25 -14 24 -9 -6 50 -14 27 -25 52 -25 55 0 3 19 5 41 5 70 0 248 30 328
55 82 26 163 72 183 105 7 11 14 20 16 20 1 0 19 -16 39 -36z m5454 -107 c117
-31 186 -64 227 -112 38 -42 40 -70 9 -116 -90 -134 -550 -197 -865 -118 -253
63 -329 189 -170 282 52 29 151 62 233 76 33 6 71 13 85 15 14 3 106 3 205 1
153 -2 194 -7 276 -28z m-1005 -192 c-3 -8 -9 -22 -12 -31 -5 -11 10 -7 54 15
l61 31 7 -23 c23 -78 159 -148 349 -180 l80 -14 -55 -6 c-182 -22 -355 -106
-374 -182 l-6 -25 -62 31 c-35 18 -59 25 -55 17 21 -53 30 -49 -109 -46 l-129
3 -3 200 c-1 110 0 205 2 212 4 10 38 13 132 13 108 0 125 -2 120 -15z m839
-215 c249 -28 425 -111 425 -200 0 -38 -50 -94 -111 -125 -174 -89 -541 -112
-785 -50 -80 21 -198 80 -224 112 -12 15 -20 41 -20 63 0 135 371 238 715 200z
m-835 -216 c0 -3 -5 -14 -10 -25 -14 -25 -9 -24 51 7 28 14 52 24 54 22 1 -2
10 -18 19 -36 33 -65 165 -128 329 -157 76 -13 74 -19 -8 -30 -76 -10 -194
-51 -248 -84 -40 -26 -78 -70 -90 -105 -1 -5 -26 3 -55 18 -61 31 -66 32 -52
7 5 -11 10 -22 10 -25 0 -3 -56 -6 -125 -6 l-125 0 0 210 0 210 125 0 c69 0
125 -3 125 -6z m-4350 -419 l0 -285 -720 0 -720 0 0 285 0 285 720 0 720 0 0
-285z m3710 0 l0 -285 -715 0 -715 0 0 285 0 285 715 0 715 0 0 -285z m-6460
136 l275 -139 -283 -141 -282 -141 -282 141 -283 141 275 139 c151 76 282 138
290 138 8 0 139 -62 290 -138z m4350 0 l275 -139 -283 -141 -282 -141 -282
141 -283 141 275 139 c151 76 282 138 290 138 8 0 139 -62 290 -138z m3751 36
c117 -31 186 -64 227 -112 38 -42 40 -70 9 -116 -90 -134 -550 -197 -865 -118
-253 63 -329 189 -170 282 52 29 151 62 233 76 33 6 71 13 85 15 14 3 106 3
205 1 153 -2 194 -7 276 -28z m-6801 -147 c0 -17 -7 -20 -37 -20 l-38 1 35 19
c19 11 36 19 38 20 1 0 2 -9 2 -20z m1500 5 c39 -20 38 -25 -5 -25 -28 0 -35
4 -35 20 0 24 3 24 40 5z m-1560 -65 l60 -30 0 -115 0 -115 730 0 730 0 0 115
0 116 63 29 62 30 290 0 290 1 298 -148 297 -147 298 147 297 148 178 -1 177
0 0 -145 0 -145 363 -2 362 -3 3 -828 2 -827 -291 -145 -290 -145 -125 0
c-119 0 -127 1 -184 30 l-60 30 0 115 0 115 -360 0 -360 0 0 195 0 195 480 0
480 0 0 151 c0 130 2 150 15 145 8 -3 22 -9 31 -12 11 -5 7 10 -15 55 l-31 61
62 0 c75 0 179 15 267 36 35 9 75 17 87 17 13 0 21 3 19 7 -3 5 16 19 41 32
63 31 104 82 104 130 0 93 -151 176 -380 208 -98 14 -314 14 -415 -1 -162 -22
-316 -87 -354 -149 l-18 -30 -22 31 c-73 99 -286 159 -561 160 -262 0 -465
-53 -552 -145 l-32 -33 -24 29 c-78 92 -287 148 -552 149 -262 0 -465 -53
-552 -145 l-32 -33 -24 29 c-78 92 -287 148 -552 149 -256 0 -460 -52 -547
-140 -28 -27 -30 -28 -41 -10 -16 25 -104 75 -177 99 -190 63 -514 69 -720 13
-308 -82 -331 -260 -45 -352 86 -27 227 -51 306 -51 37 0 64 -4 64 -10 0 -6
-12 -34 -26 -62 -27 -54 -28 -52 24 -31 9 4 12 -29 12 -144 l0 -150 857 -6
c471 -4 1294 -7 1830 -7 l973 0 0 -190 0 -190 -360 0 -360 0 0 -115 0 -115
-60 -30 -59 -30 -368 0 -368 -1 -295 147 -296 146 -292 -146 -292 -146 -428 2
-427 3 -3 143 -3 142 -359 0 -360 0 0 830 0 830 291 145 290 145 440 0 440 0
59 -30z m60 10 c0 -24 -3 -24 -40 -5 -39 20 -38 25 5 25 28 0 35 -4 35 -20z
m1530 15 c0 -8 -62 -37 -67 -31 -14 14 9 36 37 36 16 0 30 -2 30 -5z m4266
-10 c-3 -8 -9 -22 -12 -31 -5 -11 10 -7 54 15 l61 31 7 -23 c23 -78 159 -148
349 -180 l80 -14 -55 -6 c-182 -22 -355 -106 -374 -182 l-6 -25 -62 31 c-35
18 -59 25 -55 17 21 -52 29 -48 -107 -48 l-126 0 0 215 0 215 126 0 c108 0
125 -2 120 -15z m839 -215 c249 -28 425 -111 425 -200 0 -38 -50 -94 -111
-125 -174 -89 -541 -112 -785 -50 -80 21 -198 80 -224 112 -12 15 -20 41 -20
63 0 135 371 238 715 200z m-835 -216 c0 -3 -5 -14 -10 -25 -14 -25 -9 -24 51
7 28 14 52 24 54 22 1 -2 10 -18 19 -36 33 -65 165 -128 329 -157 76 -13 74
-19 -8 -30 -76 -10 -194 -51 -248 -84 -40 -26 -78 -70 -90 -105 -1 -5 -26 3
-55 18 -61 31 -66 32 -52 7 5 -11 10 -22 10 -25 0 -3 -56 -6 -125 -6 l-125 0
0 210 0 210 125 0 c69 0 125 -3 125 -6z m1001 -247 c53 -14 118 -36 146 -50
59 -30 113 -88 113 -121 0 -37 -41 -87 -97 -118 l-53 -30 0 27 c0 23 -4 26
-27 23 -23 -2 -28 -8 -28 -32 0 -16 -6 -31 -12 -33 -9 -3 -13 7 -13 31 0 43
-12 46 -30 9 l-13 -28 -8 30 c-6 27 -7 25 -8 -15 l-1 -45 25 30 24 30 1 -26
c0 -21 -6 -28 -27 -33 -31 -8 -43 5 -43 52 0 17 -4 32 -10 32 -5 0 -10 -16
-10 -35 0 -24 -5 -35 -15 -35 -10 0 -15 11 -15 35 0 19 -4 35 -10 35 -5 0 -10
-18 -10 -40 0 -38 2 -40 30 -40 17 0 30 -4 30 -9 0 -9 -47 -15 -212 -27 -84
-6 -88 -5 -88 14 0 14 8 22 23 24 18 2 22 9 22 38 0 32 -3 35 -32 38 l-33 3 0
-55 0 -56 -54 0 c-30 0 -61 3 -70 6 -24 9 -19 31 7 30 19 -1 22 4 22 34 0 30
-3 35 -22 34 -17 0 -23 5 -24 20 -1 17 -2 18 -6 4 -2 -10 -13 -18 -24 -18 -12
0 -21 -9 -25 -25 -7 -27 10 -55 32 -55 8 0 14 -4 14 -10 0 -12 2 -12 -60 1
-39 8 -50 15 -50 30 0 10 7 19 15 19 8 0 15 -9 15 -20 0 -11 5 -20 10 -20 6 0
10 18 10 40 0 22 -4 40 -10 40 -5 0 -10 -7 -10 -15 0 -8 -7 -15 -15 -15 -8 0
-15 7 -15 15 0 8 -4 15 -10 15 -5 0 -10 -16 -10 -36 0 -21 -4 -33 -10 -29 -5
3 -10 20 -10 36 0 18 -4 28 -10 24 -6 -3 -7 -17 -4 -31 4 -14 2 -24 -5 -24 -6
0 -8 8 -4 18 6 15 5 15 -10 3 -15 -12 -17 -10 -18 15 -1 24 -2 25 -6 7 -5 -28
-5 -28 -52 -3 -83 42 -114 118 -71 173 40 51 163 103 295 126 33 6 71 13 85
15 14 3 106 3 205 1 153 -2 194 -7 276 -28z m-10171 -57 c213 -46 320 -109
320 -190 0 -33 -6 -44 -46 -79 -52 -46 -119 -73 -249 -104 -72 -16 -125 -21
-265 -21 -193 -1 -295 14 -422 61 -90 33 -158 94 -158 141 0 84 139 162 355
197 104 17 377 14 465 -5z m2640 10 c157 -21 318 -78 365 -130 9 -10 18 -39
19 -65 2 -40 -1 -51 -27 -76 -157 -158 -727 -186 -996 -50 -269 137 -10 325
454 329 61 1 144 -3 185 -8z m1175 -5 c223 -34 365 -111 365 -197 0 -47 -68
-108 -158 -141 -127 -47 -229 -62 -422 -61 -140 0 -193 5 -265 21 -130 31
-197 58 -249 104 -40 35 -46 46 -46 79 0 93 164 174 415 203 79 10 270 5 360
-8z m1160 0 c169 -25 286 -72 339 -136 40 -47 35 -84 -17 -134 -132 -126 -546
-173 -852 -95 -106 27 -189 69 -193 98 -3 19 1 22 32 22 19 0 37 -6 39 -12 2
-7 3 0 1 16 -2 16 -4 41 -4 57 0 25 -4 29 -29 29 -25 0 -30 -5 -36 -36 -13
-74 -55 -76 -55 -3 0 92 166 173 415 202 79 10 270 5 360 -8z m1160 0 c169
-25 286 -72 339 -136 40 -47 35 -84 -17 -134 -51 -48 -141 -85 -274 -112 -110
-22 -373 -24 -484 -4 -74 13 -76 14 -71 39 l5 26 15 -22 c8 -12 25 -22 38 -22
21 0 24 5 24 40 0 33 3 40 20 40 17 0 20 -7 20 -40 0 -22 5 -40 10 -40 6 0 10
20 10 45 0 45 0 45 -35 45 -34 0 -35 -1 -35 -40 0 -28 -4 -40 -15 -40 -30 0
-38 54 -11 72 8 5 7 8 -1 8 -7 0 -18 -10 -25 -22 l-12 -23 -7 25 c-5 19 -7 13
-8 -24 -1 -48 -2 -48 -29 -43 -64 13 -143 50 -186 88 -40 35 -46 46 -46 79 0
93 164 174 415 203 79 10 270 5 360 -8z m1249 -15 c158 -36 265 -98 282 -165
9 -35 -22 -83 -74 -116 -54 -34 -62 -36 -62 -9 0 15 -7 20 -24 20 -14 0 -27
-4 -30 -9 -3 -4 6 -6 19 -3 33 6 32 -14 0 -22 -14 -4 -25 -13 -25 -21 0 -8 -7
-15 -15 -15 -19 0 -21 56 -2 63 6 3 -4 6 -23 6 -23 0 -30 -2 -22 -8 8 -5 12
-22 10 -42 -3 -33 -4 -34 -68 -46 -66 -13 -370 -30 -370 -21 0 3 6 18 14 34 8
16 17 43 20 59 l6 30 -14 -30 -14 -30 -12 30 c-7 17 -14 25 -17 18 -2 -7 0
-21 6 -32 17 -32 13 -59 -10 -66 -20 -7 -179 13 -179 21 0 3 6 13 12 24 17 26
-1 55 -33 55 -20 0 -25 -6 -27 -33 -3 -33 -4 -33 -23 -16 -14 12 -19 13 -19 4
0 -7 -3 -10 -7 -7 -3 4 4 18 17 32 13 14 19 25 13 25 -6 0 -14 -8 -18 -17 -7
-17 -8 -16 -15 2 -8 19 -9 19 -9 -2 -1 -31 -18 -29 -75 7 -59 38 -84 87 -65
132 30 74 180 139 384 168 101 15 368 3 469 -20z m1782 -125 c-3 -8 -9 -22
-12 -31 -5 -11 10 -7 54 15 l62 31 6 -25 c7 -29 71 -89 119 -112 19 -9 35 -21
35 -26 0 -5 7 -7 15 -4 8 4 33 0 57 -8 24 -8 79 -21 123 -28 l80 -14 -55 -6
c-182 -22 -355 -106 -374 -182 l-6 -25 -62 31 c-35 18 -59 25 -55 17 21 -52
29 -48 -107 -48 l-126 0 0 215 0 215 126 0 c108 0 125 -2 120 -15z m-4866 -60
c0 -29 -4 -35 -21 -35 -15 0 -19 4 -15 16 3 9 6 24 6 35 0 10 7 19 15 19 10 0
15 -11 15 -35z m-3849 -36 c-6 11 -11 22 -11 25 0 3 56 6 125 6 l125 0 0 -210
0 -210 -126 0 c-108 0 -125 2 -120 15 3 8 9 22 12 31 5 11 -10 7 -54 -15 -59
-30 -61 -30 -67 -11 -25 80 -136 138 -345 180 -61 13 -75 18 -49 19 55 2 220
46 275 74 58 29 103 71 116 109 l10 27 59 -30 c53 -26 59 -27 50 -10z m6146
-75 c26 -15 54 -32 61 -38 8 -5 21 -11 30 -12 10 -1 44 -9 77 -18 80 -21 186
-36 263 -36 34 0 62 -2 62 -5 0 -3 -12 -28 -26 -56 -28 -56 -27 -66 5 -49 21
11 21 10 21 -135 l0 -145 -422 0 c-233 0 -494 3 -580 7 l-158 6 0 140 c0 120
2 138 15 133 8 -3 22 -9 31 -12 11 -5 7 10 -15 55 l-31 61 69 0 c82 0 222 23
311 51 84 26 143 61 177 104 l27 34 17 -29 c10 -16 39 -41 66 -56z m3038 56
c0 -13 -5 -25 -11 -27 -14 -5 -25 22 -17 42 8 23 28 12 28 -15z m50 0 c0 -27
-22 -39 -31 -16 -8 22 3 49 19 43 6 -2 12 -14 12 -27z m160 0 c0 -27 -22 -39
-31 -16 -8 22 3 49 19 43 6 -2 12 -14 12 -27z m425 15 c0 -8 -9 -15 -20 -15
-11 0 -20 7 -20 15 0 8 9 15 20 15 11 0 20 -7 20 -15z m-5966 -92 c75 -38 227
-73 349 -80 59 -3 107 -7 107 -9 0 -1 -11 -26 -25 -55 -13 -29 -22 -55 -20
-57 2 -2 13 1 24 8 21 11 21 10 21 -135 l0 -145 -570 0 -570 0 0 145 c0 141 1
145 19 135 32 -17 33 -12 1 50 l-30 60 69 0 c37 0 108 7 157 15 166 29 278 75
326 134 l23 29 34 -35 c19 -19 57 -46 85 -60z m1160 0 c75 -38 227 -73 349
-80 59 -3 107 -7 107 -9 0 -1 -11 -26 -25 -55 -13 -29 -22 -55 -20 -57 2 -2
13 1 24 8 21 11 21 10 21 -130 l0 -140 -570 0 -570 0 0 140 c0 136 1 140 19
130 32 -17 33 -12 1 50 l-30 60 69 0 c37 0 108 7 157 15 166 29 278 75 326
134 l23 29 34 -35 c19 -19 57 -46 85 -60z m-2320 0 c75 -38 228 -73 349 -80
59 -3 107 -7 107 -9 0 -1 -11 -26 -25 -55 -13 -29 -22 -55 -20 -57 2 -2 13 1
24 8 21 11 21 10 21 -135 l0 -145 -565 0 -565 0 0 145 0 146 30 -16 31 -16
-31 60 c-16 33 -30 62 -30 64 0 2 48 7 108 10 183 11 392 79 440 143 l17 22
30 -30 c16 -16 51 -41 79 -55z m3639 25 c6 -21 -4 -48 -19 -48 -18 0 -28 24
-20 45 7 18 33 20 39 3z m732 -28 c-3 -5 -14 -10 -23 -10 -15 0 -15 2 -2 10
20 13 33 13 25 0z m2490 -20 c249 -28 425 -111 425 -200 0 -38 -50 -94 -111
-125 -174 -89 -541 -112 -785 -50 -80 21 -198 80 -224 112 -12 15 -20 41 -20
63 0 135 371 238 715 200z m-10022 -86 c334 -52 445 -208 223 -314 -106 -50
-211 -71 -396 -77 -188 -6 -301 5 -424 43 -296 92 -265 258 62 335 158 38 346
42 535 13z m9187 -130 c0 -3 -5 -14 -10 -25 -14 -25 -9 -24 51 7 28 14 52 24
54 22 1 -2 10 -18 19 -36 33 -65 165 -128 329 -157 76 -13 74 -19 -8 -30 -76
-10 -194 -51 -248 -84 -40 -26 -78 -70 -90 -105 -1 -5 -26 3 -55 18 -61 31
-66 32 -52 7 5 -11 10 -22 10 -25 0 -3 -58 -6 -130 -6 l-130 0 0 210 0 210
130 0 c72 0 130 -3 130 -6z m-8770 -89 c59 -30 64 -31 50 -6 -5 11 -10 22 -10
25 0 3 54 6 120 6 l120 0 0 -210 0 -210 -120 0 c-66 0 -120 3 -120 6 0 3 5 14
10 25 14 25 9 24 -50 -6 -27 -14 -51 -25 -52 -25 -2 0 -12 16 -22 35 -23 41
-86 86 -164 115 -62 23 -179 50 -219 50 -43 0 -23 8 77 28 172 36 274 88 307
157 9 19 18 35 20 35 2 0 26 -11 53 -25z m9771 -158 c53 -14 118 -36 146 -50
59 -30 113 -88 113 -121 0 -167 -517 -269 -890 -175 -252 63 -327 190 -168
282 52 29 151 62 233 76 33 6 71 13 85 15 14 3 106 3 205 1 153 -2 194 -7 276
-28z m-10171 -57 c213 -46 320 -109 320 -190 0 -33 -6 -44 -46 -79 -52 -46
-119 -73 -249 -104 -72 -16 -125 -21 -265 -21 -193 -1 -295 14 -422 61 -90 33
-158 94 -158 141 0 84 139 162 355 197 104 17 377 14 465 -5z m451 -231 c-6
11 -11 22 -11 25 0 3 54 6 120 6 l120 0 0 -210 0 -210 -121 0 c-104 0 -120 2
-115 15 3 8 9 22 12 31 5 11 -10 7 -54 -15 -59 -30 -61 -30 -67 -11 -25 80
-136 138 -345 180 -61 13 -75 18 -49 19 55 2 220 46 275 74 58 29 103 71 116
109 l10 27 59 -30 c53 -26 59 -27 50 -10z m2049 -394 l0 -285 -720 0 -720 0 0
285 0 285 720 0 720 0 0 -285z m1738 -141 l-283 -142 -282 142 -283 141 282
141 283 142 282 -142 283 -141 -282 -141z m2612 141 l0 -285 -720 0 -720 0 0
285 0 285 720 0 720 0 0 -285z m1248 -141 l-283 -142 -282 142 -283 141 282
141 283 142 282 -142 283 -141 -282 -141z m-8115 330 c334 -52 445 -208 223
-314 -106 -50 -211 -71 -396 -77 -188 -6 -301 5 -424 43 -296 92 -265 258 62
335 158 38 346 42 535 13z m5417 -164 c0 -17 -7 -20 -37 -20 l-38 1 35 19 c19
11 36 19 38 20 1 0 2 -9 2 -20z m1510 0 l35 -20 -40 2 c-29 2 -41 8 -43 21 -4
22 4 21 48 -3z m-6510 -55 c59 -30 64 -31 50 -6 -5 11 -10 22 -10 25 0 3 54 6
120 6 l120 0 0 -210 0 -210 -120 0 c-66 0 -120 3 -120 6 0 3 5 14 10 25 14 25
9 24 -50 -6 -27 -14 -51 -25 -52 -25 -2 0 -12 16 -22 35 -23 41 -86 86 -164
115 -62 23 -179 50 -219 50 -43 0 -23 8 77 28 172 36 274 88 307 157 9 19 18
35 20 35 2 0 26 -11 53 -25z m5000 5 c0 -20 -1 -20 -32 -4 -46 23 -46 24 -5
24 30 0 37 -4 37 -20z m1530 15 c0 -5 -55 -35 -65 -35 -3 0 -5 9 -5 20 0 16 7
20 35 20 19 0 35 -2 35 -5z m-6930 -235 c213 -46 320 -109 320 -190 0 -33 -6
-44 -46 -79 -52 -46 -119 -73 -249 -104 -72 -16 -125 -21 -265 -21 -193 -1
-295 14 -422 61 -90 33 -158 94 -158 141 0 84 139 162 355 197 104 17 377 14
465 -5z m6120 -82 l-1 -33 -14 25 c-18 32 -18 40 0 40 10 0 15 -10 15 -32z
m44 0 c-23 -46 -24 -46 -24 -5 0 30 4 37 20 37 20 0 20 -1 4 -32z m-5713 -149
c-6 11 -11 22 -11 25 0 3 54 6 120 6 l120 0 0 -210 0 -210 -121 0 c-104 0
-120 2 -115 15 3 8 9 22 12 31 5 11 -10 7 -54 -15 -59 -30 -61 -30 -67 -11
-25 80 -136 138 -345 180 -61 13 -75 18 -49 19 55 2 220 46 275 74 58 29 103
71 116 109 l10 27 59 -30 c53 -26 59 -27 50 -10z m7985 -159 c216 -27 374
-102 390 -185 13 -70 -87 -144 -248 -185 -344 -86 -812 -14 -883 137 -16 33
-16 39 -1 69 36 78 193 143 401 167 67 8 266 6 341 -3z m-8453 -46 c266 -41
399 -149 311 -253 -23 -28 -136 -91 -163 -91 -6 0 -11 14 -11 30 0 37 -13 38
-30 3 l-13 -28 -8 30 c-7 30 -7 29 -8 -7 -1 -45 8 -48 31 -10 16 25 17 26 18
5 0 -27 -10 -33 -76 -49 l-53 -12 -9 52 c-8 41 -10 44 -11 19 -1 -44 -31 -46
-31 -3 0 17 -4 30 -10 30 -5 0 -10 -16 -10 -35 0 -32 2 -35 30 -35 19 0 30 -5
30 -14 0 -21 -104 -30 -284 -23 -125 4 -250 19 -264 32 -2 2 2 12 9 23 16 25
-2 51 -32 49 -14 -1 -19 -9 -19 -29 0 -15 -2 -28 -4 -28 -18 0 -95 35 -130 59
-137 95 -50 212 202 272 158 38 346 42 535 13z m7583 -169 c-3 -8 -9 -22 -12
-31 -5 -12 5 -10 44 10 28 14 55 26 60 26 5 0 15 -13 22 -30 30 -72 192 -146
370 -167 l55 -6 -80 -14 c-190 -32 -332 -105 -351 -180 -4 -13 -8 -23 -10 -23
-3 0 -27 11 -54 25 -59 30 -64 31 -50 6 5 -11 10 -22 10 -25 0 -3 -74 -6 -165
-6 l-165 0 0 215 0 215 166 0 c144 0 165 -2 160 -15z m-7166 -50 c59 -30 64
-31 50 -6 -5 11 -10 22 -10 25 0 3 56 6 125 6 l125 0 0 -210 0 -210 -125 0
c-69 0 -125 3 -125 6 0 3 5 14 10 25 14 25 9 24 -50 -6 -27 -14 -51 -25 -52
-25 -2 0 -12 16 -22 35 -23 41 -86 86 -164 115 -62 23 -179 50 -219 50 -43 0
-23 8 77 28 172 36 274 88 307 157 9 19 18 35 20 35 2 0 26 -11 53 -25z m5690
-50 c0 -3 -135 -72 -300 -155 l-300 -150 0 155 0 155 300 0 c165 0 300 -2 300
-5z m690 -150 c0 -85 -2 -155 -5 -155 -10 0 -605 300 -605 305 0 3 137 5 305
5 l305 0 0 -155z m-4710 6 l275 -139 -283 -141 -282 -141 -282 141 -283 141
275 139 c151 76 282 138 290 138 8 0 139 -62 290 -138z m4382 -17 l313 -157
-318 -158 -317 -159 -317 159 -318 158 310 156 c171 86 316 156 323 156 6 1
153 -69 324 -155z m-7032 111 c0 -26 -14 -33 -25 -15 -9 14 1 40 15 40 5 0 10
-11 10 -25z m9103 -86 c195 -39 307 -107 307 -188 0 -59 -120 -134 -275 -173
-79 -20 -116 -23 -300 -23 -188 0 -219 3 -300 24 -236 61 -325 154 -235 246
118 122 494 175 803 114z m-8523 -29 c212 -46 320 -109 320 -190 0 -32 -7 -44
-41 -75 -40 -35 -110 -74 -136 -75 -7 0 -13 11 -13 25 0 20 -5 25 -24 25 -28
0 -45 -19 -27 -29 19 -12 -19 -48 -56 -55 -31 -5 -32 -4 -38 32 -10 54 -13 61
-14 25 -1 -22 -6 -33 -15 -33 -9 0 -16 13 -19 33 -4 31 -4 31 -5 -5 -2 -34 0
-38 23 -38 29 0 33 -15 8 -25 -29 -11 -304 -17 -352 -8 -51 9 -61 24 -29 38
30 13 30 47 1 60 -13 5 -24 17 -24 25 -1 12 -2 12 -6 -1 -2 -10 -13 -19 -24
-22 -27 -7 -26 -57 1 -64 11 -3 20 -10 20 -15 0 -10 -83 -4 -115 8 -7 3 -15
22 -17 42 -3 37 -3 37 -16 13 -8 -13 -9 -20 -3 -17 7 5 11 -1 11 -14 0 -30
-18 -15 -29 23 -9 32 -9 32 -10 5 -1 -34 -8 -35 -76 -3 -66 32 -115 85 -115
125 0 82 142 160 355 195 104 17 377 14 465 -5z m7560 -181 c-17 -32 -7 -33
49 -5 59 30 61 31 61 11 0 -27 62 -84 123 -115 52 -25 123 -46 267 -77 18 -4
4 -9 -49 -19 -193 -33 -314 -100 -344 -188 -1 -4 -31 6 -65 23 l-63 32 16 -31
16 -30 -166 0 -165 0 0 210 0 210 165 0 c165 0 166 0 155 -21z m-1760 -139
l295 -149 -302 0 -303 -1 0 150 c0 83 3 150 8 149 4 0 140 -67 302 -149z m980
0 l0 -150 -302 1 -303 0 295 149 c162 82 298 149 303 149 4 1 7 -66 7 -149z
m-7230 -5 c0 -26 -14 -33 -25 -15 -9 14 1 40 15 40 5 0 10 -11 10 -25z m40 0
c0 -26 -14 -33 -25 -15 -9 14 1 40 15 40 5 0 10 -11 10 -25z m530 15 c0 -5 -7
-10 -15 -10 -8 0 -15 5 -15 10 0 6 7 10 15 10 8 0 15 -4 15 -10z m0 -30 c0 -5
-2 -10 -4 -10 -2 0 -12 -3 -20 -6 -12 -5 -15 -2 -10 10 7 17 34 22 34 6z
m8316 -50 c216 -27 374 -102 390 -185 13 -70 -87 -144 -248 -185 -344 -86
-812 -14 -883 137 -16 33 -16 39 -1 69 36 78 193 143 401 167 67 8 266 6 341
-3z m-6666 -700 c0 -20 -5 -30 -15 -30 -18 0 -18 2 -3 35 15 32 18 32 18 -5z
m50 -22 c0 -5 -7 -8 -15 -8 -10 0 -15 10 -15 33 l1 32 14 -25 c8 -14 14 -28
15 -32z m4300 22 c0 -20 -5 -30 -15 -30 -18 0 -18 2 -3 35 15 32 18 32 18 -5z
m50 -22 c0 -5 -7 -8 -15 -8 -10 0 -15 10 -15 33 l1 32 14 -25 c8 -14 14 -28
15 -32z m-3670 -308 l0 -280 -720 0 -720 0 0 280 0 280 720 0 720 0 0 -280z
m4350 0 l0 -280 -720 0 -720 0 0 280 0 280 720 0 720 0 0 -280z m-7056 -620
c159 -36 265 -98 282 -166 15 -58 -74 -133 -204 -173 -329 -98 -818 -40 -919
109 -29 41 -29 58 0 101 42 63 193 124 369 149 104 15 370 4 472 -20z m3144
-159 c1 -63 -1 -118 -7 -124 -5 -5 -17 -4 -30 3 -20 10 -20 7 9 -49 l30 -61
-43 0 c-67 0 -198 -19 -283 -40 -105 -27 -180 -63 -220 -106 l-34 -35 -26 31
c-58 69 -216 122 -419 142 -66 6 -121 13 -123 14 -2 1 8 25 22 53 31 60 32 65
7 51 -11 -5 -22 -10 -25 -10 -3 0 -6 56 -6 125 l0 125 573 -2 572 -3 3 -114z
m1160 0 c1 -63 -1 -118 -7 -124 -5 -5 -17 -4 -30 3 -20 10 -20 7 9 -49 l30
-61 -43 0 c-67 0 -198 -19 -283 -40 -105 -27 -180 -63 -220 -106 l-34 -35 -26
31 c-58 69 -216 122 -419 142 -66 6 -121 13 -123 14 -2 1 8 25 22 53 31 60 32
65 7 51 -11 -5 -22 -10 -25 -10 -3 0 -6 56 -6 125 l0 125 573 -2 572 -3 3
-114z m2550 -10 c2 -108 1 -123 -13 -117 -8 3 -22 9 -31 12 -11 5 -7 -10 15
-55 l31 -61 -43 0 c-67 0 -198 -19 -284 -40 -94 -24 -170 -60 -213 -100 l-32
-30 -19 25 c-55 69 -321 145 -506 145 l-43 0 31 61 c22 45 26 60 15 55 -9 -3
-23 -9 -31 -12 -13 -5 -15 12 -15 120 l0 126 568 -2 567 -3 3 -124z m1162 3
c0 -108 -2 -125 -15 -120 -8 3 -22 9 -31 12 -11 5 -7 -10 15 -55 l31 -61 -43
0 c-67 0 -198 -19 -284 -40 -98 -25 -175 -62 -218 -105 l-33 -34 -23 26 c-38
40 -93 71 -174 98 -80 26 -253 55 -329 55 -25 0 -46 2 -46 5 0 3 11 28 25 55
30 59 31 64 6 50 -11 -5 -22 -10 -25 -10 -3 0 -6 56 -6 125 l0 125 575 0 575
0 0 -126z m-6957 -260 c334 -52 445 -208 223 -314 -106 -50 -211 -71 -396 -77
-188 -6 -301 5 -424 43 -296 92 -265 258 62 335 158 38 346 42 535 13z m1160
0 c155 -24 270 -72 316 -130 22 -28 28 -88 11 -99 -6 -4 -10 7 -10 24 0 24 -4
31 -19 31 -11 0 -22 -4 -25 -9 -4 -5 3 -7 14 -4 11 3 20 0 20 -6 0 -6 -9 -11
-20 -11 -14 0 -20 -7 -20 -21 0 -16 5 -20 20 -16 33 9 32 -10 -2 -37 -91 -69
-239 -106 -458 -113 -188 -6 -301 5 -424 43 -296 92 -265 258 62 335 158 38
346 42 535 13z m1160 0 c334 -52 445 -208 223 -314 -106 -50 -211 -71 -396
-77 -188 -6 -301 5 -424 43 -296 92 -265 258 62 335 158 38 346 42 535 13z
m1160 0 c334 -52 445 -208 223 -314 -106 -50 -211 -71 -396 -77 -188 -6 -301
5 -424 43 -296 92 -265 258 62 335 158 38 346 42 535 13z m1327 11 c154 -11
315 -64 379 -124 25 -23 31 -37 31 -71 0 -23 -4 -50 -10 -60 -28 -52 -200
-120 -356 -141 -142 -19 -397 -7 -517 25 -414 107 -287 336 208 375 55 5 120
7 145 5 25 -2 79 -6 120 -9z m1149 -1 c155 -11 314 -64 379 -127 26 -25 32
-39 32 -73 0 -35 -5 -47 -35 -73 -94 -82 -241 -121 -482 -128 -232 -7 -389 19
-519 85 -49 25 -104 85 -104 113 0 78 115 150 306 189 73 15 233 28 294 24 25
-2 83 -6 129 -10z m1209 -5 c210 -25 364 -107 364 -194 0 -70 -86 -129 -249
-172 -191 -50 -527 -42 -696 16 -114 39 -197 104 -197 152 0 102 193 189 460
208 104 8 191 5 318 -10z m-5703 -229 c-3 -5 -10 -10 -16 -10 -5 0 -9 5 -9 10
0 6 7 10 16 10 8 0 12 -4 9 -10z"/>
<path d="M4660 7691 c0 -14 -6 -17 -25 -13 -19 3 -27 -1 -34 -19 -14 -38 1
-64 38 -65 l31 -1 0 59 c0 32 -2 58 -5 58 -3 0 -5 -8 -5 -19z m-5 -56 c0 -23
-4 -30 -20 -30 -21 0 -31 25 -21 51 11 28 41 12 41 -21z"/>
<path d="M4560 7635 c0 -25 5 -45 10 -45 6 0 10 20 10 45 0 25 -4 45 -10 45
-5 0 -10 -20 -10 -45z"/>
<path d="M4550 7570 c0 -6 28 -10 65 -10 37 0 65 4 65 10 0 6 -28 10 -65 10
-37 0 -65 -4 -65 -10z"/>
<path d="M5367 7674 c-15 -15 -6 -24 13 -12 14 9 22 10 31 1 8 -8 3 -13 -21
-18 -25 -5 -31 -11 -28 -28 2 -18 10 -22 39 -23 l35 -2 -5 42 c-5 35 -10 41
-31 44 -14 2 -29 0 -33 -4z m53 -41 c-1 -19 -19 -35 -34 -30 -21 8 -20 24 2
30 28 7 32 7 32 0z"/>
<path d="M5453 7673 c12 -3 17 -15 17 -44 0 -21 5 -39 10 -39 6 0 10 18 10 39
0 29 5 41 18 44 9 3 -3 5 -28 5 -25 0 -37 -2 -27 -5z"/>
<path d="M5537 7674 c-15 -15 -6 -24 13 -12 14 9 22 10 31 1 8 -8 3 -13 -21
-18 -25 -5 -31 -11 -28 -28 2 -18 10 -22 39 -23 l35 -2 -5 42 c-5 35 -10 41
-31 44 -14 2 -29 0 -33 -4z m53 -41 c-1 -19 -19 -35 -34 -30 -21 8 -20 24 2
30 28 7 32 7 32 0z"/>
<path d="M5681 7638 c0 -27 3 -48 7 -48 11 0 35 51 28 58 -3 3 -9 -4 -13 -14
-6 -15 -9 -13 -14 16 -6 33 -6 32 -8 -12z"/>
<path d="M5727 7673 c-7 -13 5 -83 14 -83 5 0 9 20 9 45 0 40 -11 58 -23 38z"/>
<path d="M5820 7635 c0 -46 0 -46 33 -43 30 3 32 5 32 43 0 38 -2 40 -32 43
-33 3 -33 3 -33 -43z m50 20 c0 -8 -7 -15 -15 -15 -8 0 -15 7 -15 15 0 8 7 15
15 15 8 0 15 -7 15 -15z m3 -40 c1 -5 -6 -11 -15 -13 -11 -2 -18 3 -18 13 0
17 30 18 33 0z"/>
<path d="M5910 7620 c0 -33 4 -60 10 -60 6 0 10 7 10 15 0 8 9 15 20 15 12 0
25 10 31 24 16 35 -3 66 -41 66 -30 0 -30 0 -30 -60z m55 14 c0 -19 -6 -30
-16 -32 -20 -4 -30 28 -17 52 14 25 33 14 33 -20z"/>
<path d="M6023 7673 c-7 -2 -13 -20 -13 -39 0 -27 5 -35 24 -40 27 -6 46 1 46
18 0 7 -5 6 -15 -2 -16 -13 -45 -7 -45 10 0 5 16 10 35 10 38 0 40 2 25 31
-10 18 -31 23 -57 12z m45 -20 c2 -8 -6 -13 -22 -13 -19 0 -24 4 -19 15 6 18
34 16 41 -2z"/>
<path d="M6111 7633 c2 -46 2 -46 8 -13 l6 35 12 -32 c7 -18 15 -33 18 -33 3
0 11 15 18 33 l12 32 6 -35 c6 -33 6 -32 8 13 1 57 -16 60 -34 6 l-12 -34 -12
38 c-17 51 -31 46 -30 -10z"/>
<path d="M6225 7670 c-4 -6 -1 -18 6 -26 9 -11 9 -18 1 -26 -14 -14 -15 -28
-3 -28 5 0 13 9 16 20 9 27 33 25 38 -2 2 -13 5 -2 6 25 1 46 0 47 -28 47 -17
0 -33 -5 -36 -10z m55 -15 c0 -8 -9 -15 -20 -15 -11 0 -20 7 -20 15 0 8 9 15
20 15 11 0 20 -7 20 -15z"/>
<path d="M6743 7673 c12 -3 17 -15 17 -44 0 -21 5 -39 10 -39 6 0 10 18 10 39
0 29 5 41 18 44 9 3 -3 5 -28 5 -25 0 -37 -2 -27 -5z"/>
<path d="M6819 7659 c-13 -26 2 -69 25 -69 23 0 46 11 46 22 0 6 -6 5 -15 -2
-16 -13 -45 -7 -45 10 0 5 14 10 30 10 31 0 39 17 18 38 -19 19 -46 14 -59 -9z
m55 -4 c4 -11 -1 -15 -19 -15 -24 0 -32 10 -18 23 11 12 31 8 37 -8z"/>
<path d="M6910 7635 c0 -47 15 -62 22 -22 5 31 -2 67 -13 67 -5 0 -9 -20 -9
-45z"/>
<path d="M6946 7664 c-10 -25 1 -29 14 -5 6 12 7 21 1 21 -5 0 -12 -7 -15 -16z"/>
<path d="M7002 7668 c-16 -16 -15 -53 3 -68 17 -14 47 -10 53 8 3 11 1 11 -17
0 -18 -11 -23 -11 -31 2 -5 8 -10 20 -10 25 0 6 5 17 10 25 8 13 13 13 31 2
18 -11 20 -11 17 0 -6 18 -40 22 -56 6z"/>
<path d="M7083 7673 c12 -3 17 -15 17 -44 0 -21 5 -39 10 -39 6 0 10 18 10 39
0 29 5 41 18 44 9 3 -3 5 -28 5 -25 0 -37 -2 -27 -5z"/>
<path d="M6940 7622 c0 -5 7 -15 15 -22 8 -7 15 -8 15 -2 0 5 -7 15 -15 22 -8
7 -15 8 -15 2z"/>
<path d="M11400 7345 c0 -6 -10 -15 -22 -20 -15 -7 -23 -19 -23 -35 0 -16 8
-28 23 -35 12 -5 22 -14 22 -20 0 -7 3 -7 8 0 4 6 16 15 27 21 11 6 20 21 20
34 0 13 -9 28 -20 34 -11 6 -23 16 -27 21 -5 7 -8 7 -8 0z m0 -55 c0 -33 -11
-38 -30 -15 -10 12 -10 18 0 30 19 23 30 18 30 -15z m35 0 c0 -13 -6 -25 -12
-27 -9 -3 -13 6 -13 27 0 21 4 30 13 28 6 -3 12 -15 12 -28z"/>
<path d="M11480 7290 c0 -33 4 -60 10 -60 5 0 24 21 42 48 l33 47 6 -50 6 -50
1 63 c1 34 -2 62 -8 62 -5 0 -22 -21 -37 -47 l-28 -48 -3 48 c-4 68 -22 58
-22 -13z"/>
<path d="M11628 7339 c-23 -13 -24 -72 -2 -94 24 -24 66 -15 84 18 13 24 13
30 0 55 -17 29 -53 39 -82 21z m60 -11 c7 -7 12 -24 12 -38 0 -51 -52 -69 -72
-25 -22 49 25 98 60 63z"/>
<path d="M11340 7210 c0 -6 72 -10 195 -10 123 0 195 4 195 10 0 6 -72 10
-195 10 -123 0 -195 -4 -195 -10z"/>
<path d="M11125 6840 c-4 -22 -11 -40 -16 -40 -5 0 -9 -9 -9 -20 0 -11 5 -20
10 -20 6 0 10 7 10 15 0 19 66 21 73 3 2 -7 3 0 1 16 -2 16 -4 41 -4 57 0 25
-4 29 -29 29 -26 0 -30 -4 -36 -40z m45 -5 c0 -29 -4 -35 -21 -35 -15 0 -19 4
-15 16 3 9 6 24 6 35 0 10 7 19 15 19 10 0 15 -11 15 -35z"/>
<path d="M11220 6866 c-28 -35 11 -93 48 -70 35 22 22 84 -18 84 -10 0 -23 -7
-30 -14z m55 -15 c8 -26 -5 -53 -24 -49 -29 6 -27 68 3 68 8 0 17 -8 21 -19z"/>
<path d="M11308 6835 c-2 -27 1 -44 7 -42 5 2 11 20 13 40 2 28 8 37 22 37 15
0 20 -9 23 -42 l4 -43 1 48 2 47 -34 0 c-33 0 -34 -1 -38 -45z"/>
<path d="M11407 6872 c17 -11 19 -34 5 -59 -7 -13 -10 -23 -6 -23 3 0 14 10
25 23 l18 22 1 -22 c0 -13 4 -23 9 -23 11 0 18 37 13 68 -2 12 -8 22 -13 22
-5 0 -9 -10 -10 -22 l0 -23 -16 23 c-8 12 -21 22 -27 22 -8 0 -8 -2 1 -8z"/>
<path d="M11487 6860 c-3 -11 -3 -20 -1 -20 2 0 8 9 14 20 6 11 7 20 2 20 -6
0 -12 -9 -15 -20z"/>
<path d="M11533 6835 c0 -27 2 -40 4 -27 6 29 43 31 43 2 0 -11 5 -20 10 -20
6 0 10 20 10 45 0 25 -4 45 -10 45 -5 0 -10 -9 -10 -20 0 -29 -37 -27 -43 3
-2 12 -4 0 -4 -28z"/>
<path d="M11630 6866 c-28 -35 11 -93 48 -70 35 22 22 84 -18 84 -10 0 -23 -7
-30 -14z m45 -31 c0 -33 -28 -47 -39 -19 -10 25 3 56 22 52 11 -2 17 -13 17
-33z"/>
<path d="M11733 6874 c-7 -3 -13 -21 -13 -40 0 -27 5 -35 24 -40 27 -6 46 1
46 18 0 7 -5 6 -15 -2 -21 -18 -45 -5 -45 25 0 31 24 43 47 24 14 -12 16 -12
11 1 -5 16 -34 23 -55 14z"/>
<path d="M11812 6873 c12 -3 18 -17 21 -46 l4 -42 1 42 c2 30 7 43 20 46 9 3
-1 5 -23 5 -22 0 -32 -2 -23 -5z"/>
<path d="M11891 6838 c-1 -44 1 -48 23 -48 31 0 50 22 34 38 -7 7 -20 12 -29
12 -10 0 -19 10 -22 23 -2 12 -5 1 -6 -25z m49 -23 c0 -8 -9 -15 -20 -15 -11
0 -20 7 -20 15 0 8 9 15 20 15 11 0 20 -7 20 -15z"/>
<path d="M11480 6823 c0 -13 29 -38 35 -31 3 3 -4 13 -15 23 -11 10 -20 13
-20 8z"/>
<path d="M5120 6415 l0 -225 660 0 660 0 0 225 0 225 -660 0 -660 0 0 -225z
m1310 -5 l0 -210 -645 0 -645 0 0 210 0 210 645 0 645 0 0 -210z"/>
<path d="M5335 6466 c-21 -15 -25 -67 -5 -90 7 -9 22 -16 34 -16 27 0 64 25
53 37 -5 4 -13 0 -18 -10 -22 -39 -73 -10 -67 39 4 36 31 53 58 36 11 -7 20
-8 20 -3 0 22 -48 27 -75 7z"/>
<path d="M5640 6461 c-26 -50 -1 -108 43 -97 23 5 27 12 27 41 0 31 -4 36 -30
42 -39 7 -38 21 3 26 l32 4 -32 1 c-23 2 -35 -4 -43 -17z m55 -56 c0 -23 -4
-30 -20 -30 -21 0 -31 25 -21 51 11 28 41 12 41 -21z"/>
<path d="M5453 6443 c-19 -7 -16 -70 3 -77 29 -11 44 -6 55 18 20 43 -14 77
-58 59z m42 -38 c0 -39 -31 -48 -41 -11 -7 30 2 48 24 44 11 -2 17 -13 17 -33z"/>
<path d="M5539 6429 c-13 -26 2 -69 25 -69 33 0 46 13 46 45 0 47 -49 64 -71
24z m56 -8 c8 -26 -5 -53 -24 -49 -29 6 -27 68 3 68 8 0 17 -8 21 -19z"/>
<path d="M5742 6408 l-2 -48 55 0 c45 0 55 -3 55 -17 0 -9 2 -14 5 -11 3 2 1
31 -4 64 -8 55 -9 56 -10 17 -1 -35 -4 -43 -20 -43 -16 0 -21 8 -24 43 l-4 42
-1 -42 c-2 -35 -6 -43 -21 -43 -16 0 -21 8 -24 43 l-4 42 -1 -47z"/>
<path d="M5882 6438 c-7 -7 -12 -21 -12 -33 0 -41 45 -60 70 -30 8 9 8 15 2
15 -6 0 -12 -5 -14 -12 -5 -14 -38 -4 -38 12 0 5 14 10 30 10 18 0 30 5 30 13
0 18 -21 37 -40 37 -9 0 -21 -5 -28 -12z m52 -13 c4 -11 -1 -15 -19 -15 -24 0
-32 10 -18 23 11 12 31 8 37 -8z"/>
<path d="M5970 6405 c0 -25 5 -45 10 -45 6 0 10 9 10 20 0 29 37 27 43 -2 2
-13 4 0 4 27 0 28 -2 40 -4 28 -6 -30 -43 -32 -43 -3 0 11 -4 20 -10 20 -5 0
-10 -20 -10 -45z"/>
<path d="M6071 6408 c-1 -54 9 -61 29 -20 l14 27 4 -27 c6 -45 22 -32 22 17 0
53 -13 57 -37 13 l-17 -33 -7 35 c-6 33 -6 33 -8 -12z"/>
<path d="M6172 6438 c-7 -7 -12 -21 -12 -33 0 -41 45 -60 70 -30 8 9 8 15 2
15 -6 0 -12 -5 -14 -12 -5 -14 -38 -4 -38 12 0 5 14 10 30 10 18 0 30 5 30 13
0 18 -21 37 -40 37 -9 0 -21 -5 -28 -12z m52 -13 c4 -11 -1 -15 -19 -15 -24 0
-32 10 -18 23 11 12 31 8 37 -8z"/>
<path d="M9013 6420 c0 -36 2 -50 4 -32 5 40 18 41 38 2 9 -16 20 -30 26 -30
5 0 3 14 -6 30 -9 17 -20 30 -26 30 -9 0 -3 9 29 45 11 13 11 15 -1 15 -7 0
-19 -11 -25 -25 -15 -33 -30 -32 -35 3 -2 15 -4 -2 -4 -38z"/>
<path d="M9110 6436 c-28 -35 11 -93 48 -70 35 22 22 84 -18 84 -10 0 -23 -7
-30 -14z m55 -15 c8 -26 -5 -53 -24 -49 -29 6 -27 68 3 68 8 0 17 -8 21 -19z"/>
<path d="M9200 6405 c0 -25 5 -45 10 -45 6 0 10 9 10 20 0 29 37 27 43 -2 2
-13 4 0 4 27 0 28 -2 40 -4 28 -6 -30 -43 -32 -43 -3 0 11 -4 20 -10 20 -5 0
-10 -20 -10 -45z"/>
<path d="M9299 6429 c-24 -46 29 -93 61 -54 8 9 8 15 2 15 -6 0 -12 -5 -14
-12 -7 -21 -38 0 -38 27 0 27 31 48 38 27 2 -7 8 -12 14 -12 6 0 6 6 -2 15
-18 22 -47 18 -61 -6z"/>
<path d="M9380 6445 c0 -2 7 -23 17 -46 16 -40 15 -42 -2 -55 -17 -13 -17 -14
-1 -14 18 0 40 42 50 96 6 28 5 27 -11 -6 l-16 -35 -10 33 c-5 17 -14 32 -18
32 -5 0 -9 -2 -9 -5z"/>
<path d="M9468 6405 c-2 -27 1 -44 7 -42 5 2 11 20 13 40 2 28 8 37 22 37 15
0 20 -9 23 -42 l4 -43 1 48 2 47 -34 0 c-33 0 -34 -1 -38 -45z"/>
<path d="M9570 6404 c0 -45 0 -45 33 -42 24 2 32 8 32 23 0 13 -8 21 -22 23
-15 2 -23 10 -23 23 0 10 -4 19 -10 19 -5 0 -10 -21 -10 -46z m53 -19 c1 -5
-6 -11 -15 -13 -11 -2 -18 3 -18 13 0 17 30 18 33 0z"/>
<path d="M9652 6443 c12 -3 18 -17 21 -46 l4 -42 1 42 c2 30 7 43 20 46 9 3
-1 5 -23 5 -22 0 -32 -2 -23 -5z"/>
<path d="M9730 6435 c-9 -10 -9 -15 -1 -15 6 0 11 5 11 10 0 6 9 10 20 10 30
0 24 -17 -11 -29 -45 -15 -36 -46 14 -48 34 -1 37 1 37 27 0 16 -3 35 -6 44
-8 20 -48 21 -64 1z m47 -50 c-4 -8 -13 -15 -22 -15 -21 0 -19 28 3 32 22 5
26 2 19 -17z"/>
<path d="M9820 6405 c0 -25 5 -45 10 -45 6 0 10 9 10 20 0 29 37 27 43 -2 2
-13 4 0 4 27 0 28 -2 40 -4 28 -6 -30 -43 -32 -43 -3 0 11 -4 20 -10 20 -5 0
-10 -20 -10 -45z"/>
<path d="M9922 6443 c12 -3 18 -17 21 -46 l4 -42 1 42 c2 30 7 43 20 46 9 3
-1 5 -23 5 -22 0 -32 -2 -23 -5z"/>
<path d="M3200 6420 c0 -33 4 -60 10 -60 6 0 10 25 10 55 0 54 0 55 30 55 30
0 30 -1 30 -55 0 -30 5 -55 10 -55 6 0 10 27 10 60 l0 60 -50 0 -50 0 0 -60z"/>
<path d="M3331 6408 c-1 -54 9 -61 29 -20 l14 27 4 -27 c6 -45 22 -32 22 17 0
53 -13 57 -37 13 l-17 -33 -7 35 c-6 33 -6 33 -8 -12z"/>
<path d="M3432 6408 l-2 -48 55 0 55 0 -2 48 -1 47 -4 -42 c-3 -34 -8 -43 -23
-43 -15 0 -20 9 -23 43 l-4 42 -1 -42 c-2 -35 -6 -43 -21 -43 -16 0 -21 8 -24
43 l-4 42 -1 -47z"/>
<path d="M3572 6438 c-7 -7 -12 -21 -12 -33 0 -41 45 -60 70 -30 8 9 8 15 2
15 -6 0 -12 -5 -14 -12 -5 -14 -38 -4 -38 12 0 5 14 10 30 10 18 0 30 5 30 13
0 18 -21 37 -40 37 -9 0 -21 -5 -28 -12z m52 -13 c4 -11 -1 -15 -19 -15 -24 0
-32 10 -18 23 11 12 31 8 37 -8z"/>
<path d="M3662 6443 c12 -3 18 -17 21 -46 l4 -42 1 42 c2 30 7 43 20 46 9 3
-1 5 -23 5 -22 0 -32 -2 -23 -5z"/>
<path d="M7550 6420 c0 -33 4 -60 10 -60 6 0 10 25 10 55 0 54 0 55 30 55 30
0 30 -1 30 -55 0 -30 5 -55 10 -55 6 0 10 27 10 60 l0 60 -50 0 -50 0 0 -60z"/>
<path d="M7681 6408 c-1 -54 9 -61 29 -20 l14 27 4 -27 c6 -45 22 -32 22 17 0
53 -13 57 -37 13 l-17 -33 -7 35 c-6 33 -6 33 -8 -12z"/>
<path d="M7782 6408 l-2 -48 55 0 55 0 -2 48 -1 47 -4 -42 c-3 -34 -8 -43 -23
-43 -15 0 -20 9 -23 43 l-4 42 -1 -42 c-2 -35 -6 -43 -21 -43 -16 0 -21 8 -24
43 l-4 42 -1 -47z"/>
<path d="M7922 6438 c-7 -7 -12 -21 -12 -33 0 -41 45 -60 70 -30 8 9 8 15 2
15 -6 0 -12 -5 -14 -12 -5 -14 -38 -4 -38 12 0 5 14 10 30 10 18 0 30 5 30 13
0 18 -21 37 -40 37 -9 0 -21 -5 -28 -12z m52 -13 c4 -11 -1 -15 -19 -15 -24 0
-32 10 -18 23 11 12 31 8 37 -8z"/>
<path d="M8012 6443 c12 -3 18 -17 21 -46 l4 -42 1 42 c2 30 7 43 20 46 9 3
-1 5 -23 5 -22 0 -32 -2 -23 -5z"/>
<path d="M11359 6429 c-24 -46 29 -93 61 -54 8 9 8 15 2 15 -6 0 -12 -5 -14
-12 -7 -21 -38 0 -38 27 0 27 31 48 38 27 2 -7 8 -12 14 -12 6 0 6 6 -2 15
-18 22 -47 18 -61 -6z"/>
<path d="M11443 6443 c12 -3 17 -15 17 -44 0 -21 5 -39 10 -39 6 0 10 18 10
39 0 29 5 41 18 44 9 3 -3 5 -28 5 -25 0 -37 -2 -27 -5z"/>
<path d="M11530 6435 c-7 -9 -8 -15 -2 -15 6 0 12 5 14 12 3 7 12 9 24 4 17
-7 15 -9 -14 -22 -46 -19 -41 -48 9 -50 l35 -2 -5 42 c-5 32 -11 42 -27 44
-11 2 -27 -4 -34 -13z m50 -40 c0 -19 -24 -30 -41 -19 -9 5 -7 11 6 21 24 17
35 17 35 -2z"/>
<path d="M11625 6426 c14 -21 14 -25 0 -36 -17 -14 -20 -30 -6 -30 5 0 13 9
16 20 9 27 25 25 26 -2 1 -22 1 -22 8 2 l7 25 15 -22 c7 -13 18 -23 23 -23 4
0 1 11 -7 24 -14 21 -14 26 -1 45 8 11 11 21 5 21 -5 0 -13 -9 -16 -20 -8 -27
-23 -25 -28 3 l-4 22 -2 -22 c-1 -28 -17 -30 -26 -3 -3 11 -11 20 -16 20 -5 0
-3 -11 6 -24z"/>
<path d="M11230 5965 c0 -46 0 -46 33 -43 30 3 32 5 32 43 0 38 -2 40 -32 43
-33 3 -33 3 -33 -43z m53 20 c1 -5 -6 -11 -15 -13 -11 -2 -18 3 -18 13 0 17
30 18 33 0z m7 -40 c0 -8 -9 -15 -20 -15 -11 0 -20 7 -20 15 0 8 9 15 20 15
11 0 20 -7 20 -15z"/>
<path d="M11330 5996 c-28 -35 11 -93 48 -70 35 22 22 84 -18 84 -10 0 -23 -7
-30 -14z m45 -31 c0 -33 -28 -47 -39 -19 -10 25 3 56 22 52 11 -2 17 -13 17
-33z"/>
<path d="M11420 5995 c-8 -10 -9 -15 -1 -15 6 0 11 5 11 10 0 6 7 10 15 10 18
0 20 -26 3 -33 -10 -4 -10 -6 0 -6 17 -1 15 -31 -3 -31 -8 0 -15 5 -15 10 0 6
-4 10 -10 10 -5 0 -7 -7 -4 -15 8 -19 50 -20 57 -1 9 22 -8 71 -25 74 -8 2
-21 -4 -28 -13z"/>
<path d="M11501 5945 c1 -33 4 -50 6 -38 3 14 9 20 19 16 20 -7 44 15 44 42 0
28 -19 45 -48 42 -20 -1 -22 -6 -21 -62z m54 36 c8 -26 -5 -53 -24 -49 -29 6
-27 68 3 68 8 0 17 -8 21 -19z"/>
<path d="M11600 5995 c-9 -10 -9 -15 -1 -15 6 0 11 5 11 10 0 6 9 10 20 10 30
0 24 -17 -11 -29 -45 -15 -36 -46 14 -48 34 -1 37 1 37 27 0 16 -3 35 -6 44
-8 20 -48 21 -64 1z m47 -50 c-4 -8 -13 -15 -22 -15 -21 0 -19 28 3 32 22 5
26 2 19 -17z"/>
<path d="M11702 5998 c-16 -16 -15 -53 3 -68 17 -14 47 -10 53 8 3 11 1 11
-17 0 -18 -11 -23 -11 -31 2 -5 8 -10 20 -10 25 0 6 5 17 10 25 8 13 13 13 31
2 18 -11 20 -11 17 0 -6 18 -40 22 -56 6z"/>
<path d="M11782 6003 c12 -3 18 -17 21 -46 l4 -42 1 42 c2 30 7 43 20 46 9 3
-1 5 -23 5 -22 0 -32 -2 -23 -5z"/>
<path d="M11430 5641 c0 -17 -4 -33 -10 -36 -5 -3 -10 -14 -9 -23 0 -11 3 -12
6 -4 2 6 17 12 33 12 16 0 31 -6 34 -12 4 -7 4 -2 1 12 -2 14 -5 37 -5 53 0
22 -4 27 -25 27 -21 0 -25 -5 -25 -29z m40 -11 c0 -22 -5 -30 -18 -30 -15 0
-18 6 -14 30 2 17 10 30 18 30 9 0 14 -11 14 -30z"/>
<path d="M11512 5658 c-27 -27 -3 -73 35 -66 27 5 25 72 -2 76 -11 1 -26 -3
-33 -10z m43 -28 c0 -16 -6 -26 -17 -28 -14 -3 -18 3 -18 28 0 25 4 31 18 28
11 -2 17 -12 17 -28z"/>
<path d="M11592 5628 l1 -43 4 38 c3 28 9 37 23 37 14 0 20 -9 23 -37 l4 -38
1 43 c2 40 1 42 -28 42 -29 0 -30 -2 -28 -42z"/>
<path d="M11394 5436 c-12 -31 0 -61 25 -61 31 0 50 28 35 53 -14 22 -52 28
-60 8z m49 -8 c6 -21 -4 -48 -19 -48 -18 0 -28 24 -20 45 7 18 33 20 39 3z"/>
<path d="M11550 5411 c0 -44 19 -58 22 -16 0 14 1 30 2 37 1 6 -5 13 -11 16
-9 2 -13 -9 -13 -37z"/>
<path d="M11616 5441 c-8 -13 5 -71 15 -71 5 0 9 18 9 40 0 37 -11 52 -24 31z"/>
<path d="M11655 5440 c-4 -7 2 -9 19 -4 16 4 26 2 26 -5 0 -6 -11 -13 -26 -17
-37 -10 -27 -39 14 -40 32 -1 33 0 30 35 -3 31 -7 36 -30 39 -14 2 -29 -2 -33
-8z m45 -39 c0 -14 -18 -23 -31 -15 -8 4 -7 9 2 15 18 11 29 11 29 0z"/>
<path d="M11581 5413 c-2 -20 11 -43 20 -37 5 3 9 13 9 22 0 14 -2 14 -9 3 -7
-11 -10 -10 -14 5 -2 10 -5 14 -6 7z"/>
<path d="M1220 5471 c0 -22 -5 -42 -12 -44 -8 -3 -6 -6 5 -6 13 -1 17 7 17 39
0 33 3 40 20 40 17 0 20 -7 20 -40 0 -22 5 -40 10 -40 6 0 10 20 10 45 0 45 0
45 -35 45 -34 0 -35 -1 -35 -39z"/>
<path d="M1320 5496 c-28 -35 11 -93 48 -70 35 22 22 84 -18 84 -10 0 -23 -7
-30 -14z m55 -15 c8 -26 -5 -53 -24 -49 -29 6 -27 68 3 68 8 0 17 -8 21 -19z"/>
<path d="M1410 5465 c0 -25 5 -45 10 -45 6 0 10 18 10 39 0 29 5 41 18 44 10
3 6 5 -10 6 -27 1 -28 -1 -28 -44z"/>
<path d="M1481 5468 c0 -27 3 -48 7 -48 11 0 35 51 28 58 -3 3 -9 -4 -13 -14
-6 -15 -9 -13 -14 16 -6 33 -6 32 -8 -12z"/>
<path d="M1527 5503 c-7 -13 5 -83 14 -83 5 0 9 20 9 45 0 40 -11 58 -23 38z"/>
<path d="M1570 5465 c0 -25 5 -45 10 -45 6 0 10 9 10 20 0 29 37 27 43 -2 2
-13 4 0 4 27 0 28 -2 40 -4 28 -6 -30 -43 -32 -43 -3 0 11 -4 20 -10 20 -5 0
-10 -20 -10 -45z"/>
<path d="M1313 5393 c64 -2 170 -2 235 0 64 1 11 3 -118 3 -129 0 -182 -2
-117 -3z"/>
<path d="M4180 5519 c0 -11 -5 -17 -10 -14 -22 13 -50 -6 -50 -34 0 -33 17
-51 48 -48 20 1 22 7 22 59 0 32 -2 58 -5 58 -3 0 -5 -9 -5 -21z m-5 -54 c0
-33 -28 -47 -39 -19 -10 25 3 56 22 52 11 -2 17 -13 17 -33z"/>
<path d="M4080 5465 c0 -25 5 -45 10 -45 6 0 10 20 10 45 0 25 -4 45 -10 45
-5 0 -10 -20 -10 -45z"/>
<path d="M4103 5393 c20 -2 54 -2 75 0 20 2 3 4 -38 4 -41 0 -58 -2 -37 -4z"/>
<path d="M4893 5504 c-7 -3 -13 -21 -13 -40 0 -27 5 -35 24 -40 27 -6 46 1 46
18 0 7 -5 6 -15 -2 -21 -18 -45 -5 -45 25 0 31 24 43 47 24 14 -12 16 -12 11
1 -5 16 -34 23 -55 14z"/>
<path d="M4972 5503 c12 -3 18 -17 21 -46 l4 -42 1 42 c2 30 7 43 20 46 9 3
-1 5 -23 5 -22 0 -32 -2 -23 -5z"/>
<path d="M5050 5496 c-28 -35 11 -93 48 -70 35 22 22 84 -18 84 -10 0 -23 -7
-30 -14z m55 -15 c8 -26 -5 -53 -24 -49 -29 6 -27 68 3 68 8 0 17 -8 21 -19z"/>
<path d="M5140 5465 c0 -53 13 -57 37 -12 l17 32 7 -35 c6 -33 6 -33 8 13 1
53 -9 60 -29 20 l-14 -28 -4 28 c-6 44 -22 31 -22 -18z"/>
<path d="M5241 5463 c2 -46 2 -46 8 -13 l6 35 12 -32 c7 -18 15 -33 18 -33 3
0 11 15 18 33 l12 32 6 -35 c6 -33 6 -32 8 13 1 57 -16 60 -34 6 l-12 -34 -12
38 c-17 51 -31 46 -30 -10z"/>
<path d="M5359 5489 c-13 -26 2 -69 25 -69 33 0 46 13 46 45 0 47 -49 64 -71
24z m56 -8 c8 -26 -5 -53 -24 -49 -29 6 -27 68 3 68 8 0 17 -8 21 -19z"/>
<path d="M5462 5498 c-6 -6 -12 -21 -12 -33 0 -41 45 -60 70 -30 8 9 8 15 2
15 -6 0 -12 -5 -14 -12 -7 -21 -38 0 -38 26 0 31 16 42 37 24 14 -11 16 -11
11 2 -6 19 -40 24 -56 8z"/>
<path d="M5543 5503 c12 -3 17 -15 17 -44 0 -21 5 -39 10 -39 6 0 10 18 10 39
0 29 5 41 18 44 9 3 -3 5 -28 5 -25 0 -37 -2 -27 -5z"/>
<path d="M5620 5464 c0 -45 0 -45 33 -42 24 2 32 8 32 23 0 13 -8 21 -22 23
-15 2 -23 10 -23 23 0 10 -4 19 -10 19 -5 0 -10 -21 -10 -46z m53 -19 c1 -5
-6 -11 -15 -13 -11 -2 -18 3 -18 13 0 17 30 18 33 0z"/>
<path d="M6030 5495 c-9 -10 -9 -15 -1 -15 6 0 11 5 11 10 0 6 9 10 20 10 30
0 24 -17 -11 -29 -45 -15 -36 -46 14 -48 34 -1 37 1 37 27 0 16 -3 35 -6 44
-8 20 -48 21 -64 1z m47 -50 c-4 -8 -13 -15 -22 -15 -21 0 -19 28 3 32 22 5
26 2 19 -17z"/>
<path d="M6123 5503 c12 -3 17 -15 17 -44 0 -21 5 -39 10 -39 6 0 10 18 10 39
0 29 5 41 18 44 9 3 -3 5 -28 5 -25 0 -37 -2 -27 -5z"/>
<path d="M6207 5504 c-4 -4 -7 -12 -7 -18 0 -6 5 -5 12 2 14 14 38 16 38 3 0
-5 -14 -14 -31 -20 -45 -16 -36 -46 14 -47 l38 -1 -3 41 c-3 35 -6 41 -28 44
-14 2 -29 0 -33 -4z m40 -59 c-4 -8 -13 -15 -22 -15 -21 0 -19 28 3 32 22 5
26 2 19 -17z"/>
<path d="M6340 5464 c0 -32 4 -44 13 -41 6 2 12 9 11 15 -1 7 -2 26 -2 42 -3
48 -22 34 -22 -16z"/>
<path d="M6384 5485 c-9 -14 -14 -28 -11 -32 4 -3 10 3 14 13 6 15 9 13 14
-16 6 -33 6 -32 8 13 0 26 -1 47 -4 47 -2 0 -12 -11 -21 -25z"/>
<path d="M6490 5464 c0 -45 0 -45 33 -42 30 3 32 5 30 38 0 19 -1 38 -2 43 -1
4 -14 7 -31 7 -29 0 -30 -2 -30 -46z m50 21 c0 -8 -9 -15 -20 -15 -11 0 -20 7
-20 15 0 8 9 15 20 15 11 0 20 -7 20 -15z m0 -40 c0 -8 -9 -15 -20 -15 -11 0
-20 7 -20 15 0 8 9 15 20 15 11 0 20 -7 20 -15z"/>
<path d="M6581 5445 c1 -33 4 -51 6 -39 3 16 10 20 28 16 19 -3 27 2 36 21 17
37 -3 68 -41 65 -30 -2 -30 -3 -29 -63z m54 20 c0 -33 -28 -47 -39 -19 -10 25
3 56 22 52 11 -2 17 -13 17 -33z"/>
<path d="M6679 5489 c-13 -26 2 -69 25 -69 23 0 46 11 46 22 0 6 -6 5 -15 -2
-16 -13 -45 -7 -45 10 0 5 14 10 30 10 31 0 39 17 18 38 -19 19 -46 14 -59 -9z
m55 -4 c4 -11 -1 -15 -19 -15 -24 0 -32 10 -18 23 11 12 31 8 37 -8z"/>
<path d="M6770 5465 c0 -48 19 -64 21 -17 l1 27 10 -27 c9 -25 28 -39 28 -20
0 4 3 18 6 32 6 24 6 24 -9 6 -14 -19 -15 -19 -22 12 -11 50 -35 41 -35 -13z"/>
<path d="M6844 5488 c3 -13 6 -33 6 -45 0 -13 5 -23 10 -23 6 0 10 20 10 45 0
35 -4 45 -16 45 -12 0 -15 -6 -10 -22z"/>
<path d="M6893 5493 c-4 -9 -1 -19 5 -21 9 -3 9 -9 1 -24 -6 -11 -8 -22 -6
-25 3 -2 10 5 17 16 14 28 38 27 43 -1 2 -13 5 -2 6 25 1 46 0 47 -29 47 -20
0 -33 -6 -37 -17z m57 -8 c0 -16 -35 -21 -44 -6 -8 12 4 21 26 21 10 0 18 -7
18 -15z"/>
<path d="M7388 5565 c-2 -27 1 -44 7 -42 5 2 11 20 13 40 2 28 8 37 22 37 15
0 20 -9 23 -42 l4 -43 1 48 2 47 -34 0 c-33 0 -34 -1 -38 -45z"/>
<path d="M7503 5603 c-19 -7 -16 -70 3 -77 29 -11 44 -6 55 18 20 43 -14 77
-58 59z m42 -38 c0 -39 -31 -48 -41 -11 -7 30 2 48 24 44 11 -2 17 -13 17 -33z"/>
<path d="M7592 5563 l1 -48 4 42 c3 33 8 43 26 46 18 4 17 5 -5 6 -27 1 -28
-1 -26 -46z"/>
<path d="M7650 5565 c0 -53 13 -57 37 -12 l17 32 7 -35 c6 -33 6 -33 8 13 1
53 -9 60 -29 20 l-14 -28 -4 28 c-6 44 -22 31 -22 -18z"/>
<path d="M7753 5565 c0 -27 2 -40 4 -27 6 29 43 31 43 2 0 -11 5 -20 10 -20 6
0 10 20 10 45 0 25 -4 45 -10 45 -5 0 -10 -9 -10 -20 0 -29 -37 -27 -43 3 -2
12 -4 0 -4 -28z"/>
<path d="M7470 5344 c0 -32 4 -44 13 -41 6 2 12 9 11 15 -1 7 -2 26 -2 42 -3
48 -22 34 -22 -16z"/>
<path d="M7514 5365 c-9 -14 -14 -28 -11 -32 4 -3 10 3 14 13 6 15 9 13 14
-16 6 -33 6 -32 8 13 0 26 -1 47 -4 47 -2 0 -12 -11 -21 -25z"/>
<path d="M7583 5383 c-7 -2 -13 -20 -13 -39 0 -27 5 -35 24 -40 27 -6 46 1 46
18 0 7 -5 6 -15 -2 -16 -13 -45 -7 -45 10 0 5 16 10 35 10 38 0 40 2 25 31
-10 18 -31 23 -57 12z m45 -20 c2 -8 -6 -13 -22 -13 -19 0 -24 4 -19 15 6 18
34 16 41 -2z"/>
<path d="M7673 5345 c0 -27 2 -40 4 -27 6 29 43 31 43 2 0 -11 5 -20 10 -20 6
0 10 20 10 45 0 25 -4 45 -10 45 -5 0 -10 -9 -10 -20 0 -29 -37 -27 -43 3 -2
12 -4 0 -4 -28z"/>
<path d="M7763 5383 c12 -3 17 -15 17 -44 0 -21 5 -39 10 -39 6 0 10 18 10 39
0 29 5 41 18 44 9 3 -3 5 -28 5 -25 0 -37 -2 -27 -5z"/>
<path d="M7847 5384 c-15 -15 -6 -24 13 -12 14 9 22 10 31 1 8 -8 3 -13 -21
-18 -25 -5 -31 -11 -28 -28 2 -18 10 -22 39 -23 l35 -2 -5 42 c-5 35 -10 41
-31 44 -14 2 -29 0 -33 -4z m53 -41 c-1 -19 -19 -35 -34 -30 -21 8 -20 24 2
30 28 7 32 7 32 0z"/>
<path d="M8650 5617 c-33 -16 -34 -58 -2 -72 12 -5 22 -13 22 -18 0 -4 12 3
26 16 29 27 29 53 -1 73 -16 11 -25 11 -45 1z m20 -37 c0 -33 -11 -38 -30 -15
-10 12 -10 18 0 30 19 23 30 18 30 -15z m35 0 c0 -13 -6 -25 -12 -27 -9 -3
-13 6 -13 27 0 21 4 30 13 28 6 -3 12 -15 12 -28z"/>
<path d="M8742 5578 c-1 -32 1 -58 6 -58 4 0 18 19 32 43 l25 42 6 -45 6 -45
1 58 c1 31 -2 57 -6 57 -5 0 -19 -19 -33 -42 l-24 -43 -6 45 -6 45 -1 -57z"/>
<path d="M8851 5616 c-7 -8 -11 -30 -9 -48 6 -64 98 -58 98 7 0 44 -63 73 -89
41z m70 -17 c8 -16 8 -28 0 -45 -18 -41 -71 -25 -71 21 0 44 50 61 71 24z"/>
<path d="M8493 5340 c0 -25 2 -35 4 -22 3 13 12 22 23 22 11 0 20 -9 23 -22 2
-13 4 -3 4 22 1 25 -1 37 -4 28 -2 -10 -13 -18 -23 -18 -10 0 -21 8 -23 18 -3
9 -5 -3 -4 -28z"/>
<path d="M8574 5366 c-16 -41 20 -86 47 -59 6 6 1 9 -13 9 -18 -1 -23 4 -23
24 0 19 5 25 22 24 12 0 20 3 17 8 -8 13 -44 9 -50 -6z"/>
<path d="M8718 5340 c-2 -22 0 -40 4 -40 5 0 8 16 8 35 0 28 4 35 19 35 15 0
21 -8 24 -37 l4 -38 1 43 c2 40 1 42 -27 42 -26 0 -29 -3 -33 -40z"/>
<path d="M8801 5342 c-1 -42 0 -43 27 -40 34 4 39 41 5 46 -12 2 -24 11 -26
20 -3 9 -5 -2 -6 -26z m42 -17 c1 -5 -6 -11 -15 -13 -11 -2 -18 3 -18 13 0 17
30 18 33 0z"/>
<path d="M8862 5373 c11 -3 18 -17 21 -41 l4 -37 1 37 c1 25 7 38 20 41 9 3
-1 5 -23 5 -22 0 -32 -2 -23 -5z"/>
<path d="M8930 5371 c0 -6 7 -8 15 -5 31 12 37 -9 5 -22 -39 -17 -35 -39 9
-40 31 -1 32 0 29 35 -3 31 -7 36 -30 39 -16 2 -28 -1 -28 -7z m44 -46 c-6
-16 -34 -21 -34 -7 0 13 11 22 26 22 8 0 11 -6 8 -15z"/>
<path d="M9013 5340 c0 -25 2 -35 4 -22 3 13 12 22 23 22 11 0 20 -9 23 -22 2
-13 4 -3 4 22 1 25 -1 37 -4 28 -2 -10 -13 -18 -23 -18 -10 0 -21 8 -23 18 -3
9 -5 -3 -4 -28z"/>
<path d="M11601 5150 c-1 -8 -11 -20 -23 -25 -31 -13 -31 -56 -1 -70 12 -5 24
-16 27 -25 2 -9 4 -7 5 6 1 15 7 20 24 20 19 -1 22 4 22 34 0 28 -4 35 -20 35
-11 0 -23 9 -27 20 -4 13 -6 14 -7 5z m-1 -60 c0 -20 -5 -30 -15 -30 -10 0
-15 10 -15 30 0 20 5 30 15 30 10 0 15 -10 15 -30z m45 0 c0 -27 -20 -38 -28
-15 -8 20 3 47 17 42 6 -2 11 -14 11 -27z"/>
<path d="M11252 5123 c11 -3 18 -17 21 -41 l4 -37 1 37 c1 25 7 38 20 41 9 3
-1 5 -23 5 -22 0 -32 -2 -23 -5z"/>
<path d="M11322 5118 c-16 -16 -15 -43 1 -56 6 -5 29 -10 50 -10 35 0 37 1 37
34 0 24 5 34 15 34 10 0 15 -11 15 -35 0 -19 5 -35 10 -35 6 0 10 18 10 40 0
38 -2 40 -30 40 -27 0 -30 -3 -30 -33 0 -32 -2 -34 -35 -35 -25 -1 -35 3 -35
13 0 9 10 15 26 15 19 0 25 5 22 18 -4 21 -39 27 -56 10z m43 -8 c3 -5 -3 -10
-14 -10 -12 0 -21 5 -21 10 0 6 6 10 14 10 8 0 18 -4 21 -10z"/>
<path d="M11482 5118 c-15 -15 -15 -41 0 -56 14 -14 44 -16 52 -3 3 4 -6 6
-19 3 -18 -3 -25 0 -25 12 0 11 9 16 26 16 19 0 25 5 22 18 -4 21 -39 27 -56
10z m43 -8 c3 -5 -3 -10 -14 -10 -12 0 -21 5 -21 10 0 6 6 10 14 10 8 0 18 -4
21 -10z"/>
<path d="M11682 5118 c-27 -27 -3 -73 35 -66 27 5 25 72 -2 76 -11 1 -26 -3
-33 -10z m43 -28 c0 -16 -6 -26 -17 -28 -14 -3 -18 3 -18 28 0 25 4 31 18 28
11 -2 17 -12 17 -28z"/>
<path d="M11763 5090 c0 -25 2 -35 4 -22 3 13 12 22 23 22 11 0 20 -9 23 -22
2 -13 4 -3 4 22 1 25 -1 37 -4 28 -2 -10 -13 -18 -23 -18 -10 0 -21 8 -23 18
-3 9 -5 -3 -4 -28z"/>
<path d="M1150 5025 c0 -25 5 -45 10 -45 6 0 10 18 10 40 0 33 3 40 19 40 16
0 21 -8 24 -42 l4 -43 1 48 2 47 -35 0 c-35 0 -35 0 -35 -45z"/>
<path d="M1257 5064 c-4 -4 -7 -12 -7 -18 0 -6 5 -5 12 2 14 14 38 16 38 3 0
-5 -14 -14 -31 -20 -45 -16 -36 -46 14 -47 l38 -1 -3 41 c-3 35 -6 41 -28 44
-14 2 -29 0 -33 -4z m40 -59 c-4 -8 -13 -15 -22 -15 -21 0 -19 28 3 32 22 5
26 2 19 -17z"/>
<path d="M1340 5010 c0 -33 4 -60 10 -60 6 0 10 7 10 15 0 8 9 15 20 15 12 0
25 10 31 24 16 35 -3 66 -41 66 -30 0 -30 0 -30 -60z m55 14 c0 -19 -6 -30
-16 -32 -20 -4 -30 28 -17 52 14 25 33 14 33 -20z"/>
<path d="M1453 5063 c-19 -7 -16 -70 3 -77 29 -11 44 -6 55 18 20 43 -14 77
-58 59z m42 -38 c0 -39 -31 -48 -41 -11 -7 30 2 48 24 44 11 -2 17 -13 17 -33z"/>
<path d="M1540 5031 c0 -22 -5 -42 -12 -44 -8 -3 -6 -6 5 -6 13 -1 17 7 17 39
0 33 3 40 20 40 17 0 20 -7 20 -40 0 -22 5 -40 10 -40 6 0 10 20 10 45 0 45 0
45 -35 45 -34 0 -35 -1 -35 -39z"/>
<path d="M1641 5028 c-1 -44 1 -48 23 -48 31 0 50 22 34 38 -7 7 -20 12 -29
12 -10 0 -19 10 -22 23 -2 12 -5 1 -6 -25z m49 -23 c0 -8 -9 -15 -20 -15 -11
0 -20 7 -20 15 0 8 9 15 20 15 11 0 20 -7 20 -15z"/>
<path d="M11362 4658 l1 -43 4 38 c6 50 33 52 33 2 0 -19 5 -35 10 -35 6 0 10
18 10 40 0 38 -2 40 -30 40 -29 0 -30 -2 -28 -42z"/>
<path d="M11442 4688 c-27 -27 -3 -73 35 -66 27 5 25 72 -2 76 -11 1 -26 -3
-33 -10z m43 -28 c0 -15 -6 -26 -16 -28 -19 -3 -31 21 -22 43 9 25 38 13 38
-15z"/>
<path d="M11514 4675 c1 -13 9 -21 23 -23 12 -2 24 -11 26 -20 3 -9 5 3 4 28
0 25 -2 35 -4 23 -5 -27 -40 -31 -46 -5 -3 13 -4 12 -3 -3z"/>
<path d="M11588 4693 c6 -2 12 -20 12 -39 0 -19 5 -34 10 -34 6 0 10 15 10 34
0 19 6 37 13 39 6 3 -4 5 -23 5 -19 0 -29 -2 -22 -5z"/>
<path d="M11656 4691 c-3 -4 6 -6 19 -3 33 6 32 -14 -1 -22 -36 -9 -28 -41 11
-43 29 -1 30 0 27 38 -4 33 -8 39 -27 39 -13 0 -26 -4 -29 -9z m44 -41 c0 -13
-28 -25 -38 -16 -3 4 0 11 8 16 20 13 30 12 30 0z"/>
<path d="M1511 4653 c-1 -16 -6 -21 -16 -17 -21 8 -45 -14 -45 -41 0 -27 24
-49 44 -42 10 4 16 -2 19 -16 l4 -22 2 22 c1 16 6 20 21 16 14 -4 23 2 31 20
15 32 -4 71 -31 64 -13 -3 -20 1 -23 17 -4 21 -4 21 -6 -1z m-6 -42 c7 -23 -4
-53 -19 -48 -18 6 -20 67 -2 67 8 0 17 -8 21 -19z m50 -17 c0 -19 -5 -29 -15
-29 -16 0 -25 28 -16 51 10 25 31 10 31 -22z"/>
<path d="M1092 4633 c12 -3 18 -17 21 -46 l4 -42 1 42 c2 30 7 43 20 46 9 3
-1 5 -23 5 -22 0 -32 -2 -23 -5z"/>
<path d="M1172 4628 c-7 -7 -12 -21 -12 -33 0 -41 45 -60 70 -30 8 9 8 15 2
15 -6 0 -12 -5 -14 -12 -5 -14 -38 -4 -38 12 0 5 14 10 30 10 18 0 30 5 30 13
0 18 -21 37 -40 37 -9 0 -21 -5 -28 -12z m52 -13 c4 -11 -1 -15 -19 -15 -24 0
-32 10 -18 23 11 12 31 8 37 -8z"/>
<path d="M1258 4595 c-2 -27 1 -44 7 -42 5 2 11 20 13 40 2 28 8 37 22 37 15
0 20 -9 23 -42 l4 -43 1 48 2 47 -34 0 c-33 0 -34 -1 -38 -45z"/>
<path d="M1359 4619 c-13 -26 2 -69 25 -69 23 0 46 11 46 22 0 6 -6 5 -15 -2
-16 -13 -45 -7 -45 10 0 5 14 10 30 10 31 0 39 17 18 38 -19 19 -46 14 -59 -9z
m55 -4 c4 -11 -1 -15 -19 -15 -24 0 -32 10 -18 23 11 12 31 8 37 -8z"/>
<path d="M1599 4619 c-13 -26 2 -69 25 -69 33 0 46 13 46 45 0 47 -49 64 -71
24z m56 -8 c8 -26 -5 -53 -24 -49 -29 6 -27 68 3 68 8 0 17 -8 21 -19z"/>
<path d="M1703 4595 c0 -27 2 -40 4 -27 6 29 43 31 43 2 0 -11 5 -20 10 -20 6
0 10 20 10 45 0 25 -4 45 -10 45 -5 0 -10 -9 -10 -20 0 -29 -37 -27 -43 3 -2
12 -4 0 -4 -28z"/>
<path d="M3180 4170 c0 -33 4 -60 10 -60 6 0 10 14 10 30 0 38 10 38 32 0 9
-17 22 -30 28 -30 10 0 -16 49 -33 61 -4 3 4 18 17 32 18 19 21 27 10 27 -8 0
-20 -11 -26 -25 -6 -14 -15 -25 -20 -25 -4 0 -8 11 -8 25 0 14 -4 25 -10 25
-6 0 -10 -27 -10 -60z"/>
<path d="M3288 4155 c-2 -27 1 -44 7 -42 5 2 11 20 13 40 2 28 8 37 22 37 15
0 20 -9 23 -42 l4 -43 1 48 2 47 -34 0 c-33 0 -34 -1 -38 -45z"/>
<path d="M3391 4158 c0 -27 3 -48 7 -48 11 0 35 51 28 58 -3 3 -9 -4 -13 -14
-6 -15 -9 -13 -14 16 -6 33 -6 32 -8 -12z"/>
<path d="M3437 4193 c-7 -13 5 -83 14 -83 5 0 9 20 9 45 0 40 -11 58 -23 38z"/>
<path d="M3492 4188 c-7 -7 -12 -21 -12 -33 0 -41 45 -60 70 -30 15 18 7 19
-20 3 -17 -11 -22 -10 -30 2 -8 12 -3 16 25 18 20 2 35 9 35 16 0 17 -21 36
-40 36 -9 0 -21 -5 -28 -12z m46 -15 c2 -8 -6 -13 -22 -13 -19 0 -24 4 -19 15
6 18 34 16 41 -2z"/>
<path d="M3580 4155 c0 -25 5 -45 10 -45 6 0 10 9 10 20 0 29 37 27 43 -2 2
-13 4 0 4 27 0 28 -2 40 -4 28 -6 -30 -43 -32 -43 -3 0 11 -4 20 -10 20 -5 0
-10 -20 -10 -45z"/>
<path d="M3682 4193 c12 -3 18 -17 21 -46 l4 -42 1 42 c2 30 7 43 20 46 9 3
-1 5 -23 5 -22 0 -32 -2 -23 -5z"/>
<path d="M5257 4202 c-22 -24 -21 -55 1 -75 39 -35 82 -15 82 38 0 17 -5 36
-12 43 -18 18 -53 15 -71 -6z m61 -4 c16 -16 15 -53 -3 -68 -33 -28 -71 12
-54 58 9 24 38 29 57 10z"/>
<path d="M5401 4210 c-1 -8 -11 -20 -23 -25 -31 -13 -31 -56 -1 -70 12 -5 24
-16 27 -25 2 -9 4 -7 5 6 1 15 7 20 24 20 19 -1 22 4 22 34 0 28 -4 35 -20 35
-11 0 -23 9 -27 20 -4 13 -6 14 -7 5z m-1 -60 c0 -20 -5 -30 -15 -30 -10 0
-15 10 -15 30 0 20 5 30 15 30 10 0 15 -10 15 -30z m45 0 c0 -27 -20 -38 -28
-15 -8 20 3 47 17 42 6 -2 11 -14 11 -27z"/>
<path d="M5482 4178 c-27 -27 -3 -73 35 -66 27 5 25 72 -2 76 -11 1 -26 -3
-33 -10z m43 -28 c0 -16 -6 -26 -17 -28 -14 -3 -18 3 -18 28 0 25 4 31 18 28
11 -2 17 -12 17 -28z"/>
<path d="M5561 4133 c1 -32 3 -50 6 -41 2 9 14 18 26 20 18 2 22 10 22 38 0
31 -3 35 -27 38 -28 3 -28 3 -27 -55z m44 17 c0 -13 -6 -25 -12 -27 -16 -6
-27 21 -19 43 9 23 31 11 31 -16z"/>
<path d="M5641 4148 c2 -35 3 -37 6 -13 l5 30 13 -30 13 -30 12 30 13 30 7
-30 c7 -28 8 -27 9 13 1 50 -10 54 -31 10 l-15 -33 -7 33 c-11 46 -26 40 -25
-10z"/>
<path d="M5738 4150 c-4 -40 5 -53 16 -24 3 9 6 24 6 35 0 37 29 21 33 -18 l4
-38 1 43 c2 40 1 42 -27 42 -26 0 -29 -3 -33 -40z"/>
<path d="M5823 4173 c-4 -10 -1 -19 6 -21 9 -3 8 -9 -5 -23 -10 -12 -13 -19
-5 -19 6 0 14 7 17 15 8 21 32 19 37 -2 3 -10 5 1 6 25 1 39 -1 42 -24 42 -15
0 -28 -7 -32 -17z m47 -9 c0 -9 -7 -14 -17 -12 -25 5 -28 28 -4 28 12 0 21 -6
21 -16z"/>
<path d="M5901 4168 c-5 -13 -5 -31 1 -40 9 -18 43 -24 52 -10 3 5 -4 8 -16 8
-12 -1 -23 5 -25 12 -3 8 6 12 26 12 33 0 39 8 19 28 -19 19 -48 14 -57 -10z
m49 2 c0 -5 -9 -10 -21 -10 -11 0 -17 5 -14 10 3 6 13 10 21 10 8 0 14 -4 14
-10z"/>
<path d="M5978 4183 c6 -2 12 -20 12 -39 0 -19 5 -34 10 -34 6 0 10 15 10 34
0 19 6 37 13 39 6 3 -4 5 -23 5 -19 0 -29 -2 -22 -5z"/>
<path d="M7150 4165 l0 -225 660 0 660 0 0 225 0 225 -660 0 -660 0 0 -225z
m1310 5 l0 -210 -645 0 -645 0 0 210 0 210 645 0 645 0 0 -210z"/>
<path d="M7602 4218 c-19 -19 -14 -33 6 -15 25 23 42 21 42 -3 0 -12 -7 -20
-17 -21 -14 0 -13 -2 5 -9 12 -5 22 -16 22 -25 0 -21 -29 -31 -51 -16 -11 6
-19 7 -19 2 0 -14 37 -23 60 -16 22 7 29 55 8 55 -9 0 -8 4 2 10 12 7 12 13 4
27 -14 22 -45 28 -62 11z"/>
<path d="M7700 4185 c-9 -10 -9 -15 -1 -15 6 0 11 5 11 10 0 6 9 10 20 10 30
0 24 -17 -11 -29 -45 -15 -36 -46 14 -48 34 -1 37 1 37 27 0 16 -3 35 -6 44
-8 20 -48 21 -64 1z m47 -50 c-4 -8 -13 -15 -22 -15 -21 0 -19 28 3 32 22 5
26 2 19 -17z"/>
<path d="M7790 4155 c0 -47 15 -62 22 -22 5 31 -2 67 -13 67 -5 0 -9 -20 -9
-45z"/>
<path d="M7826 4184 c-10 -25 1 -29 14 -5 6 12 7 21 1 21 -5 0 -12 -7 -15 -16z"/>
<path d="M7880 4185 c-7 -9 -8 -15 -2 -15 6 0 12 5 14 12 3 7 12 9 24 4 17 -7
15 -9 -14 -22 -46 -19 -41 -48 9 -50 l35 -2 -5 42 c-5 32 -11 42 -27 44 -11 2
-27 -4 -34 -13z m50 -40 c0 -19 -24 -30 -41 -19 -9 5 -7 11 6 21 24 17 35 17
35 -2z"/>
<path d="M7970 4185 c-8 -10 -9 -15 -1 -15 6 0 11 5 11 10 0 6 7 10 15 10 18
0 20 -26 3 -33 -10 -4 -10 -6 0 -6 17 -1 15 -31 -3 -31 -8 0 -15 5 -15 10 0 6
-4 10 -10 10 -5 0 -7 -7 -4 -15 8 -19 50 -20 57 -1 9 22 -8 71 -25 74 -8 2
-21 -4 -28 -13z"/>
<path d="M7820 4142 c0 -5 7 -15 15 -22 8 -7 15 -8 15 -2 0 5 -7 15 -15 22 -8
7 -15 8 -15 2z"/>
<path d="M9061 4206 c-7 -8 -11 -30 -9 -48 6 -64 98 -58 98 7 0 44 -63 73 -89
41z m70 -17 c8 -16 8 -28 0 -45 -18 -41 -71 -25 -71 21 0 44 50 61 71 24z"/>
<path d="M9173 4213 c-15 -5 -17 -71 -4 -91 11 -18 41 -12 55 11 15 23 -4 52
-33 51 -31 -1 -20 20 15 27 26 6 27 7 4 7 -14 0 -31 -2 -37 -5z m42 -43 c10
-16 -5 -50 -21 -50 -17 0 -28 24 -20 45 6 17 32 20 41 5z"/>
<path d="M9252 4178 c-30 -30 -4 -69 44 -66 33 2 44 13 44 46 0 39 28 26 33
-15 l4 -38 1 43 c2 40 1 42 -28 42 -27 0 -30 -3 -30 -32 0 -29 -3 -33 -29 -35
-31 -2 -45 15 -34 43 3 9 13 14 24 11 11 -3 19 -1 19 4 0 13 -34 11 -48 -3z"/>
<path d="M9408 4145 c15 -40 15 -47 2 -56 -13 -9 -13 -10 0 -6 15 4 55 95 45
105 -3 3 -10 -10 -17 -29 l-12 -34 -8 33 c-5 17 -13 32 -18 32 -5 0 -1 -20 8
-45z"/>
<path d="M9476 4175 c4 -8 11 -15 16 -15 6 0 5 6 -2 15 -7 8 -14 15 -16 15 -2
0 -1 -7 2 -15z"/>
<path d="M9511 4180 c0 -9 -10 -23 -21 -33 -11 -9 -20 -22 -20 -29 0 -7 9 -2
20 12 l20 25 1 -25 1 -25 7 25 7 25 12 -22 c7 -13 21 -23 32 -23 16 0 18 5 13
38 -8 51 -13 53 -13 6 -1 -36 -2 -38 -15 -20 -10 14 -12 24 -4 40 9 19 9 19
-4 4 -8 -10 -17 -18 -20 -18 -3 0 -8 8 -10 18 -4 13 -5 13 -6 2z"/>
<path d="M9616 4182 c-2 -4 -1 -23 4 -42 l8 -35 1 43 c1 41 -3 50 -13 34z"/>
<path d="M9650 4151 c0 -39 2 -41 30 -41 29 0 30 2 28 38 -3 32 -7 37 -31 40
-25 3 -27 1 -27 -37z m50 19 c0 -5 -9 -10 -20 -10 -11 0 -20 5 -20 10 0 6 9
10 20 10 11 0 20 -4 20 -10z m0 -35 c0 -8 -9 -15 -20 -15 -11 0 -20 7 -20 15
0 8 9 15 20 15 11 0 20 -7 20 -15z"/>
<path d="M9736 4181 c-3 -4 6 -6 19 -3 33 6 32 -14 0 -22 -16 -4 -25 -13 -25
-26 0 -15 7 -19 33 -18 31 1 32 2 29 40 -4 32 -8 38 -27 38 -13 0 -26 -4 -29
-9z m44 -41 c0 -13 -28 -25 -38 -16 -3 4 0 11 8 16 20 13 30 12 30 0z"/>
<path d="M9811 4168 c-5 -13 -5 -31 1 -40 9 -18 43 -24 52 -10 3 5 -4 8 -16 8
-12 -1 -23 5 -25 12 -3 8 6 12 26 12 33 0 39 8 19 28 -19 19 -48 14 -57 -10z
m49 2 c0 -5 -9 -10 -21 -10 -11 0 -17 5 -14 10 3 6 13 10 21 10 8 0 14 -4 14
-10z"/>
<path d="M9888 4183 c6 -2 12 -20 12 -39 0 -19 5 -34 10 -34 6 0 10 15 10 34
0 19 6 37 13 39 6 3 -4 5 -23 5 -19 0 -29 -2 -22 -5z"/>
<path d="M9597 4153 c-4 -3 -7 -11 -7 -17 0 -6 5 -5 12 2 6 6 9 14 7 17 -3 3
-9 2 -12 -2z"/>
<path d="M1210 4155 c0 -25 5 -45 10 -45 6 0 10 18 10 40 0 33 3 40 19 40 16
0 21 -8 24 -42 l4 -43 1 48 2 47 -35 0 c-35 0 -35 0 -35 -45z"/>
<path d="M1309 4179 c-13 -26 2 -69 25 -69 33 0 46 13 46 45 0 47 -49 64 -71
24z m56 -8 c8 -26 -5 -53 -24 -49 -29 6 -27 68 3 68 8 0 17 -8 21 -19z"/>
<path d="M1390 4189 c0 -23 22 -49 40 -49 11 0 20 -7 20 -15 0 -8 5 -15 10
-15 6 0 10 20 10 45 0 25 -4 45 -10 45 -5 0 -10 -12 -10 -26 0 -33 -33 -30
-38 4 -3 22 -22 32 -22 11z"/>
<path d="M1493 4193 c12 -3 17 -15 17 -44 0 -21 5 -39 10 -39 6 0 10 18 10 39
0 29 5 41 18 44 9 3 -3 5 -28 5 -25 0 -37 -2 -27 -5z"/>
<path d="M1577 4194 c-4 -4 -7 -12 -7 -18 0 -6 5 -5 12 2 14 14 38 16 38 3 0
-5 -14 -14 -31 -20 -45 -16 -36 -46 14 -47 l38 -1 -3 41 c-3 35 -6 41 -28 44
-14 2 -29 0 -33 -4z m40 -59 c-4 -8 -13 -15 -22 -15 -21 0 -19 28 3 32 22 5
26 2 19 -17z"/>
<path d="M1050 3725 c0 -47 15 -62 22 -22 5 31 -2 67 -13 67 -5 0 -9 -20 -9
-45z"/>
<path d="M1086 3754 c-10 -25 1 -29 14 -5 6 12 7 21 1 21 -5 0 -12 -7 -15 -16z"/>
<path d="M1143 3763 c-19 -7 -16 -70 3 -77 29 -11 44 -6 55 18 20 43 -14 77
-58 59z m42 -38 c0 -39 -31 -48 -41 -11 -7 30 2 48 24 44 11 -2 17 -13 17 -33z"/>
<path d="M1231 3723 c2 -46 2 -46 8 -13 l6 35 12 -32 c7 -18 15 -33 18 -33 3
0 11 15 18 33 l12 32 6 -35 c6 -33 6 -32 8 13 1 57 -16 60 -34 6 l-12 -34 -12
38 c-17 51 -31 46 -30 -10z"/>
<path d="M1352 3723 l1 -48 4 43 c3 34 8 42 24 42 16 0 19 -7 19 -40 0 -22 5
-40 10 -40 6 0 10 20 10 45 0 45 0 45 -35 45 l-35 0 2 -47z"/>
<path d="M1447 3764 c-15 -15 -6 -24 13 -12 14 9 22 10 31 1 8 -8 3 -13 -21
-18 -25 -5 -31 -11 -28 -28 2 -18 10 -22 39 -23 l35 -2 -5 42 c-5 35 -10 41
-31 44 -14 2 -29 0 -33 -4z m53 -41 c-1 -19 -19 -35 -34 -30 -21 8 -20 24 2
30 28 7 32 7 32 0z"/>
<path d="M1543 3725 c0 -27 2 -40 4 -27 6 29 43 31 43 2 0 -11 5 -20 10 -20 6
0 10 20 10 45 0 25 -4 45 -10 45 -5 0 -10 -9 -10 -20 0 -29 -37 -27 -43 3 -2
12 -4 0 -4 -28z"/>
<path d="M1641 3728 c0 -27 3 -48 7 -48 11 0 35 51 28 58 -3 3 -9 -4 -13 -14
-6 -15 -9 -13 -14 16 -6 33 -6 32 -8 -12z"/>
<path d="M1687 3763 c-7 -13 5 -83 14 -83 5 0 9 20 9 45 0 40 -11 58 -23 38z"/>
<path d="M1733 3753 c-4 -10 -1 -19 6 -21 9 -3 8 -10 -4 -28 -8 -13 -11 -24
-6 -24 6 0 15 9 21 20 6 11 15 20 20 20 6 0 10 -9 10 -20 0 -11 5 -20 10 -20
6 0 10 20 10 45 0 43 -1 45 -30 45 -20 0 -33 -6 -37 -17z m47 -8 c0 -8 -6 -15
-14 -15 -17 0 -28 14 -19 24 12 12 33 6 33 -9z"/>
<path d="M1080 3712 c0 -5 7 -15 15 -22 8 -7 15 -8 15 -2 0 5 -7 15 -15 22 -8
7 -15 8 -15 2z"/>
<path d="M9690 3369 c0 -11 -5 -17 -10 -14 -22 13 -50 -6 -50 -34 0 -33 17
-51 48 -48 20 1 22 7 22 59 0 32 -2 58 -5 58 -3 0 -5 -9 -5 -21z m-5 -54 c0
-33 -28 -47 -39 -19 -10 25 3 56 22 52 11 -2 17 -13 17 -33z"/>
<path d="M9603 3315 c0 -27 2 -38 4 -22 2 15 2 37 0 50 -2 12 -4 0 -4 -28z"/>
<path d="M9780 3345 c-8 -10 -9 -15 -1 -15 6 0 11 5 11 10 0 6 7 10 15 10 18
0 20 -26 3 -33 -10 -4 -10 -6 0 -6 17 -1 15 -31 -3 -31 -8 0 -15 5 -15 10 0 6
-4 10 -10 10 -5 0 -7 -7 -4 -15 8 -19 50 -20 57 -1 9 22 -8 71 -25 74 -8 2
-21 -4 -28 -13z"/>
<path d="M9867 3354 c-4 -4 -7 -12 -7 -18 0 -6 5 -5 12 2 14 14 38 16 38 3 0
-5 -14 -14 -31 -20 -45 -16 -36 -46 14 -47 l38 -1 -3 41 c-3 35 -6 41 -28 44
-14 2 -29 0 -33 -4z m40 -59 c-4 -8 -13 -15 -22 -15 -21 0 -19 28 3 32 22 5
26 2 19 -17z"/>
<path d="M9962 3315 c0 -37 2 -43 7 -25 l7 25 12 -22 c7 -13 17 -23 23 -23 6
0 3 10 -5 21 -15 22 -11 48 8 61 8 5 7 8 -1 8 -7 0 -18 -10 -25 -22 l-12 -23
-7 25 c-5 18 -7 12 -7 -25z"/>
<path d="M10040 3345 c-9 -10 -9 -15 -1 -15 6 0 11 5 11 10 0 6 9 10 20 10 30
0 24 -17 -11 -29 -45 -15 -36 -46 14 -48 34 -1 37 1 37 27 0 16 -3 35 -6 44
-8 20 -48 21 -64 1z m47 -50 c-4 -8 -13 -15 -22 -15 -21 0 -19 28 3 32 22 5
26 2 19 -17z"/>
<path d="M10137 3354 c-4 -4 -7 -12 -7 -18 0 -6 5 -5 12 2 16 16 28 15 28 -3
0 -8 -5 -15 -12 -15 -6 0 -4 -6 7 -13 13 -11 15 -16 6 -22 -7 -4 -18 -2 -24 4
-17 17 -31 13 -17 -4 7 -9 23 -15 34 -13 17 2 21 10 21 43 0 33 -4 41 -20 43
-12 2 -24 0 -28 -4z"/>
<path d="M10217 3354 c-15 -15 -6 -24 13 -12 14 9 22 10 31 1 8 -8 3 -13 -21
-18 -25 -5 -31 -11 -28 -28 2 -18 10 -22 39 -23 l35 -2 -5 42 c-5 35 -10 41
-31 44 -14 2 -29 0 -33 -4z m53 -41 c-1 -19 -19 -35 -34 -30 -21 8 -20 24 2
30 28 7 32 7 32 0z"/>
<path d="M1302 3369 c-7 -23 -10 -44 -7 -47 3 -3 5 0 5 6 0 16 47 15 54 0 4
-7 4 -2 1 12 -2 14 -5 35 -5 48 0 40 -34 27 -48 -19z m38 6 c0 -16 -6 -25 -16
-25 -11 0 -14 5 -10 16 3 9 6 20 6 25 0 5 5 9 10 9 6 0 10 -11 10 -25z"/>
<path d="M1380 3401 c0 -6 7 -8 15 -5 8 4 15 2 15 -4 0 -5 -9 -12 -21 -15 -29
-8 -18 -32 15 -33 24 -1 27 2 24 30 -2 23 -9 32 -25 34 -13 2 -23 -1 -23 -7z
m30 -41 c0 -5 -4 -10 -10 -10 -5 0 -10 5 -10 10 0 6 5 10 10 10 6 0 10 -4 10
-10z"/>
<path d="M1447 3402 c6 -4 13 -21 16 -37 l4 -30 2 32 c0 17 7 34 14 36 6 3 -1
6 -18 6 -16 0 -25 -3 -18 -7z"/>
<path d="M1510 3401 c0 -6 7 -8 15 -5 8 4 15 2 15 -4 0 -5 -9 -12 -21 -15 -29
-8 -19 -31 15 -35 26 -3 27 -1 24 30 -2 25 -8 34 -25 36 -13 2 -23 -1 -23 -7z
m30 -41 c0 -5 -4 -10 -10 -10 -5 0 -10 5 -10 10 0 6 5 10 10 10 6 0 10 -4 10
-10z"/>
<path d="M1134 3186 c-15 -39 23 -74 50 -46 8 9 6 11 -11 6 -12 -4 -24 -2 -28
4 -4 6 4 10 19 10 28 0 33 9 14 28 -16 16 -37 15 -44 -2z m36 -6 c0 -5 -7 -10
-16 -10 -8 0 -12 5 -9 10 3 6 10 10 16 10 5 0 9 -4 9 -10z"/>
<path d="M1202 3163 c1 -37 1 -37 5 -6 3 19 11 34 21 36 12 3 10 5 -5 6 -20 1
-23 -3 -21 -36z"/>
<path d="M1252 3165 l-1 -40 19 23 19 22 4 -22 c2 -13 5 -6 5 17 1 37 0 39
-13 21 -8 -11 -16 -25 -16 -30 -1 -6 -5 3 -9 19 -7 29 -8 28 -8 -10z"/>
<path d="M1329 3184 c-22 -27 19 -70 43 -46 8 8 5 9 -11 5 -17 -4 -21 -1 -21
19 0 21 5 24 35 25 33 1 35 -1 36 -30 l2 -32 4 30 c3 16 10 33 16 37 7 4 -12
7 -40 6 -31 0 -57 -6 -64 -14z"/>
<path d="M1451 3145 c1 -27 3 -42 6 -32 2 9 13 17 23 17 21 0 33 25 25 51 -4
12 -15 18 -31 17 -22 -2 -24 -6 -23 -53z m42 32 c3 -8 1 -20 -4 -28 -11 -19
-34 3 -26 25 8 20 23 21 30 3z"/>
<path d="M1530 3191 c0 -6 7 -8 15 -5 8 4 15 2 15 -4 0 -5 -9 -12 -21 -15 -29
-8 -19 -31 15 -35 26 -3 27 -1 24 30 -2 25 -8 34 -25 36 -13 2 -23 -1 -23 -7z
m30 -41 c0 -5 -4 -10 -10 -10 -5 0 -10 5 -10 10 0 6 5 10 10 10 6 0 10 -4 10
-10z"/>
<path d="M1672 3165 l-2 -40 19 24 19 25 5 -25 c3 -16 5 -11 5 16 l2 40 -19
-24 -19 -25 -5 25 c-3 16 -5 11 -5 -16z"/>
<path d="M3056 2978 c-9 -12 -16 -29 -16 -38 0 -27 30 -60 55 -60 32 0 55 25
55 60 0 56 -64 82 -94 38z m76 -13 c22 -49 -25 -98 -60 -63 -7 7 -12 24 -12
38 0 51 52 69 72 25z"/>
<path d="M3179 2949 c-24 -46 29 -93 61 -54 8 9 8 15 2 15 -6 0 -12 -5 -14
-12 -7 -21 -38 0 -38 27 0 27 31 48 38 27 2 -7 8 -12 14 -12 6 0 6 6 -2 15
-18 22 -47 18 -61 -6z"/>
<path d="M3272 2963 c12 -3 18 -17 21 -46 l4 -42 1 42 c2 30 7 43 20 46 9 3
-1 5 -23 5 -22 0 -32 -2 -23 -5z"/>
<path d="M3350 2955 c-7 -9 -8 -15 -2 -15 6 0 12 5 14 12 3 7 12 9 24 4 17 -7
15 -9 -14 -22 -46 -19 -41 -48 9 -50 l35 -2 -5 42 c-5 32 -11 42 -27 44 -11 2
-27 -4 -34 -13z m50 -40 c0 -19 -24 -30 -41 -19 -9 5 -7 11 6 21 24 17 35 17
35 -2z"/>
<path d="M3440 2925 c0 -46 0 -46 33 -43 30 3 32 5 32 43 0 38 -2 40 -32 43
-33 3 -33 3 -33 -43z m50 20 c0 -8 -7 -15 -15 -15 -8 0 -15 7 -15 15 0 8 7 15
15 15 8 0 15 -7 15 -15z m3 -40 c1 -5 -6 -11 -15 -13 -11 -2 -18 3 -18 13 0
17 30 18 33 0z"/>
<path d="M3528 2925 c-2 -27 1 -44 7 -42 5 2 11 20 13 40 2 28 8 37 22 37 15
0 20 -9 23 -42 l4 -43 1 48 2 47 -34 0 c-33 0 -34 -1 -38 -45z"/>
<path d="M3633 2953 c-4 -10 -1 -19 6 -21 9 -3 8 -10 -4 -28 -8 -13 -11 -24
-6 -24 6 0 15 9 21 20 6 11 15 20 20 20 6 0 10 -9 10 -20 0 -11 5 -20 10 -20
6 0 10 20 10 45 0 43 -1 45 -30 45 -20 0 -33 -6 -37 -17z m47 -8 c0 -8 -6 -15
-14 -15 -17 0 -28 14 -19 24 12 12 33 6 33 -9z"/>
<path d="M3732 2958 c-7 -7 -12 -21 -12 -33 0 -41 45 -60 70 -30 8 9 8 15 2
15 -6 0 -12 -5 -14 -12 -5 -14 -38 -4 -38 12 0 5 14 10 30 10 18 0 30 5 30 13
0 18 -21 37 -40 37 -9 0 -21 -5 -28 -12z m52 -13 c4 -11 -1 -15 -19 -15 -24 0
-32 10 -18 23 11 12 31 8 37 -8z"/>
<path d="M3822 2963 c12 -3 18 -17 21 -46 l4 -42 1 42 c2 30 7 43 20 46 9 3
-1 5 -23 5 -22 0 -32 -2 -23 -5z"/>
<path d="M7435 2946 c-21 -15 -25 -67 -5 -90 7 -9 22 -16 34 -16 27 0 64 25
53 37 -5 4 -13 0 -18 -10 -22 -39 -73 -10 -67 39 4 36 31 53 58 36 11 -7 20
-8 20 -3 0 22 -48 27 -75 7z"/>
<path d="M7553 2923 c-19 -7 -16 -70 3 -77 29 -11 44 -6 55 18 20 43 -14 77
-58 59z m42 -38 c0 -39 -31 -48 -41 -11 -7 30 2 48 24 44 11 -2 17 -13 17 -33z"/>
<path d="M7645 2890 c-4 -22 -11 -40 -16 -40 -5 0 -9 -9 -9 -20 0 -11 5 -20
10 -20 6 0 10 7 10 15 0 19 66 21 73 3 2 -7 3 0 1 16 -2 16 -4 41 -4 57 0 25
-4 29 -29 29 -26 0 -30 -4 -36 -40z m45 -5 c0 -29 -4 -35 -21 -35 -15 0 -19 4
-15 16 3 9 6 24 6 35 0 10 7 19 15 19 10 0 15 -11 15 -35z"/>
<path d="M7742 2918 c-7 -7 -12 -21 -12 -33 0 -41 45 -60 70 -30 8 9 8 15 2
15 -6 0 -12 -5 -14 -12 -5 -14 -38 -4 -38 12 0 5 14 10 30 10 18 0 30 5 30 13
0 18 -21 37 -40 37 -9 0 -21 -5 -28 -12z m52 -13 c4 -11 -1 -15 -19 -15 -24 0
-32 10 -18 23 11 12 31 8 37 -8z"/>
<path d="M7830 2870 c0 -33 4 -60 10 -60 6 0 10 7 10 15 0 8 9 15 20 15 12 0
25 10 31 24 16 35 -3 66 -41 66 -30 0 -30 0 -30 -60z m55 14 c0 -19 -6 -30
-16 -32 -20 -4 -30 28 -17 52 14 25 33 14 33 -20z"/>
<path d="M7927 2922 c17 -11 19 -34 5 -59 -7 -13 -10 -23 -6 -23 3 0 14 10 25
23 l18 22 1 -22 c0 -13 4 -23 9 -23 11 0 18 37 13 68 -2 12 -8 22 -13 22 -5 0
-9 -10 -10 -22 l0 -23 -16 23 c-8 12 -21 22 -27 22 -8 0 -8 -2 1 -8z"/>
<path d="M8007 2910 c-3 -11 -3 -20 -1 -20 2 0 8 9 14 20 6 11 7 20 2 20 -6 0
-12 -9 -15 -20z"/>
<path d="M8051 2888 c0 -27 3 -48 7 -48 11 0 35 51 28 58 -3 3 -9 -4 -13 -14
-6 -15 -9 -13 -14 16 -6 33 -6 32 -8 -12z"/>
<path d="M8097 2923 c-7 -13 5 -83 14 -83 5 0 9 20 9 45 0 40 -11 58 -23 38z"/>
<path d="M8143 2923 c12 -3 17 -15 17 -44 0 -21 5 -39 10 -39 6 0 10 18 10 39
0 29 5 41 18 44 9 3 -3 5 -28 5 -25 0 -37 -2 -27 -5z"/>
<path d="M8000 2873 c0 -13 29 -38 35 -31 3 3 -4 13 -15 23 -11 10 -20 13 -20
8z"/>
<path d="M9690 2945 c0 -8 -8 -15 -18 -15 -24 0 -42 -19 -42 -45 0 -29 19 -45
52 -45 28 0 28 1 28 60 0 33 -4 60 -10 60 -5 0 -10 -7 -10 -15z m-2 -41 c13
-24 3 -56 -17 -52 -17 3 -26 31 -17 54 7 19 23 18 34 -2z"/>
<path d="M9603 2885 c0 -27 2 -38 4 -22 2 15 2 37 0 50 -2 12 -4 0 -4 -28z"/>
<path d="M9780 2920 c0 -6 6 -26 14 -45 13 -31 13 -37 0 -50 -14 -13 -14 -15
0 -15 9 0 23 22 36 56 22 61 20 89 -3 33 l-13 -34 -12 33 c-11 31 -22 42 -22
22z"/>
<path d="M9869 2909 c-24 -46 29 -93 61 -54 8 9 8 15 2 15 -6 0 -12 -5 -14
-12 -7 -21 -38 0 -38 27 0 27 31 48 38 27 2 -7 8 -12 14 -12 6 0 6 6 -2 15
-18 22 -47 18 -61 -6z"/>
<path d="M9958 2885 c-2 -27 1 -44 7 -42 5 2 11 20 13 40 2 28 8 37 22 37 15
0 20 -9 23 -42 l4 -43 1 48 2 47 -34 0 c-33 0 -34 -1 -38 -45z"/>
<path d="M10050 2925 c0 -2 7 -23 17 -46 16 -40 15 -42 -2 -55 -17 -13 -17
-14 -1 -14 18 0 40 42 50 96 6 28 5 27 -11 -6 l-16 -35 -10 33 c-5 17 -14 32
-18 32 -5 0 -9 -2 -9 -5z"/>
<path d="M10140 2885 c0 -25 5 -45 10 -45 6 0 10 18 10 39 0 29 5 41 18 44 10
3 6 5 -10 6 -27 1 -28 -1 -28 -44z"/>
<path d="M10211 2888 c0 -27 3 -48 7 -48 11 0 35 51 28 58 -3 3 -9 -4 -13 -14
-6 -15 -9 -13 -14 16 -6 33 -6 32 -8 -12z"/>
<path d="M10257 2923 c-7 -13 5 -83 14 -83 5 0 9 20 9 45 0 40 -11 58 -23 38z"/>
<path d="M1332 2939 c-7 -23 -10 -44 -7 -47 3 -3 5 0 5 6 0 16 47 15 54 0 4
-7 4 -2 1 12 -2 14 -5 35 -5 48 0 40 -34 27 -48 -19z m38 6 c0 -16 -6 -25 -16
-25 -11 0 -14 5 -10 16 3 9 6 20 6 25 0 5 5 9 10 9 6 0 10 -11 10 -25z"/>
<path d="M1406 2962 c-10 -30 4 -53 28 -50 31 4 30 62 -1 66 -14 2 -23 -3 -27
-16z m41 -8 c8 -22 -15 -44 -26 -25 -10 16 -4 41 10 41 5 0 12 -7 16 -16z"/>
<path d="M1470 2945 c0 -19 5 -35 10 -35 6 0 10 14 10 30 0 42 27 40 33 -2 4
-32 4 -32 5 5 2 35 0 37 -28 37 -28 0 -30 -3 -30 -35z"/>
<path d="M1122 2725 c0 -22 2 -32 5 -22 2 9 11 17 18 17 7 0 16 -8 18 -17 3
-10 5 0 5 22 0 22 -2 32 -5 23 -2 -10 -11 -18 -18 -18 -7 0 -16 8 -18 18 -3 9
-5 -1 -5 -23z"/>
<path d="M1307 2754 c-13 -13 -7 -55 9 -61 24 -9 51 23 38 45 -12 19 -36 27
-47 16z m33 -29 c0 -26 -14 -33 -25 -15 -9 14 1 40 15 40 5 0 10 -11 10 -25z"/>
<path d="M1370 2711 c0 -28 5 -51 10 -51 6 0 10 6 10 14 0 7 9 16 21 19 16 4
20 12 17 34 -2 22 -9 29 -30 31 -27 3 -28 2 -28 -47z m45 14 c0 -10 -6 -20
-12 -22 -8 -3 -13 5 -13 22 0 17 5 25 13 23 6 -3 12 -13 12 -23z"/>
<path d="M1440 2725 c0 -19 4 -35 9 -35 11 0 24 48 16 60 -13 21 -25 8 -25
-25z"/>
<path d="M1495 2750 c-8 -12 5 -60 16 -60 5 0 9 16 9 35 0 33 -12 46 -25 25z"/>
<path d="M1540 2751 c0 -6 7 -8 15 -5 8 4 15 2 15 -4 0 -5 -9 -12 -21 -15 -29
-8 -18 -32 15 -33 24 -1 27 2 24 30 -2 23 -9 32 -25 34 -13 2 -23 -1 -23 -7z
m30 -41 c0 -5 -4 -10 -10 -10 -5 0 -10 5 -10 10 0 6 5 10 10 10 6 0 10 -4 10
-10z"/>
<path d="M1681 2728 c-1 -45 10 -49 30 -11 l14 26 6 -29 c6 -27 7 -27 8 9 1
44 -11 48 -29 10 l-13 -28 -8 30 c-7 30 -7 29 -8 -7z"/>
<path d="M1470 2705 c0 -8 5 -15 10 -15 6 0 10 7 10 15 0 8 -4 15 -10 15 -5 0
-10 -7 -10 -15z"/>
<path d="M9502 2445 c0 -37 2 -43 7 -25 l7 25 12 -22 c7 -13 17 -23 23 -23 6
0 3 10 -5 21 -15 22 -11 48 8 61 8 5 7 8 -1 8 -7 0 -18 -10 -25 -22 l-12 -23
-7 25 c-5 18 -7 12 -7 -25z"/>
<path d="M9580 2476 c-28 -35 11 -93 48 -70 35 22 22 84 -18 84 -10 0 -23 -7
-30 -14z m45 -31 c0 -33 -28 -47 -39 -19 -10 25 3 56 22 52 11 -2 17 -13 17
-33z"/>
<path d="M9668 2445 c-2 -27 1 -44 7 -42 5 2 11 20 13 40 2 28 8 37 22 37 15
0 20 -9 23 -42 l4 -43 1 48 2 47 -34 0 c-33 0 -34 -1 -38 -45z"/>
<path d="M9771 2448 c-1 -54 9 -61 29 -20 l14 27 4 -27 c6 -45 22 -32 22 17 0
53 -13 57 -37 13 l-17 -33 -7 35 c-6 33 -6 33 -8 -12z"/>
<path d="M9863 2465 c2 -24 7 -31 29 -33 15 -2 29 -11 31 -20 3 -9 5 6 4 33 0
28 -2 38 -4 23 -3 -19 -10 -28 -23 -28 -11 0 -23 11 -29 28 l-10 27 2 -30z"/>
<path d="M9962 2478 c-7 -7 -12 -21 -12 -33 0 -41 45 -60 70 -30 8 9 8 15 2
15 -6 0 -12 -5 -14 -12 -5 -14 -38 -4 -38 12 0 5 14 10 30 10 18 0 30 5 30 13
0 18 -21 37 -40 37 -9 0 -21 -5 -28 -12z m52 -13 c4 -11 -1 -15 -19 -15 -24 0
-32 10 -18 23 11 12 31 8 37 -8z"/>
<path d="M10062 2478 c-16 -16 -15 -53 3 -68 17 -14 47 -10 53 8 3 11 1 11
-17 0 -18 -11 -23 -11 -31 2 -5 8 -10 20 -10 25 0 6 5 17 10 25 8 13 13 13 31
2 18 -11 20 -11 17 0 -6 18 -40 22 -56 6z"/>
<path d="M10143 2483 c12 -3 17 -15 17 -44 0 -21 5 -39 10 -39 6 0 10 18 10
39 0 29 5 41 18 44 9 3 -3 5 -28 5 -25 0 -37 -2 -27 -5z"/>
<path d="M10220 2445 c0 -46 0 -46 33 -43 30 3 32 5 32 43 0 38 -2 40 -32 43
-33 3 -33 3 -33 -43z m50 20 c0 -8 -7 -15 -15 -15 -8 0 -15 7 -15 15 0 8 7 15
15 15 8 0 15 -7 15 -15z m3 -40 c1 -5 -6 -11 -15 -13 -11 -2 -18 3 -18 13 0
17 30 18 33 0z"/>
<path d="M10323 2483 c-19 -7 -16 -70 3 -77 29 -11 44 -6 55 18 20 43 -14 77
-58 59z m42 -38 c0 -39 -31 -48 -41 -11 -7 30 2 48 24 44 11 -2 17 -13 17 -33z"/>
<path d="M2800 1625 l0 -225 660 0 660 0 0 225 0 225 -660 0 -660 0 0 -225z
m1310 5 l0 -210 -645 0 -645 0 0 210 0 210 645 0 645 0 0 -210z"/>
<path d="M3226 1668 c-9 -12 -16 -29 -16 -38 0 -27 30 -60 55 -60 32 0 55 25
55 60 0 56 -64 82 -94 38z m76 -13 c22 -49 -25 -98 -60 -63 -7 7 -12 24 -12
38 0 51 52 69 72 25z"/>
<path d="M3352 1653 c12 -3 18 -17 21 -46 l4 -42 1 42 c2 30 7 43 20 46 9 3
-1 5 -23 5 -22 0 -32 -2 -23 -5z"/>
<path d="M3430 1645 c-8 -10 -9 -15 -1 -15 6 0 11 5 11 10 0 6 7 10 15 10 18
0 20 -26 3 -33 -10 -4 -10 -6 0 -6 17 -1 15 -31 -3 -31 -8 0 -15 5 -15 10 0 6
-4 10 -10 10 -5 0 -7 -7 -4 -15 8 -19 50 -20 57 -1 9 22 -8 71 -25 74 -8 2
-21 -4 -28 -13z"/>
<path d="M3511 1617 l-1 -48 33 3 c24 2 32 8 32 23 0 14 -8 21 -27 23 -18 2
-28 10 -31 25 -2 12 -5 0 -6 -26z m49 -22 c0 -8 -9 -15 -20 -15 -11 0 -20 7
-20 15 0 8 9 15 20 15 11 0 20 -7 20 -15z"/>
<path d="M3590 1615 c0 -25 5 -45 10 -45 6 0 10 20 10 45 0 25 -4 45 -10 45
-5 0 -10 -20 -10 -45z"/>
<path d="M3630 1615 c0 -46 0 -46 33 -43 30 3 32 5 32 43 0 38 -2 40 -32 43
-33 3 -33 3 -33 -43z m53 20 c1 -5 -6 -11 -15 -13 -11 -2 -18 3 -18 13 0 17
30 18 33 0z m7 -40 c0 -8 -9 -15 -20 -15 -11 0 -20 7 -20 15 0 8 9 15 20 15
11 0 20 -7 20 -15z"/>
<path d="M7150 1625 l0 -225 660 0 660 0 0 225 0 225 -660 0 -660 0 0 -225z
m1310 5 l0 -210 -645 0 -645 0 0 210 0 210 645 0 645 0 0 -210z"/>
<path d="M7567 1644 c25 -45 26 -47 8 -60 -17 -12 -17 -14 -2 -14 10 0 28 23
47 60 17 33 27 60 22 60 -5 0 -16 -17 -26 -37 l-18 -38 -19 38 c-11 20 -24 37
-29 37 -5 0 3 -21 17 -46z"/>
<path d="M7662 1648 c-16 -16 -15 -53 3 -68 17 -14 47 -10 53 8 3 11 1 11 -17
0 -18 -11 -23 -11 -31 2 -5 8 -10 20 -10 25 0 6 5 17 10 25 8 13 13 13 31 2
18 -11 20 -11 17 0 -6 18 -40 22 -56 6z"/>
<path d="M7750 1621 c0 -22 -5 -42 -12 -44 -8 -3 -6 -6 5 -6 13 -1 17 7 17 39
0 33 3 40 20 40 17 0 20 -7 20 -40 0 -22 5 -40 10 -40 6 0 10 20 10 45 0 45 0
45 -35 45 -34 0 -35 -1 -35 -39z"/>
<path d="M7846 1625 c16 -40 18 -71 4 -78 -6 -3 -5 -4 2 -3 21 4 69 116 50
116 -5 0 -14 -15 -19 -32 l-10 -33 -13 33 c-6 17 -16 32 -20 32 -5 0 -2 -16 6
-35z"/>
<path d="M7932 1613 l1 -48 4 42 c3 33 8 43 26 46 18 4 17 5 -5 6 -27 1 -28
-1 -26 -46z"/>
<path d="M7997 1654 c-4 -4 -7 -12 -7 -18 0 -6 5 -5 12 2 14 14 38 16 38 3 0
-5 -14 -14 -31 -20 -45 -16 -36 -46 14 -47 l38 -1 -3 41 c-3 35 -6 41 -28 44
-14 2 -29 0 -33 -4z m40 -59 c-4 -8 -13 -15 -22 -15 -21 0 -19 28 3 32 22 5
26 2 19 -17z"/>
<path d="M1220 879 c0 -11 -5 -17 -10 -14 -22 13 -50 -6 -50 -34 0 -33 17 -51
48 -48 20 1 22 7 22 59 0 32 -2 58 -5 58 -3 0 -5 -9 -5 -21z m-5 -54 c0 -33
-28 -47 -39 -19 -10 25 3 56 22 52 11 -2 17 -13 17 -33z"/>
<path d="M1133 825 c0 -27 2 -38 4 -22 2 15 2 37 0 50 -2 12 -4 0 -4 -28z"/>
<path d="M1143 753 c20 -2 54 -2 75 0 20 2 3 4 -38 4 -41 0 -58 -2 -37 -4z"/>
<path d="M2029 409 c-13 -26 2 -69 25 -69 33 0 46 13 46 45 0 47 -49 64 -71
24z m56 -8 c8 -26 -5 -53 -24 -49 -29 6 -27 68 3 68 8 0 17 -8 21 -19z"/>
<path d="M2120 385 c0 -45 0 -45 35 -45 26 0 35 -4 35 -17 0 -9 2 -14 5 -11 3
2 1 31 -4 64 -8 55 -9 56 -10 17 -1 -36 -4 -43 -21 -43 -17 0 -20 7 -20 40 0
22 -4 40 -10 40 -5 0 -10 -20 -10 -45z"/>
<path d="M2232 418 c-7 -7 -12 -21 -12 -33 0 -41 45 -60 70 -30 15 18 7 19
-20 3 -17 -11 -22 -10 -30 2 -8 12 -3 16 25 18 20 2 35 9 35 16 0 17 -21 36
-40 36 -9 0 -21 -5 -28 -12z m46 -15 c2 -8 -6 -13 -22 -13 -19 0 -24 4 -19 15
6 18 34 16 41 -2z"/>
<path d="M2323 385 c0 -27 2 -40 4 -27 6 29 43 31 43 2 0 -11 5 -20 10 -20 6
0 10 20 10 45 0 25 -4 45 -10 45 -5 0 -10 -9 -10 -20 0 -29 -37 -27 -43 3 -2
12 -4 0 -4 -28z"/>
<path d="M2422 385 c0 -37 2 -43 7 -25 l7 25 12 -22 c7 -13 17 -23 23 -23 6 0
3 10 -5 21 -15 22 -11 48 8 61 8 5 7 8 -1 8 -7 0 -18 -10 -25 -22 l-12 -23 -7
25 c-5 18 -7 12 -7 -25z"/>
<path d="M2500 415 c-9 -10 -9 -15 -1 -15 6 0 11 5 11 10 0 6 9 10 20 10 30 0
24 -17 -11 -29 -45 -15 -36 -46 14 -48 34 -1 37 1 37 27 0 16 -3 35 -6 44 -8
20 -48 21 -64 1z m47 -50 c-4 -8 -13 -15 -22 -15 -21 0 -19 28 3 32 22 5 26 2
19 -17z"/>
<path d="M2922 424 c-12 -8 -22 -24 -22 -34 0 -10 10 -26 22 -34 19 -13 25
-14 43 -2 11 7 20 24 20 36 0 12 -9 29 -20 36 -18 12 -24 11 -43 -2z m18 -34
c0 -31 -16 -41 -26 -15 -8 19 2 45 16 45 5 0 10 -13 10 -30z m27 -17 c-16 -16
-17 -15 -17 17 0 32 1 33 17 17 16 -16 16 -18 0 -34z"/>
<path d="M3001 393 c0 -29 3 -53 7 -53 10 0 45 60 39 67 -3 2 -11 -6 -19 -19
-12 -22 -13 -22 -19 17 -6 39 -6 39 -8 -12z"/>
<path d="M3057 433 c-3 -5 -1 -28 3 -53 l7 -45 2 53 c1 49 -2 62 -12 45z"/>
<path d="M3104 415 c-15 -23 -15 -27 0 -50 28 -43 76 -27 76 25 0 52 -48 68
-76 25z m60 -7 c14 -23 -3 -53 -30 -53 -20 0 -31 33 -20 61 7 19 35 14 50 -8z"/>
<path d="M3232 375 c0 -22 2 -32 5 -22 2 9 7 17 10 17 3 0 12 -8 20 -17 13
-16 13 -16 3 5 -9 18 -8 27 1 38 7 8 7 14 1 14 -5 0 -13 -8 -17 -17 -7 -17 -8
-16 -15 2 -7 15 -8 10 -8 -20z"/>
<path d="M3297 404 c-13 -13 -7 -55 9 -61 24 -9 51 23 38 45 -12 19 -36 27
-47 16z m33 -29 c0 -26 -14 -33 -25 -15 -9 14 1 40 15 40 5 0 10 -11 10 -25z"/>
<path d="M3362 375 c0 -22 2 -32 5 -22 2 9 13 17 23 17 10 0 21 -8 23 -17 3
-10 5 0 5 22 0 22 -2 32 -5 23 -2 -10 -13 -18 -23 -18 -10 0 -21 8 -23 18 -3
9 -5 -1 -5 -23z"/>
<path d="M3440 394 c-23 -27 17 -71 42 -46 8 8 5 9 -11 5 -17 -4 -21 -1 -21
21 0 21 4 25 23 23 26 -2 50 -54 34 -74 -6 -9 -6 -13 1 -13 5 0 17 21 26 47
19 55 19 56 6 48 -5 -3 -10 -16 -11 -28 -1 -20 -2 -20 -11 4 -12 30 -58 38
-78 13z"/>
<path d="M3568 375 c-2 -19 0 -35 4 -35 4 0 8 14 8 30 0 42 27 40 33 -2 4 -32
4 -32 5 5 2 33 -1 37 -22 37 -20 0 -25 -6 -28 -35z"/>
<path d="M3641 378 c-1 -34 2 -38 24 -38 18 0 25 5 25 20 0 13 -7 20 -19 20
-11 0 -22 8 -24 18 -3 9 -5 0 -6 -20z m39 -18 c0 -5 -7 -10 -15 -10 -8 0 -15
5 -15 10 0 6 7 10 15 10 8 0 15 -4 15 -10z"/>
<path d="M3698 403 c6 -2 12 -18 12 -34 0 -16 5 -29 10 -29 6 0 10 13 10 29 0
16 6 32 13 34 6 3 -4 5 -23 5 -19 0 -29 -2 -22 -5z"/>
<path d="M3760 401 c0 -6 7 -8 15 -5 8 4 15 2 15 -4 0 -5 -9 -12 -21 -15 -29
-8 -18 -32 15 -33 24 -1 27 2 24 30 -2 23 -9 32 -25 34 -13 2 -23 -1 -23 -7z
m30 -41 c0 -5 -4 -10 -10 -10 -5 0 -10 5 -10 10 0 6 5 10 10 10 6 0 10 -4 10
-10z"/>
<path d="M3832 375 c0 -22 2 -32 5 -22 2 9 11 17 18 17 7 0 16 -8 18 -17 3
-10 5 0 5 22 0 22 -2 32 -5 23 -2 -10 -11 -18 -18 -18 -7 0 -16 8 -18 18 -3 9
-5 -1 -5 -23z"/>
<path d="M3903 403 c11 -3 18 -15 18 -36 l2 -32 4 30 c3 16 10 33 16 37 7 4
-4 7 -23 7 -19 -1 -27 -3 -17 -6z"/>
<path d="M4176 404 c-3 -9 -6 -24 -6 -35 0 -10 -4 -19 -10 -19 -5 0 -10 -7
-10 -15 0 -8 5 -15 10 -15 6 0 10 5 10 10 0 15 48 12 53 -2 9 -27 15 -1 10 45
-5 41 -9 47 -28 47 -13 0 -26 -7 -29 -16z m34 -24 c0 -20 -5 -30 -15 -30 -16
0 -19 17 -9 44 10 26 24 18 24 -14z"/>
<path d="M4256 411 c-3 -4 6 -6 19 -3 33 6 32 -14 0 -22 -16 -4 -25 -13 -25
-26 0 -15 7 -19 33 -18 31 1 32 2 29 40 -4 32 -8 38 -27 38 -13 0 -26 -4 -29
-9z m44 -41 c0 -13 -28 -25 -38 -16 -3 4 0 11 8 16 20 13 30 12 30 0z"/>
<path d="M4328 413 c6 -2 12 -20 12 -39 0 -19 5 -34 10 -34 6 0 10 15 10 34 0
19 6 37 13 39 6 3 -4 5 -23 5 -19 0 -29 -2 -22 -5z"/>
<path d="M4396 411 c-3 -4 6 -6 19 -3 33 6 32 -14 -1 -22 -36 -9 -28 -41 11
-43 29 -1 30 0 27 38 -4 33 -8 39 -27 39 -13 0 -26 -4 -29 -9z m44 -41 c0 -13
-28 -25 -38 -16 -3 4 0 11 8 16 20 13 30 12 30 0z"/>
<path d="M4510 382 c0 -23 4 -42 9 -42 6 0 7 17 4 38 -8 51 -13 53 -13 4z"/>
<path d="M4556 412 c-2 -4 -1 -23 4 -42 l8 -35 1 43 c1 41 -3 50 -13 34z"/>
<path d="M4630 380 c0 -38 2 -40 29 -40 36 0 43 9 35 49 -6 26 -11 31 -35 31
-27 0 -29 -3 -29 -40z m50 20 c0 -5 -7 -10 -15 -10 -8 0 -15 5 -15 10 0 6 7
10 15 10 8 0 15 -4 15 -10z m0 -35 c0 -8 -7 -15 -15 -15 -8 0 -15 7 -15 15 0
8 7 15 15 15 8 0 15 -7 15 -15z"/>
<path d="M4711 361 c1 -32 4 -48 7 -36 4 11 16 20 26 20 51 0 43 69 -8 71 -25
1 -26 -1 -25 -55z m53 34 c7 -20 -3 -45 -19 -45 -7 0 -15 7 -19 15 -7 20 3 45
19 45 7 0 15 -7 19 -15z"/>
<path d="M4794 406 c-11 -30 1 -61 25 -64 13 -2 28 1 34 7 7 7 2 10 -18 8 -15
-1 -30 4 -32 11 -3 8 6 12 26 12 33 0 39 8 19 28 -16 16 -47 15 -54 -2z m46
-6 c0 -5 -9 -10 -21 -10 -11 0 -17 5 -14 10 3 6 13 10 21 10 8 0 14 -4 14 -10z"/>
<path d="M4871 378 l2 -43 6 35 6 35 14 -35 13 -35 13 30 13 30 5 -30 c3 -24
4 -22 6 13 1 50 -14 56 -25 10 l-7 -33 -15 33 c-21 44 -32 40 -31 -10z"/>
<path d="M4973 403 c-4 -10 -1 -19 6 -21 9 -3 8 -9 -5 -23 -10 -12 -13 -19 -5
-19 6 0 14 7 17 15 8 21 32 19 37 -2 3 -10 5 1 6 25 1 39 -1 42 -24 42 -15 0
-28 -7 -32 -17z m47 -9 c0 -9 -7 -14 -17 -12 -25 5 -28 28 -4 28 12 0 21 -6
21 -16z"/>
<path d="M4537 383 c-4 -3 -7 -11 -7 -17 0 -6 5 -5 12 2 6 6 9 14 7 17 -3 3
-9 2 -12 -2z"/>
<path d="M5583 423 c12 -3 17 -15 17 -44 0 -21 5 -39 10 -39 6 0 10 18 10 39
0 29 5 41 18 44 9 3 -3 5 -28 5 -25 0 -37 -2 -27 -5z"/>
<path d="M5659 409 c-13 -26 2 -69 25 -69 23 0 46 11 46 22 0 6 -6 5 -15 -2
-16 -13 -45 -7 -45 10 0 5 14 10 30 10 31 0 39 17 18 38 -19 19 -46 14 -59 -9z
m55 -4 c4 -11 -1 -15 -19 -15 -24 0 -32 10 -18 23 11 12 31 8 37 -8z"/>
<path d="M5750 385 c0 -47 15 -62 22 -22 5 31 -2 67 -13 67 -5 0 -9 -20 -9
-45z"/>
<path d="M5786 414 c-10 -25 1 -29 14 -5 6 12 7 21 1 21 -5 0 -12 -7 -15 -16z"/>
<path d="M5842 418 c-16 -16 -15 -53 3 -68 17 -14 47 -10 53 8 3 11 1 11 -17
0 -18 -11 -23 -11 -31 2 -5 8 -10 20 -10 25 0 6 5 17 10 25 8 13 13 13 31 2
18 -11 20 -11 17 0 -6 18 -40 22 -56 6z"/>
<path d="M5923 423 c12 -3 17 -15 17 -44 0 -21 5 -39 10 -39 6 0 10 18 10 39
0 29 5 41 18 44 9 3 -3 5 -28 5 -25 0 -37 -2 -27 -5z"/>
<path d="M5780 372 c0 -5 7 -15 15 -22 8 -7 15 -8 15 -2 0 5 -7 15 -15 22 -8
7 -15 8 -15 2z"/>
<path d="M7220 445 c0 -8 -8 -15 -18 -15 -24 0 -42 -19 -42 -45 0 -29 19 -45
52 -45 28 0 28 1 28 60 0 33 -4 60 -10 60 -5 0 -10 -7 -10 -15z m-2 -41 c13
-24 3 -56 -17 -52 -17 3 -26 31 -17 54 7 19 23 18 34 -2z"/>
<path d="M7133 385 c0 -27 2 -38 4 -22 2 15 2 37 0 50 -2 12 -4 0 -4 -28z"/>
<path d="M7120 320 c0 -6 28 -10 65 -10 37 0 65 4 65 10 0 6 -28 10 -65 10
-37 0 -65 -4 -65 -10z"/>
<path d="M7932 418 c-6 -6 -12 -21 -12 -33 0 -41 45 -60 70 -30 8 9 8 15 2 15
-6 0 -12 -5 -14 -12 -7 -21 -38 0 -38 26 0 31 16 42 37 24 14 -11 16 -11 11 2
-6 19 -40 24 -56 8z"/>
<path d="M8013 423 c12 -3 17 -15 17 -44 0 -21 5 -39 10 -39 6 0 10 18 10 39
0 29 5 41 18 44 9 3 -3 5 -28 5 -25 0 -37 -2 -27 -5z"/>
<path d="M8103 423 c-19 -7 -16 -70 3 -77 29 -11 44 -6 55 18 20 43 -14 77
-58 59z m42 -38 c0 -39 -31 -48 -41 -11 -7 30 2 48 24 44 11 -2 17 -13 17 -33z"/>
<path d="M8191 388 c0 -27 3 -48 7 -48 11 0 35 51 28 58 -3 3 -9 -4 -13 -14
-6 -15 -9 -13 -14 16 -6 33 -6 32 -8 -12z"/>
<path d="M8237 423 c-7 -13 5 -83 14 -83 5 0 9 20 9 45 0 40 -11 58 -23 38z"/>
<path d="M8280 385 c0 -48 19 -64 21 -17 l1 27 10 -27 c9 -25 28 -39 28 -20 0
4 3 18 6 32 6 24 6 24 -9 6 -14 -19 -15 -19 -22 12 -11 50 -35 41 -35 -13z"/>
<path d="M8354 408 c3 -13 6 -33 6 -45 0 -13 5 -23 10 -23 6 0 10 20 10 45 0
35 -4 45 -16 45 -12 0 -15 -6 -10 -22z"/>
<path d="M8410 416 c-28 -35 11 -93 48 -70 35 22 22 84 -18 84 -10 0 -23 -7
-30 -14z m45 -31 c0 -33 -28 -47 -39 -19 -10 25 3 56 22 52 11 -2 17 -13 17
-33z"/>
<path d="M8513 424 c-7 -3 -13 -21 -13 -40 0 -27 5 -35 24 -40 27 -6 46 1 46
18 0 7 -5 6 -15 -2 -21 -18 -45 -5 -45 25 0 31 24 43 47 24 14 -12 16 -12 11
1 -5 16 -34 23 -55 14z"/>
<path d="M8592 423 c12 -3 18 -17 21 -46 l4 -42 1 42 c2 30 7 43 20 46 9 3 -1
5 -23 5 -22 0 -32 -2 -23 -5z"/>
<path d="M8671 387 l-1 -48 33 3 c24 2 32 8 32 23 0 14 -8 21 -27 23 -18 2
-28 10 -31 25 -2 12 -5 0 -6 -26z m49 -22 c0 -8 -9 -15 -20 -15 -11 0 -20 7
-20 15 0 8 9 15 20 15 11 0 20 -7 20 -15z"/>
<path d="M9133 385 c0 -27 2 -40 4 -27 6 29 43 31 43 2 0 -11 5 -20 10 -20 6
0 10 20 10 45 0 25 -4 45 -10 45 -5 0 -10 -9 -10 -20 0 -29 -37 -27 -43 3 -2
12 -4 0 -4 -28z"/>
<path d="M9230 415 c-7 -9 -8 -15 -2 -15 6 0 12 5 14 12 3 7 12 9 24 4 17 -7
15 -9 -14 -22 -46 -19 -41 -48 9 -50 l35 -2 -5 42 c-5 32 -11 42 -27 44 -11 2
-27 -4 -34 -13z m50 -40 c0 -19 -24 -30 -41 -19 -9 5 -7 11 6 21 24 17 35 17
35 -2z"/>
<path d="M9320 415 c-8 -10 -9 -15 -1 -15 6 0 11 5 11 10 0 6 7 10 15 10 18 0
20 -26 3 -33 -10 -4 -10 -6 0 -6 17 -1 15 -31 -3 -31 -8 0 -15 5 -15 10 0 6
-4 10 -10 10 -5 0 -7 -7 -4 -15 8 -19 50 -20 57 -1 9 22 -8 71 -25 74 -8 2
-21 -4 -28 -13z"/>
<path d="M9400 384 c0 -45 0 -45 33 -42 30 3 32 5 30 38 0 19 -1 38 -2 43 -1
4 -14 7 -31 7 -29 0 -30 -2 -30 -46z m50 21 c0 -8 -9 -15 -20 -15 -11 0 -20 7
-20 15 0 8 9 15 20 15 11 0 20 -7 20 -15z m0 -40 c0 -8 -9 -15 -20 -15 -11 0
-20 7 -20 15 0 8 9 15 20 15 11 0 20 -7 20 -15z"/>
<path d="M9497 424 c-4 -4 -7 -12 -7 -18 0 -6 5 -5 12 2 14 14 38 16 38 3 0
-5 -14 -14 -31 -20 -45 -16 -36 -46 14 -47 l38 -1 -3 41 c-3 35 -6 41 -28 44
-14 2 -29 0 -33 -4z m40 -59 c-4 -8 -13 -15 -22 -15 -21 0 -19 28 3 32 22 5
26 2 19 -17z"/>
<path d="M9593 385 c0 -27 2 -40 4 -27 6 29 43 31 43 2 0 -11 5 -20 10 -20 6
0 10 20 10 45 0 25 -4 45 -10 45 -5 0 -10 -9 -10 -20 0 -29 -37 -27 -43 3 -2
12 -4 0 -4 -28z"/>
<path d="M9680 385 c0 -53 13 -57 37 -12 l17 32 7 -35 c6 -33 6 -33 8 13 1 53
-9 60 -29 20 l-14 -28 -4 28 c-6 44 -22 31 -22 -18z"/>
<path d="M9779 409 c-13 -26 2 -69 25 -69 23 0 46 11 46 22 0 6 -6 5 -15 -2
-16 -13 -45 -7 -45 10 0 5 14 10 30 10 31 0 39 17 18 38 -19 19 -46 14 -59 -9z
m55 -4 c4 -11 -1 -15 -19 -15 -24 0 -32 10 -18 23 11 12 31 8 37 -8z"/>
<path d="M8625 6598 c-17 -18 -18 -20 -2 -15 14 5 17 0 17 -38 0 -25 5 -45 10
-45 6 0 10 27 10 60 0 33 -3 60 -7 59 -5 0 -17 -10 -28 -21z"/>
<path d="M4811 6540 c1 -25 3 -36 6 -25 2 11 6 30 9 43 8 40 34 27 34 -18 0
-22 5 -40 10 -40 12 0 13 60 2 78 -5 6 -20 11 -35 10 -25 -2 -27 -5 -26 -48z"/>
<path d="M6700 6544 c0 -24 5 -44 10 -44 6 0 10 18 10 40 0 29 4 40 15 40 11
0 15 -12 16 -42 1 -24 3 -34 6 -23 2 11 6 30 9 43 8 39 32 26 37 -20 l4 -43
-1 45 -1 45 -52 1 -53 1 0 -43z"/>
<path d="M3264 4718 c-16 -18 -17 -21 -2 -15 14 5 18 -2 21 -41 3 -42 4 -40 5
16 1 34 0 62 -1 62 -2 0 -12 -10 -23 -22z"/>
<path d="M4275 3988 c-17 -18 -18 -20 -2 -15 14 5 17 0 17 -38 0 -25 5 -45 10
-45 6 0 10 27 10 60 0 33 -3 60 -7 59 -5 0 -17 -10 -28 -21z"/>
<path d="M6871 3931 l2 -46 6 40 c4 26 11 40 21 40 10 0 17 -14 21 -40 l7 -40
-2 45 c-1 42 -3 45 -28 46 -27 1 -28 -1 -27 -45z"/>
<path d="M3695 3698 c-17 -18 -18 -20 -2 -15 14 5 17 0 17 -38 0 -25 5 -45 10
-45 6 0 10 27 10 60 0 33 -3 60 -7 59 -5 0 -17 -10 -28 -21z"/>
<path d="M3681 2051 l2 -46 6 40 c4 26 11 40 21 40 10 0 17 -14 21 -40 l7 -40
-2 45 c-1 42 -3 45 -28 46 -27 1 -28 -1 -27 -45z"/>
</g>
</svg>
