<?xml version="1.0" standalone="no"?>
<!DOCTYPE svg PUBLIC "-//W3C//DTD SVG 20010904//EN"
 "http://www.w3.org/TR/2001/REC-SVG-20010904/DTD/svg10.dtd">
<svg version="1.0" xmlns="http://www.w3.org/2000/svg"
 width="1228.000000pt" height="833.000000pt" viewBox="0 0 1228.000000 833.000000"
 preserveAspectRatio="xMidYMid meet">

<g transform="translate(0.000000,833.000000) scale(0.100000,-0.100000)"
fill="#000000" stroke="none">
<path d="M4265 8110 c-313 -25 -522 -142 -471 -265 39 -92 212 -161 465 -186
64 -7 117 -13 119 -14 2 -2 -9 -26 -23 -55 -29 -57 -28 -68 4 -50 21 11 21 9
21 -125 l0 -135 600 0 600 0 0 -180 0 -180 -375 0 -375 0 0 -125 0 -125 -50
-25 -49 -25 -473 1 -473 0 -295 148 -295 149 -310 -155 -310 -156 303 -151
302 -151 0 -857 0 -858 -375 0 -375 0 0 -150 0 -150 -175 0 -175 0 0 675 0
675 -140 0 -141 0 16 30 c9 17 13 30 10 30 -3 0 -32 -13 -65 -30 -57 -29 -59
-29 -65 -10 -42 134 -374 225 -721 199 -385 -29 -595 -186 -433 -324 59 -49
130 -74 349 -122 18 -4 6 -9 -46 -18 -206 -36 -336 -107 -357 -194 -8 -34 14
-82 54 -116 59 -49 130 -74 349 -122 18 -4 6 -9 -46 -18 -206 -36 -336 -107
-357 -194 -8 -34 14 -82 54 -116 59 -49 130 -74 349 -122 18 -4 6 -9 -46 -18
-206 -36 -336 -107 -357 -194 -8 -34 14 -82 54 -116 59 -49 130 -74 349 -122
18 -4 6 -9 -46 -18 -206 -36 -336 -107 -357 -194 -8 -34 14 -82 54 -116 59
-49 130 -74 349 -122 18 -4 6 -9 -46 -18 -206 -36 -336 -107 -357 -194 -14
-58 51 -132 152 -172 31 -13 59 -27 62 -32 4 -5 11 -7 15 -5 10 6 183 -27 192
-36 3 -3 -8 -6 -25 -6 -54 0 -221 -48 -284 -81 -125 -67 -148 -158 -58 -234
111 -93 416 -151 672 -127 135 13 291 48 356 81 56 29 118 86 125 116 l6 25
60 -30 c62 -32 67 -31 50 1 -10 18 -6 19 130 19 l140 0 0 675 0 675 175 0 175
0 0 -145 0 -145 375 0 375 0 0 -335 0 -335 -302 -151 -303 -152 303 -151 302
-151 0 -318 0 -318 -25 -49 -25 -50 -350 0 -350 0 0 -310 0 -310 375 0 375 0
0 -180 0 -180 -1195 0 -1195 0 0 -136 c0 -117 -2 -135 -15 -130 -8 3 -22 9
-30 12 -12 5 -10 -7 10 -52 17 -39 22 -60 15 -64 -7 -4 -57 -10 -113 -13 -56
-3 -146 -17 -200 -31 -250 -64 -340 -185 -216 -291 111 -93 416 -151 671 -127
219 20 375 72 448 147 l32 33 30 -34 c91 -103 416 -172 690 -146 219 20 375
72 448 147 l32 33 30 -34 c91 -103 416 -172 691 -146 218 20 374 72 447 147
l32 33 30 -34 c91 -103 416 -172 690 -146 219 20 375 72 448 147 l32 33 30
-34 c91 -103 416 -172 691 -146 135 13 291 48 356 81 64 33 120 88 127 126 22
120 -178 220 -486 244 -55 4 -103 10 -106 13 -3 3 6 29 20 57 31 60 32 65 7
51 -11 -5 -22 -10 -25 -10 -3 0 -6 61 -6 135 l0 135 -1200 0 -1200 0 0 180 0
180 375 0 375 0 0 310 0 310 -348 0 -348 0 -27 55 -27 55 0 313 0 312 300 150
c165 82 300 152 300 155 0 3 -135 73 -300 155 l-300 150 0 332 0 333 375 0
375 0 0 150 0 150 440 0 440 0 305 -152 305 -153 307 153 308 153 375 -1 375
0 63 -30 62 -29 0 -120 0 -121 347 -2 348 -3 27 -50 28 -50 0 -277 0 -278
-335 0 -335 0 0 -345 0 -345 335 0 335 0 0 -280 c0 -280 0 -281 -25 -330 l-25
-50 -350 0 -350 0 0 -310 0 -310 375 0 375 0 0 -180 0 -180 -320 0 -320 0 0
-136 c0 -117 -2 -135 -15 -130 -8 3 -22 9 -31 12 -11 5 -8 -9 15 -54 l30 -60
-22 -6 c-12 -3 -45 -6 -73 -6 -68 0 -213 -26 -294 -51 -250 -81 -280 -227 -67
-324 248 -114 701 -109 944 10 40 20 81 47 91 60 l19 24 29 -30 c96 -100 418
-167 687 -141 218 20 374 72 447 147 l32 33 30 -34 c91 -103 416 -172 691
-146 135 13 291 48 356 81 64 33 120 88 127 126 22 120 -178 220 -486 244 -55
4 -103 10 -106 13 -3 3 6 29 20 57 31 60 32 65 7 51 -11 -5 -22 -10 -25 -10
-3 0 -6 61 -6 135 l0 135 -870 0 -870 0 0 180 0 180 375 0 375 0 0 310 0 310
-348 0 -348 0 -27 55 -27 55 0 275 0 275 335 0 335 0 0 165 0 165 225 0 225 0
0 -225 0 -225 180 0 c180 0 181 0 170 -21 -18 -32 -7 -33 49 -4 52 26 71 26
71 0 0 -22 59 -74 119 -104 196 -98 542 -119 821 -50 261 65 343 204 181 308
-74 48 -244 99 -334 102 -18 0 9 9 58 19 215 43 322 98 354 181 35 95 -87 187
-312 234 -38 8 -83 15 -100 16 -18 0 9 9 58 19 215 43 322 98 354 181 36 97
-97 192 -334 240 -92 18 -446 19 -530 1 -201 -44 -319 -110 -348 -196 -1 -4
-31 6 -65 23 l-63 32 16 -31 16 -30 -181 0 -180 0 0 -225 0 -225 -225 0 -225
0 0 170 0 170 -335 0 -335 0 0 270 0 271 30 59 30 60 345 0 345 0 0 120 0 121
63 29 c58 28 70 30 184 30 l123 0 305 -152 305 -153 310 155 310 155 -305 152
-305 153 0 855 0 855 375 0 375 0 0 150 0 150 179 0 179 0 7 -900 7 -900 139
0 140 0 -16 -30 -16 -31 63 32 c37 19 64 27 66 21 21 -63 113 -130 222 -162
139 -40 182 -45 390 -45 174 1 219 4 299 23 298 69 392 218 207 327 -60 35
-116 54 -241 80 -60 13 -96 24 -80 25 59 1 209 40 277 71 166 77 185 191 44
274 -60 35 -116 54 -241 80 -60 13 -96 24 -80 25 59 1 209 40 277 71 166 77
185 191 44 274 -60 35 -116 54 -241 80 -60 13 -96 24 -80 25 59 1 209 40 277
71 166 77 185 191 44 274 -60 35 -116 54 -241 80 -60 13 -96 24 -80 25 59 1
209 40 277 71 166 77 185 191 44 274 -60 35 -116 54 -241 80 -60 13 -96 24
-80 25 59 1 209 40 277 71 166 77 185 191 44 274 -60 35 -116 54 -241 80 -60
13 -96 24 -80 25 59 1 209 40 277 71 179 83 185 205 15 289 -134 65 -327 96
-547 86 -276 -11 -483 -84 -529 -186 l-17 -38 -54 29 c-66 34 -74 35 -60 10 5
-11 10 -22 10 -25 0 -3 -60 -6 -134 -6 l-133 0 -8 -450 -7 -450 -179 0 -179 0
0 150 0 150 -760 0 -760 0 0 -150 0 -150 -190 0 -190 0 -298 149 -297 149
-295 -149 -295 -148 -328 0 -328 -1 -49 25 -50 25 0 125 0 125 -375 0 -375 0
0 180 0 180 600 0 600 0 0 135 0 136 30 -16 31 -16 -31 62 c-17 33 -30 62 -28
64 2 1 55 7 120 14 64 6 159 22 211 35 334 85 355 270 42 369 -314 99 -814 46
-953 -100 l-32 -34 -26 31 c-29 34 -110 78 -189 103 -314 99 -814 46 -953
-100 l-32 -34 -26 31 c-89 105 -403 173 -699 150z m340 -25 c114 -17 225 -51
291 -90 163 -95 86 -223 -175 -291 -171 -44 -481 -45 -652 -1 -265 69 -344
186 -192 286 70 47 182 79 363 105 68 9 274 4 365 -9z m1200 0 c114 -17 225
-51 291 -90 163 -95 86 -223 -175 -291 -171 -44 -481 -45 -652 -1 -163 42
-281 117 -184 117 24 0 35 -5 35 -15 0 -8 5 -15 11 -15 8 0 9 11 5 31 -3 17
-6 47 -6 65 0 32 -2 34 -35 34 -30 0 -35 -3 -35 -25 0 -32 -21 -76 -34 -72
-17 6 -30 52 -22 82 20 80 185 157 398 184 106 14 295 12 403 -4z m1200 0
c114 -17 225 -51 291 -90 163 -95 86 -223 -175 -291 -171 -44 -481 -45 -652
-1 -265 69 -344 186 -192 286 70 47 182 79 363 105 68 9 274 4 365 -9z m-1895
-215 c0 -36 -2 -40 -26 -40 -20 0 -25 4 -20 16 3 9 6 27 6 40 0 17 6 24 20 24
17 0 20 -7 20 -40z m4 -129 c83 -39 206 -69 345 -82 64 -7 117 -13 119 -14 2
-2 -9 -26 -23 -55 -29 -57 -28 -68 4 -50 21 11 21 9 21 -120 l0 -130 -590 0
-590 0 0 130 0 131 30 -16 31 -16 -31 62 c-17 33 -30 62 -28 64 2 1 55 7 120
14 213 21 366 72 438 146 l32 33 30 -34 c17 -19 58 -47 92 -63z m1200 0 c83
-39 206 -69 345 -82 64 -7 117 -13 119 -14 2 -2 -9 -26 -23 -55 -29 -57 -28
-68 4 -50 21 11 21 9 21 -120 l0 -130 -590 0 -590 0 0 130 0 131 30 -16 31
-16 -31 62 c-17 33 -30 62 -28 64 2 1 55 7 120 14 213 21 366 72 438 146 l32
33 30 -34 c17 -19 58 -47 92 -63z m5451 -33 c44 -5 121 -23 171 -39 289 -92
261 -257 -58 -338 -161 -41 -338 -50 -522 -26 -208 27 -351 88 -389 167 -16
33 -17 40 -3 72 25 60 139 120 290 152 150 32 323 36 511 12z m-940 -238 l-16
-31 63 32 c37 19 64 27 66 21 29 -89 164 -161 365 -195 l79 -13 -79 -13 c-177
-29 -319 -98 -352 -170 l-17 -39 -54 29 c-66 34 -74 35 -60 10 5 -11 10 -22
10 -25 0 -3 -58 -6 -130 -6 l-130 0 0 215 0 215 135 0 136 0 -16 -30z m940
-212 c44 -5 121 -23 171 -39 289 -92 261 -257 -58 -338 -161 -41 -338 -50
-522 -26 -208 27 -351 88 -389 167 -16 33 -17 40 -3 72 25 60 139 120 290 152
150 32 323 36 511 12z m-940 -238 l-16 -31 63 32 c37 19 64 27 66 21 29 -89
164 -161 365 -195 l79 -13 -79 -13 c-177 -29 -319 -98 -352 -170 l-17 -39 -54
29 c-66 34 -74 35 -60 10 5 -11 10 -22 10 -25 0 -3 -58 -6 -130 -6 l-130 0 0
215 0 215 135 0 136 0 -16 -30z m-7343 -266 l293 -146 -290 -145 -290 -145
-287 143 c-159 79 -288 146 -288 149 0 4 554 286 568 289 1 1 134 -65 294
-145z m2848 -144 l0 -290 -740 0 -740 0 0 290 0 290 740 0 740 0 0 -290z
m1652 144 l293 -146 -290 -145 -290 -145 -287 143 c-159 79 -288 146 -288 149
0 4 554 286 568 289 1 1 134 -65 294 -145z m2188 -144 l0 -290 -740 0 -740 0
0 290 0 290 740 0 740 0 0 -290z m1595 198 c44 -5 121 -23 171 -39 289 -92
261 -257 -58 -338 -161 -41 -338 -50 -522 -26 -208 27 -351 88 -389 167 -16
33 -17 40 -3 72 25 60 139 120 290 152 150 32 323 36 511 12z m-6935 -173 c0
-10 -10 -15 -32 -15 l-33 1 25 14 c32 18 40 18 40 0z m1560 0 l25 -14 -32 -1
c-23 0 -33 5 -33 15 0 18 8 18 40 0z m-1615 -62 l55 -27 0 -123 0 -123 760 0
760 0 0 123 0 123 55 27 55 27 315 0 315 0 300 -150 300 -150 300 150 300 150
190 0 190 0 0 -150 0 -150 375 0 375 0 0 -858 0 -857 -295 -148 -295 -147
-135 0 c-126 0 -138 2 -190 27 l-55 27 0 123 0 123 -375 0 -375 0 0 200 0 200
500 0 500 0 0 155 c0 155 0 156 21 145 32 -18 33 -7 4 50 -14 29 -25 53 -23
55 2 1 55 7 119 14 64 6 149 20 190 30 41 10 85 20 99 22 14 2 30 7 35 12 6 4
32 22 59 40 93 60 113 124 63 190 -160 210 -987 212 -1154 3 l-27 -35 -29 35
c-31 37 -110 81 -192 107 -314 99 -814 46 -953 -100 l-32 -34 -26 31 c-29 34
-110 78 -189 103 -314 99 -814 46 -953 -100 l-32 -34 -26 31 c-89 105 -394
172 -690 149 -203 -15 -401 -79 -454 -146 l-18 -23 -33 32 c-157 147 -667 188
-983 79 -151 -53 -220 -144 -168 -223 56 -86 218 -146 456 -169 l124 -13 -29
-58 c-16 -31 -29 -60 -29 -63 0 -3 14 1 30 10 l30 16 0 -156 0 -155 838 0
c460 0 1313 -3 1895 -7 l1057 -6 0 -194 0 -193 -375 0 -375 0 0 -123 0 -123
-55 -27 -55 -27 -385 0 -385 0 -302 151 -303 151 -302 -151 -303 -151 -445 0
-445 0 0 150 0 150 -375 0 -375 0 0 858 0 857 293 147 292 147 467 0 468 1 55
-27z m55 7 c0 -20 -1 -20 -32 -4 -46 23 -46 24 -5 24 30 0 37 -4 37 -20z
m1589 16 c-2 -2 -19 -11 -36 -20 -32 -16 -33 -16 -33 4 0 16 7 20 37 20 20 0
34 -2 32 -4z m4406 -26 l-16 -31 63 32 c37 19 64 27 66 21 29 -89 164 -161
365 -195 l79 -13 -79 -13 c-177 -29 -319 -98 -352 -170 l-17 -39 -54 29 c-66
34 -74 35 -60 10 5 -11 10 -22 10 -25 0 -3 -56 -6 -125 -6 l-125 0 0 215 0
215 130 0 131 0 -16 -30z m940 -212 c44 -5 121 -23 171 -39 289 -92 261 -257
-58 -338 -161 -41 -338 -50 -522 -26 -208 27 -351 88 -389 167 -16 33 -17 40
-3 72 25 60 139 120 290 152 150 32 323 36 511 12z m-940 -238 l-16 -31 63 32
c37 19 64 27 66 21 29 -89 164 -161 365 -195 l79 -13 -79 -13 c-177 -29 -319
-98 -352 -170 l-17 -39 -54 29 c-66 34 -74 35 -60 10 5 -11 10 -22 10 -25 0
-3 -56 -6 -125 -6 l-125 0 0 215 0 215 130 0 131 0 -16 -30z m940 -212 c105
-13 251 -60 303 -98 50 -36 76 -81 67 -119 -7 -34 -56 -82 -112 -110 l-43 -21
0 30 c0 27 -3 30 -29 30 -34 0 -48 -15 -32 -34 17 -20 -17 -54 -61 -61 -36 -7
-37 -7 -43 32 -11 65 -13 69 -14 31 -1 -31 -5 -38 -20 -38 -15 0 -21 8 -24 38
l-4 37 -1 -42 c-2 -40 0 -43 23 -43 15 0 25 -6 25 -14 0 -10 -18 -17 -57 -23
-72 -10 -348 -10 -385 0 -34 9 -36 29 -5 42 14 7 22 19 22 35 0 16 -8 28 -22
35 -13 5 -24 17 -24 25 -1 11 -2 11 -6 -2 -2 -9 -14 -18 -26 -20 -18 -2 -22
-10 -22 -38 0 -29 4 -36 23 -38 12 -2 22 -10 22 -18 0 -17 -2 -17 -72 -3 -50
10 -54 13 -50 35 6 31 39 32 45 2 2 -13 4 -3 4 22 1 25 -1 37 -4 28 -2 -10
-13 -18 -23 -18 -10 0 -21 8 -23 18 -3 9 -5 -2 -6 -25 -1 -54 -21 -57 -21 -3
0 22 -3 40 -6 40 -9 0 -33 -33 -34 -45 0 -5 5 -3 10 5 8 12 10 11 10 -7 0 -13
-4 -23 -9 -23 -11 0 -21 25 -21 51 0 10 -4 19 -10 19 -5 0 -10 -11 -10 -25 0
-14 -4 -25 -9 -25 -24 0 -108 69 -124 102 -16 33 -17 40 -3 72 25 60 139 120
290 152 150 32 323 36 511 12z m-10460 -73 c114 -17 225 -51 291 -90 163 -95
86 -223 -175 -291 -171 -44 -481 -45 -652 -1 -265 69 -344 186 -192 286 70 47
182 79 363 105 68 9 274 4 365 -9z m2865 -9 c122 -26 215 -64 264 -108 44 -38
45 -41 43 -88 -4 -59 -19 -77 -95 -118 -111 -59 -284 -92 -487 -92 -253 0
-447 48 -542 134 -41 37 -47 48 -46 80 3 90 163 173 395 206 94 13 380 5 468
-14z m1125 9 c114 -17 225 -51 291 -90 163 -95 86 -223 -175 -291 -171 -44
-481 -45 -652 -1 -265 69 -344 186 -192 286 70 47 182 79 363 105 68 9 274 4
365 -9z m1200 0 c114 -17 225 -51 291 -90 163 -95 86 -223 -175 -291 -171 -44
-481 -45 -652 -1 -163 42 -281 117 -184 117 24 0 35 -5 35 -15 0 -8 5 -15 11
-15 8 0 9 11 5 31 -3 17 -6 47 -6 65 0 32 -2 34 -35 34 -30 0 -35 -3 -35 -25
0 -32 -21 -76 -34 -72 -17 6 -30 52 -22 82 20 80 185 157 398 184 106 14 295
12 403 -4z m1200 0 c114 -17 225 -51 291 -90 163 -95 86 -223 -175 -291 -171
-44 -481 -45 -652 -1 -265 69 -344 186 -192 286 70 47 182 79 363 105 68 9
274 4 365 -9z m1285 -14 c200 -45 300 -111 300 -195 0 -32 -42 -82 -91 -106
-47 -24 -46 -24 -52 0 -3 14 -14 20 -31 20 -14 0 -26 -4 -26 -9 0 -5 8 -7 19
-4 10 3 21 0 25 -5 3 -5 -5 -13 -19 -16 -13 -3 -29 -15 -35 -26 -16 -30 -30
-24 -30 14 0 24 5 36 18 39 9 3 -1 5 -23 5 -22 0 -32 -2 -22 -5 14 -4 17 -13
15 -41 -3 -35 -5 -37 -58 -50 -77 -20 -440 -22 -542 -3 l-77 14 15 23 c20 30
3 67 -29 62 -17 -2 -23 -11 -25 -35 -4 -36 -16 -42 -31 -16 -6 11 -6 25 0 38
9 18 9 19 -4 3 -8 -10 -17 -18 -20 -18 -3 0 -8 8 -10 18 -4 13 -5 11 -6 -5 -1
-31 -20 -29 -68 6 -53 38 -73 68 -73 107 0 84 146 163 365 199 125 20 399 13
515 -14z m1845 -151 l-16 -31 63 32 c37 19 64 27 66 21 30 -92 196 -176 393
-199 l52 -6 -109 -22 c-181 -37 -291 -93 -323 -165 l-17 -38 -54 29 c-66 34
-74 35 -60 10 5 -11 10 -22 10 -25 0 -3 -58 -6 -130 -6 l-130 0 0 215 0 215
135 0 136 0 -16 -30z m-5025 -50 c0 -36 -2 -40 -26 -40 -20 0 -25 4 -20 16 3
9 6 27 6 40 0 17 6 24 20 24 17 0 20 -7 20 -40z m-3980 -44 c0 3 -5 14 -10 25
-10 18 -7 19 67 20 43 1 102 2 131 3 l52 1 0 -217 0 -218 -130 0 -131 0 16 30
c9 17 13 30 10 30 -3 0 -32 -13 -65 -30 -57 -29 -59 -29 -65 -10 -25 79 -162
151 -350 183 -57 10 -73 16 -55 20 14 3 68 15 120 26 52 12 118 32 146 45 63
29 130 88 138 121 l6 25 60 -30 c33 -17 60 -28 60 -24z m9495 13 c8 -23 -7
-45 -24 -35 -12 8 -15 39 -4 49 12 12 22 7 28 -14z m49 6 c7 -18 -2 -45 -15
-45 -5 0 -12 7 -15 15 -7 18 2 45 15 45 5 0 11 -7 15 -15z m596 0 c0 -8 -7
-15 -15 -15 -8 0 -15 7 -15 15 0 8 7 15 15 15 8 0 15 -7 15 -15z m-3771 -92
c25 -15 48 -30 51 -33 3 -3 12 -6 20 -7 8 0 53 -10 100 -22 47 -11 137 -26
200 -32 63 -7 116 -13 118 -14 2 -2 -11 -31 -28 -64 l-31 -62 31 16 30 16 0
-151 0 -150 -437 0 c-241 0 -509 3 -595 7 l-158 6 0 144 0 144 30 -16 31 -16
-31 62 c-17 33 -30 62 -28 64 2 1 55 7 120 14 218 21 373 74 441 150 l32 36
29 -33 c16 -18 50 -45 75 -59z m-2385 -12 c83 -39 206 -69 345 -82 64 -7 117
-13 119 -14 2 -2 -9 -26 -23 -55 -29 -57 -28 -68 4 -50 21 11 21 10 21 -140
l0 -150 -590 0 -590 0 0 150 0 151 30 -16 31 -16 -31 62 c-17 33 -30 62 -28
64 2 1 55 7 120 14 213 21 366 72 438 146 l32 33 30 -34 c17 -19 58 -47 92
-63z m1200 0 c83 -39 206 -69 345 -82 64 -7 117 -13 119 -14 2 -2 -9 -26 -23
-55 -29 -57 -28 -68 4 -50 21 11 21 10 21 -135 l0 -145 -590 0 -590 0 0 145 0
146 30 -16 31 -16 -31 62 c-17 33 -30 62 -28 64 2 1 55 7 120 14 213 21 366
72 438 146 l32 33 30 -34 c17 -19 58 -47 92 -63z m-2390 -6 c78 -34 207 -64
335 -76 64 -7 117 -13 119 -14 2 -2 -9 -26 -23 -55 -29 -57 -28 -68 4 -50 21
11 21 10 21 -140 l0 -150 -580 0 -580 0 0 150 c0 146 1 150 19 140 32 -17 33
-12 2 48 l-29 58 121 12 c67 6 158 21 202 32 95 24 218 82 242 114 l18 24 39
-35 c21 -19 62 -45 90 -58z m7346 75 c0 -5 -7 -10 -16 -10 -8 0 -12 5 -9 10 3
6 10 10 16 10 5 0 9 -4 9 -10z m-3605 -60 c0 -13 -6 -25 -12 -27 -16 -6 -27
21 -19 43 9 23 31 11 31 -16z m770 -10 c-3 -5 -13 -10 -21 -10 -8 0 -12 5 -9
10 3 6 13 10 21 10 8 0 12 -4 9 -10z m2640 -32 c44 -5 121 -23 171 -39 289
-92 261 -257 -58 -338 -161 -41 -338 -50 -522 -26 -208 27 -351 88 -389 167
-16 33 -17 40 -3 72 25 60 139 120 290 152 150 32 323 36 511 12z m-10460 -73
c114 -17 225 -51 291 -90 163 -95 86 -223 -175 -291 -171 -44 -481 -45 -652
-1 -265 69 -344 186 -192 286 70 47 182 79 363 105 68 9 274 4 365 -9z m9520
-165 l-16 -31 63 32 c37 19 64 27 66 21 29 -89 164 -161 365 -195 l79 -13 -79
-13 c-177 -29 -319 -98 -352 -170 l-17 -39 -54 29 c-66 34 -74 35 -60 10 5
-11 10 -22 10 -25 0 -3 -58 -6 -130 -6 l-130 0 0 215 0 215 135 0 136 0 -16
-30z m-9005 -94 c0 3 -5 14 -10 25 -10 18 -7 19 67 20 43 1 102 2 131 3 l52 1
0 -217 0 -218 -130 0 -131 0 16 30 c9 17 13 30 10 30 -3 0 -32 -13 -65 -30
-57 -29 -59 -29 -65 -10 -25 79 -162 151 -350 183 -57 10 -73 16 -55 20 14 3
68 15 120 26 52 12 118 32 146 45 63 29 130 88 138 121 l6 25 60 -30 c33 -17
60 -28 60 -24z m9945 -118 c44 -5 121 -23 171 -39 289 -92 261 -257 -58 -338
-161 -41 -338 -50 -522 -26 -208 27 -351 88 -389 167 -16 33 -17 40 -3 72 25
60 139 120 290 152 150 32 323 36 511 12z m-10460 -73 c114 -17 225 -51 291
-90 163 -95 86 -223 -175 -291 -171 -44 -481 -45 -652 -1 -265 69 -344 186
-192 286 70 47 182 79 363 105 68 9 274 4 365 -9z m515 -259 c0 3 -5 14 -10
25 -10 18 -6 19 120 19 l130 0 0 -215 0 -215 -130 0 -131 0 16 30 c9 17 13 30
10 30 -3 0 -32 -13 -65 -30 -57 -29 -59 -29 -65 -10 -25 79 -162 151 -350 183
-57 10 -73 16 -55 20 14 3 68 15 120 26 52 12 118 32 146 45 63 29 130 88 138
121 l6 25 60 -30 c33 -17 60 -28 60 -24z m2110 -391 l0 -295 -740 0 -740 0 0
295 0 295 740 0 740 0 0 -295z m4500 0 l0 -295 -740 0 -740 0 0 295 0 295 740
0 740 0 0 -295z m-2690 141 l285 -144 -290 -145 -290 -145 -292 147 -293 146
282 142 c156 78 290 142 298 142 8 0 143 -65 300 -143z m3990 0 l285 -144
-290 -145 -290 -145 -292 147 -293 146 282 142 c156 78 290 142 298 142 8 0
143 -65 300 -143z m-8425 59 c114 -17 225 -51 291 -90 163 -95 86 -223 -175
-291 -171 -44 -481 -45 -652 -1 -265 69 -344 186 -192 286 70 47 182 79 363
105 68 9 274 4 365 -9z m5625 -175 c0 -17 -7 -20 -37 -20 l-38 1 35 19 c19 11
36 19 38 20 1 0 2 -9 2 -20z m1589 -16 c2 -2 -12 -4 -32 -4 -30 0 -37 4 -37
20 0 20 1 20 33 4 17 -9 34 -18 36 -20z m-6703 -60 c-3 9 -9 23 -12 31 -5 13
12 15 125 15 l131 0 0 -220 0 -220 -130 0 -131 0 16 30 c9 17 13 30 10 30 -3
0 -32 -13 -65 -30 -57 -29 -59 -29 -65 -10 -25 79 -162 151 -350 183 -57 10
-73 16 -55 20 14 3 68 15 120 26 52 12 118 32 146 45 63 29 130 88 138 121 l6
25 62 -31 c44 -22 59 -26 54 -15z m5114 26 c0 -24 -3 -24 -40 -5 -39 20 -38
25 5 25 28 0 35 -4 35 -20z m1590 15 c0 -5 -55 -35 -65 -35 -3 0 -5 9 -5 20 0
16 7 20 35 20 19 0 35 -2 35 -5z m-7215 -240 c114 -17 225 -51 291 -90 163
-95 86 -223 -175 -291 -171 -44 -481 -45 -652 -1 -265 69 -344 186 -192 286
70 47 182 79 363 105 68 9 274 4 365 -9z m6375 -92 l-1 -38 -14 25 c-19 33
-19 50 0 50 11 0 15 -11 15 -37z m44 5 c-23 -46 -24 -46 -24 -5 0 30 4 37 20
37 20 0 20 -1 4 -32z m-5904 -172 c0 3 -5 14 -10 25 -10 18 -6 19 120 19 l130
0 0 -215 0 -215 -130 0 -131 0 16 30 c9 17 13 30 10 30 -3 0 -32 -13 -65 -30
-57 -29 -59 -29 -65 -10 -25 79 -162 151 -350 183 -57 10 -73 16 -55 20 14 3
68 15 120 26 52 12 118 32 146 45 63 29 130 88 138 121 l6 25 60 -30 c33 -17
60 -28 60 -24z m8226 -147 c251 -28 434 -116 434 -209 0 -68 -104 -137 -275
-182 -82 -21 -111 -23 -315 -23 -201 0 -235 3 -314 23 -178 45 -276 111 -276
187 0 138 387 244 746 204z m-8741 -44 c166 -25 307 -81 354 -141 48 -61 9
-140 -92 -188 -93 -44 -97 -44 -97 3 0 48 -11 52 -30 14 l-13 -28 -8 30 c-6
28 -7 27 -8 -12 -1 -49 10 -55 29 -15 l14 27 4 -28 c2 -16 2 -31 0 -33 -3 -2
-40 -12 -84 -21 -116 -26 -456 -25 -572 1 -73 17 -80 20 -60 30 43 22 30 76
-18 76 -20 0 -23 -6 -26 -40 l-3 -40 -70 33 c-147 71 -165 159 -48 236 70 47
182 79 363 105 68 9 274 4 365 -9z m7865 -196 c-18 -32 -7 -33 49 -4 52 26 71
26 71 0 0 -23 59 -74 120 -105 62 -31 171 -63 260 -75 l55 -8 -80 -14 c-201
-34 -338 -107 -368 -197 -1 -4 -31 6 -65 23 l-63 32 16 -31 16 -30 -171 0
-170 0 0 215 0 215 170 0 c170 0 171 0 160 -21z m-7350 -63 c0 3 -5 14 -10 25
-10 18 -6 19 120 19 l130 0 0 -215 0 -215 -130 0 -131 0 16 30 c9 17 13 30 10
30 -3 0 -32 -13 -65 -30 -57 -29 -59 -29 -65 -10 -25 79 -162 151 -350 183
-57 10 -73 16 -55 20 14 3 68 15 120 26 52 12 118 32 146 45 63 29 130 88 138
121 l6 25 60 -30 c33 -17 60 -28 60 -24z m1662 -172 l293 -146 -290 -145 -290
-145 -287 143 c-159 79 -288 146 -288 149 0 4 554 286 568 289 1 1 134 -65
294 -145z m3868 -9 c-168 -85 -311 -154 -317 -154 -10 -1 -13 36 -13 154 l0
155 318 -1 317 0 -305 -154z m665 -7 c179 -90 325 -165 325 -168 0 -3 -145
-78 -323 -166 l-322 -162 -330 165 -330 165 325 164 c179 89 326 163 327 163
2 1 149 -72 328 -161z m345 7 c0 -85 -3 -155 -7 -154 -5 0 -145 69 -313 154
l-305 154 313 0 312 1 0 -155z m-7610 115 c0 -20 -5 -30 -15 -30 -10 0 -15 10
-15 30 0 20 5 30 15 30 10 0 15 -10 15 -30z m9296 -81 c251 -28 434 -116 434
-209 0 -68 -104 -137 -275 -182 -82 -21 -111 -23 -315 -23 -201 0 -235 3 -314
23 -178 45 -276 111 -276 187 0 138 387 244 746 204z m-8741 -44 c166 -25 307
-81 354 -141 12 -16 21 -41 21 -62 0 -29 -8 -43 -44 -78 -25 -23 -68 -51 -98
-62 l-53 -20 -3 34 c-3 28 -7 34 -27 34 -28 0 -41 -16 -26 -33 6 -8 6 -18 1
-27 -5 -8 -7 -17 -5 -21 5 -7 -75 -22 -82 -15 -2 2 -8 26 -13 53 -7 46 -8 46
-9 11 -1 -27 -6 -38 -16 -38 -10 0 -15 11 -15 35 0 19 -4 35 -10 35 -5 0 -10
-18 -10 -40 0 -38 2 -40 31 -40 47 0 30 -24 -22 -32 -57 -8 -307 -10 -348 -2
-35 7 -41 29 -11 37 26 7 28 65 3 74 -10 4 -21 11 -25 17 -5 7 -8 7 -8 -1 0
-7 -9 -13 -19 -13 -11 0 -23 -9 -26 -20 -9 -30 4 -60 26 -60 10 0 19 -7 19
-15 0 -17 -16 -18 -85 -2 -50 12 -50 12 -55 57 l-5 45 -17 -30 -17 -30 -1 28
c0 15 -4 27 -10 27 -5 0 -10 -13 -10 -30 0 -16 -5 -30 -10 -30 -6 0 -37 13
-69 29 -133 68 -146 156 -34 230 70 47 182 79 363 105 68 9 274 4 365 -9z
m6344 -491 c2 -2 -138 -4 -312 -4 l-317 0 0 160 0 160 313 -156 c171 -86 314
-158 316 -160z m711 156 l0 -160 -317 1 -318 0 315 159 c173 87 316 159 318
159 1 1 2 -71 2 -159z m810 139 c-18 -32 -7 -33 49 -4 52 26 71 26 71 0 0 -23
59 -74 120 -105 62 -31 171 -63 260 -75 l55 -8 -80 -14 c-201 -34 -338 -107
-368 -197 -1 -4 -31 6 -65 23 l-63 32 16 -31 16 -30 -171 0 -170 0 0 215 0
215 170 0 c170 0 171 0 160 -21z m-8286 -124 c7 -18 -2 -45 -15 -45 -13 0 -22
27 -15 45 3 8 10 15 15 15 5 0 11 -7 15 -15z m41 -15 c0 -13 -6 -25 -12 -27
-9 -3 -13 6 -13 27 0 21 4 30 13 28 6 -3 12 -15 12 -28z m545 15 c0 -8 -7 -15
-15 -15 -8 0 -15 7 -15 15 0 8 7 15 15 15 8 0 15 -7 15 -15z m-734 -52 c-13
-14 -25 9 -13 28 12 20 12 20 15 -1 2 -12 1 -24 -2 -27z m734 18 c0 -12 -20
-25 -27 -18 -7 7 6 27 18 27 5 0 9 -4 9 -9z m8576 -52 c251 -28 434 -116 434
-209 0 -133 -356 -237 -712 -209 -276 22 -468 110 -468 214 0 138 387 244 746
204z m-6866 -729 c0 -20 -5 -30 -15 -30 -18 0 -18 2 -3 35 15 32 18 32 18 -5z
m50 -22 c0 -5 -7 -8 -15 -8 -10 0 -15 10 -15 33 l1 32 14 -25 c8 -14 14 -28
15 -32z m4450 22 c0 -20 -5 -30 -15 -30 -18 0 -18 2 -3 35 15 32 18 32 18 -5z
m50 -22 c0 -5 -7 -8 -15 -8 -10 0 -15 10 -15 33 l1 32 14 -25 c8 -14 14 -28
15 -32z m-3800 -318 l0 -290 -740 0 -740 0 0 290 0 290 740 0 740 0 0 -290z
m4500 0 l0 -290 -740 0 -740 0 0 290 0 290 740 0 740 0 0 -290z m-6387 -689
c4 -1 7 -49 7 -107 0 -90 -2 -105 -15 -100 -8 3 -22 9 -31 12 -11 5 -7 -11 16
-56 l32 -64 34 60 c19 32 34 62 34 67 0 4 -13 1 -30 -8 l-30 -16 0 106 0 105
560 0 560 0 0 -125 c0 -124 0 -126 -21 -115 -32 18 -33 7 -4 -50 19 -38 23
-55 15 -60 -6 -4 -57 -10 -113 -13 -184 -11 -365 -71 -435 -144 l-32 -34 -26
31 c-29 34 -110 78 -189 103 -314 99 -814 46 -953 -100 l-32 -34 -26 31 c-29
34 -109 77 -189 103 -67 22 -216 47 -279 47 -28 0 -61 3 -73 6 l-22 6 30 60
c23 45 26 59 15 54 -9 -3 -23 -9 -31 -12 -13 -5 -15 12 -15 120 l0 126 603 2
c331 2 609 2 617 1 8 -1 18 -2 23 -2z m3538 -13 c0 -10 1 -31 1 -48 0 -187 -1
-191 -23 -180 -32 18 -33 7 -4 -50 19 -38 23 -55 15 -60 -6 -4 -57 -10 -113
-13 -184 -11 -365 -71 -435 -144 l-32 -34 -26 31 c-63 75 -238 132 -454 149
-55 4 -103 10 -106 13 -3 3 6 29 20 57 31 60 32 65 7 51 -11 -5 -22 -10 -25
-10 -12 0 -6 248 6 252 6 2 271 4 590 4 555 1 578 0 579 -18z m3839 -111 c0
-126 0 -128 -21 -117 -32 18 -33 7 -4 -50 19 -38 23 -55 15 -60 -6 -4 -57 -10
-113 -13 -184 -11 -365 -71 -435 -144 l-32 -34 -26 31 c-63 75 -238 132 -454
149 -55 4 -103 10 -106 13 -3 3 6 29 20 57 31 60 32 65 7 51 -11 -5 -22 -10
-25 -10 -3 0 -6 56 -6 125 l0 124 158 3 c86 2 352 3 589 3 l433 0 0 -128z
m-5039 108 c0 -8 1 -28 1 -45 0 -187 -1 -191 -23 -180 -32 18 -33 7 -4 -50 19
-38 23 -55 15 -60 -6 -4 -57 -10 -113 -13 -184 -11 -365 -71 -435 -144 l-32
-34 -26 31 c-63 75 -238 132 -454 149 -55 4 -103 10 -106 13 -3 3 6 29 20 57
31 60 32 65 7 51 -11 -5 -22 -10 -25 -10 -3 0 -6 56 -6 125 l0 125 590 0 c517
0 590 -2 591 -15z m3839 -110 c0 -124 0 -126 -21 -115 -32 18 -33 7 -4 -50 19
-38 23 -55 15 -60 -6 -4 -57 -10 -113 -13 -178 -10 -385 -79 -437 -144 l-18
-23 -33 32 c-69 64 -247 122 -409 133 -47 3 -100 8 -117 11 l-33 5 31 61 c22
44 26 59 15 54 -9 -3 -23 -9 -31 -12 -13 -5 -15 12 -15 120 l0 126 585 0 585
0 0 -125z m-7215 -260 c114 -17 225 -51 291 -90 163 -95 86 -223 -175 -291
-171 -44 -481 -45 -652 -1 -265 69 -344 186 -192 286 70 47 182 79 363 105 68
9 274 4 365 -9z m1200 0 c114 -17 225 -51 291 -90 163 -95 86 -223 -175 -291
-171 -44 -481 -45 -652 -1 -265 69 -344 186 -192 286 70 47 182 79 363 105 68
9 274 4 365 -9z m1200 0 c166 -25 307 -81 354 -141 22 -28 28 -88 11 -99 -6
-4 -10 6 -10 24 l0 29 -62 1 c-35 0 -57 -3 -51 -7 6 -4 13 -23 16 -42 l4 -35
1 36 c2 35 3 36 42 36 46 0 51 -9 14 -26 -30 -13 -27 -36 5 -35 11 0 21 -3 21
-8 0 -18 -86 -68 -158 -92 -142 -46 -185 -51 -412 -50 -197 1 -223 3 -311 26
-108 29 -202 73 -238 112 -25 27 -22 33 8 16 13 -6 24 -5 39 6 28 19 28 49 1
68 -27 19 -68 2 -70 -28 -2 -20 -2 -20 -6 1 -7 34 22 78 74 112 70 47 182 79
363 105 68 9 274 4 365 -9z m1200 0 c114 -17 225 -51 291 -90 163 -95 86 -223
-175 -291 -171 -44 -481 -45 -652 -1 -265 69 -344 186 -192 286 70 47 182 79
363 105 68 9 274 4 365 -9z m1200 0 c114 -17 225 -51 291 -90 163 -95 86 -223
-175 -291 -171 -44 -481 -45 -652 -1 -265 69 -344 186 -192 286 70 47 182 79
363 105 68 9 274 4 365 -9z m1515 -9 c122 -26 215 -64 264 -108 44 -38 45 -41
43 -88 -4 -59 -19 -77 -95 -118 -111 -59 -284 -92 -487 -92 -253 0 -447 48
-542 134 -41 37 -47 48 -46 80 3 90 163 173 395 206 94 13 380 5 468 -14z
m1125 9 c114 -17 225 -51 291 -90 163 -95 86 -223 -175 -291 -171 -44 -481
-45 -652 -1 -265 69 -344 186 -192 286 70 47 182 79 363 105 68 9 274 4 365
-9z m1200 0 c114 -17 225 -51 291 -90 163 -95 86 -223 -175 -291 -171 -44
-481 -45 -652 -1 -265 69 -344 186 -192 286 70 47 182 79 363 105 68 9 274 4
365 -9z m-6995 -215 c0 -31 -16 -41 -26 -15 -8 19 2 45 16 45 5 0 10 -13 10
-30z m35 0 c0 -13 -6 -25 -12 -27 -9 -3 -13 6 -13 27 0 21 4 30 13 28 6 -3 12
-15 12 -28z m1065 -19 c0 -14 -18 -23 -31 -15 -8 4 -7 9 2 15 18 11 29 11 29
0z"/>
<path d="M4430 7931 c0 -14 -6 -17 -25 -14 -33 7 -54 -34 -37 -72 9 -20 18
-25 42 -23 30 2 30 2 30 65 0 35 -2 63 -5 63 -3 0 -5 -8 -5 -19z m0 -60 c0
-23 -19 -41 -36 -34 -17 6 -18 60 -1 66 16 6 37 -12 37 -32z"/>
<path d="M4333 7870 c0 -30 2 -43 4 -27 2 15 2 39 0 55 -2 15 -4 2 -4 -28z"/>
<path d="M4348 7803 c23 -2 59 -2 80 0 20 2 1 4 -43 4 -44 0 -61 -2 -37 -4z"/>
<path d="M5160 7905 c-14 -17 0 -21 17 -4 12 12 33 5 33 -11 0 -4 -14 -13 -31
-19 -45 -15 -36 -46 14 -48 36 -1 37 0 37 36 0 56 -40 82 -70 46z m50 -54 c0
-12 -29 -23 -41 -15 -5 3 -7 10 -4 15 8 12 45 12 45 0z"/>
<path d="M5253 7913 c13 -3 17 -15 17 -49 0 -24 5 -44 10 -44 6 0 10 20 10 44
0 34 4 46 18 49 9 3 -3 5 -28 5 -25 0 -37 -2 -27 -5z"/>
<path d="M5335 7909 c-11 -17 3 -23 20 -9 12 10 19 10 28 1 14 -14 -6 -31 -36
-31 -13 0 -17 -6 -15 -22 2 -19 10 -23 41 -25 36 -1 37 0 37 36 0 20 -5 42
-12 49 -15 15 -55 16 -63 1z m55 -58 c0 -12 -29 -23 -41 -15 -5 3 -7 10 -4 15
8 12 45 12 45 0z"/>
<path d="M5480 7870 c0 -27 4 -50 10 -50 5 0 18 17 29 38 l20 37 1 -37 c0 -21
5 -38 10 -38 6 0 10 23 10 50 0 58 -12 64 -37 18 l-18 -33 -3 33 c-5 51 -22
37 -22 -18z"/>
<path d="M5630 7871 c0 -49 1 -51 29 -51 39 0 51 18 42 60 -6 30 -11 35 -39
38 l-32 3 0 -50z m55 19 c0 -8 -8 -16 -17 -18 -13 -2 -18 3 -18 18 0 15 5 20
18 18 9 -2 17 -10 17 -18z m3 -42 c-7 -19 -38 -22 -38 -4 0 10 9 16 21 16 12
0 19 -5 17 -12z"/>
<path d="M5731 7847 c1 -40 4 -60 6 -46 3 19 9 26 21 23 27 -7 45 12 45 45 0
38 -6 44 -43 47 l-30 2 1 -71z m59 29 c0 -30 -20 -49 -37 -35 -16 14 -17 41
-2 56 17 17 39 4 39 -21z"/>
<path d="M5828 7895 c-17 -38 4 -77 39 -73 14 2 28 9 31 16 3 11 0 12 -14 4
-23 -12 -44 -5 -44 14 0 9 11 14 35 14 38 0 44 10 19 34 -23 24 -53 20 -66 -9z
m46 9 c25 -9 19 -24 -9 -24 -24 0 -32 10 -18 23 8 8 8 8 27 1z"/>
<path d="M5931 7868 c2 -52 2 -53 8 -13 l7 40 8 -32 c11 -46 23 -49 40 -11
l14 33 1 -32 c2 -54 21 -37 21 17 0 61 -20 68 -42 13 l-14 -38 -13 38 c-18 53
-31 46 -30 -15z"/>
<path d="M6053 7904 c-3 -9 -1 -25 5 -35 7 -11 8 -20 2 -24 -6 -3 -10 -11 -10
-17 0 -6 10 -2 23 10 29 28 35 27 40 0 2 -13 5 1 6 30 1 52 1 52 -29 52 -19 0
-33 -6 -37 -16z m57 -14 c0 -21 -33 -29 -45 -10 -9 15 4 30 26 30 12 0 19 -7
19 -20z"/>
<path d="M6583 7913 c13 -3 17 -15 17 -49 0 -24 5 -44 10 -44 6 0 10 20 10 44
0 34 4 46 18 49 9 3 -3 5 -28 5 -25 0 -37 -2 -27 -5z"/>
<path d="M6672 7908 c-7 -7 -12 -24 -12 -38 0 -46 43 -67 70 -35 15 18 -1 20
-18 3 -8 -8 -15 -8 -27 2 -24 20 -18 30 20 30 22 0 35 5 35 13 0 18 -21 37
-40 37 -9 0 -21 -5 -28 -12z m46 -16 c2 -7 -6 -12 -17 -12 -21 0 -27 11 -14
24 9 9 26 2 31 -12z"/>
<path d="M6760 7870 c0 -53 15 -69 21 -22 5 37 0 72 -12 72 -5 0 -9 -22 -9
-50z"/>
<path d="M6800 7905 c-7 -9 -11 -17 -8 -20 2 -2 12 4 21 15 9 11 13 20 8 20
-5 0 -14 -7 -21 -15z"/>
<path d="M6852 7908 c-28 -28 -8 -88 29 -88 19 0 45 27 35 37 -3 4 -13 -2 -21
-13 -15 -19 -15 -19 -30 0 -18 24 -19 27 -1 52 12 15 17 17 27 7 18 -18 34
-16 19 2 -15 18 -42 19 -58 3z"/>
<path d="M6933 7913 c13 -3 17 -15 17 -49 0 -24 5 -44 10 -44 6 0 10 20 10 44
0 34 4 46 18 49 9 3 -3 5 -28 5 -25 0 -37 -2 -27 -5z"/>
<path d="M6790 7864 c0 -15 27 -50 34 -43 4 3 -2 17 -13 30 -11 13 -20 19 -21
13z"/>
<path d="M11400 7572 c0 -5 -12 -14 -26 -20 -19 -9 -25 -18 -22 -39 2 -14 12
-31 23 -37 11 -6 24 -15 28 -21 6 -6 10 -6 14 3 2 6 11 12 19 12 8 0 20 12 26
26 11 23 9 28 -20 55 -32 30 -42 35 -42 21z m-4 -89 c-7 -7 -36 16 -36 28 0 4
8 15 18 25 16 17 17 16 20 -15 2 -18 1 -35 -2 -38z m49 27 c0 -13 -6 -25 -12
-27 -9 -3 -13 6 -13 27 0 21 4 30 13 28 6 -3 12 -15 12 -28z"/>
<path d="M11492 7518 c-1 -38 1 -68 6 -68 4 0 21 21 37 48 l30 47 3 -47 c5
-72 22 -58 22 17 0 36 -4 65 -9 65 -5 0 -22 -20 -38 -45 -15 -25 -31 -45 -35
-45 -4 0 -9 21 -11 48 -3 39 -4 36 -5 -20z"/>
<path d="M11639 7570 c-40 -23 -29 -105 15 -116 55 -13 94 32 74 86 -14 39
-52 52 -89 30z m59 -16 c12 -8 22 -26 22 -39 0 -21 -32 -55 -52 -55 -15 0 -38
33 -38 55 0 22 23 55 38 55 4 0 18 -7 30 -16z"/>
<path d="M11438 7433 c56 -2 148 -2 205 0 56 1 10 3 -103 3 -113 0 -159 -2
-102 -3z"/>
<path d="M11117 7068 c-11 -63 -16 -103 -11 -85 7 22 74 25 74 2 0 -8 5 -15
11 -15 8 0 9 11 5 31 -3 17 -6 47 -6 65 0 32 -2 34 -34 34 -30 0 -34 -3 -39
-32z m53 -18 c0 -36 -2 -40 -26 -40 -20 0 -25 4 -20 16 3 9 6 27 6 40 0 17 6
24 20 24 17 0 20 -7 20 -40z"/>
<path d="M11221 7086 c-31 -37 9 -103 47 -80 36 23 23 94 -18 94 -10 0 -23 -6
-29 -14z m47 -8 c28 -28 -3 -83 -33 -58 -8 7 -15 20 -15 29 0 17 18 41 30 41
3 0 11 -5 18 -12z"/>
<path d="M11320 7062 c0 -21 -6 -44 -12 -51 -11 -11 -10 -13 2 -9 9 3 16 20
18 46 3 34 7 42 23 42 16 0 19 -7 19 -45 0 -25 5 -45 10 -45 6 0 10 23 10 50
l0 50 -35 0 c-34 0 -35 -1 -35 -38z"/>
<path d="M11415 7080 c18 -20 18 -22 1 -50 -9 -17 -13 -30 -8 -30 5 0 15 12
22 28 l14 27 4 -27 c2 -16 7 -28 12 -28 5 0 10 12 12 28 l4 27 14 -27 c7 -16
17 -28 22 -28 5 0 2 13 -6 29 -13 25 -13 31 0 50 8 11 11 21 6 21 -5 0 -17
-10 -25 -22 l-16 -23 0 23 c-1 12 -5 22 -11 22 -5 0 -10 -10 -11 -22 l0 -23
-16 23 c-8 12 -20 22 -26 22 -5 0 -2 -9 8 -20z"/>
<path d="M11530 7050 c0 -27 5 -50 10 -50 6 0 10 11 10 25 0 18 5 25 20 25 15
0 20 -7 20 -25 0 -14 5 -25 10 -25 6 0 10 23 10 50 0 28 -4 50 -10 50 -5 0
-10 -9 -10 -20 0 -13 -7 -20 -20 -20 -13 0 -20 7 -20 20 0 11 -4 20 -10 20 -5
0 -10 -22 -10 -50z"/>
<path d="M11641 7086 c-31 -37 9 -103 47 -80 36 23 23 94 -18 94 -10 0 -23 -6
-29 -14z m47 -8 c28 -28 -3 -83 -33 -58 -8 7 -15 20 -15 29 0 17 18 41 30 41
3 0 11 -5 18 -12z"/>
<path d="M11742 7088 c-28 -28 -8 -88 29 -88 19 0 45 27 35 37 -3 4 -13 -2
-21 -13 -15 -19 -15 -19 -30 0 -18 24 -19 27 -1 52 12 15 17 17 27 7 18 -18
34 -16 19 2 -15 18 -42 19 -58 3z"/>
<path d="M11823 7093 c13 -3 17 -15 17 -49 0 -24 5 -44 10 -44 6 0 10 20 10
44 0 34 4 46 18 49 9 3 -3 5 -28 5 -25 0 -37 -2 -27 -5z"/>
<path d="M11911 7052 l-1 -53 33 3 c27 2 32 7 32 28 0 20 -6 26 -27 28 -18 2
-28 10 -31 25 -2 12 -5 -2 -6 -31z m49 -12 c13 -9 13 -11 0 -20 -24 -16 -40
-12 -40 10 0 22 16 26 40 10z"/>
<path d="M2920 6615 c0 -37 4 -65 10 -65 6 0 10 25 10 55 l0 55 35 0 35 0 0
-55 c0 -30 5 -55 10 -55 6 0 10 28 10 65 l0 65 -55 0 -55 0 0 -65z"/>
<path d="M3050 6600 c0 -58 12 -64 37 -17 l18 32 3 -32 c5 -52 22 -38 22 17 0
28 -4 50 -10 50 -5 0 -18 -17 -29 -37 l-20 -38 -1 38 c0 20 -4 37 -10 37 -5 0
-10 -22 -10 -50z"/>
<path d="M3150 6600 l0 -50 60 0 60 0 -2 53 -1 52 -6 -45 c-4 -32 -11 -46 -23
-48 -15 -3 -18 5 -20 45 l-1 48 -6 -45 c-4 -32 -11 -46 -23 -48 -15 -3 -18 4
-18 42 0 25 -4 46 -10 46 -5 0 -10 -22 -10 -50z"/>
<path d="M3298 6625 c-17 -38 4 -77 39 -73 14 2 28 9 31 16 3 11 0 12 -14 4
-23 -12 -44 -5 -44 14 0 9 11 14 35 14 38 0 44 10 19 34 -23 24 -53 20 -66 -9z
m46 9 c25 -9 19 -24 -9 -24 -24 0 -32 10 -18 23 8 8 8 8 27 1z"/>
<path d="M3393 6643 c13 -3 17 -15 17 -49 0 -24 5 -44 10 -44 6 0 10 20 10 44
0 34 4 46 18 49 9 3 -3 5 -28 5 -25 0 -37 -2 -27 -5z"/>
<path d="M4910 6610 l0 -230 680 0 680 0 0 230 0 230 -680 0 -680 0 0 -230z
m1350 0 l0 -220 -670 0 -670 0 0 220 0 220 670 0 670 0 0 -220z"/>
<path d="M5133 6672 c-21 -13 -31 -55 -21 -85 10 -28 45 -44 72 -34 19 7 41
47 26 47 -5 0 -10 -4 -10 -10 0 -5 -9 -14 -21 -20 -46 -25 -79 48 -39 85 18
17 21 17 45 1 26 -17 34 -9 13 12 -13 13 -47 16 -65 4z"/>
<path d="M5453 6673 c-22 -8 -27 -70 -9 -98 28 -43 76 -27 76 26 0 32 -23 53
-50 46 -11 -3 -20 -1 -20 4 0 5 13 9 29 9 17 0 33 5 36 10 6 10 -39 13 -62 3z
m47 -53 c11 -20 -1 -60 -18 -60 -14 0 -32 23 -32 40 0 17 18 40 32 40 4 0 12
-9 18 -20z"/>
<path d="M5238 6625 c-16 -36 3 -75 37 -75 34 0 53 39 37 75 -8 17 -20 25 -37
25 -17 0 -29 -8 -37 -25z m62 -25 c0 -16 -6 -30 -12 -33 -24 -8 -38 5 -38 33
0 16 6 30 13 33 23 8 37 -5 37 -33z"/>
<path d="M5338 6625 c-16 -36 3 -75 37 -75 17 0 29 8 37 25 16 36 -3 75 -37
75 -17 0 -29 -8 -37 -25z m62 -25 c0 -16 -6 -30 -12 -33 -24 -8 -38 5 -38 33
0 16 6 30 13 33 23 8 37 -5 37 -33z"/>
<path d="M5540 6600 l0 -50 59 0 c39 0 61 -4 64 -12 2 -7 3 0 1 16 -2 16 -5
45 -6 65 -1 34 -1 34 -7 -9 -4 -32 -11 -46 -23 -48 -15 -3 -18 4 -18 42 0 25
-4 46 -10 46 -5 0 -10 -20 -10 -45 0 -33 -4 -45 -15 -45 -11 0 -15 12 -15 45
0 25 -4 45 -10 45 -5 0 -10 -22 -10 -50z"/>
<path d="M5696 6634 c-19 -18 -20 -38 -6 -65 13 -23 52 -25 70 -4 14 17 3 20
-20 5 -9 -5 -19 -5 -27 2 -22 18 -14 28 22 28 38 0 40 2 25 31 -13 23 -43 25
-64 3z m54 -15 c0 -5 -11 -9 -25 -9 -26 0 -34 15 -12 23 16 5 37 -3 37 -14z"/>
<path d="M5792 6600 c0 -37 2 -47 7 -30 4 16 14 25 26 25 12 0 22 -9 26 -25 5
-17 7 -7 7 30 -1 30 -3 45 -5 33 -3 -16 -11 -23 -28 -23 -17 0 -25 7 -28 23
-2 12 -4 -3 -5 -33z"/>
<path d="M5891 6603 c0 -29 2 -53 7 -53 4 0 16 17 27 37 l20 37 6 -40 c6 -38
6 -37 8 14 0 28 -3 52 -7 52 -5 0 -17 -17 -27 -37 l-19 -38 -7 40 c-6 40 -6
40 -8 -12z"/>
<path d="M5996 6634 c-19 -18 -20 -38 -6 -65 13 -23 52 -25 70 -4 14 17 3 20
-20 5 -9 -5 -19 -5 -27 2 -22 18 -14 28 22 28 38 0 40 2 25 31 -13 23 -43 25
-64 3z m54 -15 c0 -5 -11 -9 -25 -9 -26 0 -34 15 -12 23 16 5 37 -3 37 -14z"/>
<path d="M7420 6615 c0 -37 4 -65 10 -65 6 0 10 25 10 55 l0 55 35 0 35 0 0
-55 c0 -30 5 -55 10 -55 6 0 10 28 10 65 l0 65 -55 0 -55 0 0 -65z"/>
<path d="M7550 6600 c0 -58 12 -64 37 -17 l18 32 3 -32 c5 -52 22 -38 22 17 0
28 -4 50 -10 50 -5 0 -18 -17 -29 -37 l-20 -38 -1 38 c0 20 -4 37 -10 37 -5 0
-10 -22 -10 -50z"/>
<path d="M7650 6600 l0 -50 60 0 60 0 -2 53 -1 52 -6 -45 c-4 -32 -11 -46 -23
-48 -15 -3 -18 5 -20 45 l-1 48 -6 -45 c-4 -32 -11 -46 -23 -48 -15 -3 -18 4
-18 42 0 25 -4 46 -10 46 -5 0 -10 -22 -10 -50z"/>
<path d="M7798 6625 c-17 -38 4 -77 39 -73 14 2 28 9 31 16 3 11 0 12 -14 4
-23 -12 -44 -5 -44 14 0 9 11 14 35 14 38 0 44 10 19 34 -23 24 -53 20 -66 -9z
m46 9 c25 -9 19 -24 -9 -24 -24 0 -32 10 -18 23 8 8 8 8 27 1z"/>
<path d="M7893 6643 c13 -3 17 -15 17 -49 0 -24 5 -44 10 -44 6 0 10 20 10 44
0 34 4 46 18 49 9 3 -3 5 -28 5 -25 0 -37 -2 -27 -5z"/>
<path d="M8933 6615 c0 -48 2 -59 6 -35 l6 35 24 -32 c32 -43 48 -42 23 1 -20
33 -20 34 -1 65 10 17 14 31 8 31 -5 0 -18 -13 -27 -30 -22 -38 -30 -38 -35 3
-2 17 -4 1 -4 -38z"/>
<path d="M9028 6625 c-16 -36 3 -75 37 -75 17 0 29 8 37 25 16 36 -3 75 -37
75 -17 0 -29 -8 -37 -25z m62 -25 c0 -16 -6 -30 -12 -33 -24 -8 -38 5 -38 33
0 16 6 30 13 33 23 8 37 -5 37 -33z"/>
<path d="M9132 6600 c0 -37 2 -47 7 -30 4 16 14 25 26 25 12 0 22 -9 26 -25 5
-17 7 -7 7 30 -1 30 -3 45 -5 33 -3 -16 -11 -23 -28 -23 -17 0 -25 7 -28 23
-2 12 -4 -3 -5 -33z"/>
<path d="M9228 6626 c-22 -50 25 -99 60 -64 19 19 14 33 -5 16 -25 -21 -43
-12 -43 22 0 32 16 42 44 28 14 -8 17 -7 14 4 -3 7 -17 14 -31 16 -21 3 -30
-3 -39 -22z"/>
<path d="M9310 6645 c0 -3 7 -22 15 -42 18 -43 19 -70 3 -76 -7 -2 -10 -8 -5
-12 4 -5 12 -4 17 1 13 13 51 126 45 132 -5 5 -25 -42 -25 -59 0 -21 -19 3
-25 31 -4 17 -11 30 -16 30 -5 0 -9 -2 -9 -5z"/>
<path d="M9408 6600 c-2 -30 1 -49 7 -47 6 2 11 22 13 45 3 34 7 42 23 42 16
0 19 -7 19 -45 0 -25 5 -45 10 -45 6 0 10 23 10 50 l0 50 -39 0 -39 0 -4 -50z"/>
<path d="M9510 6600 c0 -48 1 -50 29 -50 37 0 59 24 41 45 -7 8 -21 15 -31 15
-12 0 -19 7 -19 20 0 11 -4 20 -10 20 -5 0 -10 -22 -10 -50z m55 -20 c0 -8 -8
-16 -17 -18 -13 -2 -18 3 -18 18 0 15 5 20 18 18 9 -2 17 -10 17 -18z"/>
<path d="M9593 6643 c13 -3 17 -16 19 -51 l1 -47 6 44 c4 31 12 46 26 52 14 5
6 7 -25 7 -25 0 -37 -2 -27 -5z"/>
<path d="M9675 6639 c-11 -17 3 -23 20 -9 12 10 19 10 28 1 14 -14 -6 -31 -36
-31 -13 0 -17 -6 -15 -22 2 -19 10 -23 41 -25 36 -1 37 0 37 36 0 20 -5 42
-12 49 -15 15 -55 16 -63 1z m55 -58 c0 -12 -29 -23 -41 -15 -5 3 -7 10 -4 15
8 12 45 12 45 0z"/>
<path d="M9770 6600 c0 -27 5 -50 10 -50 6 0 10 11 10 25 0 18 5 25 20 25 15
0 20 -7 20 -25 0 -14 5 -25 10 -25 6 0 10 23 10 50 0 28 -4 50 -10 50 -5 0
-10 -9 -10 -20 0 -13 -7 -20 -20 -20 -13 0 -20 7 -20 20 0 11 -4 20 -10 20 -5
0 -10 -22 -10 -50z"/>
<path d="M9873 6643 c13 -3 17 -16 19 -51 l1 -47 6 44 c4 31 12 46 26 52 14 5
6 7 -25 7 -25 0 -37 -2 -27 -5z"/>
<path d="M11358 6626 c-22 -50 25 -99 60 -64 19 19 14 33 -5 16 -25 -21 -43
-12 -43 22 0 32 16 42 44 28 14 -8 17 -7 14 4 -3 7 -17 14 -31 16 -21 3 -30
-3 -39 -22z"/>
<path d="M11453 6643 c13 -3 17 -16 19 -51 l1 -47 6 44 c4 31 12 46 26 52 14
5 6 7 -25 7 -25 0 -37 -2 -27 -5z"/>
<path d="M11537 6644 c-13 -13 -7 -27 7 -15 14 12 46 5 46 -10 0 -5 -15 -12
-32 -17 -23 -6 -33 -14 -33 -28 0 -15 8 -19 40 -20 l41 -2 -6 47 c-4 40 -8 46
-30 49 -14 2 -29 0 -33 -4z m41 -70 c-9 -9 -21 -13 -27 -10 -20 13 -11 26 16
26 25 0 26 -1 11 -16z"/>
<path d="M11634 6629 c13 -19 13 -24 -1 -46 -9 -13 -13 -26 -11 -29 3 -2 14 8
24 23 l18 28 7 -30 7 -30 1 28 c1 34 14 35 30 1 6 -15 14 -24 18 -21 3 4 -1
17 -9 29 -14 21 -14 26 0 46 8 13 10 22 4 22 -6 0 -14 -9 -17 -20 -9 -27 -25
-25 -26 3 -1 21 -1 21 -8 -3 l-7 -25 -12 23 c-7 12 -17 22 -23 22 -6 0 -3 -10
5 -21z"/>
<path d="M11230 6151 c0 -49 1 -51 29 -51 39 0 51 18 42 60 -6 30 -11 35 -39
38 l-32 3 0 -50z m55 19 c0 -8 -8 -16 -17 -18 -13 -2 -18 3 -18 18 0 15 5 20
18 18 9 -2 17 -10 17 -18z m3 -42 c-7 -19 -38 -22 -38 -4 0 10 9 16 21 16 12
0 19 -5 17 -12z"/>
<path d="M11331 6186 c-31 -37 9 -103 47 -80 36 23 23 94 -18 94 -10 0 -23 -6
-29 -14z m47 -8 c28 -28 -3 -83 -33 -58 -8 7 -15 20 -15 29 0 17 18 41 30 41
3 0 11 -5 18 -12z"/>
<path d="M11427 6194 c-14 -14 -7 -26 8 -14 12 10 19 10 27 2 8 -8 7 -13 -6
-18 -15 -6 -15 -7 1 -20 14 -10 16 -15 6 -25 -10 -10 -16 -10 -25 -1 -18 18
-33 15 -18 -3 7 -9 23 -15 34 -13 18 3 21 10 21 48 0 38 -3 45 -20 48 -12 2
-24 0 -28 -4z"/>
<path d="M11500 6129 c0 -39 4 -69 10 -69 6 0 10 11 10 25 0 18 4 23 15 19 22
-9 45 14 45 46 0 33 -16 48 -52 48 -28 0 -28 -1 -28 -69z m70 21 c0 -22 -25
-44 -40 -35 -14 9 -13 62 3 68 17 6 37 -12 37 -33z"/>
<path d="M11610 6185 c-14 -17 0 -21 17 -4 12 12 33 5 33 -11 0 -4 -14 -13
-31 -19 -45 -15 -36 -46 14 -48 36 -1 37 0 37 36 0 56 -40 82 -70 46z m50 -54
c0 -12 -29 -23 -41 -15 -5 3 -7 10 -4 15 8 12 45 12 45 0z"/>
<path d="M11712 6188 c-28 -28 -8 -88 29 -88 19 0 45 27 35 37 -3 4 -13 -2
-21 -13 -15 -19 -15 -19 -30 0 -18 24 -19 27 -1 52 12 15 17 17 27 7 18 -18
34 -16 19 2 -15 18 -42 19 -58 3z"/>
<path d="M11793 6193 c13 -3 17 -15 17 -49 0 -24 5 -44 10 -44 6 0 10 20 10
44 0 34 4 46 18 49 9 3 -3 5 -28 5 -25 0 -37 -2 -27 -5z"/>
<path d="M11432 5794 c-7 -26 -10 -49 -7 -52 3 -3 5 0 5 6 0 16 57 15 64 0 4
-7 4 -2 1 12 -2 14 -5 37 -5 53 0 21 -5 27 -23 27 -19 0 -25 -8 -35 -46z m48
6 c0 -23 -4 -30 -20 -30 -22 0 -23 3 -14 38 9 33 34 28 34 -8z"/>
<path d="M11522 5828 c-27 -27 -3 -73 35 -66 27 5 25 72 -2 76 -11 1 -26 -3
-33 -10z m43 -28 c0 -28 -29 -40 -38 -15 -9 22 3 46 22 43 10 -2 16 -13 16
-28z"/>
<path d="M11602 5798 l1 -43 4 38 c6 50 33 52 33 2 0 -19 5 -35 10 -35 6 0 10
18 10 40 0 38 -2 40 -30 40 -29 0 -30 -2 -28 -42z"/>
<path d="M11402 5608 c-27 -27 -3 -73 35 -66 27 5 25 72 -2 76 -11 1 -26 -3
-33 -10z m43 -28 c0 -15 -6 -26 -16 -28 -19 -3 -31 21 -22 43 9 25 38 13 38
-15z"/>
<path d="M11481 5561 c1 -32 4 -48 7 -36 4 11 16 20 26 20 51 0 43 69 -8 71
-25 1 -26 -1 -25 -55z m49 19 c0 -20 -5 -30 -15 -30 -18 0 -30 24 -21 45 10
28 36 17 36 -15z"/>
<path d="M11561 5578 l2 -43 6 35 6 35 14 -35 13 -35 13 30 13 30 5 -30 c3
-24 4 -22 6 13 1 50 -14 56 -25 10 l-7 -33 -15 33 c-21 44 -32 40 -31 -10z"/>
<path d="M11665 5610 c-4 -7 2 -9 19 -4 16 4 26 2 26 -5 0 -6 -11 -13 -26 -17
-37 -10 -27 -39 14 -40 32 -1 33 0 30 35 -3 31 -7 36 -30 39 -14 2 -29 -2 -33
-8z m45 -39 c0 -14 -18 -23 -31 -15 -8 4 -7 9 2 15 18 11 29 11 29 0z"/>
<path d="M11830 5579 c0 -28 4 -39 13 -36 6 2 12 9 11 15 -1 7 -2 23 -2 37 -3
42 -22 28 -22 -16z"/>
<path d="M11872 5600 c-6 -11 -12 -23 -12 -27 0 -5 5 -1 10 7 8 12 10 9 10
-12 0 -16 5 -28 10 -28 6 0 10 18 10 40 0 44 -9 50 -28 20z"/>
<path d="M870 5632 c0 -21 -5 -43 -12 -50 -9 -9 -8 -12 4 -12 13 0 18 11 20
43 2 34 7 42 23 42 16 0 21 -9 26 -45 l6 -45 1 53 2 52 -35 0 c-34 0 -35 -1
-35 -38z"/>
<path d="M968 5645 c-16 -36 3 -75 37 -75 34 0 53 39 37 75 -8 17 -20 25 -37
25 -17 0 -29 -8 -37 -25z m62 -25 c0 -16 -6 -30 -12 -33 -24 -8 -38 5 -38 33
0 16 6 30 13 33 23 8 37 -5 37 -33z"/>
<path d="M1072 5618 l1 -53 6 44 c4 31 12 46 26 52 17 7 16 8 -7 8 -27 1 -28
0 -26 -51z"/>
<path d="M1141 5623 c0 -29 3 -53 7 -53 5 0 17 17 27 38 l19 37 7 -40 c6 -40
6 -40 8 13 0 28 -2 52 -7 52 -4 0 -16 -17 -27 -37 l-20 -37 -6 40 c-6 38 -6
37 -8 -13z"/>
<path d="M1243 5620 c0 -30 2 -42 4 -27 4 22 9 28 26 25 13 -2 24 -13 28 -28
5 -17 7 -7 7 30 -1 30 -3 45 -5 33 -3 -16 -11 -23 -28 -23 -17 0 -25 7 -28 23
-2 12 -4 -3 -4 -33z"/>
<path d="M850 5550 c0 -6 85 -10 235 -10 150 0 235 4 235 10 0 6 -85 10 -235
10 -150 0 -235 -4 -235 -10z"/>
<path d="M3830 5690 c0 -5 5 -10 10 -10 6 0 10 5 10 10 0 6 -4 10 -10 10 -5 0
-10 -4 -10 -10z"/>
<path d="M3930 5680 c0 -13 -5 -18 -15 -14 -22 9 -45 -14 -45 -45 0 -35 17
-51 52 -51 28 0 28 0 28 65 0 37 -4 65 -10 65 -5 0 -10 -9 -10 -20z m0 -60 c0
-34 -15 -46 -35 -30 -18 15 -19 42 -4 57 18 18 39 3 39 -27z"/>
<path d="M3830 5620 c0 -27 5 -50 10 -50 6 0 10 23 10 50 0 28 -4 50 -10 50
-5 0 -10 -22 -10 -50z"/>
<path d="M3820 5550 c0 -6 30 -10 70 -10 40 0 70 4 70 10 0 6 -30 10 -70 10
-40 0 -70 -4 -70 -10z"/>
<path d="M4658 5646 c-22 -50 25 -99 60 -64 19 19 14 33 -5 16 -25 -21 -43
-12 -43 22 0 32 16 42 44 28 14 -8 17 -7 14 4 -3 7 -17 14 -31 16 -21 3 -30
-3 -39 -22z"/>
<path d="M4753 5663 c13 -3 17 -16 19 -51 l1 -47 6 44 c4 31 12 46 26 52 14 5
6 7 -25 7 -25 0 -37 -2 -27 -5z"/>
<path d="M4828 5645 c-16 -36 3 -75 37 -75 17 0 29 8 37 25 16 36 -3 75 -37
75 -17 0 -29 -8 -37 -25z m62 -25 c0 -16 -6 -30 -12 -33 -24 -8 -38 5 -38 33
0 16 6 30 13 33 23 8 37 -5 37 -33z"/>
<path d="M4931 5623 c0 -29 2 -53 7 -53 4 0 16 17 27 37 l20 37 6 -40 c6 -38
6 -37 8 14 0 28 -3 52 -7 52 -5 0 -17 -17 -27 -37 l-19 -38 -7 40 c-6 40 -6
40 -8 -12z"/>
<path d="M5032 5618 c1 -48 2 -49 6 -13 l4 40 18 -40 17 -40 16 35 15 35 1
-32 c2 -54 21 -37 21 17 0 38 -4 50 -15 50 -8 0 -15 -4 -15 -9 0 -5 -5 -22
-11 -38 l-11 -28 -12 34 c-20 56 -36 51 -34 -11z"/>
<path d="M5161 5656 c-31 -37 9 -103 47 -80 36 23 23 94 -18 94 -10 0 -23 -6
-29 -14z m47 -8 c28 -28 -3 -83 -33 -58 -8 7 -15 20 -15 29 0 17 18 41 30 41
3 0 11 -5 18 -12z"/>
<path d="M5262 5658 c-28 -28 -8 -88 29 -88 19 0 45 27 35 37 -3 4 -13 -2 -21
-13 -15 -19 -15 -19 -30 0 -18 24 -19 27 -1 52 12 15 17 17 27 7 18 -18 34
-16 19 2 -15 18 -42 19 -58 3z"/>
<path d="M5343 5663 c13 -3 17 -15 17 -49 0 -24 5 -44 10 -44 6 0 10 20 10 44
0 34 4 46 18 49 9 3 -3 5 -28 5 -25 0 -37 -2 -27 -5z"/>
<path d="M5431 5622 l-1 -53 33 3 c27 2 32 7 32 28 0 20 -6 26 -27 28 -18 2
-28 10 -31 25 -2 12 -5 -2 -6 -31z m49 -12 c13 -9 13 -11 0 -20 -24 -16 -40
-12 -40 10 0 22 16 26 40 10z"/>
<path d="M5850 5655 c-14 -17 0 -21 17 -4 12 12 33 5 33 -11 0 -4 -14 -13 -31
-19 -45 -15 -36 -46 14 -48 36 -1 37 0 37 36 0 56 -40 82 -70 46z m50 -54 c0
-12 -29 -23 -41 -15 -5 3 -7 10 -4 15 8 12 45 12 45 0z"/>
<path d="M5943 5663 c13 -3 17 -15 17 -49 0 -24 5 -44 10 -44 6 0 10 20 10 44
0 34 4 46 18 49 9 3 -3 5 -28 5 -25 0 -37 -2 -27 -5z"/>
<path d="M6025 5659 c-11 -17 3 -23 20 -9 12 10 19 10 28 1 14 -14 -6 -31 -36
-31 -13 0 -17 -6 -15 -22 2 -19 10 -23 41 -25 36 -1 37 0 37 36 0 20 -5 42
-12 49 -15 15 -55 16 -63 1z m55 -58 c0 -12 -29 -23 -41 -15 -5 3 -7 10 -4 15
8 12 45 12 45 0z"/>
<path d="M6170 5620 c0 -27 4 -50 10 -50 5 0 18 17 29 38 l20 37 1 -37 c0 -21
5 -38 10 -38 6 0 10 23 10 50 0 58 -12 64 -37 18 l-18 -33 -3 33 c-5 51 -22
37 -22 -18z"/>
<path d="M6320 5621 c0 -49 1 -51 29 -51 39 0 51 18 42 60 -6 30 -11 35 -39
38 l-32 3 0 -50z m55 19 c0 -8 -8 -16 -17 -18 -13 -2 -18 3 -18 18 0 15 5 20
18 18 9 -2 17 -10 17 -18z m3 -42 c-7 -19 -38 -22 -38 -4 0 10 9 16 21 16 12
0 19 -5 17 -12z"/>
<path d="M6421 5597 c1 -40 4 -60 6 -46 3 19 9 26 21 23 27 -7 45 12 45 45 0
38 -6 44 -43 47 l-30 2 1 -71z m59 29 c0 -30 -20 -49 -37 -35 -16 14 -17 41
-2 56 17 17 39 4 39 -21z"/>
<path d="M6518 5645 c-17 -38 4 -77 39 -73 14 2 28 9 31 16 3 11 0 12 -14 4
-23 -12 -44 -5 -44 14 0 9 11 14 35 14 38 0 44 10 19 34 -23 24 -53 20 -66 -9z
m46 9 c25 -9 19 -24 -9 -24 -24 0 -32 10 -18 23 8 8 8 8 27 1z"/>
<path d="M6621 5618 c2 -52 2 -53 8 -13 l7 40 8 -32 c11 -46 23 -49 40 -11
l14 33 1 -32 c2 -54 21 -37 21 17 0 61 -20 68 -42 13 l-14 -38 -13 38 c-18 53
-31 46 -30 -15z"/>
<path d="M6743 5654 c-3 -9 -1 -25 5 -35 7 -11 8 -20 2 -24 -6 -3 -10 -11 -10
-17 0 -6 10 -2 23 10 29 28 35 27 40 0 2 -13 5 1 6 30 1 52 1 52 -29 52 -19 0
-33 -6 -37 -16z m57 -14 c0 -21 -33 -29 -45 -10 -9 15 4 30 26 30 12 0 19 -7
19 -20z"/>
<path d="M7260 5742 c0 -21 -5 -43 -12 -50 -9 -9 -8 -12 4 -12 13 0 18 11 20
43 2 34 7 42 23 42 16 0 21 -9 26 -45 l6 -45 1 53 2 52 -35 0 c-34 0 -35 -1
-35 -38z"/>
<path d="M7358 5755 c-16 -36 3 -75 37 -75 17 0 29 8 37 25 16 36 -3 75 -37
75 -17 0 -29 -8 -37 -25z m62 -25 c0 -16 -6 -30 -12 -33 -24 -8 -38 5 -38 33
0 16 6 30 13 33 23 8 37 -5 37 -33z"/>
<path d="M7462 5728 l1 -53 6 44 c4 31 12 46 26 52 17 7 16 8 -7 8 -27 1 -28
0 -26 -51z"/>
<path d="M7531 5733 c0 -29 3 -53 7 -53 5 0 17 17 27 38 l19 37 7 -40 c6 -40
6 -40 8 13 0 28 -2 52 -7 52 -4 0 -16 -17 -27 -37 l-20 -37 -6 40 c-6 38 -6
37 -8 -13z"/>
<path d="M7633 5730 c0 -30 2 -42 4 -27 4 22 9 28 26 25 13 -2 24 -13 28 -28
5 -17 7 -7 7 30 -1 30 -3 45 -5 33 -3 -16 -11 -23 -28 -23 -17 0 -25 7 -28 23
-2 12 -4 -3 -4 -33z"/>
<path d="M7162 5510 c0 -43 2 -49 7 -25 l8 30 13 -28 c11 -22 20 -27 39 -25
23 3 26 8 29 46 3 34 7 42 23 42 16 0 19 -7 19 -45 0 -25 5 -45 10 -45 6 0 10
23 10 50 l0 50 -40 0 -40 0 0 -45 c0 -50 -10 -57 -33 -21 -14 21 -14 26 -1 45
8 11 11 21 5 21 -6 0 -16 -10 -23 -22 l-12 -23 -7 25 c-5 17 -7 8 -7 -30z"/>
<path d="M7340 5510 c0 -27 4 -50 10 -50 5 0 18 17 29 38 l20 37 1 -37 c0 -21
5 -38 10 -38 6 0 10 23 10 50 0 58 -12 64 -37 18 l-18 -33 -3 33 c-5 51 -22
37 -22 -18z"/>
<path d="M7452 5548 c-7 -7 -12 -24 -12 -38 0 -46 43 -67 70 -35 15 18 -1 20
-18 3 -8 -8 -15 -8 -27 2 -24 20 -18 30 20 30 22 0 35 5 35 13 0 18 -21 37
-40 37 -9 0 -21 -5 -28 -12z m46 -16 c2 -7 -6 -12 -17 -12 -21 0 -27 11 -14
24 9 9 26 2 31 -12z"/>
<path d="M7540 5510 c0 -27 5 -50 10 -50 6 0 10 11 10 25 0 18 5 25 20 25 15
0 20 -7 20 -25 0 -14 5 -25 10 -25 6 0 10 23 10 50 0 28 -4 50 -10 50 -5 0
-10 -9 -10 -20 0 -13 -7 -20 -20 -20 -13 0 -20 7 -20 20 0 11 -4 20 -10 20 -5
0 -10 -22 -10 -50z"/>
<path d="M7643 5553 c13 -3 17 -15 17 -49 0 -24 5 -44 10 -44 6 0 10 20 10 44
0 34 4 46 18 49 9 3 -3 5 -28 5 -25 0 -37 -2 -27 -5z"/>
<path d="M7725 5549 c-11 -17 3 -23 20 -9 12 10 19 10 28 1 14 -14 -6 -31 -36
-31 -13 0 -17 -6 -15 -22 2 -19 10 -23 41 -25 36 -1 37 0 37 36 0 20 -5 42
-12 49 -15 15 -55 16 -63 1z m55 -58 c0 -12 -29 -23 -41 -15 -5 3 -7 10 -4 15
8 12 45 12 45 0z"/>
<path d="M8551 5774 c-28 -20 -27 -46 4 -72 14 -12 25 -18 25 -13 0 5 9 11 20
14 11 3 23 13 27 22 14 39 -40 74 -76 49z m19 -34 c0 -16 -5 -30 -10 -30 -14
0 -24 26 -16 45 10 26 26 16 26 -15z m40 15 c10 -12 10 -18 0 -30 -19 -23 -30
-18 -30 15 0 33 11 38 30 15z"/>
<path d="M8652 5738 c-1 -32 1 -58 6 -58 4 0 18 19 32 43 l25 42 6 -45 6 -45
1 58 c1 31 -2 57 -6 57 -5 0 -19 -19 -33 -42 l-24 -43 -6 45 -6 45 -1 -57z"/>
<path d="M8767 5772 c-22 -24 -21 -55 1 -75 39 -35 82 -15 82 38 0 17 -5 36
-12 43 -18 18 -53 15 -71 -6z m61 -4 c16 -16 15 -53 -3 -68 -33 -28 -71 12
-54 58 9 24 38 29 57 10z"/>
<path d="M8390 5500 c0 -22 5 -40 10 -40 6 0 10 9 10 20 0 11 7 20 15 20 8 0
15 -9 15 -20 0 -11 5 -20 10 -20 6 0 10 18 10 40 0 22 -4 40 -10 40 -5 0 -10
-7 -10 -15 0 -8 -7 -15 -15 -15 -8 0 -15 7 -15 15 0 8 -4 15 -10 15 -5 0 -10
-18 -10 -40z"/>
<path d="M8482 5528 c-25 -25 -6 -68 29 -68 10 0 21 5 24 10 4 7 -2 9 -19 4
-24 -6 -26 -3 -26 25 0 27 3 30 29 28 24 -2 32 -8 42 -40 11 -32 10 -40 -2
-49 -12 -8 -12 -9 1 -5 8 2 23 25 33 52 20 54 15 75 -6 24 l-14 -34 -7 31 c-6
26 -12 31 -40 32 -18 1 -38 -4 -44 -10z"/>
<path d="M8628 5500 c-2 -22 0 -40 4 -40 5 0 8 16 8 35 0 28 4 35 19 35 15 0
21 -8 24 -37 l4 -38 1 43 c2 40 1 42 -27 42 -26 0 -29 -3 -33 -40z"/>
<path d="M8711 5502 c-1 -42 0 -43 27 -40 34 4 39 41 5 46 -12 2 -24 11 -26
20 -3 9 -5 -2 -6 -26z m49 -17 c0 -8 -9 -15 -20 -15 -11 0 -20 7 -20 15 0 8 9
15 20 15 11 0 20 -7 20 -15z"/>
<path d="M8778 5533 c6 -2 12 -20 12 -39 0 -19 5 -34 10 -34 6 0 10 15 10 34
0 19 6 37 13 39 6 3 -4 5 -23 5 -19 0 -29 -2 -22 -5z"/>
<path d="M8845 5530 c-4 -7 2 -9 19 -4 16 4 26 2 26 -5 0 -6 -11 -13 -26 -17
-37 -10 -27 -39 14 -40 32 -1 33 0 30 35 -3 31 -7 36 -30 39 -14 2 -29 -2 -33
-8z m45 -39 c0 -14 -18 -23 -31 -15 -8 4 -7 9 2 15 18 11 29 11 29 0z"/>
<path d="M8933 5500 c0 -25 2 -35 4 -22 3 13 12 22 23 22 11 0 20 -9 23 -22 2
-13 4 -3 4 22 1 25 -1 37 -4 28 -2 -10 -13 -18 -23 -18 -10 0 -21 8 -23 18 -3
9 -5 -3 -4 -28z"/>
<path d="M11611 5298 c-1 -11 -9 -18 -21 -18 -13 0 -22 -9 -26 -25 -7 -27 9
-55 31 -55 8 0 16 -8 18 -17 4 -15 5 -14 6 3 1 15 7 20 24 20 19 -1 22 4 22
34 0 28 -4 35 -20 35 -11 0 -23 9 -27 20 -5 17 -6 17 -7 3z m-6 -58 c0 -13 -5
-25 -11 -27 -14 -5 -25 22 -17 42 8 23 28 12 28 -15z m50 0 c0 -27 -22 -39
-31 -16 -8 22 3 49 19 43 6 -2 12 -14 12 -27z"/>
<path d="M11252 5273 c11 -3 18 -17 21 -41 l4 -37 1 37 c1 25 7 38 20 41 9 3
-1 5 -23 5 -22 0 -32 -2 -23 -5z"/>
<path d="M11322 5268 c-15 -15 -15 -41 0 -56 14 -14 44 -16 52 -3 3 4 -6 6
-19 3 -18 -3 -25 0 -25 12 0 11 9 16 26 16 19 0 25 5 22 18 -4 21 -39 27 -56
10z m43 -8 c3 -5 -3 -10 -14 -10 -12 0 -21 5 -21 10 0 6 6 10 14 10 8 0 18 -4
21 -10z"/>
<path d="M11398 5240 c-2 -22 0 -40 4 -40 5 0 8 16 8 35 0 28 4 35 19 35 15 0
21 -8 24 -37 l4 -38 1 43 c2 40 1 42 -27 42 -26 0 -29 -3 -33 -40z"/>
<path d="M11484 5266 c-11 -30 1 -61 25 -64 13 -2 28 1 34 7 7 7 2 10 -18 8
-15 -1 -30 4 -32 11 -3 8 6 12 26 12 33 0 39 8 19 28 -16 16 -47 15 -54 -2z
m46 -6 c0 -5 -9 -10 -21 -10 -11 0 -17 5 -14 10 3 6 13 10 21 10 8 0 14 -4 14
-10z"/>
<path d="M11694 5266 c-11 -29 1 -61 23 -64 29 -4 48 30 33 58 -12 23 -48 27
-56 6z m41 -26 c0 -27 -22 -39 -31 -16 -8 22 3 49 19 43 6 -2 12 -14 12 -27z"/>
<path d="M11773 5240 c0 -25 2 -35 4 -22 3 13 12 22 23 22 11 0 20 -9 23 -22
2 -13 4 -3 4 22 1 25 -1 37 -4 28 -2 -10 -13 -18 -23 -18 -10 0 -21 8 -23 18
-3 9 -5 -3 -4 -28z"/>
<path d="M800 5170 c0 -27 5 -50 10 -50 6 0 10 20 10 45 0 38 3 45 19 45 16 0
21 -8 24 -47 l3 -48 2 53 2 52 -35 0 -35 0 0 -50z"/>
<path d="M907 5214 c-13 -13 -7 -27 7 -15 14 12 46 5 46 -10 0 -5 -15 -12 -32
-17 -23 -6 -33 -14 -33 -28 0 -15 8 -19 40 -20 l41 -2 -6 47 c-4 40 -8 46 -30
49 -14 2 -29 0 -33 -4z m41 -70 c-9 -9 -21 -13 -27 -10 -20 13 -11 26 16 26
25 0 26 -1 11 -16z"/>
<path d="M1001 5145 c1 -38 4 -58 6 -44 3 20 9 26 22 22 20 -5 51 21 51 43 0
33 -20 54 -50 52 l-30 -2 1 -71z m59 25 c0 -30 -21 -45 -39 -27 -23 23 -4 71
25 60 8 -3 14 -18 14 -33z"/>
<path d="M1098 5195 c-16 -36 3 -75 37 -75 34 0 53 39 37 75 -8 17 -20 25 -37
25 -17 0 -29 -8 -37 -25z m62 -25 c0 -16 -6 -30 -12 -33 -24 -8 -38 5 -38 33
0 16 6 30 13 33 23 8 37 -5 37 -33z"/>
<path d="M1198 5170 c-2 -30 1 -49 7 -47 6 2 11 22 13 45 3 34 7 42 23 42 16
0 19 -7 19 -45 0 -25 5 -45 10 -45 6 0 10 23 10 50 l0 50 -39 0 -39 0 -4 -50z"/>
<path d="M1300 5170 c0 -48 1 -50 29 -50 37 0 59 24 41 45 -7 8 -21 15 -31 15
-12 0 -19 7 -19 20 0 11 -4 20 -10 20 -5 0 -10 -22 -10 -50z m55 -20 c0 -8 -8
-16 -17 -18 -13 -2 -18 3 -18 18 0 15 5 20 18 18 9 -2 17 -10 17 -18z"/>
<path d="M11362 4788 l1 -43 4 38 c6 50 33 52 33 2 0 -19 5 -35 10 -35 6 0 10
18 10 40 0 38 -2 40 -30 40 -29 0 -30 -2 -28 -42z"/>
<path d="M11442 4818 c-27 -27 -3 -73 35 -66 27 5 25 72 -2 76 -11 1 -26 -3
-33 -10z m43 -28 c0 -16 -6 -26 -17 -28 -14 -3 -18 3 -18 28 0 25 4 31 18 28
11 -2 17 -12 17 -28z"/>
<path d="M11510 4821 c0 -23 14 -41 31 -41 10 0 19 -7 19 -15 0 -8 5 -15 10
-15 6 0 10 18 10 40 0 22 -4 40 -10 40 -5 0 -10 -9 -10 -20 0 -11 -7 -20 -15
-20 -8 0 -15 9 -15 20 0 11 -4 20 -10 20 -5 0 -10 -4 -10 -9z"/>
<path d="M11598 4823 c6 -2 12 -20 12 -39 0 -19 5 -34 10 -34 6 0 10 15 10 34
0 19 6 37 13 39 6 3 -4 5 -23 5 -19 0 -29 -2 -22 -5z"/>
<path d="M11665 4820 c-4 -7 2 -9 19 -4 16 4 26 2 26 -5 0 -6 -11 -13 -26 -17
-37 -10 -27 -39 14 -40 32 -1 33 0 30 35 -3 31 -7 36 -30 39 -14 2 -29 -2 -33
-8z m45 -39 c0 -14 -18 -23 -31 -15 -8 4 -7 9 2 15 18 11 29 11 29 0z"/>
<path d="M1171 4783 c-1 -16 -6 -21 -16 -17 -22 9 -45 -14 -45 -46 0 -31 23
-55 44 -47 10 4 16 -2 19 -21 l4 -27 2 27 c1 20 5 26 16 22 22 -9 45 14 45 46
0 31 -23 55 -44 47 -10 -4 -16 2 -19 16 l-4 22 -2 -22z m-1 -62 c0 -26 -21
-43 -37 -30 -16 14 -17 41 -1 57 14 14 38 -2 38 -27z m52 -17 c-10 -21 -15
-24 -27 -14 -18 15 -19 42 -3 58 10 10 15 9 27 -3 12 -12 12 -19 3 -41z"/>
<path d="M743 4758 c9 -7 18 -31 20 -53 l4 -40 1 47 c2 35 6 48 20 51 9 3 -1
5 -22 6 -34 1 -37 -1 -23 -11z"/>
<path d="M818 4745 c-17 -38 4 -77 39 -73 14 2 28 9 31 16 3 11 0 12 -14 4
-23 -12 -44 -5 -44 14 0 9 11 14 35 14 38 0 44 10 19 34 -23 24 -53 20 -66 -9z
m46 9 c25 -9 19 -24 -9 -24 -24 0 -32 10 -18 23 8 8 8 8 27 1z"/>
<path d="M920 4732 c0 -21 -6 -44 -12 -51 -11 -11 -10 -13 2 -9 9 3 16 20 18
46 3 34 7 42 23 42 16 0 19 -7 19 -45 0 -25 5 -45 10 -45 6 0 10 23 10 50 l0
50 -35 0 c-34 0 -35 -1 -35 -38z"/>
<path d="M1022 4758 c-17 -17 -15 -63 3 -78 16 -13 65 -6 65 10 0 14 -13 12
-29 -2 -10 -11 -15 -9 -27 7 -14 19 -13 20 20 23 20 2 36 9 36 16 0 17 -21 36
-40 36 -9 0 -21 -5 -28 -12z m46 -16 c2 -7 -6 -12 -17 -12 -21 0 -27 11 -14
24 9 9 26 2 31 -12z"/>
<path d="M1271 4756 c-31 -37 9 -103 47 -80 36 23 23 94 -18 94 -10 0 -23 -6
-29 -14z m47 -8 c28 -28 -3 -83 -33 -58 -8 7 -15 20 -15 29 0 17 18 41 30 41
3 0 11 -5 18 -12z"/>
<path d="M1360 4720 c0 -27 5 -50 10 -50 6 0 10 11 10 25 0 18 5 25 20 25 15
0 20 -7 20 -25 0 -14 5 -25 10 -25 6 0 10 23 10 50 0 28 -4 50 -10 50 -5 0
-10 -9 -10 -20 0 -13 -7 -20 -20 -20 -13 0 -20 7 -20 20 0 11 -4 20 -10 20 -5
0 -10 -22 -10 -50z"/>
<path d="M2913 4285 c0 -48 2 -59 6 -35 l6 35 25 -33 c18 -24 31 -32 50 -30
22 3 25 8 28 46 3 34 7 42 23 42 16 0 19 -7 19 -45 0 -25 5 -45 10 -45 6 0 10
23 10 50 l0 50 -40 0 -40 0 0 -45 c0 -53 -17 -59 -41 -16 -16 27 -16 31 2 60
10 17 14 31 8 31 -5 0 -18 -13 -27 -30 -22 -38 -30 -38 -35 3 -2 17 -4 1 -4
-38z"/>
<path d="M3110 4270 c0 -27 4 -50 10 -50 5 0 18 17 29 38 l20 37 1 -37 c0 -21
5 -38 10 -38 6 0 10 23 10 50 0 58 -12 64 -37 18 l-18 -33 -3 33 c-5 51 -22
37 -22 -18z"/>
<path d="M3222 4308 c-17 -17 -15 -63 3 -78 16 -13 65 -6 65 10 0 14 -13 12
-29 -2 -10 -11 -15 -9 -27 7 -14 19 -13 20 20 23 20 2 36 9 36 16 0 17 -21 36
-40 36 -9 0 -21 -5 -28 -12z m46 -16 c2 -7 -6 -12 -17 -12 -21 0 -27 11 -14
24 9 9 26 2 31 -12z"/>
<path d="M3310 4270 c0 -27 5 -50 10 -50 6 0 10 11 10 25 0 18 5 25 20 25 15
0 20 -7 20 -25 0 -14 5 -25 10 -25 6 0 10 23 10 50 0 28 -4 50 -10 50 -5 0
-10 -9 -10 -20 0 -13 -7 -20 -20 -20 -13 0 -20 7 -20 20 0 11 -4 20 -10 20 -5
0 -10 -22 -10 -50z"/>
<path d="M3413 4313 c13 -3 17 -15 17 -49 0 -24 5 -44 10 -44 6 0 10 20 10 44
0 34 4 46 18 49 9 3 -3 5 -28 5 -25 0 -37 -2 -27 -5z"/>
<path d="M7010 4285 l0 -235 680 0 680 0 0 235 0 235 -680 0 -680 0 0 -235z
m1350 0 l0 -215 -670 0 -670 0 0 215 0 215 670 0 670 0 0 -215z"/>
<path d="M7470 4335 c-7 -9 -10 -18 -6 -22 3 -4 12 1 19 11 8 11 19 15 30 10
22 -8 22 -30 0 -43 -17 -9 -17 -10 0 -16 9 -4 17 -13 17 -20 0 -20 -26 -25
-49 -9 -22 16 -29 6 -9 -14 31 -31 93 2 71 37 -6 10 -8 24 -3 31 23 37 -42 69
-70 35z"/>
<path d="M7575 4309 c-11 -17 3 -23 20 -9 12 10 19 10 28 1 14 -14 -6 -31 -36
-31 -13 0 -17 -6 -15 -22 2 -19 10 -23 41 -25 36 -1 37 0 37 36 0 20 -5 42
-12 49 -15 15 -55 16 -63 1z m55 -58 c0 -12 -29 -23 -41 -15 -5 3 -7 10 -4 15
8 12 45 12 45 0z"/>
<path d="M7670 4270 c0 -53 15 -69 21 -22 5 37 0 72 -12 72 -5 0 -9 -22 -9
-50z"/>
<path d="M7710 4305 c-7 -9 -11 -17 -8 -20 2 -2 12 4 21 15 9 11 13 20 8 20
-5 0 -14 -7 -21 -15z"/>
<path d="M7760 4305 c-14 -17 0 -21 17 -4 12 12 33 5 33 -11 0 -4 -14 -13 -31
-19 -45 -15 -36 -46 14 -48 36 -1 37 0 37 36 0 56 -40 82 -70 46z m50 -54 c0
-12 -29 -23 -41 -15 -5 3 -7 10 -4 15 8 12 45 12 45 0z"/>
<path d="M7857 4314 c-14 -14 -7 -26 8 -14 12 10 19 10 27 2 8 -8 7 -13 -6
-18 -15 -6 -15 -7 1 -20 14 -10 16 -15 6 -25 -10 -10 -16 -10 -25 -1 -18 18
-33 15 -18 -3 7 -9 23 -15 34 -13 18 3 21 10 21 48 0 38 -3 45 -20 48 -12 2
-24 0 -28 -4z"/>
<path d="M7700 4264 c0 -15 27 -50 34 -43 4 3 -2 17 -13 30 -11 13 -20 19 -21
13z"/>
<path d="M5047 4312 c-22 -24 -21 -55 1 -75 39 -35 82 -15 82 38 0 17 -5 36
-12 43 -18 18 -53 15 -71 -6z m61 -4 c16 -16 15 -53 -3 -68 -33 -28 -71 12
-54 58 9 24 38 29 57 10z"/>
<path d="M5190 4316 c0 -7 -9 -16 -20 -19 -15 -4 -20 -14 -20 -37 0 -23 5 -33
20 -37 11 -3 20 -12 20 -19 0 -8 5 -14 10 -14 6 0 10 7 10 15 0 8 7 15 15 15
22 0 38 36 25 60 -6 11 -17 20 -25 20 -8 0 -15 7 -15 15 0 8 -4 15 -10 15 -5
0 -10 -6 -10 -14z m0 -56 c0 -31 -16 -41 -26 -15 -8 19 2 45 16 45 5 0 10 -13
10 -30z m50 0 c0 -20 -5 -30 -15 -30 -10 0 -15 10 -15 30 0 20 5 30 15 30 10
0 15 -10 15 -30z"/>
<path d="M5282 4288 c-27 -27 -3 -73 35 -66 27 5 25 72 -2 76 -11 1 -26 -3
-33 -10z m43 -28 c0 -28 -29 -40 -38 -15 -9 22 3 46 22 43 10 -2 16 -13 16
-28z"/>
<path d="M5361 4243 c1 -32 3 -50 6 -41 2 9 14 18 26 20 18 2 22 10 22 38 0
31 -3 35 -27 38 -28 3 -28 3 -27 -55z m44 17 c0 -27 -22 -39 -31 -16 -8 22 3
49 19 43 6 -2 12 -14 12 -27z"/>
<path d="M5441 4258 l2 -43 6 35 6 35 14 -35 13 -35 13 30 13 30 5 -30 c3 -24
4 -22 6 13 1 50 -14 56 -25 10 l-7 -33 -15 33 c-21 44 -32 40 -31 -10z"/>
<path d="M5548 4260 c-2 -22 0 -40 4 -40 5 0 8 16 8 35 0 28 4 35 19 35 15 0
21 -8 24 -37 l4 -38 1 43 c2 40 1 42 -27 42 -26 0 -29 -3 -33 -40z"/>
<path d="M5633 4283 c-4 -10 -1 -19 6 -21 9 -3 8 -9 -5 -23 -10 -12 -13 -19
-5 -19 6 0 14 7 17 15 8 21 32 19 37 -2 3 -10 5 1 6 25 1 39 -1 42 -24 42 -15
0 -28 -7 -32 -17z m47 -9 c0 -9 -7 -14 -17 -12 -25 5 -28 28 -4 28 12 0 21 -6
21 -16z"/>
<path d="M5714 4286 c-11 -30 1 -61 25 -64 13 -2 28 1 34 7 7 7 2 10 -18 8
-15 -1 -30 4 -32 11 -3 8 6 12 26 12 33 0 39 8 19 28 -16 16 -47 15 -54 -2z
m46 -6 c0 -5 -9 -10 -21 -10 -11 0 -17 5 -14 10 3 6 13 10 21 10 8 0 14 -4 14
-10z"/>
<path d="M5792 4293 c11 -3 18 -17 21 -41 l4 -37 1 37 c1 25 7 38 20 41 9 3
-1 5 -23 5 -22 0 -32 -2 -23 -5z"/>
<path d="M8981 4316 c-7 -8 -11 -30 -9 -48 6 -64 98 -58 98 7 0 44 -63 73 -89
41z m70 -17 c8 -16 8 -28 0 -45 -18 -41 -71 -25 -71 21 0 44 50 61 71 24z"/>
<path d="M9096 4322 c-3 -5 8 -6 25 -4 16 2 29 6 29 8 0 8 -49 4 -54 -4z"/>
<path d="M9080 4277 c0 -51 49 -77 70 -37 17 31 -4 61 -40 58 -22 -2 -30 -7
-30 -21z m55 -17 c0 -16 -6 -26 -17 -28 -14 -3 -18 3 -18 28 0 25 4 31 18 28
11 -2 17 -12 17 -28z"/>
<path d="M9174 4286 c-16 -41 20 -86 47 -59 6 6 1 9 -13 9 -18 -1 -23 4 -23
24 0 19 5 25 22 24 12 0 20 3 17 8 -8 13 -44 9 -50 -6z"/>
<path d="M9248 4260 c-4 -40 5 -53 16 -24 3 9 6 24 6 35 0 37 29 21 33 -18 l4
-38 1 43 c2 40 1 42 -27 42 -26 0 -29 -3 -33 -40z"/>
<path d="M9336 4280 c3 -14 8 -36 11 -49 4 -14 0 -27 -8 -33 -12 -8 -11 -9 1
-6 17 5 36 40 44 83 l6 30 -12 -27 c-7 -16 -15 -28 -18 -28 -3 0 -11 12 -18
28 -11 25 -11 25 -6 2z"/>
<path d="M9410 4285 c7 -9 15 -13 17 -11 7 7 -7 26 -19 26 -6 0 -6 -6 2 -15z"/>
<path d="M9437 4283 c-4 -10 -14 -28 -23 -40 -9 -13 -12 -23 -7 -23 6 0 15 10
21 23 l11 22 0 -22 c1 -13 5 -23 10 -23 10 0 18 38 13 63 -2 9 -7 17 -12 17
-4 0 -10 -8 -13 -17z"/>
<path d="M9476 4284 c-5 -14 -4 -15 9 -4 17 14 19 20 6 20 -5 0 -12 -7 -15
-16z"/>
<path d="M9511 4263 c-1 -47 5 -53 25 -25 18 23 18 37 0 23 -12 -10 -15 -7
-19 16 -3 20 -4 16 -6 -14z"/>
<path d="M9556 4292 c-2 -4 -1 -23 4 -42 l8 -35 1 43 c1 41 -3 50 -13 34z"/>
<path d="M9590 4260 c0 -38 2 -40 29 -40 36 0 43 9 35 49 -6 26 -11 31 -35 31
-27 0 -29 -3 -29 -40z m50 20 c0 -5 -7 -10 -15 -10 -8 0 -15 5 -15 10 0 6 7
10 15 10 8 0 15 -4 15 -10z m0 -35 c0 -8 -7 -15 -15 -15 -8 0 -15 7 -15 15 0
8 7 15 15 15 8 0 15 -7 15 -15z"/>
<path d="M9676 4291 c-3 -4 6 -6 19 -3 33 6 32 -14 -1 -22 -36 -9 -28 -41 11
-43 29 -1 30 0 27 38 -4 33 -8 39 -27 39 -13 0 -26 -4 -29 -9z m44 -41 c0 -13
-28 -25 -38 -16 -3 4 0 11 8 16 20 13 30 12 30 0z"/>
<path d="M9762 4288 c-15 -15 -15 -41 0 -56 14 -14 44 -16 52 -3 3 4 -6 6 -19
3 -18 -3 -25 0 -25 12 0 11 9 16 26 16 19 0 25 5 22 18 -4 21 -39 27 -56 10z
m43 -8 c3 -5 -3 -10 -14 -10 -12 0 -21 5 -21 10 0 6 6 10 14 10 8 0 18 -4 21
-10z"/>
<path d="M9838 4293 c6 -2 12 -20 12 -39 0 -19 5 -34 10 -34 6 0 10 15 10 34
0 19 6 37 13 39 6 3 -4 5 -23 5 -19 0 -29 -2 -22 -5z"/>
<path d="M9470 4255 c0 -15 18 -40 24 -34 3 3 -1 14 -9 25 -8 10 -14 15 -15 9z"/>
<path d="M860 4270 c0 -27 5 -50 10 -50 6 0 10 20 10 45 0 38 3 45 20 45 17 0
20 -7 20 -45 0 -25 5 -45 10 -45 6 0 10 23 10 50 l0 50 -40 0 -40 0 0 -50z"/>
<path d="M971 4306 c-31 -37 9 -103 47 -80 36 23 23 94 -18 94 -10 0 -23 -6
-29 -14z m49 -16 c11 -20 -1 -60 -18 -60 -27 0 -41 47 -20 68 17 17 26 15 38
-8z"/>
<path d="M1050 4302 c0 -23 19 -42 42 -42 11 0 18 -7 18 -20 0 -11 5 -20 10
-20 6 0 10 23 10 50 0 50 -16 70 -22 28 -2 -13 -10 -23 -18 -23 -8 0 -16 10
-18 23 -4 26 -22 30 -22 4z"/>
<path d="M1153 4313 c13 -3 17 -15 17 -49 0 -24 5 -44 10 -44 6 0 10 20 10 44
0 34 4 46 18 49 9 3 -3 5 -28 5 -25 0 -37 -2 -27 -5z"/>
<path d="M1240 4305 c-14 -17 0 -21 17 -4 12 12 33 5 33 -11 0 -4 -14 -13 -31
-19 -45 -15 -36 -46 14 -48 36 -1 37 0 37 36 0 56 -40 82 -70 46z m50 -54 c0
-12 -29 -23 -41 -15 -5 3 -7 10 -4 15 8 12 45 12 45 0z"/>
<path d="M703 3820 c-1 -41 1 -48 6 -25 l7 30 18 -28 c10 -15 21 -25 24 -23 2
3 -2 16 -11 29 -14 22 -14 27 -1 46 8 11 11 21 5 21 -5 0 -13 -9 -16 -20 -8
-27 -23 -25 -28 3 -2 12 -4 -3 -4 -33z"/>
<path d="M778 3845 c-16 -36 3 -75 37 -75 34 0 53 39 37 75 -8 17 -20 25 -37
25 -17 0 -29 -8 -37 -25z m62 -25 c0 -16 -6 -30 -12 -33 -24 -8 -38 5 -38 33
0 16 6 30 13 33 23 8 37 -5 37 -33z"/>
<path d="M882 3818 c1 -48 2 -49 6 -13 l4 40 18 -40 17 -40 16 35 15 35 1 -32
c2 -54 21 -37 21 17 0 38 -4 50 -15 50 -8 0 -15 -4 -15 -9 0 -5 -5 -22 -11
-38 l-11 -28 -12 34 c-20 56 -36 51 -34 -11z"/>
<path d="M1000 3820 c0 -27 5 -50 10 -50 6 0 10 20 10 45 0 38 3 45 20 45 17
0 20 -7 20 -45 0 -25 5 -45 10 -45 6 0 10 23 10 50 l0 50 -40 0 -40 0 0 -50z"/>
<path d="M1105 3859 c-11 -17 3 -23 20 -9 12 10 19 10 28 1 14 -14 -6 -31 -36
-31 -13 0 -17 -6 -15 -22 2 -19 10 -23 41 -25 36 -1 37 0 37 36 0 20 -5 42
-12 49 -15 15 -55 16 -63 1z m55 -58 c0 -12 -29 -23 -41 -15 -5 3 -7 10 -4 15
8 12 45 12 45 0z"/>
<path d="M1200 3820 c0 -27 5 -50 10 -50 6 0 10 11 10 25 0 18 5 25 20 25 15
0 20 -7 20 -25 0 -14 5 -25 10 -25 6 0 10 23 10 50 0 28 -4 50 -10 50 -5 0
-10 -9 -10 -20 0 -13 -7 -20 -20 -20 -13 0 -20 7 -20 20 0 11 -4 20 -10 20 -5
0 -10 -22 -10 -50z"/>
<path d="M1300 3820 c0 -27 4 -50 10 -50 5 0 18 17 29 38 l20 37 1 -37 c0 -21
5 -38 10 -38 6 0 10 23 10 50 0 58 -12 64 -37 18 l-18 -33 -3 33 c-5 51 -22
37 -22 -18z"/>
<path d="M1403 3854 c-3 -9 -1 -25 5 -35 7 -11 8 -20 2 -24 -6 -3 -10 -11 -10
-17 0 -6 10 -2 23 10 29 28 35 27 40 0 2 -13 5 1 6 30 1 52 1 52 -29 52 -19 0
-33 -6 -37 -16z m57 -14 c0 -21 -33 -29 -45 -10 -9 15 4 30 26 30 12 0 19 -7
19 -20z"/>
<path d="M9520 3470 c0 -5 5 -10 10 -10 6 0 10 5 10 10 0 6 -4 10 -10 10 -5 0
-10 -4 -10 -10z"/>
<path d="M9620 3459 c0 -11 -5 -17 -10 -14 -6 3 -19 3 -30 0 -15 -5 -20 -15
-20 -39 0 -39 14 -54 53 -54 27 0 27 1 27 64 0 36 -4 64 -10 64 -5 0 -10 -9
-10 -21z m0 -59 c0 -30 -21 -45 -39 -27 -23 23 -4 71 25 60 8 -3 14 -18 14
-33z"/>
<path d="M9520 3400 c0 -27 5 -50 10 -50 6 0 10 23 10 50 0 28 -4 50 -10 50
-5 0 -10 -22 -10 -50z"/>
<path d="M9717 3444 c-14 -14 -7 -26 8 -14 12 10 19 10 27 2 8 -8 7 -13 -6
-18 -15 -6 -15 -7 1 -20 14 -10 16 -15 6 -25 -10 -10 -16 -10 -25 -1 -18 18
-33 15 -18 -3 7 -9 23 -15 34 -13 18 3 21 10 21 48 0 38 -3 45 -20 48 -12 2
-24 0 -28 -4z"/>
<path d="M9800 3435 c-14 -17 0 -21 17 -4 12 12 33 5 33 -11 0 -4 -14 -13 -31
-19 -45 -15 -36 -46 14 -48 36 -1 37 0 37 36 0 56 -40 82 -70 46z m50 -54 c0
-12 -29 -23 -41 -15 -5 3 -7 10 -4 15 8 12 45 12 45 0z"/>
<path d="M9890 3400 c0 -53 16 -69 22 -22 l4 27 14 -27 c7 -16 17 -28 22 -28
5 0 1 14 -7 31 -15 29 -15 32 1 50 9 10 12 19 7 19 -6 0 -18 -10 -26 -22 l-16
-23 0 23 c-2 46 -21 20 -21 -28z"/>
<path d="M9980 3436 c-15 -19 0 -22 18 -4 10 10 16 9 29 -4 15 -15 13 -17 -18
-25 -24 -7 -34 -15 -34 -29 0 -15 7 -19 38 -19 l38 -1 -3 46 c-3 40 -6 45 -29
48 -14 2 -31 -4 -39 -12z m48 -62 c-9 -9 -21 -13 -27 -10 -20 13 -11 26 16 26
25 0 26 -1 11 -16z"/>
<path d="M10077 3444 c-14 -14 -7 -26 8 -14 12 10 19 10 27 2 8 -8 7 -13 -6
-18 -15 -6 -15 -7 1 -20 14 -10 15 -15 6 -25 -10 -10 -16 -9 -29 2 -15 12 -17
12 -12 -1 2 -8 14 -16 25 -18 24 -4 48 22 37 40 -5 7 -8 22 -9 33 0 20 -34 33
-48 19z"/>
<path d="M10160 3436 c-15 -19 0 -22 18 -4 10 10 16 9 29 -4 15 -15 13 -17
-18 -25 -24 -7 -34 -15 -34 -29 0 -15 7 -19 38 -19 l38 -1 -3 46 c-3 40 -6 45
-29 48 -14 2 -31 -4 -39 -12z m48 -62 c-9 -9 -21 -13 -27 -10 -20 13 -11 26
16 26 25 0 26 -1 11 -16z"/>
<path d="M960 3485 c0 -14 -5 -34 -12 -45 -7 -10 -8 -23 -4 -27 5 -4 11 -2 13
5 3 6 15 12 28 12 13 0 26 -6 29 -12 4 -7 4 -2 1 12 -2 14 -5 37 -5 53 0 22
-4 27 -25 27 -20 0 -25 -5 -25 -25z m40 -15 c0 -20 -5 -30 -15 -30 -10 0 -15
10 -15 30 0 20 5 30 15 30 10 0 15 -10 15 -30z"/>
<path d="M1036 3502 c-3 -6 2 -8 13 -5 10 3 21 0 25 -5 3 -5 -5 -13 -19 -16
-16 -4 -25 -13 -25 -26 0 -16 6 -20 30 -18 29 2 31 5 28 38 -2 27 -8 36 -25
38 -11 2 -24 -1 -27 -6z m44 -42 c0 -13 -28 -25 -38 -16 -3 4 0 11 8 16 20 13
30 12 30 0z"/>
<path d="M1107 3502 c6 -4 13 -23 16 -42 l4 -35 1 36 c2 35 3 36 42 36 45 0
53 -12 14 -21 -36 -9 -28 -41 11 -43 29 -1 30 0 27 37 l-4 38 -61 1 c-34 0
-56 -3 -50 -7z m103 -42 c0 -13 -28 -25 -38 -16 -3 4 0 11 8 16 20 13 30 12
30 0z"/>
<path d="M784 3286 c-16 -41 20 -86 47 -59 6 6 1 9 -12 9 -12 -1 -24 5 -26 12
-3 7 5 12 22 12 20 0 26 4 23 18 -4 22 -46 29 -54 8z m41 -6 c3 -5 -3 -10 -15
-10 -12 0 -18 5 -15 10 3 6 10 10 15 10 5 0 12 -4 15 -10z"/>
<path d="M862 3258 l1 -43 4 38 c6 50 33 52 33 2 0 -42 11 -45 31 -8 l14 26 6
-29 c6 -25 7 -24 8 14 1 49 -3 52 -23 15 l-15 -28 -1 28 c0 23 -4 27 -30 27
-29 0 -30 -2 -28 -42z"/>
<path d="M980 3280 c-8 -14 -8 -26 0 -40 11 -21 44 -27 55 -10 4 7 -2 9 -19 4
-24 -6 -26 -4 -26 26 0 27 3 32 20 27 11 -3 20 -1 20 4 0 17 -39 9 -50 -11z"/>
<path d="M1047 3292 c6 -4 13 -23 16 -42 l4 -35 1 37 c2 25 7 38 20 41 9 3 1
5 -18 6 -19 0 -30 -3 -23 -7z"/>
<path d="M1111 3241 c1 -31 3 -48 6 -39 2 9 14 18 26 20 18 2 22 10 22 38 0
31 -3 35 -27 36 -27 1 -28 0 -27 -55z m44 19 c0 -13 -6 -25 -12 -27 -16 -6
-27 21 -19 43 9 23 31 11 31 -16z"/>
<path d="M1185 3290 c-4 -7 2 -9 19 -4 15 3 26 2 26 -4 0 -5 -12 -13 -26 -16
-36 -9 -28 -41 11 -43 29 -1 30 0 27 38 -4 33 -8 39 -27 39 -13 0 -27 -5 -30
-10z m45 -40 c0 -13 -28 -25 -38 -16 -3 4 0 11 8 16 20 13 30 12 30 0z"/>
<path d="M1262 3263 c-2 -40 0 -43 23 -43 16 0 25 -6 25 -15 0 -8 5 -15 10
-15 7 0 8 19 4 53 -8 63 -14 73 -14 24 0 -30 -4 -37 -19 -37 -15 0 -21 8 -24
38 l-4 37 -1 -42z"/>
<path d="M1342 3260 c-1 -42 0 -44 13 -26 8 11 16 25 16 30 1 6 5 -2 9 -19 7
-27 8 -26 8 15 1 42 0 44 -13 26 -8 -11 -16 -25 -16 -30 -1 -6 -5 3 -9 19 -7
27 -8 26 -8 -15z"/>
<path d="M2783 3072 c-38 -24 -30 -107 12 -118 53 -13 92 28 79 82 -9 37 -59
57 -91 36z m61 -18 c29 -28 10 -94 -26 -94 -19 0 -48 32 -48 53 0 23 27 57 46
57 7 0 20 -7 28 -16z"/>
<path d="M2898 3026 c-22 -50 25 -99 60 -64 19 19 14 33 -5 16 -25 -21 -43
-12 -43 22 0 32 16 42 44 28 14 -8 17 -7 14 4 -3 7 -17 14 -31 16 -21 3 -30
-3 -39 -22z"/>
<path d="M2993 3043 c13 -3 17 -16 19 -51 l1 -47 6 44 c4 31 12 46 26 52 14 5
6 7 -25 7 -25 0 -37 -2 -27 -5z"/>
<path d="M3077 3044 c-13 -13 -7 -27 7 -15 14 12 46 5 46 -10 0 -5 -15 -12
-32 -17 -23 -6 -33 -14 -33 -28 0 -15 8 -19 40 -20 l41 -2 -6 47 c-4 40 -8 46
-30 49 -14 2 -29 0 -33 -4z m41 -70 c-9 -9 -21 -13 -27 -10 -20 13 -11 26 16
26 25 0 26 -1 11 -16z"/>
<path d="M3170 3000 l0 -51 33 3 c31 3 32 5 32 48 0 43 -1 45 -32 48 l-33 3 0
-51z m46 29 c10 -17 -13 -36 -27 -22 -12 12 -4 33 11 33 5 0 12 -5 16 -11z m7
-54 c-4 -15 -36 -12 -41 3 -3 9 3 13 19 10 13 -1 23 -7 22 -13z"/>
<path d="M3270 3012 c0 -21 -5 -43 -12 -50 -9 -9 -8 -12 4 -12 13 0 18 11 20
43 2 34 7 42 23 42 16 0 21 -9 26 -45 l6 -45 1 53 2 52 -35 0 c-34 0 -35 -1
-35 -38z"/>
<path d="M3371 3036 c-9 -10 -9 -20 -3 -33 7 -12 7 -25 1 -36 -7 -11 -7 -17 0
-17 6 0 15 9 21 20 6 11 15 20 20 20 6 0 10 -9 10 -20 0 -11 5 -20 10 -20 6 0
10 23 10 50 0 48 -1 50 -29 50 -16 0 -34 -6 -40 -14z m49 -16 c0 -13 -7 -20
-20 -20 -19 0 -27 20 -13 33 13 14 33 6 33 -13z"/>
<path d="M3472 3038 c-17 -17 -15 -63 3 -78 16 -13 65 -6 65 10 0 14 -13 12
-29 -2 -10 -11 -15 -9 -27 7 -14 19 -13 20 20 23 20 2 36 9 36 16 0 17 -21 36
-40 36 -9 0 -21 -5 -28 -12z m46 -16 c2 -7 -6 -12 -17 -12 -21 0 -27 11 -14
24 9 9 26 2 31 -12z"/>
<path d="M3563 3038 c9 -7 18 -31 20 -53 l4 -40 1 47 c2 35 6 48 20 51 9 3 -1
5 -22 6 -34 1 -37 -1 -23 -11z"/>
<path d="M7297 3012 c-36 -40 -10 -112 41 -112 21 0 52 24 52 41 0 15 -11 10
-29 -12 -15 -18 -21 -20 -39 -10 -29 16 -31 76 -3 91 25 13 27 13 46 -6 9 -9
18 -14 21 -11 10 9 -28 37 -50 37 -13 0 -30 -8 -39 -18z"/>
<path d="M7421 2986 c-31 -37 9 -103 47 -80 36 23 23 94 -18 94 -10 0 -23 -6
-29 -14z m49 -16 c11 -20 -1 -60 -18 -60 -14 0 -32 23 -32 40 0 17 18 40 32
40 4 0 12 -9 18 -20z"/>
<path d="M7520 2978 c0 -13 -7 -36 -15 -52 -17 -33 -19 -56 -5 -56 6 0 10 7
10 15 0 23 67 20 74 -2 3 -10 3 0 1 22 -3 22 -5 52 -5 68 0 23 -4 27 -30 27
-24 0 -30 -4 -30 -22z m45 -28 c0 -29 -4 -36 -24 -38 -21 -3 -23 -1 -18 20 4
12 7 31 7 41 0 12 6 17 18 15 12 -2 17 -13 17 -38z"/>
<path d="M7622 2988 c-7 -7 -12 -24 -12 -38 0 -46 43 -67 70 -35 15 18 -1 20
-18 3 -8 -8 -15 -8 -27 2 -24 20 -18 30 20 30 22 0 35 5 35 13 0 18 -21 37
-40 37 -9 0 -21 -5 -28 -12z m46 -16 c2 -7 -6 -12 -17 -12 -21 0 -27 11 -14
24 9 9 26 2 31 -12z"/>
<path d="M7710 2929 c0 -39 4 -69 10 -69 6 0 10 9 10 20 0 13 7 20 18 20 26 0
42 20 42 51 0 32 -16 47 -52 47 -28 0 -28 -1 -28 -69z m60 41 c8 -14 8 -26 0
-41 -14 -25 -34 -20 -38 10 -7 47 18 68 38 31z"/>
<path d="M7815 2980 c18 -20 18 -22 1 -50 -9 -17 -13 -30 -8 -30 5 0 15 12 22
28 l14 27 4 -27 c2 -16 7 -28 12 -28 5 0 10 12 12 28 l4 27 14 -27 c7 -16 17
-28 22 -28 5 0 2 13 -6 29 -13 25 -13 31 0 50 8 11 11 21 6 21 -5 0 -17 -10
-25 -22 l-16 -23 0 23 c-1 12 -5 22 -11 22 -5 0 -10 -10 -11 -22 l0 -23 -16
23 c-8 12 -20 22 -26 22 -5 0 -2 -9 8 -20z"/>
<path d="M7930 2950 c0 -58 12 -64 37 -17 l18 32 3 -32 c5 -52 22 -38 22 17 0
28 -4 50 -10 50 -5 0 -18 -17 -29 -37 l-20 -38 -1 38 c0 20 -4 37 -10 37 -5 0
-10 -22 -10 -50z"/>
<path d="M8033 2993 c13 -3 17 -15 17 -49 0 -24 5 -44 10 -44 6 0 10 20 10 44
0 34 4 46 18 49 9 3 -3 5 -28 5 -25 0 -37 -2 -27 -5z"/>
<path d="M9520 3020 c0 -5 5 -10 10 -10 6 0 10 5 10 10 0 6 -4 10 -10 10 -5 0
-10 -4 -10 -10z"/>
<path d="M9620 3010 c0 -13 -5 -18 -15 -14 -22 9 -45 -14 -45 -45 0 -35 17
-51 52 -51 28 0 28 0 28 65 0 37 -4 65 -10 65 -5 0 -10 -9 -10 -20z m0 -60 c0
-34 -15 -46 -35 -30 -18 15 -19 42 -4 57 18 18 39 3 39 -27z"/>
<path d="M9520 2950 c0 -27 5 -50 10 -50 6 0 10 23 10 50 0 28 -4 50 -10 50
-5 0 -10 -22 -10 -50z"/>
<path d="M9710 2993 c0 -6 7 -30 15 -54 14 -39 14 -45 0 -55 -19 -14 -19 -24
-1 -24 15 0 18 6 46 88 11 28 16 52 11 52 -4 0 -13 -17 -21 -37 l-13 -38 -11
32 c-12 33 -26 53 -26 36z"/>
<path d="M9812 2988 c-15 -15 -16 -60 0 -76 18 -18 46 -14 58 8 13 24 2 27
-15 3 -11 -15 -15 -15 -29 -4 -20 17 -21 45 -1 61 12 10 18 10 32 -1 14 -12
16 -12 11 1 -6 19 -40 24 -56 8z"/>
<path d="M9900 2962 c0 -21 -5 -43 -12 -50 -9 -9 -8 -12 4 -12 13 0 18 11 20
43 2 34 7 42 23 42 16 0 21 -9 26 -45 l6 -45 1 53 2 52 -35 0 c-34 0 -35 -1
-35 -38z"/>
<path d="M9993 2986 c25 -65 30 -98 17 -106 -8 -5 -11 -12 -7 -16 12 -12 25 8
47 70 23 68 19 88 -7 30 l-16 -39 -10 38 c-5 20 -14 37 -19 37 -6 0 -8 -6 -5
-14z"/>
<path d="M10092 2948 l2 -53 3 47 c3 39 8 47 26 51 18 4 17 5 -5 6 -27 1 -28
0 -26 -51z"/>
<path d="M10150 2950 c0 -58 12 -64 37 -17 l18 32 3 -32 c5 -52 22 -38 22 17
0 28 -4 50 -10 50 -5 0 -18 -17 -29 -37 l-20 -38 -1 38 c0 20 -4 37 -10 37 -5
0 -10 -22 -10 -50z"/>
<path d="M990 3035 c0 -14 -5 -34 -12 -45 -7 -10 -8 -23 -4 -27 5 -4 11 -2 13
5 3 6 15 12 28 12 13 0 26 -6 29 -12 4 -7 4 -2 1 12 -2 14 -5 37 -5 53 0 22
-4 27 -25 27 -20 0 -25 -5 -25 -25z m40 -15 c0 -20 -5 -30 -15 -30 -10 0 -15
10 -15 30 0 20 5 30 15 30 10 0 15 -10 15 -30z"/>
<path d="M1064 3046 c-3 -8 -4 -25 -2 -38 2 -17 9 -23 28 -23 22 0 25 4 25 35
0 29 -4 36 -23 38 -13 2 -24 -3 -28 -12z m41 -26 c0 -27 -22 -39 -31 -16 -8
22 3 49 19 43 6 -2 12 -14 12 -27z"/>
<path d="M1142 3018 l1 -43 4 38 c3 23 9 37 18 37 9 0 15 -14 18 -37 l4 -38 1
43 c2 39 0 42 -23 42 -23 0 -25 -3 -23 -42z"/>
<path d="M773 2800 c0 -25 2 -35 4 -22 5 27 33 29 33 2 0 -11 5 -20 10 -20 6
0 10 18 10 40 0 22 -4 40 -10 40 -5 0 -10 -7 -10 -15 0 -21 -28 -19 -33 3 -3
9 -5 -3 -4 -28z"/>
<path d="M960 2825 c-26 -31 13 -82 44 -56 19 16 21 42 4 59 -16 16 -33 15
-48 -3z m40 -25 c0 -32 -26 -43 -36 -15 -9 21 3 45 21 45 10 0 15 -10 15 -30z"/>
<path d="M1031 2781 c1 -31 3 -48 6 -39 2 9 14 18 26 20 18 2 22 10 22 38 0
31 -3 35 -27 36 -27 1 -28 0 -27 -55z m44 19 c0 -27 -22 -39 -31 -16 -8 22 3
49 19 43 6 -2 12 -14 12 -27z"/>
<path d="M1100 2800 c0 -22 4 -40 9 -40 10 0 23 58 15 71 -13 21 -24 6 -24
-31z"/>
<path d="M1153 2809 c-4 -22 -8 -27 -14 -17 -7 10 -9 9 -9 -4 0 -29 19 -30 27
-1 l7 28 7 -30 c6 -27 7 -26 8 13 1 49 -17 57 -26 11z"/>
<path d="M1206 2832 c-3 -6 3 -8 14 -5 26 7 26 -14 0 -22 -11 -3 -20 -15 -20
-26 0 -15 6 -19 30 -17 29 2 31 5 28 38 -2 27 -8 36 -25 38 -11 2 -24 -1 -27
-6z m34 -47 c0 -8 -7 -15 -15 -15 -16 0 -20 12 -8 23 11 12 23 8 23 -8z"/>
<path d="M1351 2803 c-1 -49 10 -55 29 -15 l13 27 8 -30 c6 -28 7 -27 8 13 1
48 -10 54 -29 15 l-13 -28 -8 30 c-6 28 -7 27 -8 -12z"/>
<path d="M9422 2500 c0 -43 2 -49 7 -25 l8 30 13 -27 c7 -16 17 -28 22 -28 12
0 10 14 -6 36 -13 16 -13 22 0 42 8 12 10 22 5 22 -6 0 -16 -10 -23 -22 l-12
-23 -7 25 c-5 17 -7 8 -7 -30z"/>
<path d="M9498 2525 c-16 -36 3 -75 37 -75 17 0 29 8 37 25 16 36 -3 75 -37
75 -17 0 -29 -8 -37 -25z m62 -25 c0 -16 -6 -30 -12 -33 -24 -8 -38 5 -38 33
0 16 6 30 13 33 23 8 37 -5 37 -33z"/>
<path d="M9600 2512 c0 -21 -5 -43 -12 -50 -9 -9 -8 -12 4 -12 19 0 28 20 28
62 0 23 4 29 18 26 12 -2 19 -16 23 -48 l6 -45 1 53 2 52 -35 0 c-34 0 -35 -1
-35 -38z"/>
<path d="M9701 2503 c0 -29 2 -53 7 -53 4 0 16 17 27 37 l20 37 6 -40 c6 -38
6 -37 8 14 0 28 -3 52 -7 52 -5 0 -17 -17 -27 -37 l-19 -38 -7 40 c-6 40 -6
40 -8 -12z"/>
<path d="M9790 2532 c0 -23 19 -42 42 -42 11 0 18 -7 18 -20 0 -11 5 -20 10
-20 6 0 10 23 10 50 0 50 -16 70 -22 28 -2 -13 -10 -23 -18 -23 -8 0 -16 10
-18 23 -4 26 -22 30 -22 4z"/>
<path d="M9902 2538 c-17 -17 -15 -63 3 -78 16 -13 65 -6 65 10 0 14 -13 12
-29 -2 -10 -11 -15 -9 -27 7 -14 19 -13 20 20 23 20 2 36 9 36 16 0 17 -21 36
-40 36 -9 0 -21 -5 -28 -12z m46 -16 c2 -7 -6 -12 -17 -12 -21 0 -27 11 -14
24 9 9 26 2 31 -12z"/>
<path d="M10002 2538 c-28 -28 -8 -88 29 -88 19 0 45 27 35 37 -3 4 -13 -2
-21 -13 -15 -19 -15 -19 -30 0 -18 24 -19 27 -1 52 12 15 17 17 27 7 18 -18
34 -16 19 2 -15 18 -42 19 -58 3z"/>
<path d="M10083 2543 c13 -3 17 -15 17 -49 0 -24 5 -44 10 -44 6 0 10 20 10
44 0 34 4 46 18 49 9 3 -3 5 -28 5 -25 0 -37 -2 -27 -5z"/>
<path d="M10170 2499 l0 -50 33 3 c29 3 32 6 33 38 1 51 -5 60 -37 60 -28 0
-29 -1 -29 -51z m45 21 c0 -8 -8 -16 -17 -18 -13 -2 -18 3 -18 18 0 15 5 20
18 18 9 -2 17 -10 17 -18z m10 -45 c0 -5 -10 -11 -22 -13 -16 -2 -23 2 -23 13
0 11 7 15 23 13 12 -2 22 -7 22 -13z"/>
<path d="M10258 2525 c-16 -36 3 -75 37 -75 34 0 53 39 37 75 -8 17 -20 25
-37 25 -17 0 -29 -8 -37 -25z m62 -25 c0 -16 -6 -30 -12 -33 -24 -8 -38 5 -38
33 0 16 6 30 13 33 23 8 37 -5 37 -33z"/>
<path d="M2510 1660 l0 -230 680 0 680 0 0 230 0 230 -680 0 -680 0 0 -230z
m1350 0 l0 -220 -670 0 -670 0 0 220 0 220 670 0 670 0 0 -220z"/>
<path d="M2950 1710 c-11 -11 -20 -31 -20 -45 0 -29 32 -65 58 -65 34 0 62 29
62 64 0 59 -59 87 -100 46z m62 -2 c47 -36 8 -115 -42 -88 -26 14 -28 74 -2
89 22 13 25 13 44 -1z"/>
<path d="M3073 1693 c13 -3 17 -15 17 -49 0 -24 5 -44 10 -44 6 0 10 20 10 44
0 34 4 46 18 49 9 3 -3 5 -28 5 -25 0 -37 -2 -27 -5z"/>
<path d="M3160 1685 c-14 -17 0 -21 17 -4 8 8 13 7 18 -1 4 -7 1 -16 -6 -21
-10 -6 -11 -9 -1 -9 6 0 12 -9 12 -20 0 -22 -20 -26 -38 -8 -9 9 -12 9 -12 1
0 -18 19 -26 46 -19 21 6 24 11 21 39 -6 56 -30 74 -57 42z"/>
<path d="M3241 1652 l-1 -53 33 3 c27 2 32 7 32 28 0 20 -6 26 -27 28 -18 2
-28 10 -31 25 -2 12 -5 -2 -6 -31z m49 -12 c13 -9 13 -11 0 -20 -8 -5 -18 -10
-22 -10 -11 0 -20 19 -13 30 8 12 16 12 35 0z"/>
<path d="M3333 1650 c0 -30 2 -43 4 -27 2 15 2 39 0 55 -2 15 -4 2 -4 -28z"/>
<path d="M3370 1650 l0 -51 33 3 c31 3 32 5 32 48 0 43 -1 45 -32 48 l-33 3 0
-51z m46 29 c10 -17 -13 -36 -27 -22 -12 12 -4 33 11 33 5 0 12 -5 16 -11z m7
-54 c-4 -15 -36 -12 -41 3 -3 9 3 13 19 10 13 -1 23 -7 22 -13z"/>
<path d="M7010 1660 l0 -230 680 0 680 0 0 230 0 230 -680 0 -680 0 0 -230z
m1350 0 l0 -220 -670 0 -670 0 0 220 0 220 670 0 670 0 0 -220z"/>
<path d="M7437 1685 c23 -43 25 -84 3 -70 -5 3 -10 1 -10 -4 0 -6 7 -11 15
-11 15 0 81 118 71 127 -3 3 -13 -11 -22 -31 -10 -20 -21 -36 -24 -36 -3 0
-14 16 -23 35 -9 19 -21 35 -26 35 -5 0 2 -20 16 -45z"/>
<path d="M7528 1675 c-22 -49 25 -98 60 -63 20 20 13 32 -7 14 -25 -23 -41
-13 -41 24 0 28 24 48 35 30 4 -6 11 -10 17 -10 7 0 6 6 -2 15 -19 23 -49 18
-62 -10z"/>
<path d="M7618 1650 c-2 -30 1 -49 7 -47 6 2 11 22 13 45 3 34 7 42 23 42 16
0 19 -7 19 -45 0 -25 5 -45 10 -45 6 0 10 23 10 50 l0 50 -39 0 -39 0 -4 -50z"/>
<path d="M7731 1648 c19 -49 19 -53 3 -65 -10 -7 -14 -16 -11 -20 12 -12 30
15 53 77 23 65 16 85 -8 23 l-14 -38 -13 38 c-7 20 -17 37 -22 37 -5 0 1 -23
12 -52z"/>
<path d="M7810 1650 c0 -27 5 -50 10 -50 6 0 10 20 10 44 0 34 4 46 18 49 10
3 6 5 -10 6 -27 1 -28 -1 -28 -49z"/>
<path d="M7880 1685 c-14 -17 0 -21 17 -4 12 12 33 5 33 -11 0 -4 -14 -13 -31
-19 -45 -15 -36 -46 14 -48 36 -1 37 0 37 36 0 56 -40 82 -70 46z m50 -54 c0
-12 -29 -23 -41 -15 -5 3 -7 10 -4 15 8 12 45 12 45 0z"/>
<path d="M830 431 c0 -14 -6 -17 -25 -14 -33 7 -54 -34 -37 -72 9 -20 18 -25
42 -23 30 2 30 2 30 65 0 35 -2 63 -5 63 -3 0 -5 -8 -5 -19z m0 -60 c0 -23
-19 -41 -36 -34 -17 6 -18 60 -1 66 16 6 37 -12 37 -32z"/>
<path d="M733 370 c0 -30 2 -43 4 -27 2 15 2 39 0 55 -2 15 -4 2 -4 -28z"/>
<path d="M748 303 c23 -2 59 -2 80 0 20 2 1 4 -43 4 -44 0 -61 -2 -37 -4z"/>
<path d="M1712 408 c-7 -7 -12 -24 -12 -38 0 -30 16 -50 41 -50 23 0 49 27 49
50 0 39 -52 64 -78 38z m42 -4 c21 -8 21 -60 0 -68 -23 -9 -34 2 -34 33 0 38
7 45 34 35z"/>
<path d="M1812 373 l-2 -53 34 0 c19 0 37 -6 39 -12 2 -7 3 0 1 16 -2 16 -5
45 -6 65 -1 34 -1 34 -7 -9 -5 -36 -10 -46 -28 -48 -19 -3 -22 2 -26 45 l-3
48 -2 -52z"/>
<path d="M1916 404 c-19 -18 -20 -38 -6 -65 13 -23 52 -25 70 -4 14 17 3 20
-20 5 -9 -5 -19 -5 -27 2 -22 18 -14 28 22 28 38 0 40 2 25 31 -13 23 -43 25
-64 3z m54 -15 c0 -5 -11 -9 -25 -9 -26 0 -34 15 -12 23 16 5 37 -3 37 -14z"/>
<path d="M2012 370 c0 -37 2 -47 7 -30 4 16 14 25 26 25 12 0 22 -9 26 -25 5
-17 7 -7 7 30 -1 30 -3 45 -5 33 -3 -16 -11 -23 -28 -23 -17 0 -25 7 -28 23
-2 12 -4 -3 -5 -33z"/>
<path d="M2113 370 c-1 -41 1 -48 6 -25 l7 30 18 -28 c10 -15 21 -25 24 -23 2
3 -2 16 -11 29 -14 22 -14 27 -1 46 8 11 11 21 5 21 -5 0 -13 -9 -16 -20 -8
-27 -23 -25 -28 3 -2 12 -4 -3 -4 -33z"/>
<path d="M2195 409 c-11 -17 3 -23 20 -9 12 10 19 10 28 1 14 -14 -6 -31 -36
-31 -13 0 -17 -6 -15 -22 2 -19 10 -23 41 -25 36 -1 37 0 37 36 0 20 -5 42
-12 49 -15 15 -55 16 -63 1z m55 -58 c0 -12 -29 -23 -41 -15 -5 3 -7 10 -4 15
8 12 45 12 45 0z"/>
<path d="M2721 373 c0 -29 1 -53 3 -53 2 0 15 17 28 38 l23 37 6 -40 c6 -39 6
-38 8 13 1 58 -8 61 -36 9 l-18 -32 -6 40 c-6 39 -6 39 -8 -12z"/>
<path d="M2822 408 c-7 -7 -12 -24 -12 -38 0 -31 17 -50 45 -50 28 0 45 19 45
50 0 31 -17 50 -45 50 -12 0 -26 -5 -33 -12z m56 -10 c17 -17 15 -43 -4 -59
-31 -26 -70 25 -44 56 15 18 32 19 48 3z"/>
<path d="M2950 360 c0 -41 19 -58 21 -17 l0 22 11 -22 c6 -13 15 -23 20 -23 5
0 2 10 -6 22 -11 15 -12 27 -5 42 10 20 10 20 -5 2 -14 -17 -16 -18 -16 -3 0
9 -4 17 -10 17 -5 0 -10 -18 -10 -40z"/>
<path d="M3020 385 c-26 -31 13 -82 44 -56 19 16 21 42 4 59 -16 16 -33 15
-48 -3z m40 -25 c0 -32 -26 -43 -36 -15 -9 21 3 45 21 45 10 0 15 -10 15 -30z"/>
<path d="M3093 360 c0 -25 2 -35 4 -22 5 27 33 29 33 2 0 -11 5 -20 10 -20 6
0 10 18 10 40 0 22 -4 40 -10 40 -5 0 -10 -7 -10 -15 0 -21 -28 -19 -33 3 -3
9 -5 -3 -4 -28z"/>
<path d="M3165 380 c-9 -29 4 -60 25 -60 10 0 21 4 24 8 3 5 -5 8 -17 8 -17
-1 -22 5 -22 24 0 20 5 25 25 25 20 1 28 -7 37 -34 10 -25 10 -37 2 -47 -7 -8
-7 -14 -2 -14 6 0 19 25 30 55 12 30 17 55 13 55 -4 0 -11 -15 -17 -32 l-10
-33 -7 31 c-6 27 -12 31 -41 32 -26 1 -35 -3 -40 -18z"/>
<path d="M3298 360 c-2 -22 0 -40 4 -40 5 0 8 16 8 35 0 28 4 35 19 35 15 0
21 -8 24 -37 l4 -38 1 43 c2 40 1 42 -27 42 -26 0 -29 -3 -33 -40z"/>
<path d="M3381 362 c-1 -39 1 -43 21 -40 30 4 37 38 9 45 -11 3 -22 12 -24 22
-3 9 -5 -3 -6 -27z m39 -17 c0 -8 -7 -15 -15 -15 -8 0 -15 7 -15 15 0 8 7 15
15 15 8 0 15 -7 15 -15z"/>
<path d="M3437 392 c6 -4 13 -23 16 -42 l4 -35 1 36 c2 35 3 36 42 36 46 0 51
-9 14 -26 -33 -15 -26 -36 12 -38 28 -1 29 0 26 37 l-4 38 -61 1 c-34 0 -56
-3 -50 -7z m103 -41 c0 -14 -18 -23 -31 -15 -8 4 -7 9 2 15 18 11 29 11 29 0z"/>
<path d="M3573 360 c0 -25 2 -35 4 -22 3 13 12 22 23 22 11 0 20 -9 23 -22 2
-13 4 -3 4 22 1 25 -1 37 -4 28 -2 -10 -13 -18 -23 -18 -10 0 -21 8 -23 18 -3
9 -5 -3 -4 -28z"/>
<path d="M3922 354 c-7 -26 -10 -49 -7 -52 3 -3 5 0 5 6 0 16 57 15 64 0 4 -7
4 -2 1 12 -2 14 -5 37 -5 53 0 21 -5 27 -23 27 -19 0 -25 -8 -35 -46z m48 6
c0 -23 -4 -30 -20 -30 -22 0 -23 3 -14 38 9 33 34 28 34 -8z"/>
<path d="M4005 390 c-4 -7 2 -9 19 -4 16 4 26 2 26 -5 0 -6 -11 -13 -26 -17
-37 -10 -27 -39 14 -40 32 -1 33 0 30 35 -3 31 -7 36 -30 39 -14 2 -29 -2 -33
-8z m45 -39 c0 -14 -18 -23 -31 -15 -8 4 -7 9 2 15 18 11 29 11 29 0z"/>
<path d="M4088 393 c6 -2 12 -20 12 -39 0 -19 5 -34 10 -34 6 0 10 15 10 34 0
19 6 37 13 39 6 3 -4 5 -23 5 -19 0 -29 -2 -22 -5z"/>
<path d="M4156 391 c-3 -4 6 -6 19 -3 33 6 32 -14 -1 -22 -36 -9 -28 -41 11
-43 29 -1 30 0 27 38 -4 33 -8 39 -27 39 -13 0 -26 -4 -29 -9z m44 -41 c0 -13
-28 -25 -38 -16 -3 4 0 11 8 16 20 13 30 12 30 0z"/>
<path d="M4281 360 l0 -45 22 30 22 29 6 -29 c6 -27 7 -25 8 13 1 48 -10 54
-29 15 l-13 -28 -8 30 c-6 27 -7 25 -8 -15z"/>
<path d="M4400 361 c0 -39 2 -41 30 -41 29 0 30 2 28 38 -3 32 -7 37 -31 40
-25 3 -27 1 -27 -37z m50 19 c0 -5 -9 -10 -20 -10 -11 0 -20 5 -20 10 0 6 9
10 20 10 11 0 20 -4 20 -10z m0 -35 c0 -8 -9 -15 -20 -15 -11 0 -20 7 -20 15
0 8 9 15 20 15 11 0 20 -7 20 -15z"/>
<path d="M4481 341 c1 -32 4 -48 7 -36 4 11 16 20 26 20 51 0 43 69 -8 71 -25
1 -26 -1 -25 -55z m53 34 c7 -20 -3 -45 -19 -45 -7 0 -15 7 -19 15 -7 20 3 45
19 45 7 0 15 -7 19 -15z"/>
<path d="M4572 388 c-15 -15 -15 -41 0 -56 14 -14 44 -16 52 -3 3 4 -6 6 -19
3 -18 -3 -25 0 -25 12 0 11 9 16 26 16 19 0 25 5 22 18 -4 21 -39 27 -56 10z
m43 -8 c3 -5 -3 -10 -14 -10 -12 0 -21 5 -21 10 0 6 6 10 14 10 8 0 18 -4 21
-10z"/>
<path d="M4651 358 l2 -43 6 35 7 35 8 -32 c9 -40 21 -42 32 -5 l7 27 7 -30
c7 -28 8 -27 9 13 1 46 -15 57 -25 17 -3 -14 -10 -25 -14 -25 -4 0 -11 11 -14
25 -10 40 -26 29 -25 -17z"/>
<path d="M4753 383 c-4 -10 -1 -19 6 -21 9 -3 8 -9 -5 -23 -10 -12 -13 -19 -5
-19 6 0 14 7 17 15 8 21 32 19 37 -2 3 -10 5 1 6 25 1 39 -1 42 -24 42 -15 0
-28 -7 -32 -17z m47 -9 c0 -9 -7 -14 -17 -12 -25 5 -28 28 -4 28 12 0 21 -6
21 -16z"/>
<path d="M5383 413 c13 -3 17 -15 17 -49 0 -24 5 -44 10 -44 6 0 10 20 10 44
0 34 4 46 18 49 9 3 -3 5 -28 5 -25 0 -37 -2 -27 -5z"/>
<path d="M5472 408 c-7 -7 -12 -24 -12 -38 0 -46 43 -67 70 -35 15 18 -1 20
-18 3 -8 -8 -15 -8 -27 2 -24 20 -18 30 20 30 22 0 35 5 35 13 0 18 -21 37
-40 37 -9 0 -21 -5 -28 -12z m46 -16 c2 -7 -6 -12 -17 -12 -21 0 -27 11 -14
24 9 9 26 2 31 -12z"/>
<path d="M5560 370 c0 -53 15 -69 21 -22 5 37 0 72 -12 72 -5 0 -9 -22 -9 -50z"/>
<path d="M5600 405 c-7 -9 -11 -17 -8 -20 2 -2 12 4 21 15 9 11 13 20 8 20 -5
0 -14 -7 -21 -15z"/>
<path d="M5652 408 c-28 -28 -8 -88 29 -88 19 0 45 27 35 37 -3 4 -13 -2 -21
-13 -15 -19 -15 -19 -30 0 -18 24 -19 27 -1 52 12 15 17 17 27 7 18 -18 34
-16 19 2 -15 18 -42 19 -58 3z"/>
<path d="M5733 413 c13 -3 17 -15 17 -49 0 -24 5 -44 10 -44 6 0 10 20 10 44
0 34 4 46 18 49 9 3 -3 5 -28 5 -25 0 -37 -2 -27 -5z"/>
<path d="M5590 364 c0 -15 27 -50 34 -43 4 3 -2 17 -13 30 -11 13 -20 19 -21
13z"/>
<path d="M6980 440 c0 -5 5 -10 10 -10 6 0 10 5 10 10 0 6 -4 10 -10 10 -5 0
-10 -4 -10 -10z"/>
<path d="M7080 430 c0 -13 -5 -18 -15 -14 -22 9 -45 -14 -45 -45 0 -35 17 -51
52 -51 28 0 28 0 28 65 0 37 -4 65 -10 65 -5 0 -10 -9 -10 -20z m0 -60 c0 -34
-15 -46 -35 -30 -18 15 -19 42 -4 57 18 18 39 3 39 -27z"/>
<path d="M6980 370 c0 -27 5 -50 10 -50 6 0 10 23 10 50 0 28 -4 50 -10 50 -5
0 -10 -22 -10 -50z"/>
<path d="M7003 303 c20 -2 54 -2 75 0 20 2 3 4 -38 4 -41 0 -58 -2 -37 -4z"/>
<path d="M7808 396 c-22 -50 25 -99 60 -64 19 19 14 33 -5 16 -25 -21 -43 -12
-43 22 0 32 16 42 44 28 14 -8 17 -7 14 4 -3 7 -17 14 -31 16 -21 3 -30 -3
-39 -22z"/>
<path d="M7903 413 c13 -3 17 -16 19 -51 l1 -47 6 44 c4 31 12 46 26 52 14 5
6 7 -25 7 -25 0 -37 -2 -27 -5z"/>
<path d="M7978 395 c-16 -36 3 -75 37 -75 17 0 29 8 37 25 16 36 -3 75 -37 75
-17 0 -29 -8 -37 -25z m62 -25 c0 -16 -6 -30 -12 -33 -24 -8 -38 5 -38 33 0
16 6 30 13 33 23 8 37 -5 37 -33z"/>
<path d="M8081 373 c0 -29 2 -53 7 -53 4 0 16 17 27 37 l20 37 6 -40 c6 -38 6
-37 8 14 0 28 -3 52 -7 52 -5 0 -17 -17 -27 -37 l-19 -38 -7 40 c-6 40 -6 40
-8 -12z"/>
<path d="M8182 368 c1 -48 2 -49 6 -13 l4 40 18 -40 17 -40 16 35 15 35 1 -32
c2 -54 21 -37 21 17 0 38 -4 50 -15 50 -8 0 -15 -4 -15 -9 0 -5 -5 -22 -11
-38 l-11 -28 -12 34 c-20 56 -36 51 -34 -11z"/>
<path d="M8311 406 c-17 -20 -10 -67 12 -80 24 -15 51 4 55 38 6 48 -39 75
-67 42z m47 -8 c28 -28 -3 -83 -33 -58 -8 7 -15 20 -15 29 0 17 18 41 30 41 3
0 11 -5 18 -12z"/>
<path d="M8412 408 c-28 -28 -8 -88 29 -88 19 0 45 27 35 37 -3 4 -13 -2 -21
-13 -15 -19 -15 -19 -30 0 -18 24 -19 27 -1 52 12 15 17 17 27 7 18 -18 34
-16 19 2 -15 18 -42 19 -58 3z"/>
<path d="M8493 413 c13 -3 17 -15 17 -49 0 -24 5 -44 10 -44 6 0 10 20 10 44
0 34 4 46 18 49 9 3 -3 5 -28 5 -25 0 -37 -2 -27 -5z"/>
<path d="M8581 372 l-1 -53 33 3 c27 2 32 7 32 28 0 20 -6 26 -27 28 -18 2
-28 10 -31 25 -2 12 -5 -2 -6 -31z m49 -12 c13 -9 13 -11 0 -20 -24 -16 -40
-12 -40 10 0 22 16 26 40 10z"/>
<path d="M9050 370 c0 -27 5 -50 10 -50 6 0 10 11 10 25 0 18 5 25 20 25 15 0
20 -7 20 -25 0 -14 5 -25 10 -25 6 0 10 23 10 50 0 28 -4 50 -10 50 -5 0 -10
-9 -10 -20 0 -13 -7 -20 -20 -20 -13 0 -20 7 -20 20 0 11 -4 20 -10 20 -5 0
-10 -22 -10 -50z"/>
<path d="M9155 409 c-11 -17 3 -23 20 -9 12 10 19 10 28 1 14 -14 -6 -31 -36
-31 -13 0 -17 -6 -15 -22 2 -19 10 -23 41 -25 36 -1 37 0 37 36 0 20 -5 42
-12 49 -15 15 -55 16 -63 1z m55 -58 c0 -12 -29 -23 -41 -15 -5 3 -7 10 -4 15
8 12 45 12 45 0z"/>
<path d="M9250 405 c-8 -9 -9 -15 -2 -15 6 0 14 5 17 10 9 15 25 12 25 -5 0
-8 -5 -15 -12 -15 -6 0 -3 -6 8 -14 15 -12 16 -17 7 -27 -10 -10 -15 -9 -28 1
-8 7 -19 10 -22 6 -11 -10 19 -27 42 -24 15 2 20 11 21 38 2 54 -28 79 -56 45z"/>
<path d="M9330 371 c0 -49 1 -51 29 -51 39 0 51 18 42 60 -6 30 -11 35 -39 38
l-32 3 0 -50z m55 19 c0 -8 -8 -16 -17 -18 -13 -2 -18 3 -18 18 0 15 5 20 18
18 9 -2 17 -10 17 -18z m3 -42 c-7 -19 -38 -22 -38 -4 0 10 9 16 21 16 12 0
19 -5 17 -12z"/>
<path d="M9430 406 c-15 -19 0 -22 18 -4 10 10 16 9 29 -4 15 -15 13 -17 -18
-25 -24 -7 -34 -15 -34 -29 0 -15 7 -19 38 -19 l38 -1 -3 46 c-3 40 -6 45 -29
48 -14 2 -31 -4 -39 -12z m48 -62 c-9 -9 -21 -13 -27 -10 -20 13 -11 26 16 26
25 0 26 -1 11 -16z"/>
<path d="M9533 370 c0 -30 2 -42 4 -27 4 22 9 28 26 25 13 -2 24 -13 28 -28 5
-17 7 -7 7 30 -1 30 -3 45 -5 33 -3 -16 -11 -23 -28 -23 -17 0 -25 7 -28 23
-2 12 -4 -3 -4 -33z"/>
<path d="M9620 370 c0 -58 12 -64 37 -17 l18 32 3 -32 c5 -52 22 -38 22 17 0
28 -4 50 -10 50 -5 0 -18 -17 -29 -37 l-20 -38 -1 38 c0 20 -4 37 -10 37 -5 0
-10 -22 -10 -50z"/>
<path d="M9728 395 c-17 -38 4 -77 39 -73 14 2 28 9 31 16 3 11 0 12 -14 4
-23 -12 -44 -5 -44 14 0 9 11 14 35 14 38 0 44 10 19 34 -23 24 -53 20 -66 -9z
m46 9 c25 -9 19 -24 -9 -24 -24 0 -32 10 -18 23 8 8 8 8 27 1z"/>
<path d="M8535 6808 c-17 -18 -18 -20 -2 -15 14 5 17 0 17 -38 0 -25 5 -45 10
-45 6 0 10 27 10 60 0 33 -3 60 -7 59 -5 0 -17 -10 -28 -21z"/>
<path d="M4591 6750 l2 -45 6 40 c4 27 12 41 24 43 14 3 17 -4 17 -37 0 -23 5
-41 10 -41 12 0 13 60 2 78 -5 6 -20 11 -35 10 -25 -2 -27 -5 -26 -48z"/>
<path d="M6541 6751 c1 -25 3 -37 6 -26 2 11 6 30 9 43 8 40 34 27 34 -18 0
-22 5 -40 10 -40 6 0 10 18 10 40 0 29 4 40 15 40 11 0 15 -11 15 -40 0 -22 5
-40 11 -40 6 0 9 17 7 43 l-3 42 -57 1 -58 1 1 -46z"/>
<path d="M2985 4858 c-17 -18 -18 -20 -2 -15 14 5 17 0 17 -38 0 -25 5 -45 10
-45 6 0 10 27 10 60 0 33 -3 60 -7 59 -5 0 -17 -10 -28 -21z"/>
<path d="M4035 4108 c-17 -18 -18 -20 -2 -15 14 5 17 0 17 -38 0 -25 5 -45 10
-45 6 0 10 27 10 60 0 33 -3 60 -7 59 -5 0 -17 -10 -28 -21z"/>
<path d="M6721 4050 l2 -45 6 40 c4 27 12 41 24 43 14 3 17 -4 17 -37 0 -23 5
-41 10 -41 12 0 13 60 2 78 -5 6 -20 11 -35 10 -25 -2 -27 -5 -26 -48z"/>
<path d="M3435 3808 c-17 -18 -18 -20 -2 -15 14 5 17 0 17 -38 0 -25 5 -45 10
-45 6 0 10 27 10 60 0 33 -3 60 -7 59 -5 0 -17 -10 -28 -21z"/>
<path d="M3421 2100 l2 -45 6 40 c4 27 12 41 24 43 14 3 17 -4 17 -37 0 -23 5
-41 10 -41 12 0 13 60 2 78 -5 6 -20 11 -35 10 -25 -2 -27 -5 -26 -48z"/>
</g>
</svg>
