<?xml version="1.0" standalone="no"?>
<!DOCTYPE svg PUBLIC "-//W3C//DTD SVG 20010904//EN"
 "http://www.w3.org/TR/2001/REC-SVG-20010904/DTD/svg10.dtd">
<svg version="1.0" xmlns="http://www.w3.org/2000/svg"
 width="1179.000000pt" height="765.000000pt" viewBox="0 0 1179.000000 765.000000"
 preserveAspectRatio="xMidYMid meet">

<g transform="translate(0.000000,765.000000) scale(0.100000,-0.100000)"
fill="#000000" stroke="none">
<path d="M3695 7359 c-375 -26 -680 -106 -759 -200 -36 -42 -35 -88 3 -128 31
-33 146 -91 219 -110 23 -7 42 -14 42 -17 0 -13 -546 -924 -552 -921 -4 1
-168 170 -364 376 l-356 374 69 22 c88 28 168 71 199 108 117 138 -181 272
-706 317 -148 13 -502 13 -650 0 -440 -38 -730 -139 -730 -255 0 -48 39 -88
123 -130 211 -104 698 -162 1135 -137 215 13 375 32 477 57 l60 15 75 -78 c41
-43 205 -213 363 -379 l288 -302 -34 -15 c-50 -20 -82 -71 -82 -128 0 -59 25
-95 88 -127 40 -19 47 -28 47 -52 l0 -29 -130 0 c-80 0 -130 -4 -130 -10 0 -6
50 -10 130 -10 l130 0 0 -165 0 -165 -131 -175 c-73 -97 -129 -178 -126 -181
3 -3 61 69 129 160 68 91 126 165 129 166 4 0 62 -74 130 -165 68 -91 128
-165 132 -165 5 0 5 6 0 13 -6 6 -65 85 -131 174 l-122 162 0 171 0 170 125 0
c77 0 125 4 125 10 0 6 -48 10 -125 10 l-125 0 0 35 c0 19 5 35 11 35 51 0
119 71 119 125 0 23 3 26 23 21 38 -10 1330 -406 1333 -409 1 -1 -304 -413
-678 -915 l-681 -913 -18 30 c-24 40 -68 61 -125 61 -40 0 -51 -5 -84 -38 -50
-50 -59 -94 -31 -157 17 -39 28 -50 71 -68 46 -19 50 -24 50 -54 l0 -33 -132
-2 -133 -2 130 -6 130 -5 3 -165 2 -166 -130 -174 c-71 -95 -130 -178 -130
-184 0 -14 1 -13 140 173 67 89 125 159 130 155 4 -5 60 -80 125 -166 65 -87
121 -158 126 -158 5 0 -49 78 -121 173 l-130 174 0 171 0 171 128 4 127 3
-127 2 -128 2 0 35 c0 25 5 37 18 41 59 18 99 58 111 112 6 29 27 10 1114
-1004 609 -569 1107 -1041 1107 -1049 0 -28 64 -87 132 -121 130 -65 344 -109
591 -121 75 -3 137 -9 137 -12 0 -3 -13 -30 -29 -58 -39 -71 -20 -68 21 4 18
31 38 58 44 60 5 2 23 -24 39 -57 16 -33 32 -60 37 -60 12 0 10 6 -17 60 -14
27 -25 51 -25 53 0 2 55 7 123 11 237 12 450 57 575 120 282 142 96 324 -402
393 -165 23 -527 23 -692 0 -287 -40 -470 -113 -529 -212 -8 -14 -172 135
-1030 935 -561 523 -1040 972 -1065 997 l-45 45 90 -55 c50 -30 527 -326 1060
-656 736 -455 973 -607 984 -628 51 -104 236 -184 521 -224 128 -19 592 -19
720 0 143 20 307 64 386 104 284 143 100 325 -400 394 -165 23 -527 23 -692 0
-278 -39 -476 -115 -522 -201 l-17 -33 -1068 662 c-587 364 -1071 665 -1074
669 -3 3 14 -1 38 -9 24 -8 458 -141 964 -295 1232 -376 1145 -348 1145 -365
0 -28 65 -87 134 -122 79 -40 243 -84 386 -104 128 -19 592 -19 720 0 143 20
307 64 386 104 284 143 100 325 -400 394 -165 23 -527 23 -692 0 -299 -41
-503 -128 -536 -228 -2 -5 -485 138 -1074 318 l-1071 328 271 6 c149 4 632 9
1074 12 689 5 802 4 802 -8 0 -28 65 -87 134 -122 79 -40 243 -84 386 -104
128 -19 592 -19 720 0 143 20 307 64 386 104 284 143 100 325 -400 394 -165
23 -527 23 -692 0 -301 -42 -503 -128 -536 -229 -3 -9 -264 -14 -999 -20 -547
-5 -1029 -7 -1072 -6 l-79 3 1073 345 c792 254 1074 341 1077 331 11 -33 71
-85 136 -118 79 -40 243 -84 386 -104 128 -19 592 -19 720 0 143 20 307 64
386 104 70 35 134 94 134 123 0 13 143 14 1203 9 661 -3 1528 -8 1927 -12
l725 -6 -840 -154 c-522 -96 -841 -151 -843 -144 -33 100 -236 186 -536 228
-165 23 -527 23 -692 0 -173 -24 -306 -60 -404 -109 -93 -48 -130 -88 -130
-144 0 -102 211 -202 520 -245 128 -19 592 -19 720 0 143 20 307 64 386 104
70 35 134 94 134 122 0 8 1 15 3 15 1 0 391 72 867 159 476 88 866 158 867
157 1 -1 -386 -209 -859 -461 -474 -253 -869 -467 -878 -476 -15 -14 -18 -13
-33 8 -26 34 -171 100 -281 128 -346 87 -862 82 -1176 -13 -47 -14 -95 -26
-107 -26 -13 -1 -23 -4 -23 -8 0 -4 -25 -23 -55 -42 -90 -58 -110 -127 -53
-191 64 -74 257 -144 488 -176 128 -19 592 -19 720 0 232 33 424 102 489 177
28 32 32 43 29 82 l-3 45 869 464 c478 255 870 463 871 461 4 -5 -1724 -1653
-1730 -1651 -4 1 -16 17 -28 35 -31 45 -166 112 -291 143 -172 43 -320 59
-566 59 -342 0 -580 -40 -750 -126 -93 -48 -130 -88 -130 -144 0 -102 211
-202 520 -245 128 -19 592 -19 720 0 143 20 307 64 386 104 69 35 134 94 134
122 0 8 363 362 808 786 889 850 923 883 901 854 -9 -11 -395 -530 -858 -1152
-464 -623 -846 -1133 -849 -1133 -4 1 -16 15 -27 33 -28 44 -163 111 -289 142
-172 43 -320 59 -566 59 -342 0 -580 -40 -750 -126 -93 -48 -130 -88 -130
-144 0 -102 211 -202 520 -245 128 -19 592 -19 720 0 220 31 419 100 482 168
14 15 32 43 40 60 12 30 1689 2293 1695 2288 4 -3 -1691 -2935 -1697 -2934 -3
0 -14 14 -25 32 -28 44 -163 111 -289 142 -172 43 -320 59 -566 59 -342 0
-580 -40 -750 -126 -93 -48 -130 -88 -130 -144 0 -102 211 -202 520 -245 128
-19 592 -19 720 0 213 30 403 94 473 160 16 14 41 53 57 86 15 33 394 695 843
1470 l816 1410 130 3 131 3 0 -172 0 -172 -130 -174 c-72 -95 -126 -173 -121
-173 5 0 61 71 126 158 65 86 121 161 125 166 5 4 63 -66 130 -155 139 -186
140 -187 140 -173 0 6 -58 89 -130 184 l-130 173 0 169 0 168 133 2 132 2
-130 6 -130 5 -3 30 c-3 28 1 32 48 52 43 18 54 28 71 68 28 63 19 107 -31
157 -33 34 -43 38 -86 38 -59 0 -106 -26 -129 -70 l-16 -31 -1807 7 c-994 4
-1880 9 -1969 13 l-162 6 945 730 945 730 127 0 127 0 3 -165 2 -166 -130
-174 c-71 -95 -130 -178 -130 -184 0 -14 1 -13 140 173 67 89 125 159 130 155
4 -5 60 -80 125 -166 65 -87 121 -158 126 -158 5 0 -49 78 -121 173 l-130 174
0 171 0 171 128 4 127 3 -127 2 -128 2 0 35 c0 25 5 37 18 41 94 28 139 123
97 205 -17 32 -69 69 -97 69 -17 0 -18 23 -18 345 l0 345 78 0 c185 0 429 38
581 90 107 37 175 83 202 137 18 37 19 44 6 75 -27 65 -114 117 -273 163 -494
143 -1331 62 -1466 -142 -98 -150 231 -298 710 -320 l142 -6 0 -344 c0 -343 0
-343 -21 -343 -12 0 -38 -17 -59 -38 -50 -50 -59 -94 -31 -157 17 -39 28 -50
71 -68 46 -19 50 -24 50 -54 l0 -33 -124 0 -125 0 -962 394 c-825 337 -964
397 -971 417 -35 94 -238 181 -518 220 -128 19 -592 19 -720 0 -143 -20 -307
-64 -386 -104 -69 -35 -134 -94 -134 -122 0 -15 9 -12 -1381 -459 -455 -146
-832 -266 -838 -266 -6 0 -11 6 -11 13 0 18 -49 64 -83 76 -23 9 -26 14 -18
28 5 10 129 218 275 463 231 387 268 445 288 444 13 -1 79 -11 148 -22 180
-31 336 -42 575 -42 406 0 734 48 922 135 175 81 179 177 10 260 -221 109
-735 166 -1202 134z m570 -19 c288 -25 516 -73 635 -136 40 -21 79 -48 87 -61
38 -58 4 -111 -105 -161 -391 -180 -1443 -180 -1834 0 -109 50 -143 103 -105
161 54 83 354 166 707 196 139 12 477 12 615 1z m5065 -15 c306 -48 490 -135
490 -234 0 -57 -112 -130 -270 -175 -249 -71 -673 -91 -979 -46 -201 30 -384
95 -449 159 -124 125 108 257 538 307 152 17 527 11 670 -11z m-7985 -155
c336 -17 583 -61 737 -132 109 -50 143 -103 105 -161 -41 -62 -256 -137 -492
-171 -534 -76 -1207 -26 -1465 110 -76 40 -102 68 -103 110 0 114 362 220 828
243 88 4 165 9 170 9 6 1 105 -3 220 -8z m4692 -350 c284 -17 488 -60 617
-133 141 -79 132 -163 -26 -243 -85 -43 -209 -79 -201 -58 6 17 -1 18 -26 2
-20 -12 -51 -5 -51 12 0 5 18 10 41 10 36 0 40 2 37 22 -2 14 -14 26 -30 32
-51 18 -89 -44 -53 -85 15 -15 14 -17 -10 -23 -63 -16 -312 -36 -445 -36 -133
0 -382 20 -445 36 -21 5 -23 9 -14 20 7 8 9 18 5 21 -4 4 -11 1 -15 -6 -15
-24 -46 -8 -46 24 0 32 31 48 46 24 4 -7 11 -10 15 -6 10 10 -16 37 -37 37
-31 0 -52 -30 -46 -66 l5 -32 -69 19 c-39 11 -100 35 -137 53 -158 80 -167
164 -26 243 124 69 340 118 592 132 75 4 139 9 142 9 3 1 82 -3 177 -8z m1715
-661 c853 -348 916 -375 900 -390 -9 -9 -435 -340 -946 -734 -816 -630 -931
-716 -940 -701 -60 100 -242 173 -530 213 -165 23 -527 23 -692 0 -173 -24
-306 -60 -404 -109 -80 -41 -92 -51 -135 -122 -6 -10 -385 -136 -1070 -356
-583 -188 -1067 -343 -1075 -345 -23 -7 -47 -25 1084 782 937 669 1061 754
1070 739 60 -100 242 -173 530 -213 165 -23 527 -23 692 0 173 24 306 60 404
109 93 48 130 88 130 144 0 77 -122 156 -315 204 -181 46 -276 55 -565 55
-289 0 -384 -9 -565 -55 -165 -41 -295 -116 -317 -181 -3 -10 -66 5 -251 61
-136 41 -246 78 -244 81 1 3 112 120 247 258 l246 252 24 -38 c51 -79 254
-154 514 -190 160 -22 535 -22 691 0 64 9 111 12 113 6 5 -13 22 -11 22 4 0 7
37 21 93 34 119 29 253 96 284 142 13 19 23 49 23 67 0 77 -122 156 -315 204
-181 46 -276 55 -565 55 -169 0 -299 -5 -360 -14 -143 -20 -307 -64 -386 -104
-70 -35 -134 -94 -134 -122 0 -13 -37 -15 -250 -15 l-250 0 143 193 c261 351
349 467 356 467 3 -1 15 -15 26 -33 28 -44 163 -111 289 -142 172 -43 320 -59
566 -59 155 0 262 6 346 17 283 39 488 120 524 206 12 29 13 30 44 18 17 -8
444 -182 948 -388z m-2772 386 c0 -2 -110 -152 -245 -334 l-245 -329 -273 -6
c-325 -8 -1357 -13 -1351 -7 4 5 2094 679 2107 680 4 1 7 -1 7 -4z m1430 -105
c0 -5 -14 -10 -31 -10 -17 0 -28 4 -24 10 3 6 17 10 31 10 13 0 24 -4 24 -10z
m-373 -320 c284 -17 488 -60 617 -133 140 -78 132 -163 -24 -242 -62 -31 -159
-65 -187 -65 -8 0 -13 12 -13 29 0 35 -18 52 -54 49 -24 -2 -26 -6 -26 -50 0
-36 -4 -48 -18 -52 -34 -11 -296 -36 -378 -36 l-82 0 24 58 c28 67 31 105 4
47 l-19 -40 -10 28 c-6 16 -11 33 -11 38 0 5 -4 9 -10 9 -13 0 -13 -4 5 -47
40 -96 11 -106 -247 -78 -173 18 -186 22 -203 55 -12 23 -12 30 1 49 8 11 11
21 6 21 -5 0 -17 -10 -25 -22 l-16 -23 0 23 c-1 40 -21 23 -21 -18 0 -46 -3
-47 -81 -24 -76 23 -179 77 -212 112 -34 36 -38 82 -10 120 20 27 165 106 216
118 l27 6 0 -66 c0 -36 3 -66 8 -66 4 0 23 24 42 53 l35 52 6 -55 6 -55 1 73
c1 39 -2 72 -7 72 -5 0 -21 -20 -35 -44 -37 -64 -46 -65 -46 -7 l0 49 68 15
c107 24 217 39 357 47 72 4 132 8 135 8 3 1 82 -3 177 -8z m2957 -4 c103 -43
102 -196 -3 -227 -49 -14 -82 -7 -122 29 -65 58 -41 171 41 199 45 15 45 15
84 -1z m-6284 -181 c43 -22 60 -53 60 -108 0 -42 -5 -54 -34 -83 -28 -28 -42
-34 -75 -34 -85 0 -138 56 -128 134 11 84 102 130 177 91z m1753 -87 c-6 -7
-76 -101 -156 -209 l-145 -197 -658 202 -658 201 530 5 c1109 11 1097 11 1087
-2z m277 -246 l-252 -259 -149 45 c-82 25 -149 49 -149 55 0 5 68 101 152 213
l152 204 249 0 249 0 -252 -258z m1668 136 c16 -16 15 -30 -2 -53 -12 -16 -16
-17 -30 -6 -9 7 -16 21 -16 30 0 17 18 41 30 41 3 0 11 -5 18 -12z m-1018 -48
c9 -16 8 -20 -5 -20 -8 0 -15 9 -15 20 0 11 2 20 5 20 2 0 9 -9 15 -20z m647
-270 c284 -17 488 -60 617 -133 146 -81 131 -169 -43 -251 -325 -152 -1117
-152 -1442 0 -174 82 -189 170 -43 251 124 69 340 118 592 132 75 4 139 9 142
9 3 1 82 -3 177 -8z m-1694 -51 l129 -40 -104 -107 c-384 -397 -1461 -1502
-1464 -1502 -5 0 34 53 716 968 506 680 547 732 570 726 14 -3 83 -23 153 -45z
m402 -123 c132 -40 239 -77 238 -80 -1 -4 -453 -329 -1005 -723 -552 -393
-1025 -731 -1053 -751 -39 -28 -21 -6 80 101 286 301 1481 1525 1490 1526 6 0
118 -32 250 -73z m1428 -711 c341 -36 576 -131 579 -234 1 -44 -27 -79 -98
-118 -227 -127 -778 -175 -1196 -104 -196 34 -365 101 -411 164 -143 190 504
358 1126 292z m4774 -181 c62 -39 69 -137 14 -186 -40 -36 -73 -43 -122 -29
-49 15 -79 59 -79 117 0 95 105 150 187 98z m-159 -207 c11 -10 33 -22 48 -26
24 -6 29 -13 32 -44 l3 -37 -126 0 -127 0 25 43 c13 23 39 68 57 100 l33 58
17 -38 c9 -21 26 -46 38 -56z m-2445 38 c341 -36 576 -131 579 -234 1 -44 -27
-79 -98 -118 -227 -127 -778 -175 -1196 -104 -196 34 -365 101 -411 164 -143
190 504 358 1126 292z m-2170 -350 c341 -36 576 -131 579 -234 1 -44 -27 -79
-98 -118 -227 -127 -778 -175 -1196 -104 -196 34 -365 101 -411 164 -143 190
504 358 1126 292z m-3479 -169 c103 -43 102 -196 -3 -227 -49 -14 -82 -7 -122
29 -65 58 -41 171 41 199 45 15 45 15 84 -1z m5649 -181 c341 -36 576 -131
579 -234 1 -44 -27 -79 -98 -118 -227 -127 -778 -175 -1196 -104 -196 34 -365
101 -411 164 -40 52 -11 123 65 163 37 19 38 19 38 -21 0 -19 3 -35 8 -35 4 0
18 19 32 43 l25 42 3 -42 c5 -65 22 -51 22 16 l0 59 88 20 c136 31 150 34 272
47 159 18 409 18 573 0z m-972 -102 c-5 -10 -16 -27 -25 -38 -15 -19 -15 -19
-16 7 0 15 8 31 18 37 26 15 34 13 23 -6z m-1198 -248 c340 -36 576 -131 579
-233 1 -17 -6 -42 -16 -56 -29 -45 -194 -127 -261 -130 -16 0 -33 -5 -36 -10
-9 -11 -39 0 -39 14 0 5 14 10 30 10 31 0 39 17 18 38 -34 34 -86 -17 -60 -59
10 -16 9 -19 -3 -19 -11 0 -15 12 -15 45 0 26 -5 45 -11 45 -7 0 -10 -18 -7
-49 l3 -49 -84 -11 c-215 -30 -555 -31 -760 -1 -114 17 -111 15 -111 66 0 44
0 44 -35 44 -34 0 -35 -1 -35 -36 0 -35 -1 -36 -28 -31 -87 18 -231 91 -258
133 -126 191 511 355 1129 289z m2170 -350 c341 -36 576 -131 579 -234 1 -44
-27 -79 -98 -118 -227 -127 -778 -175 -1196 -104 -196 34 -365 101 -411 164
-143 190 504 358 1126 292z m-2963 -55 c0 -31 -3 -38 -15 -34 -9 4 -15 19 -15
40 0 24 5 34 15 34 11 0 15 -11 15 -40z m1058 22 c2 -7 -6 -12 -17 -12 -21 0
-27 11 -14 24 9 9 26 2 31 -12z m-265 -317 c341 -36 576 -131 579 -234 1 -44
-27 -79 -98 -118 -175 -98 -553 -153 -909 -132 -77 4 -146 8 -152 8 -21 1 -15
26 10 36 17 8 22 18 22 45 0 33 -2 35 -32 36 l-33 1 0 -57 0 -57 -87 13 c-190
30 -380 104 -426 166 -47 63 -11 125 106 184 l67 34 0 -55 0 -55 35 0 c39 0
62 28 47 58 -5 9 -7 23 -4 31 2 8 -3 20 -12 26 -13 10 2 16 91 35 231 49 539
62 796 35z m-888 -95 c0 -8 -10 -16 -22 -18 -18 -3 -23 2 -23 18 0 16 5 21 23
18 12 -2 22 -10 22 -18z m0 -55 c0 -13 -8 -21 -22 -23 -19 -3 -23 1 -23 23 0
22 4 26 23 23 14 -2 22 -10 22 -23z m3058 -200 c341 -36 576 -131 579 -234 1
-44 -27 -79 -98 -118 -227 -127 -778 -175 -1196 -104 -196 34 -365 101 -411
164 -143 190 504 358 1126 292z m-2728 -50 c0 -33 -28 -47 -39 -19 -10 25 3
56 22 52 11 -2 17 -13 17 -33z m558 -300 c341 -36 576 -131 579 -234 1 -44
-27 -79 -98 -118 -125 -70 -345 -119 -583 -130 -122 -6 -135 -5 -147 12 -13
17 -14 17 -31 -2 -17 -20 -24 -20 -167 -12 -331 19 -609 97 -679 192 -143 190
504 358 1126 292z m2170 -350 c341 -36 576 -131 579 -234 1 -44 -27 -79 -98
-118 -227 -127 -778 -175 -1196 -104 -196 34 -365 101 -411 164 -143 190 504
358 1126 292z"/>
<path d="M3247 7173 c-18 -29 -54 -143 -46 -143 6 0 13 9 16 20 8 29 65 28 86
-2 27 -41 26 -15 -3 57 -26 66 -42 86 -53 68z m33 -70 c0 -7 -9 -13 -20 -13
-22 0 -23 3 -13 39 6 23 7 23 20 6 7 -11 13 -25 13 -32z"/>
<path d="M3340 7084 l0 -55 43 3 c42 3 42 3 43 43 1 51 -10 65 -52 65 l-34 0
0 -56z m70 26 c0 -5 -11 -10 -25 -10 -14 0 -25 5 -25 10 0 6 11 10 25 10 14 0
25 -4 25 -10z m1 -45 c0 -5 -12 -11 -26 -13 -18 -2 -25 1 -25 13 0 12 7 15 25
13 14 -2 26 -7 26 -13z"/>
<path d="M3445 7130 c3 -5 13 -10 21 -10 10 0 14 -12 14 -45 0 -25 5 -45 10
-45 6 0 10 20 10 45 0 33 4 45 15 45 8 0 15 5 15 10 0 6 -21 10 -46 10 -27 0
-43 -4 -39 -10z"/>
<path d="M3556 7124 c-31 -30 -10 -94 30 -94 34 0 54 20 54 55 0 50 -50 73
-84 39z m59 -39 c0 -25 -4 -30 -25 -30 -16 0 -26 6 -28 18 -6 30 6 49 30 45
18 -2 23 -9 23 -33z"/>
<path d="M3660 7064 c0 -43 4 -74 10 -74 6 0 10 11 10 24 0 19 4 22 24 19 18
-4 29 2 42 22 16 25 16 30 3 54 -11 20 -23 26 -52 28 l-37 1 0 -74z m75 21 c0
-25 -4 -30 -25 -30 -16 0 -26 6 -28 18 -6 30 6 49 30 45 18 -2 23 -9 23 -33z"/>
<path d="M3780 7085 c0 -30 4 -55 9 -55 6 0 21 19 35 43 l26 42 0 -42 c0 -24
5 -43 10 -43 6 0 10 25 10 55 0 31 -4 55 -10 55 -6 0 -21 -17 -33 -37 l-22
-38 -3 38 c-5 57 -22 44 -22 -18z"/>
<path d="M3900 7125 c-15 -18 1 -20 18 -3 9 9 15 9 25 -1 10 -11 9 -15 -5 -24
-15 -10 -15 -12 0 -23 14 -11 15 -15 4 -26 -11 -11 -16 -10 -28 6 -7 11 -17
17 -20 13 -13 -13 20 -38 45 -35 23 3 26 8 28 43 0 22 -3 46 -9 53 -14 16 -43
15 -58 -3z"/>
<path d="M4002 7128 c-7 -7 -12 -26 -12 -43 0 -17 5 -36 12 -43 29 -29 88 1
88 45 0 41 -60 69 -88 41z m63 -43 c0 -25 -4 -30 -27 -33 -26 -3 -28 -1 -28
33 0 34 2 36 28 33 23 -3 27 -8 27 -33z"/>
<path d="M4110 7086 l0 -56 34 0 c44 0 55 16 47 65 -6 38 -8 40 -44 43 l-37 3
0 -55z m60 24 c0 -5 -9 -10 -20 -10 -11 0 -20 5 -20 10 0 6 9 10 20 10 11 0
20 -4 20 -10z m8 -47 c2 -8 -6 -13 -22 -13 -17 0 -26 5 -26 16 0 19 41 16 48
-3z"/>
<path d="M4233 7133 c-7 -2 -13 -12 -13 -21 0 -12 3 -13 12 -4 15 15 58 16 58
2 0 -6 -13 -13 -30 -16 -68 -14 -60 -64 11 -61 37 1 39 3 39 35 0 60 -29 85
-77 65z m55 -65 c-5 -15 -58 -24 -58 -10 0 15 12 22 38 22 14 0 22 -5 20 -12z"/>
<path d="M4320 7130 c0 -5 7 -10 15 -10 11 0 15 -12 15 -45 0 -25 5 -45 10
-45 6 0 10 20 10 45 0 33 4 45 14 45 8 0 18 5 21 10 4 6 -12 10 -39 10 -25 0
-46 -4 -46 -10z"/>
<path d="M4420 7085 c0 -54 0 -55 29 -55 44 0 61 10 61 35 0 23 -17 35 -51 35
-12 0 -19 7 -19 20 0 11 -4 20 -10 20 -5 0 -10 -25 -10 -55z m70 -20 c0 -9 -9
-15 -25 -15 -16 0 -25 6 -25 15 0 9 9 15 25 15 16 0 25 -6 25 -15z"/>
<path d="M4546 7124 c-32 -31 -10 -94 33 -94 21 0 47 27 37 37 -4 4 -11 1 -15
-6 -15 -24 -46 -8 -46 24 0 32 31 48 46 24 4 -7 11 -10 15 -6 10 10 -16 37
-37 37 -9 0 -25 -7 -33 -16z"/>
<path d="M4643 7124 c-3 -9 -1 -24 5 -34 8 -13 7 -23 -4 -39 -19 -27 -3 -28
21 -1 10 11 24 20 32 20 7 0 13 -9 13 -20 0 -11 5 -20 10 -20 6 0 10 25 10 55
l0 55 -40 0 c-28 0 -43 -5 -47 -16z m67 -19 c0 -16 -45 -21 -54 -6 -8 12 4 21
31 21 14 0 23 -6 23 -15z"/>
<path d="M8270 7105 c0 -43 4 -75 10 -75 6 0 10 28 10 65 l0 65 40 0 40 0 0
-65 c0 -37 4 -65 10 -65 6 0 10 32 10 75 l0 75 -60 0 -60 0 0 -75z"/>
<path d="M8420 7063 c0 -42 4 -73 10 -73 6 0 10 11 10 25 0 17 4 23 14 19 28
-11 56 15 56 50 0 41 -17 56 -58 53 l-32 -2 0 -72z m65 22 c0 -23 -5 -31 -21
-33 -24 -3 -35 16 -27 48 4 14 12 20 27 18 16 -2 21 -10 21 -33z"/>
<path d="M8530 7085 c0 -68 16 -72 51 -12 l24 42 6 -45 6 -45 1 58 c1 31 -1
57 -5 57 -5 0 -20 -19 -35 -43 l-28 -42 0 43 c0 23 -4 42 -10 42 -5 0 -10 -25
-10 -55z"/>
<path d="M8650 7085 c0 -30 5 -55 10 -55 6 0 10 9 10 20 0 15 7 20 25 20 18 0
25 -5 25 -20 0 -11 5 -20 10 -20 6 0 10 25 10 55 0 30 -4 55 -10 55 -5 0 -10
-11 -10 -25 0 -20 -5 -25 -25 -25 -20 0 -25 5 -25 25 0 14 -4 25 -10 25 -5 0
-10 -25 -10 -55z"/>
<path d="M8773 7124 c-3 -9 -1 -24 5 -34 8 -13 7 -23 -4 -39 -19 -27 -3 -28
21 -1 10 11 24 20 32 20 7 0 13 -9 13 -20 0 -11 5 -20 10 -20 6 0 10 25 10 55
l0 55 -40 0 c-28 0 -43 -5 -47 -16z m67 -19 c0 -16 -45 -21 -54 -6 -8 12 4 21
31 21 14 0 23 -6 23 -15z"/>
<path d="M8875 7130 c3 -5 13 -10 21 -10 10 0 14 -12 14 -45 0 -25 5 -45 10
-45 6 0 10 20 10 45 0 33 4 45 15 45 8 0 15 5 15 10 0 6 -21 10 -46 10 -27 0
-43 -4 -39 -10z"/>
<path d="M8980 7085 l0 -55 34 0 c18 0 39 6 45 14 18 22 -3 56 -34 56 -18 0
-25 5 -25 20 0 11 -4 20 -10 20 -5 0 -10 -25 -10 -55z m70 -20 c0 -9 -9 -15
-25 -15 -16 0 -25 6 -25 15 0 9 9 15 25 15 16 0 25 -6 25 -15z"/>
<path d="M9150 7125 c-15 -18 1 -20 18 -3 9 9 15 9 25 -1 10 -11 9 -15 -5 -24
-15 -10 -15 -12 0 -23 14 -11 15 -15 4 -26 -11 -11 -16 -10 -28 6 -7 11 -17
17 -20 13 -13 -13 20 -38 45 -35 23 3 26 8 28 43 0 22 -3 46 -9 53 -14 16 -43
15 -58 -3z"/>
<path d="M9250 7125 c-7 -9 -9 -19 -5 -23 4 -4 10 -1 12 6 5 14 53 17 53 2 0
-5 -15 -13 -32 -18 -26 -6 -33 -14 -33 -33 0 -22 4 -24 43 -24 l42 -1 0 47 c0
34 -5 49 -16 53 -27 10 -51 7 -64 -9z m58 -57 c-5 -15 -48 -24 -48 -10 0 14
12 22 33 22 10 0 17 -5 15 -12z"/>
<path d="M9360 7085 c0 -30 5 -55 10 -55 6 0 10 12 10 28 l1 27 20 -27 c28
-37 46 -36 20 1 l-21 29 21 26 c15 19 17 26 6 26 -7 0 -20 -12 -27 -27 l-14
-28 -4 28 c-6 48 -22 29 -22 -28z"/>
<path d="M9460 7121 c-11 -21 3 -31 15 -11 3 6 15 10 26 10 31 0 17 -24 -17
-30 -23 -4 -29 -10 -29 -30 0 -23 4 -25 45 -26 l45 -1 -5 51 c-5 49 -6 51 -37
54 -24 2 -34 -2 -43 -17z m60 -56 c0 -9 -9 -15 -25 -15 -24 0 -32 10 -18 23
12 13 43 7 43 -8z"/>
<path d="M9577 7133 c-14 -14 -6 -23 12 -14 20 11 31 5 31 -16 0 -7 -8 -13
-17 -14 -14 0 -13 -3 5 -11 26 -13 28 -23 7 -32 -8 -3 -22 2 -30 11 -20 19
-33 9 -15 -12 8 -9 25 -15 39 -13 23 3 26 8 28 43 0 22 -3 46 -9 53 -11 13
-40 16 -51 5z"/>
<path d="M202 6988 c-7 -7 -12 -19 -12 -27 1 -14 3 -13 14 2 13 16 47 23 59
11 9 -10 -4 -34 -19 -34 -22 0 -17 -17 7 -23 13 -4 20 -12 17 -24 -5 -25 -46
-29 -64 -6 -14 17 -15 17 -12 -1 5 -29 32 -42 65 -30 29 10 40 34 27 62 -4 9
-6 28 -5 41 4 37 -49 57 -77 29z"/>
<path d="M320 6941 c-11 -21 3 -31 15 -11 3 6 15 10 26 10 31 0 17 -24 -17
-30 -23 -4 -29 -10 -29 -30 0 -23 4 -25 45 -26 l45 -1 -5 51 c-5 49 -6 51 -37
54 -24 2 -34 -2 -43 -17z m60 -56 c0 -9 -9 -15 -25 -15 -24 0 -32 10 -18 23
12 13 43 7 43 -8z"/>
<path d="M430 6883 c0 -42 4 -73 10 -73 6 0 10 11 10 24 0 19 4 23 20 19 29
-8 50 14 50 52 0 40 -16 54 -58 53 l-32 -1 0 -74z m72 40 c7 -33 -4 -54 -26
-51 -37 5 -34 68 3 68 11 0 21 -8 23 -17z"/>
<path d="M557 6942 c-22 -24 -21 -55 1 -75 23 -21 56 -22 72 -2 17 21 7 29
-18 14 -21 -13 -52 -7 -52 11 0 5 18 10 40 10 33 0 40 3 40 20 0 19 -27 40
-53 40 -8 0 -21 -8 -30 -18z m63 -12 c0 -5 -14 -10 -31 -10 -17 0 -28 4 -24
10 3 6 17 10 31 10 13 0 24 -4 24 -10z"/>
<path d="M660 6905 c0 -30 5 -55 10 -55 6 0 10 20 10 45 0 38 3 45 19 45 11 0
23 5 26 10 4 6 -8 10 -29 10 l-36 0 0 -55z"/>
<path d="M740 6905 c0 -30 4 -55 9 -55 6 0 21 19 35 43 l26 42 0 -42 c0 -24 5
-43 10 -43 6 0 10 25 10 55 0 31 -4 55 -10 55 -6 0 -21 -17 -33 -37 l-22 -38
-3 38 c-5 57 -22 44 -22 -18z"/>
<path d="M867 6942 c-22 -24 -21 -55 1 -75 23 -21 46 -22 67 -1 21 21 13 29
-13 13 -27 -17 -52 -5 -52 26 0 30 25 43 51 26 15 -9 19 -8 19 3 0 29 -50 34
-73 8z"/>
<path d="M955 6950 c3 -5 13 -10 21 -10 10 0 14 -12 14 -45 0 -25 5 -45 10
-45 6 0 10 20 10 45 0 33 4 45 15 45 8 0 15 5 15 10 0 6 -21 10 -46 10 -27 0
-43 -4 -39 -10z"/>
<path d="M1060 6883 c0 -42 4 -73 10 -73 6 0 10 11 10 24 0 19 4 23 20 19 29
-8 50 14 50 52 0 40 -16 54 -58 53 l-32 -1 0 -74z m72 40 c7 -33 -4 -54 -26
-51 -37 5 -34 68 3 68 11 0 21 -8 23 -17z"/>
<path d="M1170 6905 c0 -68 16 -72 51 -12 l24 42 6 -45 6 -45 1 58 c1 31 -1
57 -5 57 -5 0 -20 -19 -35 -43 l-28 -42 0 43 c0 23 -4 42 -10 42 -5 0 -10 -25
-10 -55z"/>
<path d="M1290 6884 c0 -43 4 -74 10 -74 6 0 10 11 10 24 0 19 4 22 24 19 18
-4 29 2 42 22 16 25 16 30 3 54 -11 20 -23 26 -52 28 l-37 1 0 -74z m75 21 c0
-25 -4 -30 -25 -30 -16 0 -26 6 -28 18 -6 30 6 49 30 45 18 -2 23 -9 23 -33z"/>
<path d="M1413 6934 c-15 -24 -15 -29 -2 -53 29 -51 89 -35 89 23 0 59 -55 78
-87 30z m72 -13 c10 -31 -5 -52 -34 -49 -26 3 -38 26 -27 54 8 21 53 18 61 -5z"/>
<path d="M1530 6906 l0 -56 34 0 c44 0 55 16 47 65 -6 38 -8 40 -44 43 l-37 3
0 -55z m60 24 c0 -5 -9 -10 -20 -10 -11 0 -20 5 -20 10 0 6 9 10 20 10 11 0
20 -4 20 -10z m8 -47 c2 -8 -6 -13 -22 -13 -17 0 -26 5 -26 16 0 19 41 16 48
-3z"/>
<path d="M1653 6953 c-7 -2 -13 -12 -13 -21 0 -12 3 -13 12 -4 15 15 58 16 58
2 0 -6 -13 -13 -30 -16 -68 -14 -60 -64 11 -61 37 1 39 3 39 35 0 60 -29 85
-77 65z m55 -65 c-5 -15 -58 -24 -58 -10 0 15 12 22 38 22 14 0 22 -5 20 -12z"/>
<path d="M1740 6950 c0 -5 7 -10 15 -10 11 0 15 -12 15 -45 0 -25 5 -45 10
-45 6 0 10 20 10 45 0 33 4 45 14 45 8 0 18 5 21 10 4 6 -12 10 -39 10 -25 0
-46 -4 -46 -10z"/>
<path d="M1840 6905 c0 -54 0 -55 29 -55 44 0 61 10 61 35 0 23 -17 35 -51 35
-12 0 -19 7 -19 20 0 11 -4 20 -10 20 -5 0 -10 -25 -10 -55z m70 -20 c0 -9 -9
-15 -25 -15 -16 0 -25 6 -25 15 0 9 9 15 25 15 16 0 25 -6 25 -15z"/>
<path d="M1966 6944 c-32 -31 -10 -94 33 -94 21 0 47 27 37 37 -4 4 -11 1 -15
-6 -15 -24 -46 -8 -46 24 0 32 31 48 46 24 4 -7 11 -10 15 -6 10 10 -16 37
-37 37 -9 0 -25 -7 -33 -16z"/>
<path d="M2063 6944 c-3 -9 -1 -24 5 -34 8 -13 7 -23 -4 -39 -19 -27 -3 -28
21 -1 10 11 24 20 32 20 7 0 13 -9 13 -20 0 -11 5 -20 10 -20 6 0 10 25 10 55
l0 55 -40 0 c-28 0 -43 -5 -47 -16z m67 -19 c0 -16 -45 -21 -54 -6 -8 12 4 21
31 21 14 0 23 -6 23 -15z"/>
<path d="M5450 6695 c0 -43 4 -75 10 -75 6 0 10 16 10 35 0 33 2 35 35 35 33
0 35 -2 35 -35 0 -19 5 -35 10 -35 6 0 10 32 10 75 0 43 -4 75 -10 75 -5 0
-10 -13 -10 -30 0 -28 -3 -30 -35 -30 -32 0 -35 2 -35 30 0 17 -4 30 -10 30
-6 0 -10 -32 -10 -75z"/>
<path d="M5600 6711 c-11 -21 3 -31 15 -11 3 6 15 10 26 10 31 0 17 -24 -17
-30 -23 -4 -29 -10 -29 -30 0 -23 4 -25 45 -26 l45 -1 -5 51 c-5 49 -6 51 -37
54 -24 2 -34 -2 -43 -17z m60 -56 c0 -9 -9 -15 -25 -15 -24 0 -32 10 -18 23
12 13 43 7 43 -8z"/>
<path d="M5710 6675 c0 -30 5 -55 10 -55 6 0 10 20 10 45 0 41 2 45 25 45 23
0 25 -4 25 -45 0 -25 5 -45 10 -45 6 0 10 25 10 55 l0 55 -45 0 -45 0 0 -55z"/>
<path d="M5820 6675 c0 -68 16 -72 51 -12 l24 42 6 -45 6 -45 1 58 c1 31 -1
57 -5 57 -5 0 -20 -19 -35 -43 l-28 -42 0 43 c0 23 -4 42 -10 42 -5 0 -10 -25
-10 -55z"/>
<path d="M5952 6718 c-7 -7 -12 -26 -12 -43 0 -36 15 -55 46 -55 23 0 51 26
40 37 -4 4 -11 1 -15 -6 -15 -24 -46 -8 -46 24 0 32 31 48 46 24 4 -7 11 -10
15 -6 11 11 -17 37 -40 37 -12 0 -27 -5 -34 -12z"/>
<path d="M6063 6723 c-7 -2 -13 -12 -13 -21 0 -12 3 -13 12 -4 15 15 58 16 58
2 0 -6 -13 -13 -30 -16 -68 -14 -60 -64 11 -61 37 1 39 3 39 35 0 60 -29 85
-77 65z m55 -65 c-5 -15 -58 -24 -58 -10 0 15 12 22 38 22 14 0 22 -5 20 -12z"/>
<path d="M6150 6720 c0 -5 7 -10 15 -10 11 0 15 -12 15 -45 0 -25 5 -45 10
-45 6 0 10 20 10 45 0 33 4 45 14 45 8 0 18 5 21 10 4 6 -12 10 -39 10 -25 0
-46 -4 -46 -10z"/>
<path d="M6260 6675 l0 -55 34 0 c18 0 39 6 45 14 18 22 -3 56 -34 56 -18 0
-25 5 -25 20 0 11 -4 20 -10 20 -5 0 -10 -25 -10 -55z m70 -20 c0 -9 -9 -15
-25 -15 -16 0 -25 6 -25 15 0 9 9 15 25 15 16 0 25 -6 25 -15z"/>
<path d="M5711 6496 c-19 -22 -23 -78 -9 -106 20 -37 68 -35 86 3 12 24 11 31
-3 54 -14 21 -22 24 -47 19 -21 -4 -28 -2 -26 7 3 6 18 13 34 15 44 5 54 22
12 22 -19 0 -41 -6 -47 -14z m64 -65 c12 -40 -22 -72 -50 -45 -17 17 -18 25
-9 48 9 22 51 20 59 -3z"/>
<path d="M5472 6458 c-7 -7 -12 -26 -12 -43 0 -17 5 -36 12 -43 29 -29 88 1
88 45 0 41 -60 69 -88 41z m63 -43 c0 -25 -4 -30 -27 -33 -26 -3 -28 -1 -28
33 0 34 2 36 28 33 23 -3 27 -8 27 -33z"/>
<path d="M5583 6444 c-15 -24 -15 -29 -2 -53 29 -51 89 -35 89 23 0 59 -55 78
-87 30z m72 -13 c10 -31 -5 -52 -34 -49 -26 3 -38 26 -27 54 8 21 53 18 61 -5z"/>
<path d="M5820 6415 l0 -55 65 0 c51 0 65 -3 65 -15 0 -8 5 -15 11 -15 8 0 10
13 5 38 -3 20 -6 52 -6 70 0 17 -4 32 -10 32 -5 0 -10 -20 -10 -45 0 -38 -3
-45 -20 -45 -17 0 -20 7 -20 45 0 25 -4 45 -10 45 -5 0 -10 -20 -10 -45 0 -38
-3 -45 -20 -45 -17 0 -20 7 -20 45 0 25 -4 45 -10 45 -5 0 -10 -25 -10 -55z"/>
<path d="M5997 6452 c-22 -24 -21 -55 1 -75 23 -21 56 -22 72 -2 17 21 7 29
-18 14 -21 -13 -52 -7 -52 11 0 5 18 10 40 10 33 0 40 3 40 20 0 19 -27 40
-53 40 -8 0 -21 -8 -30 -18z m63 -12 c0 -5 -14 -10 -31 -10 -17 0 -28 4 -24
10 3 6 17 10 31 10 13 0 24 -4 24 -10z"/>
<path d="M6100 6415 c0 -30 5 -55 10 -55 6 0 10 9 10 20 0 15 7 20 25 20 18 0
25 -5 25 -20 0 -11 5 -20 10 -20 6 0 10 25 10 55 0 30 -4 55 -10 55 -5 0 -10
-11 -10 -25 0 -20 -5 -25 -25 -25 -20 0 -25 5 -25 25 0 14 -4 25 -10 25 -5 0
-10 -25 -10 -55z"/>
<path d="M6220 6415 c0 -30 4 -55 9 -55 6 0 21 19 35 43 l26 42 0 -42 c0 -24
5 -43 10 -43 6 0 10 25 10 55 0 31 -4 55 -10 55 -6 0 -21 -17 -33 -37 l-22
-38 -3 38 c-5 57 -22 44 -22 -18z"/>
<path d="M5431 6006 c-17 -20 -10 -67 12 -80 19 -12 48 0 55 25 4 10 -1 8 -16
-4 -26 -24 -42 -15 -42 23 0 34 15 47 36 29 8 -6 18 -9 21 -5 9 9 -16 26 -38
26 -9 0 -22 -6 -28 -14z"/>
<path d="M5520 5970 c0 -27 5 -50 10 -50 6 0 10 20 10 45 0 38 3 45 20 45 17
0 20 -7 20 -45 0 -25 5 -45 10 -45 6 0 10 23 10 50 l0 50 -40 0 -40 0 0 -50z"/>
<path d="M5632 6008 c-7 -7 -12 -24 -12 -38 0 -30 16 -50 41 -50 23 0 49 27
49 50 0 39 -52 64 -78 38z m42 -4 c32 -12 15 -74 -19 -74 -14 0 -25 42 -15 60
12 22 12 22 34 14z"/>
<path d="M5728 5970 c-2 -30 1 -49 7 -47 6 2 11 23 13 46 3 37 6 42 25 39 18
-2 23 -12 28 -48 l6 -45 1 53 2 52 -39 0 -39 0 -4 -50z"/>
<path d="M5841 5973 c-1 -52 0 -53 28 -53 37 0 59 24 41 45 -7 8 -23 15 -36
15 -16 0 -24 7 -27 23 -2 12 -5 -2 -6 -30z m57 -20 c5 -17 -26 -29 -40 -15 -6
6 -7 15 -3 22 9 14 37 9 43 -7z"/>
<path d="M5940 6005 c-15 -18 0 -21 18 -3 9 9 15 9 24 0 9 -9 7 -13 -6 -18
-15 -6 -15 -7 1 -20 14 -10 15 -15 6 -25 -10 -10 -15 -9 -28 1 -8 7 -19 10
-22 6 -11 -10 19 -27 42 -24 17 3 20 11 20 48 0 38 -3 45 -21 48 -11 2 -27 -4
-34 -13z"/>
<path d="M6032 6008 c-7 -7 -12 -24 -12 -38 0 -30 16 -50 41 -50 23 0 49 27
49 50 0 39 -52 64 -78 38z m42 -4 c32 -12 15 -74 -19 -74 -14 0 -25 42 -15 60
12 22 12 22 34 14z"/>
<path d="M6130 5969 l0 -50 38 3 c35 3 37 5 38 38 1 45 -11 60 -47 60 -28 0
-29 -2 -29 -51z m55 21 c0 -8 -8 -16 -17 -18 -13 -2 -18 3 -18 18 0 15 5 20
18 18 9 -2 17 -10 17 -18z m9 -39 c3 -5 -1 -12 -10 -15 -25 -10 -34 -7 -34 9
0 16 35 21 44 6z"/>
<path d="M6240 6011 c-8 -6 -11 -13 -7 -17 3 -4 14 -1 22 6 12 10 19 10 27 2
14 -14 2 -28 -27 -34 -12 -2 -20 -11 -20 -23 0 -16 7 -20 38 -20 l38 -1 -3 46
c-3 40 -6 45 -28 48 -14 1 -32 -2 -40 -7z m50 -60 c0 -12 -29 -23 -41 -15 -5
3 -7 10 -4 15 8 12 45 12 45 0z"/>
<path d="M6335 6011 c14 -6 22 -21 26 -52 l6 -44 1 47 c2 35 6 48 20 51 9 3
-3 5 -28 5 -31 0 -39 -2 -25 -7z"/>
<path d="M6420 5969 l0 -50 38 3 c32 3 37 6 37 28 0 20 -6 26 -27 28 -20 2
-28 9 -28 23 0 10 -4 19 -10 19 -5 0 -10 -23 -10 -51z m60 -9 c13 -9 13 -11 0
-20 -24 -16 -40 -12 -40 10 0 22 16 26 40 10z"/>
<path d="M5450 5751 c-8 -6 -11 -13 -7 -17 3 -4 14 -1 22 6 12 10 19 10 27 2
14 -14 2 -28 -27 -34 -12 -2 -20 -11 -20 -23 0 -16 7 -20 38 -20 l38 -1 -3 46
c-3 40 -6 45 -28 48 -14 1 -32 -2 -40 -7z m50 -60 c0 -12 -29 -23 -41 -15 -5
3 -7 10 -4 15 8 12 45 12 45 0z"/>
<path d="M5548 5710 c-2 -30 1 -49 7 -47 6 2 11 23 13 46 3 37 6 42 25 39 18
-2 23 -12 28 -48 l6 -45 1 53 2 52 -39 0 -39 0 -4 -50z"/>
<path d="M5661 5713 c-1 -52 0 -53 28 -53 37 0 59 24 41 45 -7 8 -23 15 -36
15 -16 0 -24 7 -27 23 -2 12 -5 -2 -6 -30z m57 -20 c5 -17 -26 -29 -40 -15 -6
6 -7 15 -3 22 9 14 37 9 43 -7z"/>
<path d="M5760 5710 c0 -53 16 -69 22 -22 l4 27 14 -27 c7 -16 17 -28 22 -28
5 0 2 13 -6 29 -13 25 -13 31 0 50 8 11 11 21 6 21 -5 0 -17 -10 -25 -22 l-16
-23 0 23 c-2 46 -21 20 -21 -28z"/>
<path d="M5950 5722 c0 -21 -5 -43 -12 -50 -9 -9 -8 -12 5 -12 14 0 17 9 17
46 0 41 2 45 23 42 18 -2 23 -11 28 -48 l6 -45 1 53 2 52 -35 0 c-34 0 -35 -1
-35 -38z"/>
<path d="M6053 5744 c-3 -9 -1 -24 5 -34 8 -13 7 -21 -1 -29 -6 -6 -7 -14 -4
-18 4 -4 14 3 23 15 19 27 34 28 34 2 0 -11 5 -20 10 -20 6 0 10 23 10 50 l0
50 -35 0 c-24 0 -38 -5 -42 -16z m57 -14 c0 -13 -7 -20 -20 -20 -19 0 -27 20
-13 33 13 14 33 6 33 -13z"/>
<path d="M6163 5753 c13 -3 17 -15 17 -49 0 -24 5 -44 10 -44 6 0 10 20 10 44
0 34 4 46 18 49 9 3 -3 5 -28 5 -25 0 -37 -2 -27 -5z"/>
<path d="M6252 5748 c-7 -7 -12 -24 -12 -38 0 -30 16 -50 41 -50 23 0 49 27
49 50 0 39 -52 64 -78 38z m46 -10 c28 -28 -3 -83 -33 -58 -8 7 -15 20 -15 29
0 17 18 41 30 41 3 0 11 -5 18 -12z"/>
<path d="M5210 5170 c0 -40 4 -70 10 -70 6 0 10 27 10 60 l0 60 35 0 35 0 0
-60 c0 -33 4 -60 10 -60 6 0 10 30 10 70 l0 70 -55 0 -55 0 0 -70z"/>
<path d="M5350 5130 c0 -40 4 -70 10 -70 6 0 10 11 10 24 0 18 5 23 18 20 27
-7 45 11 45 45 0 39 -5 44 -48 47 l-35 3 0 -69z m70 20 c0 -22 -25 -44 -40
-35 -14 9 -13 62 3 68 17 6 37 -12 37 -33z"/>
<path d="M5466 5184 c-30 -30 -9 -84 33 -84 25 0 41 20 41 50 0 47 -42 66 -74
34z m52 -6 c28 -28 -3 -83 -33 -58 -8 7 -15 20 -15 29 0 17 18 41 30 41 3 0
11 -5 18 -12z"/>
<path d="M5563 5175 c2 -25 7 -31 30 -33 19 -2 27 -9 27 -23 0 -10 5 -19 10
-19 6 0 10 23 10 50 0 28 -4 50 -10 50 -5 0 -10 -9 -10 -19 0 -37 -43 -34 -53
4 -4 12 -5 9 -4 -10z"/>
<path d="M5660 5150 c0 -27 4 -50 9 -50 5 0 20 17 33 38 l23 37 6 -40 c6 -39
6 -39 8 13 0 28 -3 52 -7 52 -4 0 -17 -15 -27 -32 l-20 -33 -3 33 c-5 51 -22
37 -22 -18z"/>
<path d="M5773 5193 c13 -3 17 -15 17 -49 0 -24 5 -44 10 -44 6 0 10 20 10 44
0 34 4 46 18 49 9 3 -3 5 -28 5 -25 0 -37 -2 -27 -5z"/>
<path d="M5860 5186 c-15 -19 0 -22 18 -4 10 10 16 9 29 -4 15 -15 13 -17 -18
-25 -24 -7 -34 -15 -34 -29 0 -15 7 -19 40 -20 l41 -1 -6 46 c-4 40 -8 46 -31
49 -14 2 -31 -4 -39 -12z m46 -61 c-19 -14 -36 -12 -36 6 0 5 12 9 28 9 26 -1
26 -1 8 -15z"/>
<path d="M5963 5193 c13 -3 17 -15 17 -49 0 -24 5 -44 10 -44 6 0 10 20 10 44
0 34 4 46 18 49 9 3 -3 5 -28 5 -25 0 -37 -2 -27 -5z"/>
<path d="M6051 5153 c-1 -52 0 -53 28 -53 37 0 59 24 41 45 -7 8 -23 15 -36
15 -16 0 -24 7 -27 23 -2 12 -5 -2 -6 -30z m55 -14 c7 -12 -12 -29 -33 -29 -7
0 -13 9 -13 20 0 22 34 28 46 9z"/>
<path d="M6200 5150 c0 -27 5 -50 10 -50 6 0 10 20 10 45 0 38 3 45 20 45 17
0 20 -7 20 -45 0 -25 5 -45 10 -45 6 0 10 23 10 50 l0 50 -40 0 -40 0 0 -50z"/>
<path d="M6312 5188 c-7 -7 -12 -24 -12 -38 0 -30 16 -50 41 -50 23 0 49 27
49 50 0 39 -52 64 -78 38z m42 -4 c32 -12 15 -74 -19 -74 -14 0 -25 42 -15 60
12 22 12 22 34 14z"/>
<path d="M6421 5186 c-17 -20 -10 -67 12 -80 19 -12 48 0 55 25 3 9 -2 8 -16
-5 -18 -15 -24 -16 -37 -6 -19 16 -19 44 0 60 12 10 19 10 27 2 17 -17 33 -15
18 3 -16 19 -44 19 -59 1z"/>
<path d="M6513 5193 c13 -3 17 -15 17 -49 0 -24 5 -44 10 -44 6 0 10 20 10 44
0 34 4 46 18 49 9 3 -3 5 -28 5 -25 0 -37 -2 -27 -5z"/>
<path d="M5150 4295 l0 -66 41 3 c46 3 67 24 54 54 -4 11 -8 30 -9 44 -1 22
-6 25 -43 28 l-43 3 0 -66z m71 30 c0 -5 -12 -11 -26 -13 -18 -2 -25 1 -25 13
0 12 7 15 25 13 14 -2 26 -7 26 -13z m9 -55 c0 -16 -7 -20 -30 -20 -23 0 -30
4 -30 20 0 16 7 20 30 20 23 0 30 -4 30 -20z"/>
<path d="M5417 4348 c2 -5 10 -8 18 -8 8 0 16 3 18 8 3 4 -5 7 -18 7 -13 0
-21 -3 -18 -7z"/>
<path d="M5271 4282 l-1 -53 33 3 c27 2 32 7 32 28 0 20 -6 26 -27 28 -18 2
-28 10 -31 25 -2 12 -5 -2 -6 -31z m49 -12 c13 -9 13 -11 0 -20 -19 -12 -27
-12 -35 0 -7 11 2 30 13 30 4 0 14 -5 22 -10z"/>
<path d="M5363 4280 c0 -30 2 -43 4 -27 2 15 2 39 0 55 -2 15 -4 2 -4 -28z"/>
<path d="M5390 4280 c0 -58 12 -64 37 -17 l18 32 3 -32 c5 -52 22 -38 22 17 0
28 -4 50 -10 50 -5 0 -18 -17 -29 -37 l-20 -38 -1 38 c0 20 -4 37 -10 37 -5 0
-10 -22 -10 -50z"/>
<path d="M5493 4323 c13 -3 17 -15 17 -49 0 -24 5 -44 10 -44 6 0 10 20 10 44
0 34 4 46 18 49 9 3 -3 5 -28 5 -25 0 -37 -2 -27 -5z"/>
<path d="M5570 4280 c0 -58 12 -64 37 -17 l18 32 3 -32 c5 -52 22 -38 22 17 0
28 -4 50 -10 50 -5 0 -18 -17 -29 -37 l-20 -38 -1 38 c0 20 -4 37 -10 37 -5 0
-10 -22 -10 -50z"/>
<path d="M5721 4283 c0 -29 2 -53 7 -53 4 0 16 17 27 37 l20 37 6 -40 c6 -38
6 -37 8 14 0 28 -3 52 -7 52 -5 0 -17 -17 -27 -37 l-19 -38 -7 40 c-6 40 -6
40 -8 -12z"/>
<path d="M5820 4315 c-14 -17 0 -21 17 -4 8 8 13 7 18 -1 4 -7 1 -16 -6 -21
-10 -6 -11 -9 -1 -9 6 0 12 -9 12 -20 0 -22 -20 -26 -38 -8 -9 9 -12 9 -12 1
0 -18 19 -26 46 -19 21 6 24 11 21 39 -6 56 -30 74 -57 42z"/>
<path d="M5950 4316 c-15 -19 0 -22 18 -4 10 10 16 9 29 -4 15 -15 13 -17 -18
-25 -24 -7 -34 -15 -34 -29 0 -15 7 -19 38 -19 l38 -1 -3 46 c-3 40 -6 45 -29
48 -14 2 -31 -4 -39 -12z m48 -62 c-9 -9 -21 -13 -27 -10 -20 13 -11 26 16 26
25 0 26 -1 11 -16z"/>
<path d="M6040 4280 c0 -53 16 -69 22 -22 l4 27 14 -27 c7 -16 17 -28 22 -28
5 0 1 14 -7 31 -15 29 -15 32 1 50 9 10 12 19 7 19 -6 0 -18 -10 -26 -22 l-16
-23 0 23 c-2 46 -21 20 -21 -28z"/>
<path d="M6123 4280 c-1 -41 1 -48 6 -25 l7 30 18 -28 c10 -15 21 -25 24 -23
2 3 -2 16 -11 29 -14 22 -14 27 -1 46 8 11 11 21 5 21 -5 0 -13 -9 -16 -20 -8
-27 -23 -25 -28 3 -2 12 -4 -3 -4 -33z"/>
<path d="M6205 4319 c-11 -17 3 -23 20 -9 12 10 19 10 28 1 14 -14 -6 -31 -36
-31 -13 0 -17 -6 -15 -22 2 -19 10 -23 41 -25 36 -1 37 0 37 36 0 20 -5 42
-12 49 -15 15 -55 16 -63 1z m55 -58 c0 -12 -29 -23 -41 -15 -5 3 -7 10 -4 15
8 12 45 12 45 0z"/>
<path d="M6293 4316 c25 -65 30 -98 17 -106 -8 -5 -11 -12 -7 -16 12 -12 25 8
47 70 23 68 19 88 -7 30 l-16 -39 -10 38 c-5 20 -14 37 -19 37 -6 0 -8 -6 -5
-14z"/>
<path d="M6380 4280 c0 -27 5 -50 10 -50 6 0 10 11 10 25 0 18 5 25 20 25 15
0 20 -7 20 -25 0 -14 5 -25 10 -25 6 0 10 23 10 50 0 28 -4 50 -10 50 -5 0
-10 -9 -10 -20 0 -13 -7 -20 -20 -20 -13 0 -20 7 -20 20 0 11 -4 20 -10 20 -5
0 -10 -22 -10 -50z"/>
<path d="M6483 4323 c13 -3 17 -16 19 -51 l1 -47 6 44 c4 31 12 46 26 52 14 5
6 7 -25 7 -25 0 -37 -2 -27 -5z"/>
<path d="M6567 4324 c-13 -13 -7 -27 7 -15 14 12 46 5 46 -10 0 -5 -15 -12
-32 -17 -23 -6 -33 -14 -33 -28 0 -15 8 -19 40 -20 l41 -2 -6 47 c-4 40 -8 46
-30 49 -14 2 -29 0 -33 -4z m41 -70 c-9 -9 -21 -13 -27 -10 -20 13 -11 26 16
26 25 0 26 -1 11 -16z"/>
<path d="M7370 3955 c0 -43 4 -75 10 -75 6 0 10 16 10 35 0 34 1 35 40 35 39
0 40 -1 40 -35 0 -19 5 -35 10 -35 6 0 10 32 10 75 0 43 -4 75 -10 75 -5 0
-10 -13 -10 -30 0 -28 -2 -30 -40 -30 -38 0 -40 2 -40 30 0 17 -4 30 -10 30
-6 0 -10 -32 -10 -75z"/>
<path d="M7530 3975 c-7 -9 -9 -19 -5 -23 4 -4 10 -1 12 6 6 14 53 16 53 2 0
-6 -13 -13 -30 -16 -68 -14 -60 -64 11 -61 39 1 39 2 39 42 0 23 -5 46 -12 53
-17 17 -53 15 -68 -3z m58 -57 c-5 -15 -58 -24 -58 -10 0 15 12 22 38 22 14 0
22 -5 20 -12z"/>
<path d="M7640 3935 c0 -30 5 -55 10 -55 6 0 10 20 10 45 0 41 2 45 24 45 22
0 25 -5 29 -47 3 -47 3 -47 5 10 l2 57 -40 0 -40 0 0 -55z"/>
<path d="M7750 3935 c0 -30 4 -55 9 -55 6 0 21 19 35 43 l26 42 0 -42 c0 -24
5 -43 10 -43 6 0 10 25 10 55 0 31 -4 55 -10 55 -6 0 -21 -17 -33 -37 l-22
-38 -3 38 c-5 57 -22 44 -22 -18z"/>
<path d="M7877 3972 c-22 -24 -21 -55 1 -75 23 -21 46 -22 67 -1 21 21 13 29
-13 13 -27 -17 -52 -5 -52 26 0 30 25 43 51 26 15 -9 19 -8 19 3 0 29 -50 34
-73 8z"/>
<path d="M7980 3975 c-7 -9 -9 -19 -5 -23 4 -4 10 -1 12 6 5 14 53 17 53 2 0
-5 -15 -13 -32 -18 -26 -6 -33 -14 -33 -33 0 -22 4 -24 43 -24 l42 -1 0 47 c0
34 -5 49 -16 53 -27 10 -51 7 -64 -9z m58 -57 c-5 -15 -48 -24 -48 -10 0 14
12 22 33 22 10 0 17 -5 15 -12z"/>
<path d="M8075 3980 c3 -5 13 -10 21 -10 10 0 14 -12 14 -45 0 -25 5 -45 10
-45 6 0 10 20 10 45 0 33 4 45 15 45 8 0 15 5 15 10 0 6 -21 10 -46 10 -27 0
-43 -4 -39 -10z"/>
<path d="M8180 3935 c0 -54 0 -55 29 -55 41 0 61 9 61 29 0 24 -20 41 -47 41
-16 0 -23 6 -23 20 0 11 -4 20 -10 20 -5 0 -10 -25 -10 -55z m70 -20 c0 -9 -9
-15 -25 -15 -16 0 -25 6 -25 15 0 9 9 15 25 15 16 0 25 -6 25 -15z"/>
<path d="M8350 3935 c0 -30 5 -55 10 -55 6 0 10 20 10 45 0 41 2 45 25 45 23
0 25 -4 25 -45 0 -25 5 -45 10 -45 6 0 10 25 10 55 l0 55 -45 0 -45 0 0 -55z"/>
<path d="M8472 3978 c-7 -7 -12 -26 -12 -43 0 -17 5 -36 12 -43 29 -29 88 1
88 45 0 41 -60 69 -88 41z m63 -43 c0 -25 -4 -30 -27 -33 -26 -3 -28 -1 -28
33 0 34 2 36 28 33 23 -3 27 -8 27 -33z"/>
<path d="M8583 3964 c-15 -24 -15 -29 -2 -53 8 -14 24 -27 36 -29 21 -3 59 25
48 36 -3 3 -11 0 -17 -6 -18 -18 -46 -14 -53 7 -13 41 24 68 53 39 9 -9 12 -8
12 4 0 16 -20 28 -46 28 -7 0 -21 -12 -31 -26z"/>
<path d="M8675 3980 c3 -5 13 -10 21 -10 10 0 14 -12 14 -45 0 -25 5 -45 10
-45 6 0 10 20 10 45 0 33 4 45 15 45 8 0 15 5 15 10 0 6 -21 10 -46 10 -27 0
-43 -4 -39 -10z"/>
<path d="M5130 3605 c0 -43 4 -75 10 -75 6 0 10 16 10 35 0 34 1 35 40 35 39
0 40 -1 40 -35 0 -19 5 -35 10 -35 6 0 10 32 10 75 0 43 -4 75 -10 75 -5 0
-10 -13 -10 -30 0 -28 -2 -30 -40 -30 -38 0 -40 2 -40 30 0 17 -4 30 -10 30
-6 0 -10 -32 -10 -75z"/>
<path d="M5290 3625 c-7 -9 -9 -19 -5 -23 4 -4 10 -1 12 6 5 14 53 17 53 2 0
-5 -15 -13 -32 -18 -26 -6 -33 -14 -33 -33 0 -22 4 -24 43 -24 l42 -1 0 47 c0
34 -5 49 -16 53 -27 10 -51 7 -64 -9z m58 -57 c-5 -15 -48 -24 -48 -10 0 14
12 22 33 22 10 0 17 -5 15 -12z"/>
<path d="M5400 3585 c0 -30 5 -55 10 -55 6 0 10 20 10 45 0 41 2 45 25 45 23
0 25 -4 25 -45 0 -25 5 -45 10 -45 6 0 10 25 10 55 l0 55 -45 0 -45 0 0 -55z"/>
<path d="M5510 3585 c0 -66 15 -72 47 -17 l22 37 1 -37 c0 -21 5 -38 10 -38 6
0 10 25 10 55 0 30 -4 55 -9 55 -5 0 -21 -19 -35 -42 l-25 -43 -1 43 c0 23 -4
42 -10 42 -5 0 -10 -25 -10 -55z"/>
<path d="M5633 3614 c-15 -24 -15 -29 -2 -53 8 -14 24 -27 36 -29 21 -3 59 25
48 36 -3 3 -11 0 -17 -6 -18 -18 -46 -14 -53 7 -13 41 24 68 53 39 9 -9 12 -8
12 4 0 16 -20 28 -46 28 -7 0 -21 -12 -31 -26z"/>
<path d="M5740 3621 c-11 -21 3 -31 15 -11 3 6 15 10 26 10 31 0 17 -24 -17
-30 -23 -4 -29 -10 -29 -30 0 -23 4 -25 45 -26 l45 -1 -5 51 c-5 49 -6 51 -37
54 -24 2 -34 -2 -43 -17z m60 -56 c0 -9 -9 -15 -25 -15 -24 0 -32 10 -18 23
12 13 43 7 43 -8z"/>
<path d="M5840 3630 c0 -5 7 -10 15 -10 11 0 15 -12 15 -45 0 -25 5 -45 10
-45 6 0 10 20 10 45 0 33 4 45 14 45 8 0 18 5 21 10 4 6 -12 10 -39 10 -25 0
-46 -4 -46 -10z"/>
<path d="M5940 3585 c0 -54 0 -55 29 -55 41 0 61 9 61 29 0 24 -20 41 -47 41
-16 0 -23 6 -23 20 0 11 -4 20 -10 20 -5 0 -10 -25 -10 -55z m70 -20 c0 -9 -9
-15 -25 -15 -16 0 -25 6 -25 15 0 9 9 15 25 15 16 0 25 -6 25 -15z"/>
<path d="M6122 3628 c-7 -7 -12 -26 -12 -43 0 -17 5 -36 12 -43 29 -29 88 1
88 45 0 41 -60 69 -88 41z m63 -43 c0 -25 -4 -30 -27 -33 -26 -3 -28 -1 -28
33 0 34 2 36 28 33 23 -3 27 -8 27 -33z"/>
<path d="M6215 3630 c3 -5 13 -10 21 -10 10 0 14 -12 14 -45 0 -25 5 -45 10
-45 6 0 10 20 10 45 0 33 4 45 15 45 8 0 15 5 15 10 0 6 -21 10 -46 10 -27 0
-43 -4 -39 -10z"/>
<path d="M6327 3633 c-14 -14 -6 -23 12 -14 20 11 31 5 31 -16 0 -7 -8 -13
-17 -14 -14 0 -13 -3 5 -11 26 -13 28 -23 7 -32 -8 -3 -22 2 -30 11 -20 19
-33 9 -15 -12 8 -9 25 -15 39 -13 23 3 26 8 28 43 0 22 -3 46 -9 53 -11 13
-40 16 -51 5z"/>
<path d="M6421 3587 l-1 -58 38 3 c30 2 38 7 40 27 4 26 -12 41 -45 41 -14 0
-23 7 -26 23 -2 12 -5 -4 -6 -36z m60 -22 c0 -5 -12 -11 -26 -13 -18 -2 -25 1
-25 13 0 12 7 15 25 13 14 -2 26 -7 26 -13z"/>
<path d="M6520 3585 c0 -30 5 -55 10 -55 6 0 10 25 10 55 0 30 -4 55 -10 55
-5 0 -10 -25 -10 -55z"/>
<path d="M6570 3586 l0 -56 34 0 c44 0 55 16 47 65 -6 38 -8 40 -44 43 l-37 3
0 -55z m60 24 c0 -5 -9 -10 -20 -10 -11 0 -20 5 -20 10 0 6 9 10 20 10 11 0
20 -4 20 -10z m8 -47 c2 -8 -6 -13 -22 -13 -17 0 -26 5 -26 16 0 19 41 16 48
-3z"/>
<path d="M7436 3381 c-4 -5 3 -7 14 -4 22 6 29 -22 8 -30 -10 -4 -10 -6 0 -6
6 -1 12 -8 12 -17 0 -12 -6 -15 -21 -11 -15 4 -19 3 -12 -4 6 -6 19 -9 29 -7
17 3 22 28 15 81 -1 10 -39 9 -45 -2z"/>
<path d="M7512 3343 c1 -42 2 -44 6 -13 l4 35 13 -35 13 -35 15 35 15 35 5
-35 c3 -30 4 -28 5 13 2 52 -13 64 -23 17 -4 -16 -10 -30 -15 -30 -5 0 -11 14
-15 30 -10 47 -25 35 -23 -17z"/>
<path d="M7622 3378 c-16 -16 -15 -53 3 -68 18 -15 47 -10 53 10 5 13 3 13
-11 1 -18 -14 -47 -9 -47 9 0 5 14 10 30 10 23 0 30 5 30 19 0 28 -37 40 -58
19z m46 -15 c2 -8 -6 -13 -22 -13 -19 0 -24 4 -19 15 6 18 34 16 41 -2z"/>
<path d="M7703 3345 c0 -27 2 -40 4 -27 6 29 43 31 43 2 0 -11 5 -20 10 -20 6
0 10 20 10 45 0 25 -4 45 -10 45 -5 0 -10 -9 -10 -20 0 -29 -37 -27 -43 3 -2
12 -4 0 -4 -28z"/>
<path d="M7791 3348 c-1 -56 11 -62 30 -15 l14 32 6 -35 c6 -32 6 -31 8 14 1
41 -1 47 -14 36 -8 -6 -18 -22 -22 -33 -6 -19 -8 -18 -14 13 -6 33 -6 33 -8
-12z"/>
<path d="M7878 3383 c7 -2 12 -22 12 -44 0 -21 5 -39 10 -39 6 0 10 18 10 39
0 29 5 41 18 44 9 3 -1 5 -23 5 -22 0 -34 -2 -27 -5z"/>
<path d="M7951 3347 c-1 -47 0 -48 27 -45 34 4 39 41 5 46 -13 2 -23 12 -26
25 -2 12 -5 0 -6 -26z m49 -22 c0 -8 -9 -15 -20 -15 -11 0 -20 7 -20 15 0 8 9
15 20 15 11 0 20 -7 20 -15z"/>
<path d="M8083 3383 c-7 -3 -13 -20 -13 -39 0 -28 4 -35 26 -40 14 -4 30 -2
36 4 8 8 3 11 -18 9 -26 -2 -29 1 -29 28 0 28 2 30 43 32 l42 1 0 -39 c0 -21
5 -39 10 -39 6 0 10 18 10 39 0 22 5 41 13 44 15 6 -103 6 -120 0z"/>
<path d="M8233 3384 c-21 -9 -16 -72 6 -79 35 -11 52 5 49 44 -3 36 -23 48
-55 35z m42 -39 c0 -23 -4 -30 -20 -30 -21 0 -31 25 -21 51 11 28 41 12 41
-21z"/>
<path d="M8311 3348 c-1 -54 9 -61 29 -20 l14 27 4 -27 c6 -45 22 -32 22 17 0
53 -13 57 -37 13 l-17 -33 -7 35 c-6 33 -6 33 -8 -12z"/>
<path d="M8400 3343 c0 -25 2 -44 4 -42 8 10 13 89 5 89 -5 0 -9 -21 -9 -47z"/>
<path d="M8455 3360 c-7 -32 -25 -41 -25 -13 0 9 -2 14 -5 11 -8 -8 5 -58 15
-58 5 0 12 15 16 33 l8 32 7 -35 c6 -33 6 -33 8 13 1 52 -14 63 -24 17z"/>
<path d="M8512 3378 c-7 -7 -12 -21 -12 -33 0 -46 53 -62 71 -21 21 45 -26 87
-59 54z m46 -27 c5 -34 -16 -51 -33 -27 -10 14 -11 24 -4 38 13 24 33 18 37
-11z"/>
<path d="M8603 3383 c-7 -3 -13 -20 -13 -39 0 -28 4 -35 26 -40 14 -4 30 -2
36 4 8 8 3 11 -18 9 -26 -2 -29 1 -29 28 0 28 2 30 43 32 l42 1 0 -39 c0 -21
5 -39 10 -39 6 0 10 18 10 39 0 22 5 41 13 44 15 6 -103 6 -120 0z"/>
<path d="M8751 3347 c-1 -47 0 -48 27 -45 34 4 39 41 5 46 -13 2 -23 12 -26
25 -2 12 -5 0 -6 -26z m42 -22 c1 -5 -6 -11 -15 -13 -11 -2 -18 3 -18 13 0 17
30 18 33 0z"/>
<path d="M7835 3113 c25 -63 27 -74 14 -90 -12 -14 -12 -16 1 -11 16 5 53 94
47 112 -2 6 -11 -5 -19 -24 l-15 -35 -7 33 c-4 17 -12 32 -18 32 -6 0 -7 -8
-3 -17z"/>
<path d="M7923 3123 c-7 -2 -13 -20 -13 -38 0 -36 10 -43 68 -43 31 -1 32 1
32 39 0 32 3 39 19 39 16 0 21 -8 24 -42 l4 -43 1 48 c2 46 1 47 -28 47 -28 0
-30 -2 -30 -39 0 -38 0 -38 -37 -37 -35 1 -38 3 -38 31 0 27 3 30 28 28 15 -1
25 2 22 8 -6 10 -31 11 -52 2z"/>
<path d="M8080 3126 c0 -2 7 -23 15 -47 15 -41 15 -45 -2 -57 -17 -13 -17 -14
1 -10 13 2 25 20 38 57 20 60 17 82 -5 30 l-13 -34 -12 33 c-9 26 -22 43 -22
28z"/>
<path d="M8160 3085 c0 -25 5 -45 10 -45 6 0 10 18 10 39 0 29 5 41 18 44 10
3 6 5 -10 6 -27 1 -28 -1 -28 -44z"/>
<path d="M8221 3088 c-1 -54 9 -61 29 -20 l14 27 4 -27 c6 -45 22 -32 22 17 0
53 -13 57 -37 13 l-17 -33 -7 35 c-6 33 -6 33 -8 -12z"/>
<path d="M5552 3013 c-1 -35 1 -63 6 -63 4 0 18 19 32 43 l25 42 3 -42 c5 -65
22 -51 22 17 0 33 -4 60 -9 60 -5 0 -22 -21 -38 -47 l-28 -48 -6 50 -6 50 -1
-62z"/>
<path d="M5666 3031 c-3 -5 3 -7 14 -4 22 6 29 -22 8 -30 -10 -4 -10 -6 0 -6
6 -1 12 -8 12 -17 0 -11 -6 -15 -20 -11 -11 3 -20 1 -20 -4 0 -14 47 -11 52 4
8 23 -7 72 -24 75 -9 2 -19 -1 -22 -7z"/>
<path d="M5730 2995 c0 -25 4 -45 9 -45 10 0 23 69 15 82 -13 21 -24 4 -24
-37z"/>
<path d="M5789 3003 c-10 -33 -13 -35 -20 -18 -5 13 -8 15 -8 5 0 -8 3 -21 8
-28 6 -10 12 -4 22 20 l14 33 6 -35 c6 -33 6 -32 8 13 1 56 -13 61 -30 10z"/>
<path d="M5844 3026 c-3 -8 -4 -27 -2 -43 4 -34 37 -43 59 -16 13 16 12 17 -3
4 -19 -14 -48 -9 -48 9 0 5 14 10 30 10 18 0 30 5 30 13 0 32 -55 51 -66 23z
m50 -11 c4 -11 -1 -15 -19 -15 -24 0 -32 10 -18 23 11 12 31 8 37 -8z"/>
<path d="M5933 2995 c0 -27 2 -40 4 -27 3 13 12 22 23 22 11 0 20 -9 23 -22 2
-13 4 0 4 27 0 28 -2 40 -4 28 -3 -14 -12 -23 -23 -23 -11 0 -20 9 -23 23 -2
12 -4 0 -4 -28z"/>
<path d="M6021 2996 c-1 -30 3 -46 8 -40 5 5 6 27 1 49 l-8 40 -1 -49z"/>
<path d="M6051 3014 c-6 -15 -9 -29 -7 -32 3 -3 9 4 13 14 6 15 9 13 14 -16 6
-33 6 -32 8 13 1 52 -10 61 -28 21z"/>
<path d="M6103 3033 c12 -3 17 -15 17 -44 0 -21 5 -39 10 -39 6 0 10 18 10 39
0 22 5 42 13 44 6 3 -6 5 -28 5 -22 0 -32 -2 -22 -5z"/>
<path d="M6181 2997 c-1 -47 0 -48 27 -45 34 4 39 41 5 46 -13 2 -23 12 -26
25 -2 12 -5 0 -6 -26z m42 -22 c1 -5 -6 -11 -15 -13 -11 -2 -18 3 -18 13 0 17
30 18 33 0z"/>
<path d="M5421 2738 c-1 -54 9 -61 29 -20 l14 27 4 -27 c6 -45 22 -32 22 17 0
53 -13 57 -37 13 l-17 -33 -7 35 c-6 33 -6 33 -8 -12z"/>
<path d="M5500 2766 c0 -28 12 -46 31 -46 10 0 19 -7 19 -15 0 -8 5 -15 10
-15 6 0 10 20 10 45 0 25 -4 45 -10 45 -5 0 -10 -11 -10 -25 0 -16 -6 -25 -15
-25 -9 0 -15 9 -15 25 0 14 -4 25 -10 25 -5 0 -10 -6 -10 -14z"/>
<path d="M5593 2735 c0 -27 2 -40 4 -27 6 29 43 31 43 2 0 -11 5 -20 10 -20 6
0 10 20 10 45 0 25 -4 45 -10 45 -5 0 -10 -9 -10 -20 0 -29 -37 -27 -43 3 -2
12 -4 0 -4 -28z"/>
<path d="M5681 2737 c-1 -47 0 -48 27 -45 34 4 39 41 5 46 -13 2 -23 12 -26
25 -2 12 -5 0 -6 -26z m49 -22 c0 -8 -9 -15 -20 -15 -11 0 -20 7 -20 15 0 8 9
15 20 15 11 0 20 -7 20 -15z"/>
<path d="M5763 2735 c0 -27 2 -38 4 -22 2 15 2 37 0 50 -2 12 -4 0 -4 -28z"/>
<path d="M5794 2766 c-3 -8 -4 -27 -2 -43 4 -34 37 -43 59 -16 13 16 12 17 -3
4 -19 -14 -48 -9 -48 9 0 5 14 10 30 10 18 0 30 5 30 13 0 32 -55 51 -66 23z
m50 -11 c4 -11 -1 -15 -19 -15 -24 0 -32 10 -18 23 11 12 31 8 37 -8z"/>
<path d="M5930 2746 c0 -19 -4 -38 -10 -41 -5 -3 -10 -14 -9 -23 0 -11 3 -12
6 -4 2 6 20 12 38 12 18 0 36 -6 39 -12 4 -7 4 -2 1 12 -2 14 -5 40 -5 58 0
29 -3 32 -30 32 -28 0 -30 -3 -30 -34z m40 -11 c0 -24 -5 -35 -15 -35 -15 0
-20 26 -9 54 11 28 24 17 24 -19z"/>
<path d="M6020 2765 c-7 -9 -8 -15 -2 -15 6 0 12 5 14 12 3 7 12 9 24 4 17 -7
15 -9 -14 -22 -46 -19 -41 -48 9 -50 l35 -2 -5 42 c-5 32 -11 42 -27 44 -11 2
-27 -4 -34 -13z m50 -32 c-1 -21 -19 -35 -36 -29 -18 7 -18 8 0 22 22 15 36
18 36 7z"/>
<path d="M6100 2735 c0 -25 5 -45 10 -45 6 0 10 9 10 20 0 11 7 20 15 20 8 0
15 -9 15 -20 0 -11 5 -20 10 -20 6 0 10 20 10 45 0 25 -4 45 -10 45 -5 0 -10
-9 -10 -20 0 -11 -7 -20 -15 -20 -8 0 -15 9 -15 20 0 11 -4 20 -10 20 -5 0
-10 -20 -10 -45z"/>
<path d="M6193 2735 c0 -27 2 -40 4 -27 3 13 12 22 23 22 11 0 20 -9 23 -22 2
-13 4 0 4 27 0 28 -2 40 -4 28 -3 -14 -12 -23 -23 -23 -11 0 -20 9 -23 23 -2
12 -4 0 -4 -28z"/>
<path d="M6281 2737 c-1 -47 0 -48 27 -45 34 4 39 41 5 46 -13 2 -23 12 -26
25 -2 12 -5 0 -6 -26z m42 -22 c1 -5 -6 -11 -15 -13 -11 -2 -18 3 -18 13 0 17
30 18 33 0z"/>
<path d="M7480 2551 c0 -28 -4 -53 -10 -56 -5 -3 -9 -16 -9 -28 1 -17 2 -18 6
-4 5 20 79 25 86 5 2 -7 3 0 1 16 -2 16 -4 48 -4 72 0 44 0 44 -35 44 l-35 0
0 -49z m60 -11 c0 -48 -1 -50 -29 -50 l-28 0 10 50 c7 39 14 50 28 50 16 0 19
-8 19 -50z"/>
<path d="M7670 2581 c-31 -59 16 -131 58 -89 27 27 7 78 -30 78 -31 0 -19 19
15 23 l32 4 -32 1 c-23 2 -35 -4 -43 -17z m55 -40 c8 -26 -5 -53 -24 -49 -29
6 -27 68 3 68 8 0 17 -8 21 -19z"/>
<path d="M7587 2563 c-14 -14 -7 -74 9 -80 37 -14 70 41 44 73 -13 15 -42 19
-53 7z m48 -22 c8 -26 -5 -53 -24 -49 -29 6 -27 68 3 68 8 0 17 -8 21 -19z"/>
<path d="M7760 2555 c-7 -9 -8 -15 -2 -15 6 0 12 5 14 12 3 7 12 9 24 4 17 -7
15 -9 -14 -22 -46 -19 -41 -48 9 -50 l35 -2 -5 42 c-5 32 -11 42 -27 44 -11 2
-27 -4 -34 -13z m50 -32 c-1 -21 -19 -35 -36 -29 -18 7 -18 8 0 22 22 15 36
18 36 7z"/>
<path d="M7840 2524 c0 -45 0 -45 33 -42 30 3 32 5 30 38 0 19 -1 38 -2 43 -1
4 -14 7 -31 7 -29 0 -30 -2 -30 -46z m50 21 c0 -8 -7 -15 -15 -15 -8 0 -15 7
-15 15 0 8 7 15 15 15 8 0 15 -7 15 -15z m3 -40 c1 -5 -6 -11 -15 -13 -11 -2
-18 3 -18 13 0 17 30 18 33 0z"/>
<path d="M7931 2526 c-1 -30 3 -46 8 -40 5 5 6 27 1 49 l-8 40 -1 -49z"/>
<path d="M7961 2544 c-6 -15 -9 -29 -7 -32 3 -3 9 4 13 14 6 15 9 13 14 -16 6
-33 6 -32 8 13 1 52 -10 61 -28 21z"/>
<path d="M8013 2563 c12 -3 17 -15 17 -44 0 -21 5 -39 10 -39 6 0 10 18 10 39
0 22 5 42 13 44 6 3 -6 5 -28 5 -22 0 -32 -2 -22 -5z"/>
<path d="M8091 2527 c-1 -47 0 -48 27 -45 34 4 39 41 5 46 -13 2 -23 12 -26
25 -2 12 -5 0 -6 -26z m42 -22 c1 -5 -6 -11 -15 -13 -11 -2 -18 3 -18 13 0 17
30 18 33 0z"/>
<path d="M8215 2534 c18 -44 19 -71 3 -77 -8 -4 -9 -6 -2 -6 6 -1 16 5 21 12
16 20 43 107 33 107 -5 0 -12 -11 -16 -25 -3 -14 -10 -25 -14 -25 -4 0 -11 11
-14 25 -4 14 -11 25 -16 25 -6 0 -4 -16 5 -36z"/>
<path d="M8288 2544 c-9 -18 -9 -30 -1 -42 12 -20 41 -28 54 -15 6 6 1 9 -13
9 -19 -1 -23 4 -23 29 0 24 4 30 22 29 12 0 20 3 17 8 -11 18 -45 7 -56 -18z"/>
<path d="M8368 2525 c-2 -27 1 -44 7 -42 5 2 11 20 13 40 5 53 32 50 32 -3 0
-22 5 -40 10 -40 6 0 10 20 10 45 0 45 0 45 -34 45 -33 0 -34 -1 -38 -45z"/>
<path d="M8455 2553 c25 -63 27 -74 14 -90 -12 -14 -12 -16 1 -11 16 5 53 94
47 112 -2 6 -11 -5 -19 -24 l-15 -35 -7 33 c-4 17 -12 32 -18 32 -6 0 -7 -8
-3 -17z"/>
<path d="M8542 2523 l1 -48 4 42 c3 29 9 43 21 46 12 3 11 5 -5 6 -21 1 -23
-3 -21 -46z"/>
<path d="M8590 2566 c0 -2 7 -23 15 -47 15 -41 15 -45 -2 -57 -17 -13 -17 -14
1 -10 13 2 25 20 38 57 20 60 17 82 -5 30 l-13 -34 -12 33 c-9 26 -22 43 -22
28z"/>
<path d="M5331 2297 c-1 -47 0 -48 27 -45 34 4 39 41 5 46 -13 2 -23 12 -26
25 -2 12 -5 0 -6 -26z m42 -22 c1 -5 -6 -11 -15 -13 -11 -2 -18 3 -18 13 0 17
30 18 33 0z"/>
<path d="M5400 2295 c0 -25 5 -45 10 -45 6 0 10 20 10 45 0 25 -4 45 -10 45
-5 0 -10 -20 -10 -45z"/>
<path d="M5442 2293 l1 -48 4 43 c3 33 8 42 23 42 15 0 20 -9 23 -42 l4 -43 1
48 c2 46 1 47 -28 47 -29 0 -30 -1 -28 -47z"/>
<path d="M5533 2334 c-21 -9 -16 -72 6 -79 35 -11 52 5 49 44 -3 36 -23 48
-55 35z m42 -39 c0 -23 -4 -30 -20 -30 -21 0 -31 25 -21 51 11 28 41 12 41
-21z"/>
<path d="M5608 2295 c-2 -27 1 -44 7 -42 5 2 11 20 13 40 5 53 32 50 32 -3 0
-22 5 -40 10 -40 6 0 10 20 10 45 0 45 0 45 -34 45 -33 0 -34 -1 -38 -45z"/>
<path d="M5703 2295 c0 -27 2 -40 4 -27 3 13 12 22 23 22 11 0 20 -9 23 -22 2
-13 4 0 4 27 0 28 -2 40 -4 28 -3 -14 -12 -23 -23 -23 -11 0 -20 9 -23 23 -2
12 -4 0 -4 -28z"/>
<path d="M5791 2296 c-1 -30 3 -46 8 -40 5 5 6 27 1 49 l-8 40 -1 -49z"/>
<path d="M5821 2314 c-6 -15 -9 -29 -7 -32 3 -3 9 4 13 14 6 15 9 13 14 -16 6
-33 6 -32 8 13 1 52 -10 61 -28 21z"/>
<path d="M5873 2333 c12 -3 17 -15 17 -44 0 -21 5 -39 10 -39 6 0 10 18 10 39
0 22 5 42 13 44 6 3 -6 5 -28 5 -22 0 -32 -2 -22 -5z"/>
<path d="M5951 2297 c-1 -47 0 -48 27 -45 34 4 39 41 5 46 -13 2 -23 12 -26
25 -2 12 -5 0 -6 -26z m42 -22 c1 -5 -6 -11 -15 -13 -11 -2 -18 3 -18 13 0 17
30 18 33 0z"/>
<path d="M6077 2334 c-4 -4 -7 -12 -7 -18 0 -6 5 -5 12 2 14 14 38 16 38 2 0
-5 -11 -13 -26 -16 -18 -5 -24 -12 -22 -28 2 -16 10 -21 36 -22 33 -1 33 0 30
40 -3 35 -6 41 -28 44 -14 2 -29 0 -33 -4z m35 -66 c-11 -11 -32 -3 -32 12 0
12 34 18 39 7 2 -5 -1 -13 -7 -19z"/>
<path d="M6163 2295 c0 -27 2 -40 4 -27 6 29 43 31 43 2 0 -11 5 -20 10 -20 6
0 10 20 10 45 0 25 -4 45 -10 45 -5 0 -10 -9 -10 -20 0 -29 -37 -27 -43 3 -2
12 -4 0 -4 -28z"/>
<path d="M6250 2325 c-7 -9 -8 -15 -2 -15 6 0 12 5 14 12 3 7 12 9 24 4 17 -7
15 -9 -14 -22 -23 -9 -32 -19 -30 -31 2 -14 15 -19 56 -20 l52 -3 0 40 c0 33
3 40 19 40 16 0 21 -8 24 -42 l4 -43 1 48 c2 46 1 47 -28 47 -28 0 -30 -2 -30
-40 0 -54 -27 -56 -32 -2 -2 29 -8 38 -24 40 -11 2 -27 -4 -34 -13z m50 -32
c-1 -21 -19 -35 -36 -29 -18 7 -18 8 0 22 22 15 36 18 36 7z"/>
<path d="M6431 2296 c-1 -30 3 -46 8 -40 5 5 6 27 1 49 l-8 40 -1 -49z"/>
<path d="M6461 2314 c-6 -15 -9 -29 -7 -32 3 -3 9 4 13 14 6 15 9 13 14 -16 6
-33 6 -32 8 13 1 52 -10 61 -28 21z"/>
<path d="M6516 2331 c-4 -5 3 -7 14 -4 22 6 29 -22 8 -30 -10 -4 -10 -6 0 -6
6 -1 12 -8 12 -17 0 -12 -6 -15 -21 -11 -15 4 -19 3 -12 -4 6 -6 19 -9 29 -7
17 3 22 28 15 81 -1 10 -39 9 -45 -2z"/>
<path d="M5657 2074 c-4 -4 -7 -12 -7 -18 0 -6 5 -5 12 2 14 14 38 16 38 2 0
-5 -11 -13 -26 -16 -18 -5 -24 -12 -22 -28 2 -16 11 -22 36 -24 l33 -3 -3 43
c-3 38 -6 43 -28 46 -14 2 -29 0 -33 -4z m40 -59 c-4 -8 -13 -15 -22 -15 -21
0 -19 28 3 32 22 5 26 2 19 -17z"/>
<path d="M5738 2054 c-9 -18 -9 -30 -1 -42 12 -20 41 -28 54 -15 6 6 1 9 -13
9 -19 -1 -23 4 -23 29 0 24 4 30 22 29 12 0 20 3 17 8 -11 18 -45 7 -56 -18z"/>
<path d="M5824 2059 c13 -19 13 -24 -1 -45 -8 -13 -11 -24 -5 -24 5 0 13 8 17
18 6 16 7 16 21 -2 7 -11 16 -17 19 -15 3 3 -1 14 -9 24 -12 16 -12 22 1 42 9
13 11 23 5 23 -5 0 -13 -8 -17 -17 -6 -17 -7 -17 -19 0 -19 25 -30 21 -12 -4z"/>
<path d="M5902 2068 c-7 -7 -12 -21 -12 -33 0 -46 53 -62 71 -21 21 45 -26 87
-59 54z m46 -27 c5 -34 -16 -51 -33 -27 -10 14 -11 24 -4 38 13 24 33 18 37
-11z"/>
<path d="M5987 2048 c-4 -18 -9 -44 -12 -58 -3 -14 -3 -19 1 -12 3 6 18 12 34
12 16 0 31 -6 34 -12 4 -7 4 -2 1 12 -2 14 -5 40 -5 58 0 27 -4 32 -24 32 -19
0 -25 -7 -29 -32z m43 -13 c0 -29 -4 -35 -21 -35 -15 0 -19 4 -15 16 3 9 6 24
6 35 0 10 7 19 15 19 10 0 15 -11 15 -35z"/>
<path d="M6077 2073 c-14 -14 -7 -74 9 -80 37 -14 70 41 44 73 -13 15 -42 19
-53 7z m48 -22 c8 -26 -5 -53 -24 -49 -29 6 -27 68 3 68 8 0 17 -8 21 -19z"/>
<path d="M6160 2035 c0 -45 1 -46 28 -43 24 3 27 7 27 43 0 36 -3 40 -27 43
-27 3 -28 2 -28 -43z m43 20 c1 -5 -6 -11 -15 -13 -11 -2 -18 3 -18 13 0 17
30 18 33 0z m7 -40 c0 -8 -9 -15 -20 -15 -11 0 -20 7 -20 15 0 8 9 15 20 15
11 0 20 -7 20 -15z"/>
<path d="M7512 1895 c2 -5 12 -27 23 -48 19 -38 19 -39 0 -53 -16 -12 -17 -14
-2 -14 10 0 28 23 47 60 17 33 26 60 21 60 -5 0 -14 -13 -21 -30 -11 -27 -30
-41 -30 -22 0 4 -10 18 -21 32 -11 14 -19 21 -17 15z"/>
<path d="M7617 1838 c-4 -18 -9 -44 -12 -58 -3 -14 -3 -19 1 -12 3 6 18 12 34
12 16 0 31 -6 34 -12 4 -7 4 -2 1 12 -2 14 -5 40 -5 58 0 27 -4 32 -24 32 -19
0 -25 -7 -29 -32z m43 -13 c0 -29 -4 -35 -21 -35 -15 0 -19 4 -15 16 3 9 6 24
6 35 0 10 7 19 15 19 10 0 15 -11 15 -35z"/>
<path d="M7705 1859 c-4 -6 -4 -13 -1 -16 3 -4 6 -1 6 5 0 7 9 12 20 12 30 0
24 -17 -11 -29 -44 -15 -36 -45 13 -47 36 -2 37 -1 32 30 -3 17 -7 37 -10 44
-4 15 -40 16 -49 1z m43 -46 c-4 -22 -38 -30 -38 -10 0 14 13 24 33 26 5 1 7
-7 5 -16z"/>
<path d="M7788 1825 c-2 -27 1 -44 7 -42 5 2 11 20 13 40 5 53 32 50 32 -3 0
-22 5 -40 10 -40 6 0 10 20 10 45 0 45 0 45 -34 45 -33 0 -34 -1 -38 -45z"/>
<path d="M7881 1828 c-1 -56 11 -62 30 -15 l14 32 6 -35 c6 -32 6 -31 8 14 1
41 -1 47 -14 36 -8 -6 -18 -22 -22 -33 -6 -19 -8 -18 -14 13 -6 33 -6 33 -8
-12z"/>
<path d="M7968 1863 c7 -2 12 -22 12 -44 0 -21 5 -39 10 -39 6 0 10 18 10 39
0 29 5 41 18 44 9 3 -1 5 -23 5 -22 0 -34 -2 -27 -5z"/>
<path d="M8041 1827 c-1 -47 0 -48 27 -45 34 4 39 41 5 46 -13 2 -23 12 -26
25 -2 12 -5 0 -6 -26z m49 -22 c0 -8 -9 -15 -20 -15 -11 0 -20 7 -20 15 0 8 9
15 20 15 11 0 20 -7 20 -15z"/>
<path d="M8165 1850 c3 -14 8 -38 12 -54 4 -19 1 -31 -8 -37 -8 -5 -9 -9 -3
-9 6 0 16 6 21 13 15 19 43 107 34 107 -5 0 -13 -15 -18 -32 l-10 -33 -16 35
c-12 25 -16 28 -12 10z"/>
<path d="M8244 1856 c-3 -8 -4 -27 -2 -43 3 -26 6 -28 51 -30 l47 -2 0 40 c0
32 3 39 19 39 16 0 21 -8 24 -42 l4 -43 1 48 c2 46 1 47 -28 47 -28 0 -30 -2
-30 -39 0 -38 0 -38 -37 -37 -35 1 -38 3 -38 31 0 24 4 30 22 29 12 0 20 3 17
8 -8 13 -44 9 -50 -6z"/>
<path d="M8415 1834 c18 -44 19 -71 3 -77 -8 -4 -9 -6 -2 -6 6 -1 16 5 21 12
16 20 43 107 33 107 -5 0 -12 -11 -16 -25 -3 -14 -10 -25 -14 -25 -4 0 -11 11
-14 25 -4 14 -11 25 -16 25 -6 0 -4 -16 5 -36z"/>
<path d="M8492 1823 l1 -48 4 43 c3 34 8 42 24 42 28 0 56 -66 39 -93 -9 -15
-9 -18 2 -15 15 5 51 95 45 112 -2 6 -11 -5 -19 -24 l-15 -35 -7 33 c-7 28
-11 32 -42 32 l-34 0 2 -47z"/>
<path d="M5119 1561 c-50 -40 -17 -131 48 -131 32 0 73 42 73 75 0 33 -41 75
-73 75 -14 0 -35 -8 -48 -19z m93 -26 c18 -41 0 -79 -39 -83 -25 -2 -35 2 -48
21 -25 39 0 87 46 87 22 0 32 -7 41 -25z"/>
<path d="M5320 1556 c0 -19 -4 -23 -19 -19 -13 3 -25 -4 -37 -22 -16 -25 -16
-30 -3 -54 10 -16 23 -26 37 -25 17 0 22 -5 22 -23 0 -13 5 -23 10 -23 6 0 10
10 10 23 0 18 5 23 27 22 35 0 53 41 34 81 -9 21 -17 25 -36 21 -21 -3 -25 0
-25 19 0 13 -4 24 -10 24 -5 0 -10 -11 -10 -24z m0 -72 c0 -31 -3 -35 -22 -32
-39 5 -37 68 2 68 16 0 20 -6 20 -36z m65 1 c0 -23 -4 -30 -20 -30 -21 0 -31
25 -21 51 11 28 41 12 41 -21z"/>
<path d="M5442 1528 c-7 -7 -12 -26 -12 -43 0 -17 5 -36 12 -43 29 -29 88 1
88 45 0 41 -60 69 -88 41z m63 -43 c0 -25 -4 -30 -27 -33 -26 -3 -28 -1 -28
33 0 34 2 36 28 33 23 -3 27 -8 27 -33z"/>
<path d="M5550 1463 c0 -42 4 -73 10 -73 6 0 10 11 10 24 0 19 4 23 20 19 29
-8 50 14 50 52 0 40 -16 54 -58 53 l-32 -1 0 -74z m72 40 c7 -33 -4 -54 -26
-51 -37 5 -34 68 3 68 11 0 21 -8 23 -17z"/>
<path d="M5670 1485 c0 -61 20 -77 21 -17 l1 37 11 -32 c19 -49 26 -50 45 -2
l17 44 6 -45 6 -45 1 58 c1 31 -2 57 -8 57 -5 0 -18 -19 -28 -42 l-19 -43 -13
43 c-19 62 -40 55 -40 -13z"/>
<path d="M5810 1485 c0 -30 4 -55 9 -55 6 0 21 19 35 43 l26 42 0 -42 c0 -24
5 -43 10 -43 6 0 10 25 10 55 0 31 -4 55 -10 55 -6 0 -21 -17 -33 -37 l-22
-38 -3 38 c-5 57 -22 44 -22 -18z"/>
<path d="M5920 1530 c0 -5 7 -10 15 -10 11 0 15 -12 15 -45 0 -25 5 -45 10
-45 6 0 10 20 10 45 0 33 4 45 14 45 8 0 18 5 21 10 4 6 -12 10 -39 10 -25 0
-46 -4 -46 -10z"/>
<path d="M6020 1485 c0 -54 0 -55 29 -55 44 0 61 10 61 35 0 23 -17 35 -51 35
-12 0 -19 7 -19 20 0 11 -4 20 -10 20 -5 0 -10 -25 -10 -55z m70 -20 c0 -9 -9
-15 -25 -15 -16 0 -25 6 -25 15 0 9 9 15 25 15 16 0 25 -6 25 -15z"/>
<path d="M6195 1530 c-11 -17 3 -24 20 -10 12 10 16 9 22 -6 4 -11 2 -19 -6
-22 -8 -3 -6 -8 6 -17 14 -11 15 -16 6 -26 -10 -10 -17 -9 -34 7 -21 19 -21
19 -18 -1 3 -13 13 -21 30 -23 29 -3 55 21 43 40 -4 7 -8 24 -8 38 -1 19 -7
26 -28 28 -14 2 -29 -2 -33 -8z"/>
<path d="M6303 1533 c-7 -2 -13 -12 -13 -21 0 -12 3 -13 12 -4 15 15 58 16 58
2 0 -6 -13 -13 -30 -16 -68 -14 -60 -64 11 -61 37 1 39 3 39 35 0 60 -29 85
-77 65z m55 -65 c-5 -15 -58 -24 -58 -10 0 15 12 22 38 22 14 0 22 -5 20 -12z"/>
<path d="M6400 1485 c0 -30 5 -55 10 -55 6 0 10 12 10 28 l1 27 25 -29 c30
-34 42 -29 15 6 -20 25 -20 25 -1 46 22 24 25 32 10 32 -6 0 -16 -11 -22 -25
-6 -14 -15 -25 -20 -25 -4 0 -8 11 -8 25 0 14 -4 25 -10 25 -5 0 -10 -25 -10
-55z"/>
<path d="M6510 1525 c-7 -9 -9 -19 -5 -23 4 -4 10 -1 12 6 5 14 53 17 53 2 0
-5 -15 -13 -32 -18 -26 -6 -33 -14 -33 -33 0 -22 4 -24 43 -24 l42 -1 0 47 c0
34 -5 49 -16 53 -27 10 -51 7 -64 -9z m58 -57 c-5 -15 -48 -24 -48 -10 0 14
12 22 33 22 10 0 17 -5 15 -12z"/>
<path d="M6620 1525 c-15 -18 1 -20 18 -3 9 9 15 9 25 -1 10 -11 9 -15 -5 -24
-15 -10 -15 -12 0 -23 14 -11 15 -15 4 -26 -11 -11 -16 -10 -28 6 -7 11 -17
17 -20 13 -13 -13 20 -38 45 -35 23 3 26 8 28 43 0 22 -3 46 -9 53 -14 16 -43
15 -58 -3z"/>
<path d="M7281 1138 c1 -35 4 -51 6 -36 3 22 10 27 36 30 28 3 32 7 32 33 0
27 -3 30 -37 33 l-38 3 1 -63z m64 27 c0 -14 -8 -21 -27 -23 -24 -3 -28 0 -28
23 0 23 4 26 28 23 19 -2 27 -9 27 -23z"/>
<path d="M7382 1158 c-16 -16 -15 -53 3 -68 18 -15 47 -10 53 10 5 13 3 13
-11 1 -18 -14 -47 -9 -47 9 0 5 14 10 30 10 23 0 30 5 30 19 0 28 -37 40 -58
19z m46 -15 c2 -8 -6 -13 -22 -13 -19 0 -24 4 -19 15 6 18 34 16 41 -2z"/>
<path d="M7467 1138 c-4 -18 -9 -44 -12 -58 -3 -14 -3 -19 1 -12 3 6 18 12 34
12 16 0 31 -6 34 -12 4 -7 4 -2 1 12 -2 14 -5 40 -5 58 0 27 -4 32 -24 32 -19
0 -25 -7 -29 -32z m43 -13 c0 -29 -4 -35 -21 -35 -15 0 -19 4 -15 16 3 9 6 24
6 35 0 10 7 19 15 19 10 0 15 -11 15 -35z"/>
<path d="M7557 1164 c-4 -4 -7 -12 -7 -18 0 -6 5 -5 12 2 14 14 38 16 38 2 0
-5 -11 -13 -26 -16 -18 -5 -24 -12 -22 -28 2 -16 11 -22 36 -24 l33 -3 -3 43
c-3 38 -6 43 -28 46 -14 2 -29 0 -33 -4z m40 -59 c-4 -8 -13 -15 -22 -15 -21
0 -19 28 3 32 22 5 26 2 19 -17z"/>
<path d="M7640 1125 c0 -27 3 -46 6 -42 3 3 6 22 6 42 0 20 -3 39 -6 42 -3 4
-6 -15 -6 -42z"/>
<path d="M7670 1148 c-10 -21 -10 -21 3 -5 8 9 24 17 35 17 17 0 22 -7 25 -42
l4 -43 1 42 c2 30 7 43 20 46 9 3 -4 5 -30 6 -40 1 -49 -3 -58 -21z"/>
<path d="M7781 1128 c-1 -54 9 -61 29 -20 l14 27 4 -27 c6 -45 22 -32 22 17 0
53 -13 57 -37 13 l-17 -33 -7 35 c-6 33 -6 33 -8 -12z"/>
<path d="M7871 1106 c1 -34 4 -51 6 -40 3 16 9 20 23 17 14 -4 23 2 32 22 15
34 1 60 -36 61 -26 1 -26 0 -25 -60z m44 18 c0 -19 -5 -29 -15 -29 -16 0 -25
28 -16 51 10 25 31 10 31 -22z"/>
<path d="M7962 1158 c-7 -7 -12 -21 -12 -33 0 -46 53 -62 71 -21 21 45 -26 87
-59 54z m46 -27 c5 -34 -16 -51 -33 -27 -10 14 -11 24 -4 38 13 24 33 18 37
-11z"/>
<path d="M8040 1124 c0 -45 0 -45 33 -42 30 3 32 5 30 38 0 19 -1 38 -2 43 -1
4 -14 7 -31 7 -29 0 -30 -2 -30 -46z m50 21 c0 -8 -7 -15 -15 -15 -8 0 -15 7
-15 15 0 8 7 15 15 15 8 0 15 -7 15 -15z m3 -40 c1 -5 -6 -11 -15 -13 -11 -2
-18 3 -18 13 0 17 30 18 33 0z"/>
<path d="M8130 1155 c-7 -9 -8 -15 -2 -15 6 0 12 5 14 12 3 7 12 9 24 4 17 -7
15 -9 -14 -22 -46 -19 -41 -48 9 -50 l35 -2 -5 42 c-5 32 -11 42 -27 44 -11 2
-27 -4 -34 -13z m50 -32 c-1 -21 -19 -35 -36 -29 -18 7 -18 8 0 22 22 15 36
18 36 7z"/>
<path d="M8212 1163 c12 -3 18 -17 21 -46 l4 -42 1 42 c2 30 7 43 20 46 9 3
-1 5 -23 5 -22 0 -32 -2 -23 -5z"/>
<path d="M8281 1128 c-1 -47 0 -48 28 -48 31 0 46 21 28 39 -6 6 -19 11 -28
11 -10 0 -19 10 -22 23 -2 12 -5 1 -6 -25z m49 -23 c0 -8 -9 -15 -20 -15 -11
0 -20 7 -20 15 0 8 9 15 20 15 11 0 20 -7 20 -15z"/>
<path d="M8405 1153 c25 -63 27 -74 14 -90 -12 -14 -12 -16 1 -11 16 5 53 94
47 112 -2 6 -11 -5 -19 -24 l-15 -35 -7 33 c-4 17 -12 32 -18 32 -6 0 -7 -8
-3 -17z"/>
<path d="M8492 1158 c-16 -16 -15 -53 1 -66 6 -5 29 -10 50 -10 36 0 37 1 37
39 0 32 4 39 19 39 16 0 21 -8 24 -42 l4 -43 1 48 c2 46 1 47 -28 47 -28 0
-30 -2 -30 -38 0 -37 -1 -39 -34 -40 -35 -1 -46 13 -38 51 3 14 10 17 29 12
16 -4 22 -2 18 5 -8 14 -38 13 -53 -2z"/>
<path d="M8650 1166 c0 -2 7 -23 15 -47 15 -41 15 -45 -2 -57 -17 -13 -17 -14
1 -10 13 2 25 20 38 57 20 60 17 82 -5 30 l-13 -34 -12 33 c-9 26 -22 43 -22
28z"/>
<path d="M8730 1125 c0 -25 5 -45 10 -45 6 0 10 18 10 40 0 32 4 40 18 40 30
0 56 -93 30 -103 -8 -4 -9 -6 -2 -6 6 -1 16 5 21 12 16 20 43 107 33 107 -5 0
-12 -11 -16 -25 -3 -14 -10 -25 -14 -25 -4 0 -11 11 -14 25 -5 21 -12 25 -41
25 -35 0 -35 0 -35 -45z"/>
<path d="M7670 1100 c6 -11 15 -20 20 -20 6 0 5 9 -2 20 -7 11 -16 20 -21 20
-4 0 -3 -9 3 -20z"/>
<path d="M8380 4845 c0 -43 4 -75 10 -75 6 0 10 17 10 38 l1 37 34 -40 c40
-46 59 -41 23 7 -21 29 -23 36 -12 57 7 13 18 27 25 32 18 10 6 21 -14 13 -9
-3 -20 -19 -26 -35 -14 -40 -31 -37 -31 6 0 19 -4 35 -10 35 -6 0 -10 -32 -10
-75z"/>
<path d="M8503 4854 c-15 -24 -15 -29 -2 -53 29 -51 89 -35 89 23 0 59 -55 78
-87 30z m72 -13 c10 -31 -5 -52 -34 -49 -26 3 -38 26 -27 54 8 21 53 18 61 -5z"/>
<path d="M8610 4825 c0 -30 5 -55 10 -55 6 0 10 9 10 20 0 15 7 20 25 20 18 0
25 -5 25 -20 0 -11 5 -20 10 -20 6 0 10 25 10 55 0 30 -4 55 -10 55 -5 0 -10
-11 -10 -25 0 -20 -5 -25 -25 -25 -20 0 -25 5 -25 25 0 14 -4 25 -10 25 -5 0
-10 -25 -10 -55z"/>
<path d="M8742 4868 c-7 -7 -12 -26 -12 -43 0 -36 15 -55 46 -55 23 0 51 26
40 37 -4 4 -11 1 -15 -6 -15 -24 -46 -8 -46 24 0 32 31 48 46 24 4 -7 11 -10
15 -6 11 11 -17 37 -40 37 -12 0 -27 -5 -34 -12z"/>
<path d="M8830 4875 c0 -2 9 -28 21 -57 19 -49 19 -53 3 -65 -10 -7 -15 -16
-11 -19 13 -13 35 17 57 77 13 33 20 62 17 66 -4 3 -11 -7 -17 -23 -6 -16 -13
-36 -16 -44 -4 -10 -11 0 -21 28 -8 23 -19 42 -24 42 -5 0 -9 -2 -9 -5z"/>
<path d="M8950 4835 c0 -25 -4 -45 -10 -45 -5 0 -10 -4 -10 -10 0 -5 6 -10 14
-10 14 0 26 29 26 68 0 15 6 22 20 22 17 0 20 -7 20 -45 0 -25 5 -45 10 -45 6
0 10 25 10 55 l0 55 -40 0 -40 0 0 -45z"/>
<path d="M9060 4825 l0 -55 34 0 c63 0 75 61 12 68 -18 2 -26 9 -26 23 0 10
-4 19 -10 19 -5 0 -10 -25 -10 -55z m70 -20 c0 -9 -9 -15 -25 -15 -16 0 -25 6
-25 15 0 9 9 15 25 15 16 0 25 -6 25 -15z"/>
<path d="M9145 4870 c3 -5 13 -10 21 -10 10 0 14 -12 14 -45 0 -25 5 -45 10
-45 6 0 10 20 10 45 0 33 4 45 15 45 8 0 15 5 15 10 0 6 -21 10 -46 10 -27 0
-43 -4 -39 -10z"/>
<path d="M9263 4873 c-7 -2 -13 -12 -13 -21 0 -12 3 -13 12 -4 15 15 58 16 58
2 0 -6 -13 -13 -30 -16 -68 -14 -60 -64 11 -61 37 1 39 3 39 35 0 60 -29 85
-77 65z m55 -65 c-5 -15 -58 -24 -58 -10 0 15 12 22 38 22 14 0 22 -5 20 -12z"/>
<path d="M9360 4825 c0 -30 5 -55 10 -55 6 0 10 9 10 20 0 15 7 20 25 20 18 0
25 -5 25 -20 0 -11 5 -20 10 -20 6 0 10 25 10 55 0 30 -4 55 -10 55 -5 0 -10
-11 -10 -25 0 -20 -5 -25 -25 -25 -20 0 -25 5 -25 25 0 14 -4 25 -10 25 -5 0
-10 -25 -10 -55z"/>
<path d="M9470 4870 c0 -5 7 -10 15 -10 11 0 15 -12 15 -45 0 -25 5 -45 10
-45 6 0 10 20 10 45 0 33 4 45 14 45 8 0 18 5 21 10 4 6 -12 10 -39 10 -25 0
-46 -4 -46 -10z"/>
<path d="M2420 4665 c0 -43 4 -75 10 -75 6 0 10 28 10 65 l0 65 35 0 c19 0 35
5 35 10 0 6 -20 10 -45 10 l-45 0 0 -75z"/>
<path d="M2522 4688 c-7 -7 -12 -26 -12 -43 0 -17 5 -36 12 -43 29 -29 88 1
88 45 0 41 -60 69 -88 41z m63 -43 c0 -25 -4 -30 -27 -33 -26 -3 -28 -1 -28
33 0 34 2 36 28 33 23 -3 27 -8 27 -33z"/>
<path d="M2633 4674 c-15 -24 -15 -29 -2 -53 8 -14 24 -27 36 -29 21 -3 59 25
48 36 -3 3 -11 0 -17 -6 -18 -18 -46 -14 -53 7 -13 41 24 68 53 39 9 -9 12 -8
12 4 0 16 -20 28 -46 28 -7 0 -21 -12 -31 -26z"/>
<path d="M2725 4690 c3 -5 13 -10 21 -10 10 0 14 -12 14 -45 0 -25 5 -45 10
-45 6 0 10 20 10 45 0 33 4 45 15 45 8 0 15 5 15 10 0 6 -21 10 -46 10 -27 0
-43 -4 -39 -10z"/>
<path d="M2830 4645 l0 -55 34 0 c63 0 75 61 12 68 -18 2 -26 9 -26 23 0 10
-4 19 -10 19 -5 0 -10 -25 -10 -55z m70 -20 c0 -9 -9 -15 -25 -15 -16 0 -25 6
-25 15 0 9 9 15 25 15 16 0 25 -6 25 -15z"/>
<path d="M10187 3163 c-18 -29 -54 -143 -46 -143 6 0 13 9 16 20 8 30 59 27
89 -6 13 -14 24 -29 24 -35 0 -5 5 -9 10 -9 6 0 10 7 10 15 0 11 11 15 40 15
29 0 40 -4 40 -15 0 -8 5 -15 11 -15 8 0 9 11 5 31 -3 17 -6 49 -6 70 0 39 0
39 -39 39 -37 0 -38 -1 -44 -41 -9 -70 -28 -67 -58 9 -25 63 -41 83 -52 65z
m33 -70 c0 -7 -9 -13 -20 -13 -22 0 -23 3 -13 39 6 23 7 23 20 6 7 -11 13 -25
13 -32z m140 -18 c0 -32 -3 -35 -28 -35 -26 0 -28 2 -24 35 3 29 8 35 28 35
21 0 24 -5 24 -35z"/>
<path d="M10410 3075 c0 -61 20 -77 21 -17 l1 37 11 -32 c19 -49 26 -50 45 -2
l17 44 6 -45 6 -45 1 58 c1 31 -2 57 -8 57 -5 0 -18 -19 -28 -42 l-19 -43 -13
43 c-19 62 -40 55 -40 -13z"/>
<path d="M10550 3075 c0 -30 4 -55 9 -55 6 0 21 19 35 43 l26 42 0 -42 c0 -24
5 -43 10 -43 6 0 10 25 10 55 0 31 -4 55 -10 55 -6 0 -21 -17 -33 -37 l-22
-38 -3 38 c-5 57 -22 44 -22 -18z"/>
<path d="M10670 3075 c0 -30 5 -55 10 -55 6 0 10 9 10 20 0 15 7 20 25 20 18
0 25 -5 25 -20 0 -11 5 -20 10 -20 6 0 10 25 10 55 0 30 -4 55 -10 55 -5 0
-10 -11 -10 -25 0 -20 -5 -25 -25 -25 -20 0 -25 5 -25 25 0 14 -4 25 -10 25
-5 0 -10 -25 -10 -55z"/>
<path d="M10780 3075 c0 -68 16 -72 51 -12 l24 42 6 -45 6 -45 1 58 c1 31 -1
57 -5 57 -5 0 -20 -19 -35 -43 l-28 -42 0 43 c0 23 -4 42 -10 42 -5 0 -10 -25
-10 -55z"/>
<path d="M10912 3118 c-7 -7 -12 -26 -12 -43 0 -36 15 -55 46 -55 23 0 51 26
40 37 -4 4 -11 1 -15 -6 -15 -24 -46 -8 -46 24 0 32 31 48 46 24 4 -7 11 -10
15 -6 11 11 -17 37 -40 37 -12 0 -27 -5 -34 -12z"/>
<path d="M11000 3120 c0 -5 7 -10 15 -10 11 0 15 -12 15 -45 0 -25 5 -45 10
-45 6 0 10 20 10 45 0 33 4 45 14 45 8 0 18 5 21 10 4 6 -12 10 -39 10 -25 0
-46 -4 -46 -10z"/>
<path d="M11100 3054 c0 -43 4 -74 10 -74 6 0 10 11 10 24 0 19 4 22 24 19 18
-4 29 2 42 22 16 25 16 30 3 54 -11 20 -23 26 -52 28 l-37 1 0 -74z m75 21 c0
-25 -4 -30 -25 -30 -16 0 -26 6 -28 18 -6 30 6 49 30 45 18 -2 23 -9 23 -33z"/>
<path d="M11230 3115 c-7 -9 -9 -19 -5 -23 4 -4 10 -1 12 6 6 14 53 16 53 2 0
-6 -13 -13 -30 -16 -68 -14 -60 -64 11 -61 39 1 39 2 39 42 0 23 -5 46 -12 53
-17 17 -53 15 -68 -3z m58 -57 c-5 -15 -58 -24 -58 -10 0 15 12 22 38 22 14 0
22 -5 20 -12z"/>
<path d="M11325 3120 c3 -5 13 -10 21 -10 10 0 14 -12 14 -45 0 -25 5 -45 10
-45 6 0 10 20 10 45 0 33 4 45 15 45 8 0 15 5 15 10 0 6 -21 10 -46 10 -27 0
-43 -4 -39 -10z"/>
<path d="M11438 3119 c-21 -12 -24 -69 -6 -87 30 -30 88 -2 88 43 0 44 -43 67
-82 44z m57 -44 c0 -25 -4 -30 -25 -30 -16 0 -26 6 -28 18 -6 30 6 49 30 45
18 -2 23 -9 23 -33z"/>
<path d="M11540 3054 c0 -43 4 -74 10 -74 6 0 10 11 10 24 0 19 4 22 24 19 18
-4 29 2 42 22 16 25 16 30 3 54 -11 20 -23 26 -52 28 l-37 1 0 -74z m75 21 c0
-25 -4 -30 -25 -30 -16 0 -26 6 -28 18 -6 30 6 49 30 45 18 -2 23 -9 23 -33z"/>
<path d="M2330 2395 c0 -43 4 -75 10 -75 6 0 10 14 10 30 0 18 5 30 13 30 7 0
21 -13 30 -30 10 -16 22 -30 28 -30 15 0 11 13 -15 45 -22 28 -23 31 -7 55 8
14 23 30 31 37 13 11 13 12 -3 13 -10 0 -27 -15 -38 -35 -12 -19 -25 -35 -30
-35 -5 0 -9 16 -9 35 0 19 -4 35 -10 35 -6 0 -10 -32 -10 -75z"/>
<path d="M2460 2386 c0 -26 -5 -46 -12 -49 -7 -2 -10 -8 -6 -12 17 -19 38 6
38 45 0 36 2 40 25 40 23 0 25 -4 25 -45 0 -25 5 -45 10 -45 6 0 10 25 10 55
l0 55 -45 0 -45 0 0 -44z"/>
<path d="M2570 2375 c0 -68 16 -72 51 -12 l24 42 6 -45 6 -45 1 58 c1 31 -1
57 -5 57 -5 0 -20 -19 -35 -43 l-28 -42 0 43 c0 23 -4 42 -10 42 -5 0 -10 -25
-10 -55z"/>
<path d="M2702 2418 c-7 -7 -12 -26 -12 -43 0 -36 15 -55 45 -55 21 0 45 17
45 32 0 5 -8 3 -19 -3 -20 -13 -51 -6 -51 11 0 5 18 10 40 10 44 0 47 5 24 38
-17 24 -53 29 -72 10z m63 -18 c4 -6 -7 -10 -24 -10 -17 0 -31 5 -31 10 0 6
11 10 24 10 14 0 28 -4 31 -10z"/>
<path d="M2810 2375 c0 -30 5 -55 10 -55 6 0 10 9 10 20 0 15 7 20 25 20 18 0
25 -5 25 -20 0 -11 5 -20 10 -20 6 0 10 25 10 55 0 30 -4 55 -10 55 -5 0 -10
-11 -10 -25 0 -20 -5 -25 -25 -25 -20 0 -25 5 -25 25 0 14 -4 25 -10 25 -5 0
-10 -25 -10 -55z"/>
<path d="M2915 2420 c3 -5 13 -10 21 -10 10 0 14 -12 14 -45 0 -25 5 -45 10
-45 6 0 10 20 10 45 0 33 4 45 15 45 8 0 15 5 15 10 0 6 -21 10 -46 10 -27 0
-43 -4 -39 -10z"/>
<path d="M5902 1155 c0 -16 2 -22 5 -12 2 9 2 23 0 30 -3 6 -5 -1 -5 -18z"/>
<path d="M5550 1061 c0 -11 5 -23 10 -26 6 -4 10 5 10 19 0 14 -4 26 -10 26
-5 0 -10 -9 -10 -19z"/>
<path d="M5580 1068 c0 -7 5 -20 10 -28 8 -12 10 -9 10 13 0 15 -4 27 -10 27
-5 0 -10 -6 -10 -12z"/>
<path d="M5870 1010 c0 -40 4 -70 10 -70 6 0 10 30 10 70 0 40 -4 70 -10 70
-6 0 -10 -30 -10 -70z"/>
<path d="M6080 1055 c0 -18 -4 -23 -15 -19 -22 9 -45 -14 -45 -46 0 -34 19
-51 54 -48 25 2 26 4 26 70 0 39 -4 68 -10 68 -5 0 -10 -11 -10 -25z m0 -45
c11 -20 -1 -60 -18 -60 -14 0 -32 23 -32 40 0 17 18 40 32 40 4 0 12 -9 18
-20z"/>
<path d="M6230 1061 c0 -11 5 -23 10 -26 6 -4 10 5 10 19 0 14 -4 26 -10 26
-5 0 -10 -9 -10 -19z"/>
<path d="M6260 1068 c0 -7 5 -20 10 -28 8 -12 10 -9 10 13 0 15 -4 27 -10 27
-5 0 -10 -6 -10 -12z"/>
<path d="M5633 990 c0 -30 2 -43 4 -27 2 15 2 39 0 55 -2 15 -4 2 -4 -28z"/>
<path d="M5670 988 c0 -59 18 -64 22 -5 2 29 8 42 18 42 10 0 16 -13 18 -42 4
-54 22 -57 22 -4 0 45 -14 60 -52 58 -26 -2 -28 -5 -28 -49z"/>
<path d="M5781 1026 c-17 -20 -10 -67 12 -80 19 -12 48 0 55 25 4 10 -1 8 -16
-4 -26 -24 -42 -15 -42 23 0 34 15 47 36 29 8 -6 18 -9 21 -5 9 9 -16 26 -38
26 -9 0 -22 -6 -28 -14z"/>
<path d="M5910 1001 c0 -45 14 -60 52 -58 27 2 28 4 26 52 -1 42 -2 44 -5 13
-8 -70 -53 -76 -53 -7 0 21 -4 39 -10 39 -5 0 -10 -17 -10 -39z"/>
<path d="M6136 1024 c-43 -42 13 -107 64 -74 8 5 11 12 7 16 -3 4 -14 1 -22
-6 -13 -11 -19 -11 -33 3 -15 16 -14 17 21 17 29 0 37 4 37 18 0 39 -45 55
-74 26z m52 -17 c3 -12 -4 -17 -22 -17 -28 0 -33 9 -14 28 15 15 32 10 36 -11z"/>
<path d="M5892 845 c0 -16 2 -22 5 -12 2 9 2 23 0 30 -3 6 -5 -1 -5 -18z"/>
<path d="M5880 742 c0 -17 -16 -20 -163 -30 -277 -20 -462 -61 -592 -131 -210
-112 -124 -260 200 -341 181 -46 276 -55 565 -55 289 0 384 9 565 55 324 81
410 229 200 341 -130 70 -315 111 -592 131 -147 10 -163 13 -163 30 0 10 -4
18 -10 18 -5 0 -10 -8 -10 -18z m293 -57 c341 -36 576 -131 579 -234 1 -44
-27 -79 -98 -118 -227 -127 -778 -175 -1196 -104 -196 34 -365 101 -411 164
-143 190 504 358 1126 292z"/>
<path d="M5140 455 l0 -75 43 0 c24 0 48 5 55 12 15 15 16 54 2 63 -7 4 -7 12
0 25 15 27 -13 50 -61 50 l-39 0 0 -75z m85 35 c0 -10 -12 -16 -32 -18 -28 -3
-33 0 -33 18 0 18 5 21 33 18 20 -2 32 -8 32 -18z m0 -65 c0 -15 -8 -21 -32
-23 -30 -3 -33 -1 -33 23 0 24 3 26 33 23 24 -2 32 -8 32 -23z"/>
<path d="M5448 519 c-23 -13 -25 -110 -4 -129 23 -18 59 -8 75 21 13 24 13 29
-3 54 -15 22 -23 26 -46 21 -23 -4 -28 -2 -23 9 3 9 18 15 39 15 19 0 34 5 34
10 0 13 -50 12 -72 -1z m60 -80 c3 -30 -18 -52 -42 -43 -16 6 -23 54 -9 68 16
16 48 1 51 -25z"/>
<path d="M5280 435 l0 -55 34 0 c63 0 75 61 12 68 -18 2 -26 9 -26 23 0 10 -4
19 -10 19 -5 0 -10 -25 -10 -55z m70 -20 c0 -9 -9 -15 -25 -15 -16 0 -25 6
-25 15 0 9 9 15 25 15 16 0 25 -6 25 -15z"/>
<path d="M5380 435 c0 -30 5 -55 10 -55 6 0 10 25 10 55 0 30 -4 55 -10 55 -5
0 -10 -25 -10 -55z"/>
<path d="M5550 413 c0 -42 4 -73 10 -73 6 0 10 11 10 24 0 19 4 23 20 19 29
-8 50 14 50 52 0 40 -16 54 -58 53 l-32 -1 0 -74z m72 40 c7 -33 -4 -54 -26
-51 -37 5 -34 68 3 68 11 0 21 -8 23 -17z"/>
<path d="M5683 483 c-7 -2 -13 -12 -13 -21 0 -12 3 -13 12 -4 15 15 58 16 58
2 0 -6 -13 -13 -30 -16 -68 -14 -60 -64 11 -61 37 1 39 3 39 35 0 60 -29 85
-77 65z m55 -65 c-5 -15 -58 -24 -58 -10 0 15 12 22 38 22 14 0 22 -5 20 -12z"/>
<path d="M5770 480 c0 -5 7 -10 15 -10 11 0 15 -12 15 -45 0 -25 5 -45 10 -45
6 0 10 20 10 45 0 33 4 45 14 45 8 0 18 5 21 10 4 6 -12 10 -39 10 -25 0 -46
-4 -46 -10z"/>
<path d="M5870 435 c0 -54 0 -55 29 -55 44 0 61 10 61 35 0 23 -17 35 -51 35
-12 0 -19 7 -19 20 0 11 -4 20 -10 20 -5 0 -10 -25 -10 -55z m70 -20 c0 -9 -9
-15 -25 -15 -16 0 -25 6 -25 15 0 9 9 15 25 15 16 0 25 -6 25 -15z"/>
<path d="M6051 440 c23 -61 24 -80 4 -80 -8 0 -15 -5 -15 -11 0 -6 8 -9 17 -7
11 2 28 28 45 68 30 74 32 80 19 80 -5 0 -16 -19 -24 -42 -10 -28 -17 -38 -21
-28 -3 8 -10 27 -15 43 -6 15 -15 27 -20 27 -5 0 -1 -23 10 -50z"/>
<path d="M6156 474 c-32 -31 -10 -94 33 -94 21 0 47 27 37 37 -4 4 -11 1 -15
-6 -15 -24 -46 -8 -46 24 0 32 31 48 46 24 4 -7 11 -10 15 -6 10 10 -16 37
-37 37 -9 0 -25 -7 -33 -16z"/>
<path d="M6260 445 c0 -25 -4 -45 -10 -45 -5 0 -10 -4 -10 -10 0 -16 27 -11
34 6 3 9 6 29 6 45 0 24 4 29 24 29 22 0 25 -5 29 -47 3 -47 3 -47 5 10 l2 57
-40 0 -40 0 0 -45z"/>
<path d="M6381 440 c23 -61 24 -80 4 -80 -8 0 -15 -5 -15 -11 0 -6 8 -9 17 -7
11 2 28 28 45 68 30 74 32 80 19 80 -5 0 -16 -19 -24 -42 -10 -28 -17 -38 -21
-28 -3 8 -10 27 -15 43 -6 15 -15 27 -20 27 -5 0 -1 -23 10 -50z"/>
<path d="M6480 435 c0 -30 5 -55 10 -55 6 0 10 20 10 45 0 38 3 45 20 45 11 0
20 5 20 10 0 6 -13 10 -30 10 -30 0 -30 -1 -30 -55z"/>
<path d="M6550 435 c0 -68 16 -72 51 -12 l24 42 6 -45 6 -45 1 58 c1 31 -1 57
-5 57 -5 0 -20 -19 -35 -43 l-28 -42 0 43 c0 23 -4 42 -10 42 -5 0 -10 -25
-10 -55z"/>
</g>
</svg>
